G75*
%MOIN*%
%OFA0B0*%
%FSLAX25Y25*%
%IPPOS*%
%LPD*%
%AMOC8*
5,1,8,0,0,1.08239X$1,22.5*
%
%ADD10R,0.07874X0.04724*%
%ADD11R,0.05315X0.02362*%
%ADD12R,0.03543X0.03346*%
%ADD13R,0.03346X0.03543*%
%ADD14R,0.04331X0.03937*%
%ADD15C,0.01181*%
%ADD16R,0.03937X0.04331*%
D10*
X0048873Y0067726D03*
X0048873Y0089774D03*
X0048873Y0169726D03*
X0048873Y0191774D03*
X0048873Y0271726D03*
X0048873Y0293774D03*
X0048873Y0373726D03*
X0048873Y0395774D03*
X0048873Y0475726D03*
X0048873Y0497774D03*
X0048873Y0577726D03*
X0048873Y0599774D03*
X0048873Y0679726D03*
X0048873Y0701774D03*
X0147810Y0701774D03*
X0160873Y0701774D03*
X0160873Y0679726D03*
X0147810Y0679726D03*
X0147810Y0599774D03*
X0160873Y0599774D03*
X0160873Y0577726D03*
X0147810Y0577726D03*
X0147810Y0497774D03*
X0160873Y0497774D03*
X0160873Y0475726D03*
X0147810Y0475726D03*
X0147810Y0395774D03*
X0147810Y0373726D03*
X0160873Y0373726D03*
X0160873Y0395774D03*
X0160873Y0293774D03*
X0147810Y0293774D03*
X0147810Y0271726D03*
X0160873Y0271726D03*
X0160873Y0191774D03*
X0147810Y0191774D03*
X0147810Y0169726D03*
X0160873Y0169726D03*
X0160873Y0089774D03*
X0147810Y0089774D03*
X0147810Y0067726D03*
X0160873Y0067726D03*
X0259810Y0067726D03*
X0272873Y0067726D03*
X0272873Y0089774D03*
X0259810Y0089774D03*
X0259810Y0169726D03*
X0272873Y0169726D03*
X0272873Y0191774D03*
X0259810Y0191774D03*
X0259810Y0271726D03*
X0272873Y0271726D03*
X0272873Y0293774D03*
X0259810Y0293774D03*
X0259810Y0373726D03*
X0259810Y0395774D03*
X0272873Y0395774D03*
X0272873Y0373726D03*
X0272873Y0475726D03*
X0259810Y0475726D03*
X0259810Y0497774D03*
X0272873Y0497774D03*
X0272873Y0577726D03*
X0259810Y0577726D03*
X0259810Y0599774D03*
X0272873Y0599774D03*
X0272873Y0679726D03*
X0259810Y0679726D03*
X0259810Y0701774D03*
X0272873Y0701774D03*
X0371810Y0701774D03*
X0384873Y0701774D03*
X0384873Y0679726D03*
X0371810Y0679726D03*
X0371810Y0599774D03*
X0384873Y0599774D03*
X0384873Y0577726D03*
X0371810Y0577726D03*
X0371810Y0497774D03*
X0384873Y0497774D03*
X0384873Y0475726D03*
X0371810Y0475726D03*
X0371810Y0395774D03*
X0384873Y0395774D03*
X0384873Y0373726D03*
X0371810Y0373726D03*
X0371810Y0293774D03*
X0384873Y0293774D03*
X0384873Y0271726D03*
X0371810Y0271726D03*
X0371810Y0191774D03*
X0384873Y0191774D03*
X0384873Y0169726D03*
X0371810Y0169726D03*
X0371810Y0089774D03*
X0384873Y0089774D03*
X0384873Y0067726D03*
X0371810Y0067726D03*
X0483810Y0067726D03*
X0483810Y0089774D03*
X0483810Y0169726D03*
X0483810Y0191774D03*
X0483810Y0271726D03*
X0483810Y0293774D03*
X0483810Y0373726D03*
X0483810Y0395774D03*
X0483810Y0475726D03*
X0483810Y0497774D03*
X0483810Y0577726D03*
X0483810Y0599774D03*
X0483810Y0679726D03*
X0483810Y0701774D03*
D11*
X0469342Y0696656D03*
X0469342Y0692719D03*
X0469342Y0688781D03*
X0469342Y0684844D03*
X0469342Y0594656D03*
X0469342Y0590719D03*
X0469342Y0586781D03*
X0469342Y0582844D03*
X0399342Y0582844D03*
X0399342Y0586781D03*
X0399342Y0590719D03*
X0399342Y0594656D03*
X0357342Y0594656D03*
X0357342Y0590719D03*
X0357342Y0586781D03*
X0357342Y0582844D03*
X0287342Y0582844D03*
X0287342Y0586781D03*
X0287342Y0590719D03*
X0287342Y0594656D03*
X0245342Y0594656D03*
X0245342Y0590719D03*
X0245342Y0586781D03*
X0245342Y0582844D03*
X0175342Y0582844D03*
X0175342Y0586781D03*
X0175342Y0590719D03*
X0175342Y0594656D03*
X0133342Y0594656D03*
X0133342Y0590719D03*
X0133342Y0586781D03*
X0133342Y0582844D03*
X0063342Y0582844D03*
X0063342Y0586781D03*
X0063342Y0590719D03*
X0063342Y0594656D03*
X0063342Y0684844D03*
X0063342Y0688781D03*
X0063342Y0692719D03*
X0063342Y0696656D03*
X0133342Y0696656D03*
X0133342Y0692719D03*
X0133342Y0688781D03*
X0133342Y0684844D03*
X0175342Y0684844D03*
X0175342Y0688781D03*
X0175342Y0692719D03*
X0175342Y0696656D03*
X0245342Y0696656D03*
X0245342Y0692719D03*
X0245342Y0688781D03*
X0245342Y0684844D03*
X0287342Y0684844D03*
X0287342Y0688781D03*
X0287342Y0692719D03*
X0287342Y0696656D03*
X0357342Y0696656D03*
X0357342Y0692719D03*
X0357342Y0688781D03*
X0357342Y0684844D03*
X0399342Y0684844D03*
X0399342Y0688781D03*
X0399342Y0692719D03*
X0399342Y0696656D03*
X0399342Y0492656D03*
X0399342Y0488719D03*
X0399342Y0484781D03*
X0399342Y0480844D03*
X0357342Y0480844D03*
X0357342Y0484781D03*
X0357342Y0488719D03*
X0357342Y0492656D03*
X0287342Y0492656D03*
X0287342Y0488719D03*
X0287342Y0484781D03*
X0287342Y0480844D03*
X0245342Y0480844D03*
X0245342Y0484781D03*
X0245342Y0488719D03*
X0245342Y0492656D03*
X0175342Y0492656D03*
X0175342Y0488719D03*
X0175342Y0484781D03*
X0175342Y0480844D03*
X0133342Y0480844D03*
X0133342Y0484781D03*
X0133342Y0488719D03*
X0133342Y0492656D03*
X0063342Y0492656D03*
X0063342Y0488719D03*
X0063342Y0484781D03*
X0063342Y0480844D03*
X0063342Y0390656D03*
X0063342Y0386719D03*
X0063342Y0382781D03*
X0063342Y0378844D03*
X0063342Y0288656D03*
X0063342Y0284719D03*
X0063342Y0280781D03*
X0063342Y0276844D03*
X0063342Y0186656D03*
X0063342Y0182719D03*
X0063342Y0178781D03*
X0063342Y0174844D03*
X0063342Y0084656D03*
X0063342Y0080719D03*
X0063342Y0076781D03*
X0063342Y0072844D03*
X0133342Y0072844D03*
X0133342Y0076781D03*
X0133342Y0080719D03*
X0133342Y0084656D03*
X0175342Y0084656D03*
X0175342Y0080719D03*
X0175342Y0076781D03*
X0175342Y0072844D03*
X0245342Y0072844D03*
X0245342Y0076781D03*
X0245342Y0080719D03*
X0245342Y0084656D03*
X0287342Y0084656D03*
X0287342Y0080719D03*
X0287342Y0076781D03*
X0287342Y0072844D03*
X0357342Y0072844D03*
X0357342Y0076781D03*
X0357342Y0080719D03*
X0357342Y0084656D03*
X0399342Y0084656D03*
X0399342Y0080719D03*
X0399342Y0076781D03*
X0399342Y0072844D03*
X0469342Y0072844D03*
X0469342Y0076781D03*
X0469342Y0080719D03*
X0469342Y0084656D03*
X0469342Y0174844D03*
X0469342Y0178781D03*
X0469342Y0182719D03*
X0469342Y0186656D03*
X0469342Y0276844D03*
X0469342Y0280781D03*
X0469342Y0284719D03*
X0469342Y0288656D03*
X0469342Y0378844D03*
X0469342Y0382781D03*
X0469342Y0386719D03*
X0469342Y0390656D03*
X0469342Y0480844D03*
X0469342Y0484781D03*
X0469342Y0488719D03*
X0469342Y0492656D03*
X0399342Y0390656D03*
X0399342Y0386719D03*
X0399342Y0382781D03*
X0399342Y0378844D03*
X0357342Y0378844D03*
X0357342Y0382781D03*
X0357342Y0386719D03*
X0357342Y0390656D03*
X0287342Y0390656D03*
X0287342Y0386719D03*
X0287342Y0382781D03*
X0287342Y0378844D03*
X0245342Y0378844D03*
X0245342Y0382781D03*
X0245342Y0386719D03*
X0245342Y0390656D03*
X0175342Y0390656D03*
X0175342Y0386719D03*
X0175342Y0382781D03*
X0175342Y0378844D03*
X0133342Y0378844D03*
X0133342Y0382781D03*
X0133342Y0386719D03*
X0133342Y0390656D03*
X0133342Y0288656D03*
X0133342Y0284719D03*
X0133342Y0280781D03*
X0133342Y0276844D03*
X0175342Y0276844D03*
X0175342Y0280781D03*
X0175342Y0284719D03*
X0175342Y0288656D03*
X0245342Y0288656D03*
X0245342Y0284719D03*
X0245342Y0280781D03*
X0245342Y0276844D03*
X0287342Y0276844D03*
X0287342Y0280781D03*
X0287342Y0284719D03*
X0287342Y0288656D03*
X0357342Y0288656D03*
X0357342Y0284719D03*
X0357342Y0280781D03*
X0357342Y0276844D03*
X0399342Y0276844D03*
X0399342Y0280781D03*
X0399342Y0284719D03*
X0399342Y0288656D03*
X0399342Y0186656D03*
X0399342Y0182719D03*
X0399342Y0178781D03*
X0399342Y0174844D03*
X0357342Y0174844D03*
X0357342Y0178781D03*
X0357342Y0182719D03*
X0357342Y0186656D03*
X0287342Y0186656D03*
X0287342Y0182719D03*
X0287342Y0178781D03*
X0287342Y0174844D03*
X0245342Y0174844D03*
X0245342Y0178781D03*
X0245342Y0182719D03*
X0245342Y0186656D03*
X0175342Y0186656D03*
X0175342Y0182719D03*
X0175342Y0178781D03*
X0175342Y0174844D03*
X0133342Y0174844D03*
X0133342Y0178781D03*
X0133342Y0182719D03*
X0133342Y0186656D03*
D12*
X0105342Y0173233D03*
X0105342Y0168667D03*
X0099742Y0168667D03*
X0099742Y0173233D03*
X0094242Y0173233D03*
X0094242Y0168667D03*
X0068342Y0200367D03*
X0068342Y0204933D03*
X0062542Y0204933D03*
X0062542Y0200367D03*
X0087242Y0203367D03*
X0087242Y0207933D03*
X0093042Y0207933D03*
X0093042Y0203367D03*
X0094242Y0270667D03*
X0094242Y0275233D03*
X0099742Y0275233D03*
X0099742Y0270667D03*
X0105342Y0270667D03*
X0105342Y0275233D03*
X0093042Y0305367D03*
X0093042Y0309933D03*
X0087242Y0309933D03*
X0087242Y0305367D03*
X0068342Y0306933D03*
X0068342Y0302367D03*
X0062542Y0302367D03*
X0062542Y0306933D03*
X0094242Y0372667D03*
X0094242Y0377233D03*
X0099742Y0377233D03*
X0099742Y0372667D03*
X0105342Y0372667D03*
X0105342Y0377233D03*
X0093042Y0407367D03*
X0093042Y0411933D03*
X0087242Y0411933D03*
X0087242Y0407367D03*
X0068342Y0408933D03*
X0068342Y0404367D03*
X0062542Y0404367D03*
X0062542Y0408933D03*
X0094242Y0474667D03*
X0094242Y0479233D03*
X0099742Y0479233D03*
X0099742Y0474667D03*
X0105342Y0474667D03*
X0105342Y0479233D03*
X0093042Y0509367D03*
X0093042Y0513933D03*
X0087242Y0513933D03*
X0087242Y0509367D03*
X0068342Y0510933D03*
X0068342Y0506367D03*
X0062542Y0506367D03*
X0062542Y0510933D03*
X0094242Y0576667D03*
X0094242Y0581233D03*
X0099742Y0581233D03*
X0099742Y0576667D03*
X0105342Y0576667D03*
X0105342Y0581233D03*
X0093042Y0611367D03*
X0093042Y0615933D03*
X0087242Y0615933D03*
X0087242Y0611367D03*
X0068342Y0612933D03*
X0068342Y0608367D03*
X0062542Y0608367D03*
X0062542Y0612933D03*
X0094242Y0678667D03*
X0094242Y0683233D03*
X0099742Y0683233D03*
X0099742Y0678667D03*
X0105342Y0678667D03*
X0105342Y0683233D03*
X0093042Y0713367D03*
X0093042Y0717933D03*
X0087242Y0717933D03*
X0087242Y0713367D03*
X0068342Y0714933D03*
X0068342Y0710367D03*
X0062542Y0710367D03*
X0062542Y0714933D03*
X0174542Y0714933D03*
X0174542Y0710367D03*
X0180342Y0710367D03*
X0180342Y0714933D03*
X0199242Y0713367D03*
X0199242Y0717933D03*
X0205042Y0717933D03*
X0205042Y0713367D03*
X0206242Y0683233D03*
X0206242Y0678667D03*
X0211742Y0678667D03*
X0211742Y0683233D03*
X0217342Y0683233D03*
X0217342Y0678667D03*
X0205042Y0615933D03*
X0205042Y0611367D03*
X0199242Y0611367D03*
X0199242Y0615933D03*
X0180342Y0612933D03*
X0180342Y0608367D03*
X0174542Y0608367D03*
X0174542Y0612933D03*
X0206242Y0581233D03*
X0206242Y0576667D03*
X0211742Y0576667D03*
X0211742Y0581233D03*
X0217342Y0581233D03*
X0217342Y0576667D03*
X0205042Y0513933D03*
X0205042Y0509367D03*
X0199242Y0509367D03*
X0199242Y0513933D03*
X0180342Y0510933D03*
X0180342Y0506367D03*
X0174542Y0506367D03*
X0174542Y0510933D03*
X0206242Y0479233D03*
X0206242Y0474667D03*
X0211742Y0474667D03*
X0211742Y0479233D03*
X0217342Y0479233D03*
X0217342Y0474667D03*
X0205042Y0411933D03*
X0205042Y0407367D03*
X0199242Y0407367D03*
X0199242Y0411933D03*
X0180342Y0408933D03*
X0180342Y0404367D03*
X0174542Y0404367D03*
X0174542Y0408933D03*
X0206242Y0377233D03*
X0206242Y0372667D03*
X0211742Y0372667D03*
X0211742Y0377233D03*
X0217342Y0377233D03*
X0217342Y0372667D03*
X0205042Y0309933D03*
X0205042Y0305367D03*
X0199242Y0305367D03*
X0199242Y0309933D03*
X0180342Y0306933D03*
X0180342Y0302367D03*
X0174542Y0302367D03*
X0174542Y0306933D03*
X0206242Y0275233D03*
X0206242Y0270667D03*
X0211742Y0270667D03*
X0211742Y0275233D03*
X0217342Y0275233D03*
X0217342Y0270667D03*
X0205042Y0207933D03*
X0205042Y0203367D03*
X0199242Y0203367D03*
X0199242Y0207933D03*
X0180342Y0204933D03*
X0180342Y0200367D03*
X0174542Y0200367D03*
X0174542Y0204933D03*
X0206242Y0173233D03*
X0206242Y0168667D03*
X0211742Y0168667D03*
X0211742Y0173233D03*
X0217342Y0173233D03*
X0217342Y0168667D03*
X0205042Y0105933D03*
X0205042Y0101367D03*
X0199242Y0101367D03*
X0199242Y0105933D03*
X0180342Y0102933D03*
X0180342Y0098367D03*
X0174542Y0098367D03*
X0174542Y0102933D03*
X0206242Y0071233D03*
X0206242Y0066667D03*
X0211742Y0066667D03*
X0211742Y0071233D03*
X0217342Y0071233D03*
X0217342Y0066667D03*
X0286542Y0098367D03*
X0286542Y0102933D03*
X0292342Y0102933D03*
X0292342Y0098367D03*
X0311242Y0101367D03*
X0311242Y0105933D03*
X0317042Y0105933D03*
X0317042Y0101367D03*
X0318242Y0071233D03*
X0318242Y0066667D03*
X0323742Y0066667D03*
X0323742Y0071233D03*
X0329342Y0071233D03*
X0329342Y0066667D03*
X0398542Y0098367D03*
X0398542Y0102933D03*
X0404342Y0102933D03*
X0404342Y0098367D03*
X0423242Y0101367D03*
X0423242Y0105933D03*
X0429042Y0105933D03*
X0429042Y0101367D03*
X0430242Y0071233D03*
X0430242Y0066667D03*
X0435742Y0066667D03*
X0435742Y0071233D03*
X0441342Y0071233D03*
X0441342Y0066667D03*
X0441342Y0168667D03*
X0441342Y0173233D03*
X0435742Y0173233D03*
X0435742Y0168667D03*
X0430242Y0168667D03*
X0430242Y0173233D03*
X0429042Y0203367D03*
X0429042Y0207933D03*
X0423242Y0207933D03*
X0423242Y0203367D03*
X0404342Y0204933D03*
X0404342Y0200367D03*
X0398542Y0200367D03*
X0398542Y0204933D03*
X0430242Y0270667D03*
X0430242Y0275233D03*
X0435742Y0275233D03*
X0435742Y0270667D03*
X0441342Y0270667D03*
X0441342Y0275233D03*
X0429042Y0305367D03*
X0429042Y0309933D03*
X0423242Y0309933D03*
X0423242Y0305367D03*
X0404342Y0306933D03*
X0404342Y0302367D03*
X0398542Y0302367D03*
X0398542Y0306933D03*
X0430242Y0372667D03*
X0430242Y0377233D03*
X0435742Y0377233D03*
X0435742Y0372667D03*
X0441342Y0372667D03*
X0441342Y0377233D03*
X0429042Y0407367D03*
X0429042Y0411933D03*
X0423242Y0411933D03*
X0423242Y0407367D03*
X0404342Y0408933D03*
X0404342Y0404367D03*
X0398542Y0404367D03*
X0398542Y0408933D03*
X0430242Y0474667D03*
X0430242Y0479233D03*
X0435742Y0479233D03*
X0435742Y0474667D03*
X0441342Y0474667D03*
X0441342Y0479233D03*
X0429042Y0509367D03*
X0429042Y0513933D03*
X0423242Y0513933D03*
X0423242Y0509367D03*
X0404342Y0510933D03*
X0404342Y0506367D03*
X0398542Y0506367D03*
X0398542Y0510933D03*
X0430242Y0576667D03*
X0430242Y0581233D03*
X0435742Y0581233D03*
X0435742Y0576667D03*
X0441342Y0576667D03*
X0441342Y0581233D03*
X0429042Y0611367D03*
X0429042Y0615933D03*
X0423242Y0615933D03*
X0423242Y0611367D03*
X0404342Y0612933D03*
X0404342Y0608367D03*
X0398542Y0608367D03*
X0398542Y0612933D03*
X0430242Y0678667D03*
X0430242Y0683233D03*
X0435742Y0683233D03*
X0435742Y0678667D03*
X0441342Y0678667D03*
X0441342Y0683233D03*
X0429042Y0713367D03*
X0429042Y0717933D03*
X0423242Y0717933D03*
X0423242Y0713367D03*
X0404342Y0714933D03*
X0404342Y0710367D03*
X0398542Y0710367D03*
X0398542Y0714933D03*
X0329342Y0683233D03*
X0329342Y0678667D03*
X0323742Y0678667D03*
X0323742Y0683233D03*
X0318242Y0683233D03*
X0318242Y0678667D03*
X0292342Y0710367D03*
X0292342Y0714933D03*
X0286542Y0714933D03*
X0286542Y0710367D03*
X0311242Y0713367D03*
X0311242Y0717933D03*
X0317042Y0717933D03*
X0317042Y0713367D03*
X0317042Y0615933D03*
X0317042Y0611367D03*
X0311242Y0611367D03*
X0311242Y0615933D03*
X0292342Y0612933D03*
X0292342Y0608367D03*
X0286542Y0608367D03*
X0286542Y0612933D03*
X0318242Y0581233D03*
X0318242Y0576667D03*
X0323742Y0576667D03*
X0323742Y0581233D03*
X0329342Y0581233D03*
X0329342Y0576667D03*
X0317042Y0513933D03*
X0317042Y0509367D03*
X0311242Y0509367D03*
X0311242Y0513933D03*
X0292342Y0510933D03*
X0292342Y0506367D03*
X0286542Y0506367D03*
X0286542Y0510933D03*
X0318242Y0479233D03*
X0318242Y0474667D03*
X0323742Y0474667D03*
X0323742Y0479233D03*
X0329342Y0479233D03*
X0329342Y0474667D03*
X0317042Y0411933D03*
X0317042Y0407367D03*
X0311242Y0407367D03*
X0311242Y0411933D03*
X0292342Y0408933D03*
X0292342Y0404367D03*
X0286542Y0404367D03*
X0286542Y0408933D03*
X0318242Y0377233D03*
X0318242Y0372667D03*
X0323742Y0372667D03*
X0323742Y0377233D03*
X0329342Y0377233D03*
X0329342Y0372667D03*
X0317042Y0309933D03*
X0317042Y0305367D03*
X0311242Y0305367D03*
X0311242Y0309933D03*
X0292342Y0306933D03*
X0292342Y0302367D03*
X0286542Y0302367D03*
X0286542Y0306933D03*
X0318242Y0275233D03*
X0318242Y0270667D03*
X0323742Y0270667D03*
X0323742Y0275233D03*
X0329342Y0275233D03*
X0329342Y0270667D03*
X0317042Y0207933D03*
X0317042Y0203367D03*
X0311242Y0203367D03*
X0311242Y0207933D03*
X0292342Y0204933D03*
X0292342Y0200367D03*
X0286542Y0200367D03*
X0286542Y0204933D03*
X0318242Y0173233D03*
X0318242Y0168667D03*
X0323742Y0168667D03*
X0323742Y0173233D03*
X0329342Y0173233D03*
X0329342Y0168667D03*
X0105342Y0071233D03*
X0105342Y0066667D03*
X0099742Y0066667D03*
X0099742Y0071233D03*
X0094242Y0071233D03*
X0094242Y0066667D03*
X0093042Y0101367D03*
X0093042Y0105933D03*
X0087242Y0105933D03*
X0087242Y0101367D03*
X0068342Y0102933D03*
X0068342Y0098367D03*
X0062542Y0098367D03*
X0062542Y0102933D03*
D13*
X0076058Y0085250D03*
X0080625Y0085250D03*
X0113458Y0088750D03*
X0118025Y0088750D03*
X0117725Y0094250D03*
X0113158Y0094250D03*
X0113858Y0076150D03*
X0118425Y0076150D03*
X0132058Y0101050D03*
X0136625Y0101050D03*
X0144358Y0095850D03*
X0148925Y0095850D03*
X0188058Y0085250D03*
X0192625Y0085250D03*
X0225458Y0088750D03*
X0230025Y0088750D03*
X0229725Y0094250D03*
X0225158Y0094250D03*
X0225858Y0076150D03*
X0230425Y0076150D03*
X0244058Y0101050D03*
X0248625Y0101050D03*
X0256358Y0095850D03*
X0260925Y0095850D03*
X0300058Y0085250D03*
X0304625Y0085250D03*
X0337458Y0088750D03*
X0342025Y0088750D03*
X0341725Y0094250D03*
X0337158Y0094250D03*
X0337858Y0076150D03*
X0342425Y0076150D03*
X0356058Y0101050D03*
X0360625Y0101050D03*
X0368358Y0095850D03*
X0372925Y0095850D03*
X0412058Y0085250D03*
X0416625Y0085250D03*
X0449458Y0088750D03*
X0454025Y0088750D03*
X0453725Y0094250D03*
X0449158Y0094250D03*
X0449858Y0076150D03*
X0454425Y0076150D03*
X0468058Y0101050D03*
X0472625Y0101050D03*
X0480358Y0095850D03*
X0484925Y0095850D03*
X0454425Y0178150D03*
X0449858Y0178150D03*
X0449458Y0190750D03*
X0454025Y0190750D03*
X0453725Y0196250D03*
X0449158Y0196250D03*
X0468058Y0203050D03*
X0472625Y0203050D03*
X0480358Y0197850D03*
X0484925Y0197850D03*
X0454425Y0280150D03*
X0449858Y0280150D03*
X0449458Y0292750D03*
X0454025Y0292750D03*
X0453725Y0298250D03*
X0449158Y0298250D03*
X0468058Y0305050D03*
X0472625Y0305050D03*
X0480358Y0299850D03*
X0484925Y0299850D03*
X0454425Y0382150D03*
X0449858Y0382150D03*
X0449458Y0394750D03*
X0454025Y0394750D03*
X0453725Y0400250D03*
X0449158Y0400250D03*
X0468058Y0407050D03*
X0472625Y0407050D03*
X0480358Y0401850D03*
X0484925Y0401850D03*
X0454425Y0484150D03*
X0449858Y0484150D03*
X0449458Y0496750D03*
X0454025Y0496750D03*
X0453725Y0502250D03*
X0449158Y0502250D03*
X0468058Y0509050D03*
X0472625Y0509050D03*
X0480358Y0503850D03*
X0484925Y0503850D03*
X0454425Y0586150D03*
X0449858Y0586150D03*
X0449458Y0598750D03*
X0454025Y0598750D03*
X0453725Y0604250D03*
X0449158Y0604250D03*
X0468058Y0611050D03*
X0472625Y0611050D03*
X0480358Y0605850D03*
X0484925Y0605850D03*
X0416625Y0595250D03*
X0412058Y0595250D03*
X0372925Y0605850D03*
X0368358Y0605850D03*
X0360625Y0611050D03*
X0356058Y0611050D03*
X0341725Y0604250D03*
X0337158Y0604250D03*
X0337458Y0598750D03*
X0342025Y0598750D03*
X0342425Y0586150D03*
X0337858Y0586150D03*
X0304625Y0595250D03*
X0300058Y0595250D03*
X0260925Y0605850D03*
X0256358Y0605850D03*
X0248625Y0611050D03*
X0244058Y0611050D03*
X0229725Y0604250D03*
X0225158Y0604250D03*
X0225458Y0598750D03*
X0230025Y0598750D03*
X0230425Y0586150D03*
X0225858Y0586150D03*
X0192625Y0595250D03*
X0188058Y0595250D03*
X0148925Y0605850D03*
X0144358Y0605850D03*
X0136625Y0611050D03*
X0132058Y0611050D03*
X0117725Y0604250D03*
X0113158Y0604250D03*
X0113458Y0598750D03*
X0118025Y0598750D03*
X0118425Y0586150D03*
X0113858Y0586150D03*
X0080625Y0595250D03*
X0076058Y0595250D03*
X0113158Y0502250D03*
X0117725Y0502250D03*
X0118025Y0496750D03*
X0113458Y0496750D03*
X0113858Y0484150D03*
X0118425Y0484150D03*
X0132058Y0509050D03*
X0136625Y0509050D03*
X0144358Y0503850D03*
X0148925Y0503850D03*
X0188058Y0493250D03*
X0192625Y0493250D03*
X0225458Y0496750D03*
X0230025Y0496750D03*
X0229725Y0502250D03*
X0225158Y0502250D03*
X0225858Y0484150D03*
X0230425Y0484150D03*
X0244058Y0509050D03*
X0248625Y0509050D03*
X0256358Y0503850D03*
X0260925Y0503850D03*
X0300058Y0493250D03*
X0304625Y0493250D03*
X0337458Y0496750D03*
X0342025Y0496750D03*
X0341725Y0502250D03*
X0337158Y0502250D03*
X0337858Y0484150D03*
X0342425Y0484150D03*
X0356058Y0509050D03*
X0360625Y0509050D03*
X0368358Y0503850D03*
X0372925Y0503850D03*
X0412058Y0493250D03*
X0416625Y0493250D03*
X0360625Y0407050D03*
X0356058Y0407050D03*
X0368358Y0401850D03*
X0372925Y0401850D03*
X0341725Y0400250D03*
X0337158Y0400250D03*
X0337458Y0394750D03*
X0342025Y0394750D03*
X0342425Y0382150D03*
X0337858Y0382150D03*
X0304625Y0391250D03*
X0300058Y0391250D03*
X0260925Y0401850D03*
X0256358Y0401850D03*
X0248625Y0407050D03*
X0244058Y0407050D03*
X0229725Y0400250D03*
X0225158Y0400250D03*
X0225458Y0394750D03*
X0230025Y0394750D03*
X0230425Y0382150D03*
X0225858Y0382150D03*
X0192625Y0391250D03*
X0188058Y0391250D03*
X0148925Y0401850D03*
X0144358Y0401850D03*
X0136625Y0407050D03*
X0132058Y0407050D03*
X0117725Y0400250D03*
X0113158Y0400250D03*
X0113458Y0394750D03*
X0118025Y0394750D03*
X0118425Y0382150D03*
X0113858Y0382150D03*
X0080625Y0391250D03*
X0076058Y0391250D03*
X0132058Y0305050D03*
X0136625Y0305050D03*
X0144358Y0299850D03*
X0148925Y0299850D03*
X0117725Y0298250D03*
X0113158Y0298250D03*
X0113458Y0292750D03*
X0118025Y0292750D03*
X0118425Y0280150D03*
X0113858Y0280150D03*
X0080625Y0289250D03*
X0076058Y0289250D03*
X0132058Y0203050D03*
X0136625Y0203050D03*
X0144358Y0197850D03*
X0148925Y0197850D03*
X0117725Y0196250D03*
X0113158Y0196250D03*
X0113458Y0190750D03*
X0118025Y0190750D03*
X0118425Y0178150D03*
X0113858Y0178150D03*
X0080625Y0187250D03*
X0076058Y0187250D03*
X0188058Y0187250D03*
X0192625Y0187250D03*
X0225458Y0190750D03*
X0230025Y0190750D03*
X0229725Y0196250D03*
X0225158Y0196250D03*
X0225858Y0178150D03*
X0230425Y0178150D03*
X0244058Y0203050D03*
X0248625Y0203050D03*
X0256358Y0197850D03*
X0260925Y0197850D03*
X0300058Y0187250D03*
X0304625Y0187250D03*
X0337458Y0190750D03*
X0342025Y0190750D03*
X0341725Y0196250D03*
X0337158Y0196250D03*
X0337858Y0178150D03*
X0342425Y0178150D03*
X0356058Y0203050D03*
X0360625Y0203050D03*
X0368358Y0197850D03*
X0372925Y0197850D03*
X0412058Y0187250D03*
X0416625Y0187250D03*
X0416625Y0289250D03*
X0412058Y0289250D03*
X0372925Y0299850D03*
X0368358Y0299850D03*
X0360625Y0305050D03*
X0356058Y0305050D03*
X0341725Y0298250D03*
X0337158Y0298250D03*
X0337458Y0292750D03*
X0342025Y0292750D03*
X0342425Y0280150D03*
X0337858Y0280150D03*
X0304625Y0289250D03*
X0300058Y0289250D03*
X0260925Y0299850D03*
X0256358Y0299850D03*
X0248625Y0305050D03*
X0244058Y0305050D03*
X0229725Y0298250D03*
X0225158Y0298250D03*
X0225458Y0292750D03*
X0230025Y0292750D03*
X0230425Y0280150D03*
X0225858Y0280150D03*
X0192625Y0289250D03*
X0188058Y0289250D03*
X0080625Y0493250D03*
X0076058Y0493250D03*
X0113858Y0688150D03*
X0118425Y0688150D03*
X0118025Y0700750D03*
X0113458Y0700750D03*
X0113158Y0706250D03*
X0117725Y0706250D03*
X0132058Y0713050D03*
X0136625Y0713050D03*
X0144358Y0707850D03*
X0148925Y0707850D03*
X0188058Y0697250D03*
X0192625Y0697250D03*
X0225458Y0700750D03*
X0230025Y0700750D03*
X0229725Y0706250D03*
X0225158Y0706250D03*
X0225858Y0688150D03*
X0230425Y0688150D03*
X0244058Y0713050D03*
X0248625Y0713050D03*
X0256358Y0707850D03*
X0260925Y0707850D03*
X0300058Y0697250D03*
X0304625Y0697250D03*
X0337458Y0700750D03*
X0342025Y0700750D03*
X0341725Y0706250D03*
X0337158Y0706250D03*
X0337858Y0688150D03*
X0342425Y0688150D03*
X0356058Y0713050D03*
X0360625Y0713050D03*
X0368358Y0707850D03*
X0372925Y0707850D03*
X0412058Y0697250D03*
X0416625Y0697250D03*
X0449458Y0700750D03*
X0454025Y0700750D03*
X0453725Y0706250D03*
X0449158Y0706250D03*
X0449858Y0688150D03*
X0454425Y0688150D03*
X0468058Y0713050D03*
X0472625Y0713050D03*
X0480358Y0707850D03*
X0484925Y0707850D03*
X0416625Y0391250D03*
X0412058Y0391250D03*
X0080625Y0697250D03*
X0076058Y0697250D03*
D14*
X0113995Y0694850D03*
X0120688Y0694850D03*
X0120688Y0592850D03*
X0113995Y0592850D03*
X0113995Y0490850D03*
X0120688Y0490850D03*
X0120688Y0388850D03*
X0113995Y0388850D03*
X0113995Y0286850D03*
X0120688Y0286850D03*
X0120688Y0184850D03*
X0113995Y0184850D03*
X0113995Y0082850D03*
X0120688Y0082850D03*
X0225995Y0082850D03*
X0232688Y0082850D03*
X0232688Y0184850D03*
X0225995Y0184850D03*
X0225995Y0286850D03*
X0232688Y0286850D03*
X0232688Y0388850D03*
X0225995Y0388850D03*
X0225995Y0490850D03*
X0232688Y0490850D03*
X0232688Y0592850D03*
X0225995Y0592850D03*
X0225995Y0694850D03*
X0232688Y0694850D03*
X0337995Y0694850D03*
X0344688Y0694850D03*
X0344688Y0592850D03*
X0337995Y0592850D03*
X0337995Y0490850D03*
X0344688Y0490850D03*
X0344688Y0388850D03*
X0337995Y0388850D03*
X0337995Y0286850D03*
X0344688Y0286850D03*
X0344688Y0184850D03*
X0337995Y0184850D03*
X0337995Y0082850D03*
X0344688Y0082850D03*
X0449995Y0082850D03*
X0456688Y0082850D03*
X0456688Y0184850D03*
X0449995Y0184850D03*
X0449995Y0286850D03*
X0456688Y0286850D03*
X0456688Y0388850D03*
X0449995Y0388850D03*
X0449995Y0490850D03*
X0456688Y0490850D03*
X0456688Y0592850D03*
X0449995Y0592850D03*
X0449995Y0694850D03*
X0456688Y0694850D03*
D15*
X0477811Y0711572D02*
X0477811Y0714328D01*
X0480567Y0714328D01*
X0480567Y0711572D01*
X0477811Y0711572D01*
X0477811Y0712694D02*
X0480567Y0712694D01*
X0480567Y0713816D02*
X0477811Y0713816D01*
X0484717Y0714328D02*
X0484717Y0711572D01*
X0484717Y0714328D02*
X0487473Y0714328D01*
X0487473Y0711572D01*
X0484717Y0711572D01*
X0484717Y0712694D02*
X0487473Y0712694D01*
X0487473Y0713816D02*
X0484717Y0713816D01*
X0484717Y0612328D02*
X0484717Y0609572D01*
X0484717Y0612328D02*
X0487473Y0612328D01*
X0487473Y0609572D01*
X0484717Y0609572D01*
X0484717Y0610694D02*
X0487473Y0610694D01*
X0487473Y0611816D02*
X0484717Y0611816D01*
X0477811Y0612328D02*
X0477811Y0609572D01*
X0477811Y0612328D02*
X0480567Y0612328D01*
X0480567Y0609572D01*
X0477811Y0609572D01*
X0477811Y0610694D02*
X0480567Y0610694D01*
X0480567Y0611816D02*
X0477811Y0611816D01*
X0477811Y0510328D02*
X0477811Y0507572D01*
X0477811Y0510328D02*
X0480567Y0510328D01*
X0480567Y0507572D01*
X0477811Y0507572D01*
X0477811Y0508694D02*
X0480567Y0508694D01*
X0480567Y0509816D02*
X0477811Y0509816D01*
X0484717Y0510328D02*
X0484717Y0507572D01*
X0484717Y0510328D02*
X0487473Y0510328D01*
X0487473Y0507572D01*
X0484717Y0507572D01*
X0484717Y0508694D02*
X0487473Y0508694D01*
X0487473Y0509816D02*
X0484717Y0509816D01*
X0484717Y0408328D02*
X0484717Y0405572D01*
X0484717Y0408328D02*
X0487473Y0408328D01*
X0487473Y0405572D01*
X0484717Y0405572D01*
X0484717Y0406694D02*
X0487473Y0406694D01*
X0487473Y0407816D02*
X0484717Y0407816D01*
X0477811Y0408328D02*
X0477811Y0405572D01*
X0477811Y0408328D02*
X0480567Y0408328D01*
X0480567Y0405572D01*
X0477811Y0405572D01*
X0477811Y0406694D02*
X0480567Y0406694D01*
X0480567Y0407816D02*
X0477811Y0407816D01*
X0477811Y0306328D02*
X0477811Y0303572D01*
X0477811Y0306328D02*
X0480567Y0306328D01*
X0480567Y0303572D01*
X0477811Y0303572D01*
X0477811Y0304694D02*
X0480567Y0304694D01*
X0480567Y0305816D02*
X0477811Y0305816D01*
X0484717Y0306328D02*
X0484717Y0303572D01*
X0484717Y0306328D02*
X0487473Y0306328D01*
X0487473Y0303572D01*
X0484717Y0303572D01*
X0484717Y0304694D02*
X0487473Y0304694D01*
X0487473Y0305816D02*
X0484717Y0305816D01*
X0484717Y0204328D02*
X0484717Y0201572D01*
X0484717Y0204328D02*
X0487473Y0204328D01*
X0487473Y0201572D01*
X0484717Y0201572D01*
X0484717Y0202694D02*
X0487473Y0202694D01*
X0487473Y0203816D02*
X0484717Y0203816D01*
X0477811Y0204328D02*
X0477811Y0201572D01*
X0477811Y0204328D02*
X0480567Y0204328D01*
X0480567Y0201572D01*
X0477811Y0201572D01*
X0477811Y0202694D02*
X0480567Y0202694D01*
X0480567Y0203816D02*
X0477811Y0203816D01*
X0477811Y0102328D02*
X0477811Y0099572D01*
X0477811Y0102328D02*
X0480567Y0102328D01*
X0480567Y0099572D01*
X0477811Y0099572D01*
X0477811Y0100694D02*
X0480567Y0100694D01*
X0480567Y0101816D02*
X0477811Y0101816D01*
X0484717Y0102328D02*
X0484717Y0099572D01*
X0484717Y0102328D02*
X0487473Y0102328D01*
X0487473Y0099572D01*
X0484717Y0099572D01*
X0484717Y0100694D02*
X0487473Y0100694D01*
X0487473Y0101816D02*
X0484717Y0101816D01*
X0372717Y0102328D02*
X0372717Y0099572D01*
X0372717Y0102328D02*
X0375473Y0102328D01*
X0375473Y0099572D01*
X0372717Y0099572D01*
X0372717Y0100694D02*
X0375473Y0100694D01*
X0375473Y0101816D02*
X0372717Y0101816D01*
X0365811Y0102328D02*
X0365811Y0099572D01*
X0365811Y0102328D02*
X0368567Y0102328D01*
X0368567Y0099572D01*
X0365811Y0099572D01*
X0365811Y0100694D02*
X0368567Y0100694D01*
X0368567Y0101816D02*
X0365811Y0101816D01*
X0365811Y0201572D02*
X0365811Y0204328D01*
X0368567Y0204328D01*
X0368567Y0201572D01*
X0365811Y0201572D01*
X0365811Y0202694D02*
X0368567Y0202694D01*
X0368567Y0203816D02*
X0365811Y0203816D01*
X0372717Y0204328D02*
X0372717Y0201572D01*
X0372717Y0204328D02*
X0375473Y0204328D01*
X0375473Y0201572D01*
X0372717Y0201572D01*
X0372717Y0202694D02*
X0375473Y0202694D01*
X0375473Y0203816D02*
X0372717Y0203816D01*
X0372717Y0303572D02*
X0372717Y0306328D01*
X0375473Y0306328D01*
X0375473Y0303572D01*
X0372717Y0303572D01*
X0372717Y0304694D02*
X0375473Y0304694D01*
X0375473Y0305816D02*
X0372717Y0305816D01*
X0365811Y0306328D02*
X0365811Y0303572D01*
X0365811Y0306328D02*
X0368567Y0306328D01*
X0368567Y0303572D01*
X0365811Y0303572D01*
X0365811Y0304694D02*
X0368567Y0304694D01*
X0368567Y0305816D02*
X0365811Y0305816D01*
X0365811Y0405572D02*
X0365811Y0408328D01*
X0368567Y0408328D01*
X0368567Y0405572D01*
X0365811Y0405572D01*
X0365811Y0406694D02*
X0368567Y0406694D01*
X0368567Y0407816D02*
X0365811Y0407816D01*
X0372717Y0408328D02*
X0372717Y0405572D01*
X0372717Y0408328D02*
X0375473Y0408328D01*
X0375473Y0405572D01*
X0372717Y0405572D01*
X0372717Y0406694D02*
X0375473Y0406694D01*
X0375473Y0407816D02*
X0372717Y0407816D01*
X0372717Y0507572D02*
X0372717Y0510328D01*
X0375473Y0510328D01*
X0375473Y0507572D01*
X0372717Y0507572D01*
X0372717Y0508694D02*
X0375473Y0508694D01*
X0375473Y0509816D02*
X0372717Y0509816D01*
X0365811Y0510328D02*
X0365811Y0507572D01*
X0365811Y0510328D02*
X0368567Y0510328D01*
X0368567Y0507572D01*
X0365811Y0507572D01*
X0365811Y0508694D02*
X0368567Y0508694D01*
X0368567Y0509816D02*
X0365811Y0509816D01*
X0365811Y0609572D02*
X0365811Y0612328D01*
X0368567Y0612328D01*
X0368567Y0609572D01*
X0365811Y0609572D01*
X0365811Y0610694D02*
X0368567Y0610694D01*
X0368567Y0611816D02*
X0365811Y0611816D01*
X0372717Y0612328D02*
X0372717Y0609572D01*
X0372717Y0612328D02*
X0375473Y0612328D01*
X0375473Y0609572D01*
X0372717Y0609572D01*
X0372717Y0610694D02*
X0375473Y0610694D01*
X0375473Y0611816D02*
X0372717Y0611816D01*
X0372717Y0711572D02*
X0372717Y0714328D01*
X0375473Y0714328D01*
X0375473Y0711572D01*
X0372717Y0711572D01*
X0372717Y0712694D02*
X0375473Y0712694D01*
X0375473Y0713816D02*
X0372717Y0713816D01*
X0365811Y0714328D02*
X0365811Y0711572D01*
X0365811Y0714328D02*
X0368567Y0714328D01*
X0368567Y0711572D01*
X0365811Y0711572D01*
X0365811Y0712694D02*
X0368567Y0712694D01*
X0368567Y0713816D02*
X0365811Y0713816D01*
X0260717Y0714328D02*
X0260717Y0711572D01*
X0260717Y0714328D02*
X0263473Y0714328D01*
X0263473Y0711572D01*
X0260717Y0711572D01*
X0260717Y0712694D02*
X0263473Y0712694D01*
X0263473Y0713816D02*
X0260717Y0713816D01*
X0253811Y0714328D02*
X0253811Y0711572D01*
X0253811Y0714328D02*
X0256567Y0714328D01*
X0256567Y0711572D01*
X0253811Y0711572D01*
X0253811Y0712694D02*
X0256567Y0712694D01*
X0256567Y0713816D02*
X0253811Y0713816D01*
X0253811Y0612328D02*
X0253811Y0609572D01*
X0253811Y0612328D02*
X0256567Y0612328D01*
X0256567Y0609572D01*
X0253811Y0609572D01*
X0253811Y0610694D02*
X0256567Y0610694D01*
X0256567Y0611816D02*
X0253811Y0611816D01*
X0260717Y0612328D02*
X0260717Y0609572D01*
X0260717Y0612328D02*
X0263473Y0612328D01*
X0263473Y0609572D01*
X0260717Y0609572D01*
X0260717Y0610694D02*
X0263473Y0610694D01*
X0263473Y0611816D02*
X0260717Y0611816D01*
X0260717Y0510328D02*
X0260717Y0507572D01*
X0260717Y0510328D02*
X0263473Y0510328D01*
X0263473Y0507572D01*
X0260717Y0507572D01*
X0260717Y0508694D02*
X0263473Y0508694D01*
X0263473Y0509816D02*
X0260717Y0509816D01*
X0253811Y0510328D02*
X0253811Y0507572D01*
X0253811Y0510328D02*
X0256567Y0510328D01*
X0256567Y0507572D01*
X0253811Y0507572D01*
X0253811Y0508694D02*
X0256567Y0508694D01*
X0256567Y0509816D02*
X0253811Y0509816D01*
X0253811Y0408328D02*
X0253811Y0405572D01*
X0253811Y0408328D02*
X0256567Y0408328D01*
X0256567Y0405572D01*
X0253811Y0405572D01*
X0253811Y0406694D02*
X0256567Y0406694D01*
X0256567Y0407816D02*
X0253811Y0407816D01*
X0260717Y0408328D02*
X0260717Y0405572D01*
X0260717Y0408328D02*
X0263473Y0408328D01*
X0263473Y0405572D01*
X0260717Y0405572D01*
X0260717Y0406694D02*
X0263473Y0406694D01*
X0263473Y0407816D02*
X0260717Y0407816D01*
X0260717Y0306328D02*
X0260717Y0303572D01*
X0260717Y0306328D02*
X0263473Y0306328D01*
X0263473Y0303572D01*
X0260717Y0303572D01*
X0260717Y0304694D02*
X0263473Y0304694D01*
X0263473Y0305816D02*
X0260717Y0305816D01*
X0253811Y0306328D02*
X0253811Y0303572D01*
X0253811Y0306328D02*
X0256567Y0306328D01*
X0256567Y0303572D01*
X0253811Y0303572D01*
X0253811Y0304694D02*
X0256567Y0304694D01*
X0256567Y0305816D02*
X0253811Y0305816D01*
X0253811Y0204328D02*
X0253811Y0201572D01*
X0253811Y0204328D02*
X0256567Y0204328D01*
X0256567Y0201572D01*
X0253811Y0201572D01*
X0253811Y0202694D02*
X0256567Y0202694D01*
X0256567Y0203816D02*
X0253811Y0203816D01*
X0260717Y0204328D02*
X0260717Y0201572D01*
X0260717Y0204328D02*
X0263473Y0204328D01*
X0263473Y0201572D01*
X0260717Y0201572D01*
X0260717Y0202694D02*
X0263473Y0202694D01*
X0263473Y0203816D02*
X0260717Y0203816D01*
X0260717Y0102328D02*
X0260717Y0099572D01*
X0260717Y0102328D02*
X0263473Y0102328D01*
X0263473Y0099572D01*
X0260717Y0099572D01*
X0260717Y0100694D02*
X0263473Y0100694D01*
X0263473Y0101816D02*
X0260717Y0101816D01*
X0253811Y0102328D02*
X0253811Y0099572D01*
X0253811Y0102328D02*
X0256567Y0102328D01*
X0256567Y0099572D01*
X0253811Y0099572D01*
X0253811Y0100694D02*
X0256567Y0100694D01*
X0256567Y0101816D02*
X0253811Y0101816D01*
X0148717Y0102328D02*
X0148717Y0099572D01*
X0148717Y0102328D02*
X0151473Y0102328D01*
X0151473Y0099572D01*
X0148717Y0099572D01*
X0148717Y0100694D02*
X0151473Y0100694D01*
X0151473Y0101816D02*
X0148717Y0101816D01*
X0141811Y0102328D02*
X0141811Y0099572D01*
X0141811Y0102328D02*
X0144567Y0102328D01*
X0144567Y0099572D01*
X0141811Y0099572D01*
X0141811Y0100694D02*
X0144567Y0100694D01*
X0144567Y0101816D02*
X0141811Y0101816D01*
X0141811Y0201572D02*
X0141811Y0204328D01*
X0144567Y0204328D01*
X0144567Y0201572D01*
X0141811Y0201572D01*
X0141811Y0202694D02*
X0144567Y0202694D01*
X0144567Y0203816D02*
X0141811Y0203816D01*
X0148717Y0204328D02*
X0148717Y0201572D01*
X0148717Y0204328D02*
X0151473Y0204328D01*
X0151473Y0201572D01*
X0148717Y0201572D01*
X0148717Y0202694D02*
X0151473Y0202694D01*
X0151473Y0203816D02*
X0148717Y0203816D01*
X0148717Y0303572D02*
X0148717Y0306328D01*
X0151473Y0306328D01*
X0151473Y0303572D01*
X0148717Y0303572D01*
X0148717Y0304694D02*
X0151473Y0304694D01*
X0151473Y0305816D02*
X0148717Y0305816D01*
X0141811Y0306328D02*
X0141811Y0303572D01*
X0141811Y0306328D02*
X0144567Y0306328D01*
X0144567Y0303572D01*
X0141811Y0303572D01*
X0141811Y0304694D02*
X0144567Y0304694D01*
X0144567Y0305816D02*
X0141811Y0305816D01*
X0141811Y0405572D02*
X0141811Y0408328D01*
X0144567Y0408328D01*
X0144567Y0405572D01*
X0141811Y0405572D01*
X0141811Y0406694D02*
X0144567Y0406694D01*
X0144567Y0407816D02*
X0141811Y0407816D01*
X0148717Y0408328D02*
X0148717Y0405572D01*
X0148717Y0408328D02*
X0151473Y0408328D01*
X0151473Y0405572D01*
X0148717Y0405572D01*
X0148717Y0406694D02*
X0151473Y0406694D01*
X0151473Y0407816D02*
X0148717Y0407816D01*
X0148717Y0507572D02*
X0148717Y0510328D01*
X0151473Y0510328D01*
X0151473Y0507572D01*
X0148717Y0507572D01*
X0148717Y0508694D02*
X0151473Y0508694D01*
X0151473Y0509816D02*
X0148717Y0509816D01*
X0141811Y0510328D02*
X0141811Y0507572D01*
X0141811Y0510328D02*
X0144567Y0510328D01*
X0144567Y0507572D01*
X0141811Y0507572D01*
X0141811Y0508694D02*
X0144567Y0508694D01*
X0144567Y0509816D02*
X0141811Y0509816D01*
X0141811Y0609572D02*
X0141811Y0612328D01*
X0144567Y0612328D01*
X0144567Y0609572D01*
X0141811Y0609572D01*
X0141811Y0610694D02*
X0144567Y0610694D01*
X0144567Y0611816D02*
X0141811Y0611816D01*
X0148717Y0612328D02*
X0148717Y0609572D01*
X0148717Y0612328D02*
X0151473Y0612328D01*
X0151473Y0609572D01*
X0148717Y0609572D01*
X0148717Y0610694D02*
X0151473Y0610694D01*
X0151473Y0611816D02*
X0148717Y0611816D01*
X0148717Y0711572D02*
X0148717Y0714328D01*
X0151473Y0714328D01*
X0151473Y0711572D01*
X0148717Y0711572D01*
X0148717Y0712694D02*
X0151473Y0712694D01*
X0151473Y0713816D02*
X0148717Y0713816D01*
X0141811Y0714328D02*
X0141811Y0711572D01*
X0141811Y0714328D02*
X0144567Y0714328D01*
X0144567Y0711572D01*
X0141811Y0711572D01*
X0141811Y0712694D02*
X0144567Y0712694D01*
X0144567Y0713816D02*
X0141811Y0713816D01*
D16*
X0193342Y0710096D03*
X0193342Y0703404D03*
X0193342Y0608096D03*
X0193342Y0601404D03*
X0193342Y0506096D03*
X0193342Y0499404D03*
X0193342Y0404096D03*
X0193342Y0397404D03*
X0193342Y0302096D03*
X0193342Y0295404D03*
X0193342Y0200096D03*
X0193342Y0193404D03*
X0193342Y0098096D03*
X0193342Y0091404D03*
X0305342Y0091404D03*
X0305342Y0098096D03*
X0305342Y0193404D03*
X0305342Y0200096D03*
X0305342Y0295404D03*
X0305342Y0302096D03*
X0305342Y0397404D03*
X0305342Y0404096D03*
X0305342Y0499404D03*
X0305342Y0506096D03*
X0305342Y0601404D03*
X0305342Y0608096D03*
X0305342Y0703404D03*
X0305342Y0710096D03*
X0417342Y0710096D03*
X0417342Y0703404D03*
X0417342Y0608096D03*
X0417342Y0601404D03*
X0417342Y0506096D03*
X0417342Y0499404D03*
X0417342Y0404096D03*
X0417342Y0397404D03*
X0417342Y0302096D03*
X0417342Y0295404D03*
X0417342Y0200096D03*
X0417342Y0193404D03*
X0417342Y0098096D03*
X0417342Y0091404D03*
X0081342Y0091404D03*
X0081342Y0098096D03*
X0081342Y0193404D03*
X0081342Y0200096D03*
X0081342Y0295404D03*
X0081342Y0302096D03*
X0081342Y0397404D03*
X0081342Y0404096D03*
X0081342Y0499404D03*
X0081342Y0506096D03*
X0081342Y0601404D03*
X0081342Y0608096D03*
X0081342Y0703404D03*
X0081342Y0710096D03*
M02*
