%
M48
M72
T01C0.0138
T02C0.0150
T03C0.0200
T04C0.0400
T05C0.1200
%
T01
X19143Y13540
T02
X18623Y13900
X19943Y13730
X21053Y13950
X21513Y13970
X20753Y12700
X20373Y12430
X19913Y11930
X19933Y11410
X19553Y11340
X18353Y11630
X18243Y11280
X17543Y10730
X17173Y10730
X16433Y10700
X16233Y11000
X15633Y11200
X15853Y11660
X15873Y12130
X15873Y12430
X15863Y12740
X16203Y12930
X16863Y11990
X17383Y11980
X19203Y12910
X21133Y12030
X21133Y11100
X21213Y10710
X19493Y9480
X19113Y8810
X18183Y8720
X17393Y8640
X16763Y8680
X16153Y8660
X15583Y9010
X14723Y9540
X16153Y9790
X16743Y9450
X17303Y9450
X17903Y9450
X18553Y9410
X14633Y10700
X14633Y11100
X14543Y12170
X14523Y12750
X13183Y11490
X13133Y10800
X15433Y13900
X15753Y14160
X16673Y14690
X14643Y14070
X14133Y14100
X13533Y14100
X19813Y15410
T03
X19633Y14300
X19633Y13300
T04
X13633Y6800
X14633Y6800
X15633Y6800
X16633Y6800
X17633Y6800
X18633Y6800
X19633Y6800
X20633Y6800
X20633Y7800
X19633Y7800
X18633Y7800
X17633Y7800
X16633Y7800
X15633Y7800
X14633Y7800
X13633Y7800
X14633Y15800
X15633Y15800
X16633Y15800
X17633Y15800
X18633Y15800
T05
X21133Y15300
X13133Y15300
M30
