G75*
%MOIN*%
%OFA0B0*%
%FSLAX25Y25*%
%IPPOS*%
%LPD*%
%AMOC8*
5,1,8,0,0,1.08239X$1,22.5*
%
%ADD10R,0.07874X0.04724*%
%ADD11R,0.05315X0.02362*%
%ADD12R,0.00984X0.02165*%
%ADD13R,0.02165X0.00984*%
%ADD14R,0.10236X0.10236*%
%ADD15C,0.07400*%
%ADD16C,0.02500*%
%ADD17R,0.03543X0.03346*%
%ADD18R,0.03346X0.03543*%
%ADD19R,0.03937X0.04331*%
%ADD20R,0.04724X0.04331*%
%ADD21C,0.01181*%
%ADD22C,0.03400*%
%ADD23C,0.01000*%
%ADD24C,0.02900*%
%ADD25C,0.07000*%
%ADD26C,0.00800*%
%ADD27C,0.00500*%
D10*
X0121865Y0101976D03*
X0121865Y0124024D03*
X0220802Y0124024D03*
X0220802Y0101976D03*
D11*
X0206333Y0107094D03*
X0206333Y0111031D03*
X0206333Y0114969D03*
X0206333Y0118906D03*
X0136333Y0118906D03*
X0136333Y0114969D03*
X0136333Y0111031D03*
X0136333Y0107094D03*
D12*
X0166412Y0112717D03*
X0168381Y0112717D03*
X0170349Y0112717D03*
X0172318Y0112717D03*
X0174286Y0112717D03*
X0176255Y0112717D03*
X0176255Y0127480D03*
X0174286Y0127480D03*
X0172318Y0127480D03*
X0170349Y0127480D03*
X0168381Y0127480D03*
X0166412Y0127480D03*
D13*
X0164050Y0124921D03*
X0164050Y0122953D03*
X0164050Y0120984D03*
X0164050Y0119016D03*
X0164050Y0117047D03*
X0164050Y0115079D03*
X0178814Y0115079D03*
X0178814Y0117047D03*
X0178814Y0119016D03*
X0178814Y0120984D03*
X0178814Y0122953D03*
X0178814Y0124921D03*
D14*
X0171333Y0120000D03*
D15*
X0166333Y0158000D03*
X0156333Y0158000D03*
X0146333Y0158000D03*
X0176333Y0158000D03*
X0186333Y0158000D03*
X0186333Y0078000D03*
X0176333Y0078000D03*
X0166333Y0078000D03*
X0156333Y0078000D03*
X0146333Y0078000D03*
X0136333Y0078000D03*
X0136333Y0068000D03*
X0146333Y0068000D03*
X0156333Y0068000D03*
X0166333Y0068000D03*
X0176333Y0068000D03*
X0186333Y0068000D03*
X0196333Y0068000D03*
X0206333Y0068000D03*
X0206333Y0078000D03*
X0196333Y0078000D03*
D16*
X0221333Y0068000D03*
X0121433Y0158300D03*
D17*
X0135133Y0137183D03*
X0135133Y0132617D03*
X0141333Y0132617D03*
X0141333Y0137183D03*
X0161733Y0135600D03*
X0161733Y0140167D03*
X0179233Y0140300D03*
X0179233Y0135733D03*
X0178433Y0103483D03*
X0178433Y0098917D03*
X0172933Y0098917D03*
X0167333Y0098917D03*
X0167333Y0103483D03*
X0172933Y0103483D03*
D18*
X0187450Y0113500D03*
X0192017Y0113500D03*
X0192017Y0118900D03*
X0187450Y0118900D03*
X0187450Y0124300D03*
X0192017Y0124300D03*
X0215450Y0129600D03*
X0220017Y0129600D03*
X0154517Y0129000D03*
X0149950Y0129000D03*
X0149950Y0134600D03*
X0154517Y0134600D03*
X0154517Y0123100D03*
X0149950Y0123100D03*
D19*
X0184233Y0105846D03*
X0184233Y0099154D03*
D20*
X0173796Y0135183D03*
X0167103Y0135183D03*
X0167103Y0140695D03*
X0173796Y0140695D03*
D21*
X0216159Y0136178D02*
X0216159Y0133422D01*
X0213403Y0133422D01*
X0213403Y0136178D01*
X0216159Y0136178D01*
X0216159Y0134544D02*
X0213403Y0134544D01*
X0213403Y0135666D02*
X0216159Y0135666D01*
X0223064Y0136178D02*
X0223064Y0133422D01*
X0220308Y0133422D01*
X0220308Y0136178D01*
X0223064Y0136178D01*
X0223064Y0134544D02*
X0220308Y0134544D01*
X0220308Y0135666D02*
X0223064Y0135666D01*
D22*
X0196333Y0133000D03*
X0196333Y0143000D03*
D23*
X0118433Y0097914D02*
X0118433Y0065100D01*
X0132013Y0065100D01*
X0131886Y0065275D01*
X0131514Y0066004D01*
X0131261Y0066782D01*
X0131148Y0067500D01*
X0135833Y0067500D01*
X0135833Y0068500D01*
X0131148Y0068500D01*
X0131261Y0069218D01*
X0131514Y0069996D01*
X0131886Y0070725D01*
X0132367Y0071388D01*
X0132946Y0071966D01*
X0133608Y0072447D01*
X0134337Y0072819D01*
X0134558Y0072891D01*
X0133274Y0073422D01*
X0131755Y0074941D01*
X0130933Y0076926D01*
X0130933Y0079074D01*
X0131755Y0081059D01*
X0133274Y0082578D01*
X0135259Y0083400D01*
X0137407Y0083400D01*
X0139392Y0082578D01*
X0140911Y0081059D01*
X0141333Y0080040D01*
X0141755Y0081059D01*
X0143274Y0082578D01*
X0145259Y0083400D01*
X0147407Y0083400D01*
X0149392Y0082578D01*
X0150911Y0081059D01*
X0151333Y0080040D01*
X0151755Y0081059D01*
X0153274Y0082578D01*
X0155259Y0083400D01*
X0157407Y0083400D01*
X0159392Y0082578D01*
X0160911Y0081059D01*
X0161333Y0080040D01*
X0161755Y0081059D01*
X0163274Y0082578D01*
X0165259Y0083400D01*
X0167407Y0083400D01*
X0169392Y0082578D01*
X0170911Y0081059D01*
X0171333Y0080040D01*
X0171755Y0081059D01*
X0173274Y0082578D01*
X0175259Y0083400D01*
X0177407Y0083400D01*
X0179392Y0082578D01*
X0180911Y0081059D01*
X0181333Y0080040D01*
X0181755Y0081059D01*
X0183274Y0082578D01*
X0185259Y0083400D01*
X0187407Y0083400D01*
X0189392Y0082578D01*
X0190911Y0081059D01*
X0191333Y0080040D01*
X0191755Y0081059D01*
X0193274Y0082578D01*
X0195259Y0083400D01*
X0197407Y0083400D01*
X0199392Y0082578D01*
X0200911Y0081059D01*
X0201333Y0080040D01*
X0201755Y0081059D01*
X0203274Y0082578D01*
X0205259Y0083400D01*
X0207407Y0083400D01*
X0209392Y0082578D01*
X0210911Y0081059D01*
X0211733Y0079074D01*
X0211733Y0076926D01*
X0210911Y0074941D01*
X0209392Y0073422D01*
X0208109Y0072891D01*
X0208329Y0072819D01*
X0209059Y0072447D01*
X0209721Y0071966D01*
X0210300Y0071388D01*
X0210781Y0070725D01*
X0211152Y0069996D01*
X0211405Y0069218D01*
X0211519Y0068500D01*
X0206833Y0068500D01*
X0206833Y0067500D01*
X0211519Y0067500D01*
X0211405Y0066782D01*
X0211152Y0066004D01*
X0210781Y0065275D01*
X0210654Y0065100D01*
X0220626Y0065100D01*
X0219662Y0065499D01*
X0218832Y0066329D01*
X0218383Y0067413D01*
X0218383Y0068587D01*
X0218832Y0069671D01*
X0219662Y0070501D01*
X0220747Y0070950D01*
X0221920Y0070950D01*
X0223004Y0070501D01*
X0223834Y0069671D01*
X0224233Y0068707D01*
X0224233Y0097914D01*
X0216161Y0097914D01*
X0215165Y0098910D01*
X0215165Y0105043D01*
X0216161Y0106039D01*
X0224233Y0106039D01*
X0224233Y0119961D01*
X0216161Y0119961D01*
X0215165Y0120957D01*
X0215165Y0126128D01*
X0213072Y0126128D01*
X0212077Y0127124D01*
X0212077Y0131792D01*
X0211730Y0132138D01*
X0211455Y0132615D01*
X0211312Y0133147D01*
X0211312Y0134316D01*
X0214296Y0134316D01*
X0214296Y0135284D01*
X0211312Y0135284D01*
X0211312Y0136453D01*
X0211455Y0136985D01*
X0211730Y0137462D01*
X0212119Y0137851D01*
X0212418Y0138024D01*
X0211983Y0139073D01*
X0211983Y0140327D01*
X0212463Y0141484D01*
X0213349Y0142370D01*
X0214507Y0142850D01*
X0215760Y0142850D01*
X0216918Y0142370D01*
X0217804Y0141484D01*
X0218283Y0140327D01*
X0218283Y0139520D01*
X0219347Y0138456D01*
X0219359Y0138468D01*
X0224013Y0138468D01*
X0224233Y0138248D01*
X0224233Y0160900D01*
X0216542Y0160900D01*
X0218645Y0159135D01*
X0220303Y0156265D01*
X0220303Y0156265D01*
X0220878Y0153000D01*
X0220878Y0153000D01*
X0220303Y0149735D01*
X0220303Y0149735D01*
X0218645Y0146865D01*
X0218645Y0146865D01*
X0218645Y0146865D01*
X0216106Y0144734D01*
X0216106Y0144734D01*
X0212991Y0143600D01*
X0209676Y0143600D01*
X0207518Y0144386D01*
X0208503Y0143400D01*
X0209733Y0142170D01*
X0209733Y0130112D01*
X0210318Y0129870D01*
X0211204Y0128984D01*
X0211683Y0127827D01*
X0211683Y0126573D01*
X0211204Y0125416D01*
X0210888Y0125100D01*
X0211203Y0125100D01*
X0212203Y0124100D01*
X0213433Y0122870D01*
X0213433Y0122655D01*
X0214004Y0122084D01*
X0214483Y0120927D01*
X0214483Y0119673D01*
X0214004Y0118516D01*
X0213118Y0117630D01*
X0211960Y0117150D01*
X0211153Y0117150D01*
X0210809Y0116806D01*
X0210691Y0116806D01*
X0210691Y0114143D01*
X0210707Y0114150D01*
X0211960Y0114150D01*
X0213118Y0113670D01*
X0214004Y0112784D01*
X0214483Y0111627D01*
X0214483Y0110373D01*
X0214004Y0109216D01*
X0213118Y0108330D01*
X0211960Y0107850D01*
X0210707Y0107850D01*
X0210491Y0107939D01*
X0210491Y0107185D01*
X0206424Y0107185D01*
X0206424Y0107004D01*
X0210491Y0107004D01*
X0210491Y0105716D01*
X0210389Y0105334D01*
X0210191Y0104992D01*
X0209912Y0104713D01*
X0209570Y0104516D01*
X0209188Y0104413D01*
X0206424Y0104413D01*
X0206424Y0107004D01*
X0206243Y0107004D01*
X0206243Y0104413D01*
X0203478Y0104413D01*
X0203097Y0104516D01*
X0202755Y0104713D01*
X0202476Y0104992D01*
X0202278Y0105334D01*
X0202176Y0105716D01*
X0202176Y0107004D01*
X0206243Y0107004D01*
X0206243Y0107185D01*
X0202176Y0107185D01*
X0202176Y0108473D01*
X0202276Y0108846D01*
X0201976Y0109146D01*
X0201976Y0112917D01*
X0202059Y0113000D01*
X0201976Y0113083D01*
X0201976Y0113756D01*
X0201663Y0114069D01*
X0200433Y0115299D01*
X0200433Y0123170D01*
X0201083Y0123820D01*
X0201083Y0124627D01*
X0201563Y0125784D01*
X0202133Y0126355D01*
X0202133Y0139030D01*
X0199472Y0141692D01*
X0199216Y0141074D01*
X0198259Y0140118D01*
X0197010Y0139600D01*
X0195657Y0139600D01*
X0194407Y0140118D01*
X0193451Y0141074D01*
X0192933Y0142324D01*
X0192933Y0143676D01*
X0193451Y0144926D01*
X0194407Y0145882D01*
X0195025Y0146138D01*
X0191963Y0149200D01*
X0173163Y0149200D01*
X0171933Y0150430D01*
X0171933Y0150430D01*
X0169073Y0153290D01*
X0167407Y0152600D01*
X0165259Y0152600D01*
X0163274Y0153422D01*
X0161755Y0154941D01*
X0161333Y0155960D01*
X0160911Y0154941D01*
X0159392Y0153422D01*
X0157407Y0152600D01*
X0155259Y0152600D01*
X0153274Y0153422D01*
X0151755Y0154941D01*
X0151224Y0156224D01*
X0151152Y0156004D01*
X0150781Y0155275D01*
X0150300Y0154612D01*
X0149721Y0154034D01*
X0149059Y0153553D01*
X0148329Y0153181D01*
X0147551Y0152928D01*
X0146833Y0152814D01*
X0146833Y0157500D01*
X0145833Y0157500D01*
X0141148Y0157500D01*
X0141261Y0156782D01*
X0141514Y0156004D01*
X0141886Y0155275D01*
X0142367Y0154612D01*
X0142946Y0154034D01*
X0143608Y0153553D01*
X0144337Y0153181D01*
X0145116Y0152928D01*
X0145833Y0152814D01*
X0145833Y0157500D01*
X0145833Y0158500D01*
X0141148Y0158500D01*
X0141261Y0159218D01*
X0141514Y0159996D01*
X0141886Y0160725D01*
X0142013Y0160900D01*
X0136542Y0160900D01*
X0138645Y0159135D01*
X0138645Y0159135D01*
X0140303Y0156265D01*
X0140303Y0156265D01*
X0140878Y0153000D01*
X0140878Y0153000D01*
X0140303Y0149735D01*
X0140303Y0149735D01*
X0138645Y0146865D01*
X0138645Y0146865D01*
X0138645Y0146865D01*
X0136106Y0144734D01*
X0136106Y0144734D01*
X0134777Y0144250D01*
X0135960Y0144250D01*
X0137118Y0143770D01*
X0138004Y0142884D01*
X0138333Y0142089D01*
X0138663Y0142884D01*
X0139549Y0143770D01*
X0140707Y0144250D01*
X0141960Y0144250D01*
X0143118Y0143770D01*
X0144004Y0142884D01*
X0144483Y0141727D01*
X0144483Y0140473D01*
X0144310Y0140056D01*
X0144805Y0139561D01*
X0144805Y0130239D01*
X0143809Y0129243D01*
X0140530Y0129243D01*
X0134425Y0123138D01*
X0134425Y0121587D01*
X0136243Y0121587D01*
X0136243Y0118996D01*
X0136424Y0118996D01*
X0140491Y0118996D01*
X0140491Y0120284D01*
X0140389Y0120666D01*
X0140191Y0121008D01*
X0139912Y0121287D01*
X0139570Y0121484D01*
X0139188Y0121587D01*
X0136424Y0121587D01*
X0136424Y0118996D01*
X0136424Y0118815D01*
X0140491Y0118815D01*
X0140491Y0117527D01*
X0140391Y0117154D01*
X0140476Y0117068D01*
X0151933Y0117068D01*
X0151933Y0119834D01*
X0151914Y0119853D01*
X0151821Y0119828D01*
X0150286Y0119828D01*
X0150286Y0122763D01*
X0149613Y0122763D01*
X0149613Y0119828D01*
X0148079Y0119828D01*
X0147698Y0119931D01*
X0147356Y0120128D01*
X0147076Y0120407D01*
X0146879Y0120749D01*
X0146777Y0121131D01*
X0146777Y0122763D01*
X0149613Y0122763D01*
X0149613Y0123437D01*
X0149613Y0128663D01*
X0150286Y0128663D01*
X0150286Y0126372D01*
X0150286Y0123437D01*
X0149613Y0123437D01*
X0146777Y0123437D01*
X0146777Y0125069D01*
X0146879Y0125451D01*
X0147076Y0125793D01*
X0147334Y0126050D01*
X0147076Y0126307D01*
X0146879Y0126649D01*
X0146777Y0127031D01*
X0146777Y0128663D01*
X0149613Y0128663D01*
X0149613Y0129337D01*
X0149613Y0134263D01*
X0150286Y0134263D01*
X0150286Y0131328D01*
X0150286Y0129337D01*
X0149613Y0129337D01*
X0146777Y0129337D01*
X0146777Y0130969D01*
X0146879Y0131351D01*
X0147076Y0131693D01*
X0147184Y0131800D01*
X0147076Y0131907D01*
X0146879Y0132249D01*
X0146777Y0132631D01*
X0146777Y0134263D01*
X0149613Y0134263D01*
X0149613Y0134937D01*
X0149613Y0137872D01*
X0148079Y0137872D01*
X0147698Y0137769D01*
X0147356Y0137572D01*
X0147076Y0137293D01*
X0146879Y0136951D01*
X0146777Y0136569D01*
X0146777Y0134937D01*
X0149613Y0134937D01*
X0150286Y0134937D01*
X0150286Y0137872D01*
X0151391Y0137872D01*
X0151183Y0138373D01*
X0151183Y0139627D01*
X0151663Y0140784D01*
X0152549Y0141670D01*
X0153707Y0142150D01*
X0154960Y0142150D01*
X0156118Y0141670D01*
X0157004Y0140784D01*
X0157483Y0139627D01*
X0157483Y0138373D01*
X0157222Y0137743D01*
X0157890Y0137076D01*
X0157890Y0134000D01*
X0158462Y0134000D01*
X0158462Y0135263D01*
X0161397Y0135263D01*
X0161397Y0135937D01*
X0158462Y0135937D01*
X0158462Y0137471D01*
X0158487Y0137564D01*
X0158262Y0137790D01*
X0158262Y0142544D01*
X0159258Y0143540D01*
X0163040Y0143540D01*
X0163040Y0143565D01*
X0164036Y0144561D01*
X0170169Y0144561D01*
X0170611Y0144118D01*
X0170854Y0144258D01*
X0171236Y0144361D01*
X0173296Y0144361D01*
X0173296Y0141195D01*
X0174295Y0141195D01*
X0174295Y0144361D01*
X0176355Y0144361D01*
X0176737Y0144258D01*
X0177079Y0144061D01*
X0177358Y0143782D01*
X0177536Y0143473D01*
X0178897Y0143473D01*
X0178897Y0140637D01*
X0179570Y0140637D01*
X0179570Y0143473D01*
X0181202Y0143473D01*
X0181584Y0143371D01*
X0181926Y0143174D01*
X0182205Y0142894D01*
X0182403Y0142552D01*
X0182505Y0142171D01*
X0182505Y0140637D01*
X0179570Y0140637D01*
X0179570Y0139963D01*
X0182505Y0139963D01*
X0182505Y0138429D01*
X0182480Y0138336D01*
X0182705Y0138110D01*
X0182705Y0135341D01*
X0183833Y0136470D01*
X0185063Y0137700D01*
X0189079Y0137700D01*
X0189649Y0138270D01*
X0190807Y0138750D01*
X0192060Y0138750D01*
X0193218Y0138270D01*
X0194104Y0137384D01*
X0194583Y0136227D01*
X0194583Y0135955D01*
X0195657Y0136400D01*
X0197010Y0136400D01*
X0198259Y0135882D01*
X0199216Y0134926D01*
X0199733Y0133676D01*
X0199733Y0132324D01*
X0199216Y0131074D01*
X0198259Y0130118D01*
X0197010Y0129600D01*
X0195657Y0129600D01*
X0194407Y0130118D01*
X0193625Y0130900D01*
X0187003Y0130900D01*
X0181596Y0125493D01*
X0181596Y0125153D01*
X0183175Y0125153D01*
X0183533Y0125511D01*
X0184077Y0126055D01*
X0184077Y0126776D01*
X0185072Y0127772D01*
X0189827Y0127772D01*
X0190052Y0127547D01*
X0190146Y0127572D01*
X0191680Y0127572D01*
X0191680Y0124637D01*
X0192353Y0124637D01*
X0192353Y0127572D01*
X0193887Y0127572D01*
X0194269Y0127469D01*
X0194611Y0127272D01*
X0194890Y0126993D01*
X0195088Y0126651D01*
X0195190Y0126269D01*
X0195190Y0124637D01*
X0192353Y0124637D01*
X0192353Y0123963D01*
X0192353Y0119237D01*
X0191680Y0119237D01*
X0191680Y0121028D01*
X0191680Y0123963D01*
X0192353Y0123963D01*
X0195190Y0123963D01*
X0195190Y0122331D01*
X0195088Y0121949D01*
X0194890Y0121607D01*
X0194883Y0121600D01*
X0194890Y0121593D01*
X0195088Y0121251D01*
X0195190Y0120869D01*
X0195190Y0119237D01*
X0192353Y0119237D01*
X0192353Y0118563D01*
X0195190Y0118563D01*
X0195190Y0116931D01*
X0195088Y0116549D01*
X0195019Y0116431D01*
X0195307Y0116550D01*
X0196560Y0116550D01*
X0197718Y0116070D01*
X0198604Y0115184D01*
X0199083Y0114027D01*
X0199083Y0112773D01*
X0198604Y0111616D01*
X0197718Y0110730D01*
X0196560Y0110250D01*
X0195307Y0110250D01*
X0194818Y0110452D01*
X0194394Y0110028D01*
X0189650Y0110028D01*
X0189650Y0108152D01*
X0188361Y0106863D01*
X0187902Y0106404D01*
X0187902Y0102977D01*
X0187283Y0102359D01*
X0187402Y0102240D01*
X0187600Y0101898D01*
X0187702Y0101516D01*
X0187702Y0099638D01*
X0184718Y0099638D01*
X0184718Y0098669D01*
X0187702Y0098669D01*
X0187702Y0096791D01*
X0187600Y0096409D01*
X0187402Y0096067D01*
X0187123Y0095788D01*
X0186781Y0095590D01*
X0186399Y0095488D01*
X0184718Y0095488D01*
X0184718Y0098669D01*
X0183749Y0098669D01*
X0183749Y0095488D01*
X0182067Y0095488D01*
X0181686Y0095590D01*
X0181344Y0095788D01*
X0181102Y0096029D01*
X0180784Y0095846D01*
X0180402Y0095743D01*
X0178770Y0095743D01*
X0178770Y0098580D01*
X0178770Y0099253D01*
X0181705Y0099253D01*
X0181705Y0099638D01*
X0183749Y0099638D01*
X0183749Y0098669D01*
X0180765Y0098669D01*
X0180765Y0098580D01*
X0178770Y0098580D01*
X0178097Y0098580D01*
X0178097Y0095743D01*
X0176464Y0095743D01*
X0176083Y0095846D01*
X0175741Y0096043D01*
X0175683Y0096100D01*
X0175626Y0096043D01*
X0175284Y0095846D01*
X0174902Y0095743D01*
X0173270Y0095743D01*
X0173270Y0098580D01*
X0173270Y0099253D01*
X0178097Y0099253D01*
X0178097Y0098580D01*
X0176205Y0098580D01*
X0173270Y0098580D01*
X0172597Y0098580D01*
X0172597Y0095743D01*
X0170964Y0095743D01*
X0170583Y0095846D01*
X0170241Y0096043D01*
X0170133Y0096150D01*
X0170026Y0096043D01*
X0169684Y0095846D01*
X0169302Y0095743D01*
X0167670Y0095743D01*
X0167670Y0098580D01*
X0167670Y0099253D01*
X0172597Y0099253D01*
X0172597Y0098580D01*
X0169662Y0098580D01*
X0167670Y0098580D01*
X0166997Y0098580D01*
X0166997Y0095743D01*
X0165364Y0095743D01*
X0164983Y0095846D01*
X0164641Y0096043D01*
X0164361Y0096322D01*
X0164164Y0096664D01*
X0164062Y0097046D01*
X0164062Y0098580D01*
X0166997Y0098580D01*
X0166997Y0099253D01*
X0164062Y0099253D01*
X0164062Y0100787D01*
X0164087Y0100881D01*
X0163862Y0101106D01*
X0163862Y0101283D01*
X0159139Y0101283D01*
X0157850Y0102572D01*
X0157850Y0102572D01*
X0153222Y0107200D01*
X0151933Y0108489D01*
X0151933Y0112869D01*
X0148420Y0112869D01*
X0148504Y0112784D01*
X0148983Y0111627D01*
X0148983Y0110373D01*
X0148524Y0109264D01*
X0149004Y0108784D01*
X0149483Y0107627D01*
X0149483Y0106373D01*
X0149004Y0105216D01*
X0148118Y0104330D01*
X0146960Y0103850D01*
X0145707Y0103850D01*
X0144549Y0104330D01*
X0143984Y0104894D01*
X0140376Y0104894D01*
X0139695Y0104213D01*
X0132972Y0104213D01*
X0132225Y0104960D01*
X0131960Y0104850D01*
X0130707Y0104850D01*
X0129549Y0105330D01*
X0128663Y0106216D01*
X0128183Y0107373D01*
X0128183Y0108627D01*
X0128663Y0109784D01*
X0129287Y0110408D01*
X0126749Y0112946D01*
X0126749Y0117386D01*
X0128575Y0119212D01*
X0128575Y0125528D01*
X0129805Y0126758D01*
X0129805Y0126758D01*
X0132474Y0129427D01*
X0131662Y0130239D01*
X0131662Y0139561D01*
X0132298Y0140197D01*
X0132183Y0140473D01*
X0132183Y0141727D01*
X0132663Y0142884D01*
X0133549Y0143770D01*
X0134201Y0144040D01*
X0132991Y0143600D01*
X0129676Y0143600D01*
X0126561Y0144734D01*
X0126561Y0144734D01*
X0124021Y0146865D01*
X0122364Y0149735D01*
X0121788Y0153000D01*
X0121788Y0153000D01*
X0122217Y0155432D01*
X0122020Y0155350D01*
X0120847Y0155350D01*
X0119762Y0155799D01*
X0118932Y0156629D01*
X0118483Y0157713D01*
X0118483Y0158887D01*
X0118932Y0159971D01*
X0119762Y0160801D01*
X0120002Y0160900D01*
X0118433Y0160900D01*
X0118433Y0128086D01*
X0126506Y0128086D01*
X0127502Y0127090D01*
X0127502Y0120957D01*
X0126506Y0119961D01*
X0118433Y0119961D01*
X0118433Y0106039D01*
X0126506Y0106039D01*
X0127502Y0105043D01*
X0127502Y0098910D01*
X0126506Y0097914D01*
X0118433Y0097914D01*
X0118433Y0096949D02*
X0164088Y0096949D01*
X0164062Y0097948D02*
X0126540Y0097948D01*
X0127502Y0098946D02*
X0166997Y0098946D01*
X0167670Y0098946D02*
X0172597Y0098946D01*
X0173270Y0098946D02*
X0178097Y0098946D01*
X0178770Y0098946D02*
X0183749Y0098946D01*
X0184718Y0098946D02*
X0215165Y0098946D01*
X0215165Y0099945D02*
X0187702Y0099945D01*
X0187702Y0100943D02*
X0215165Y0100943D01*
X0215165Y0101942D02*
X0187574Y0101942D01*
X0187865Y0102940D02*
X0215165Y0102940D01*
X0215165Y0103939D02*
X0187902Y0103939D01*
X0187902Y0104937D02*
X0202530Y0104937D01*
X0202176Y0105936D02*
X0187902Y0105936D01*
X0188433Y0106934D02*
X0202176Y0106934D01*
X0202176Y0107933D02*
X0189431Y0107933D01*
X0189650Y0108932D02*
X0202191Y0108932D01*
X0201976Y0109930D02*
X0189650Y0109930D01*
X0187450Y0109063D02*
X0187450Y0113000D01*
X0187950Y0113500D01*
X0192017Y0113500D01*
X0195833Y0113500D01*
X0195933Y0113400D01*
X0198733Y0111927D02*
X0201976Y0111927D01*
X0201976Y0110929D02*
X0197917Y0110929D01*
X0199083Y0112926D02*
X0201985Y0112926D01*
X0201808Y0113924D02*
X0199083Y0113924D01*
X0198712Y0114923D02*
X0200809Y0114923D01*
X0200433Y0115921D02*
X0197867Y0115921D01*
X0200433Y0116920D02*
X0195187Y0116920D01*
X0195190Y0117918D02*
X0200433Y0117918D01*
X0200433Y0118917D02*
X0192353Y0118917D01*
X0192353Y0119915D02*
X0191680Y0119915D01*
X0191680Y0120914D02*
X0192353Y0120914D01*
X0192353Y0121912D02*
X0191680Y0121912D01*
X0191680Y0122911D02*
X0192353Y0122911D01*
X0192353Y0123909D02*
X0191680Y0123909D01*
X0191680Y0124908D02*
X0192353Y0124908D01*
X0192353Y0125906D02*
X0191680Y0125906D01*
X0191680Y0126905D02*
X0192353Y0126905D01*
X0194941Y0126905D02*
X0202133Y0126905D01*
X0202133Y0127903D02*
X0184006Y0127903D01*
X0184206Y0126905D02*
X0183008Y0126905D01*
X0183928Y0125906D02*
X0182009Y0125906D01*
X0184086Y0122953D02*
X0185733Y0124600D01*
X0187150Y0124600D01*
X0187450Y0124300D01*
X0187450Y0118900D01*
X0186533Y0118900D01*
X0185333Y0120100D01*
X0184249Y0119016D01*
X0178814Y0119016D01*
X0178814Y0120984D02*
X0184449Y0120984D01*
X0185333Y0120100D01*
X0187450Y0118900D02*
X0187450Y0113500D01*
X0187450Y0113000D01*
X0187450Y0109063D02*
X0184233Y0105846D01*
X0181870Y0103483D01*
X0178433Y0103483D01*
X0172933Y0103483D01*
X0167333Y0103483D01*
X0160050Y0103483D01*
X0154133Y0109400D01*
X0154133Y0115100D01*
X0154002Y0114969D01*
X0154133Y0115100D02*
X0154133Y0119000D01*
X0154149Y0119016D01*
X0157270Y0119016D01*
X0157336Y0118950D01*
X0159531Y0118950D01*
X0159597Y0119016D01*
X0164050Y0119016D01*
X0166833Y0119500D02*
X0170833Y0119500D01*
X0170833Y0120500D01*
X0166833Y0120500D01*
X0166833Y0119500D01*
X0166833Y0119915D02*
X0170833Y0119915D01*
X0171833Y0119915D02*
X0176031Y0119915D01*
X0176031Y0119788D02*
X0176031Y0120500D01*
X0171833Y0120500D01*
X0171833Y0119500D01*
X0176031Y0119500D01*
X0176031Y0119788D01*
X0178814Y0122953D02*
X0184086Y0122953D01*
X0185005Y0128902D02*
X0202133Y0128902D01*
X0202133Y0129900D02*
X0197735Y0129900D01*
X0199040Y0130899D02*
X0202133Y0130899D01*
X0202133Y0131897D02*
X0199557Y0131897D01*
X0199733Y0132896D02*
X0202133Y0132896D01*
X0202133Y0133894D02*
X0199643Y0133894D01*
X0199229Y0134893D02*
X0202133Y0134893D01*
X0202133Y0135891D02*
X0198238Y0135891D01*
X0202133Y0136890D02*
X0194309Y0136890D01*
X0193600Y0137888D02*
X0202133Y0137888D01*
X0202133Y0138887D02*
X0182505Y0138887D01*
X0182505Y0139885D02*
X0194968Y0139885D01*
X0193641Y0140884D02*
X0182505Y0140884D01*
X0182505Y0141882D02*
X0193116Y0141882D01*
X0192933Y0142881D02*
X0182213Y0142881D01*
X0179570Y0142881D02*
X0178897Y0142881D01*
X0178897Y0141882D02*
X0179570Y0141882D01*
X0179570Y0140884D02*
X0178897Y0140884D01*
X0178897Y0140637D02*
X0178897Y0139963D01*
X0177658Y0139963D01*
X0177658Y0140195D01*
X0174296Y0140195D01*
X0174296Y0141195D01*
X0175962Y0141195D01*
X0175962Y0140637D01*
X0178897Y0140637D01*
X0175962Y0140884D02*
X0174296Y0140884D01*
X0174295Y0141882D02*
X0173296Y0141882D01*
X0173296Y0142881D02*
X0174295Y0142881D01*
X0174295Y0143879D02*
X0173296Y0143879D01*
X0177260Y0143879D02*
X0193017Y0143879D01*
X0193431Y0144878D02*
X0136278Y0144878D01*
X0136855Y0143879D02*
X0139812Y0143879D01*
X0138661Y0142881D02*
X0138005Y0142881D01*
X0137468Y0145876D02*
X0194401Y0145876D01*
X0194289Y0146875D02*
X0138651Y0146875D01*
X0139228Y0147873D02*
X0193290Y0147873D01*
X0192291Y0148872D02*
X0139804Y0148872D01*
X0140327Y0149870D02*
X0172493Y0149870D01*
X0171494Y0150869D02*
X0140503Y0150869D01*
X0140679Y0151868D02*
X0170496Y0151868D01*
X0169497Y0152866D02*
X0168050Y0152866D01*
X0164617Y0152866D02*
X0158050Y0152866D01*
X0159835Y0153865D02*
X0162832Y0153865D01*
X0161834Y0154863D02*
X0160833Y0154863D01*
X0161292Y0155862D02*
X0161374Y0155862D01*
X0154617Y0152866D02*
X0147159Y0152866D01*
X0146833Y0152866D02*
X0145833Y0152866D01*
X0145507Y0152866D02*
X0140855Y0152866D01*
X0140726Y0153865D02*
X0143179Y0153865D01*
X0142185Y0154863D02*
X0140550Y0154863D01*
X0140374Y0155862D02*
X0141587Y0155862D01*
X0141249Y0156860D02*
X0139959Y0156860D01*
X0139382Y0157859D02*
X0145833Y0157859D01*
X0145833Y0156860D02*
X0146833Y0156860D01*
X0146833Y0155862D02*
X0145833Y0155862D01*
X0145833Y0154863D02*
X0146833Y0154863D01*
X0146833Y0153865D02*
X0145833Y0153865D01*
X0149488Y0153865D02*
X0152832Y0153865D01*
X0151834Y0154863D02*
X0150482Y0154863D01*
X0151080Y0155862D02*
X0151374Y0155862D01*
X0141204Y0158857D02*
X0138806Y0158857D01*
X0137787Y0159856D02*
X0141469Y0159856D01*
X0141979Y0160854D02*
X0136597Y0160854D01*
X0122117Y0154863D02*
X0118433Y0154863D01*
X0118433Y0153865D02*
X0121941Y0153865D01*
X0121812Y0152866D02*
X0118433Y0152866D01*
X0118433Y0151868D02*
X0121988Y0151868D01*
X0122164Y0150869D02*
X0118433Y0150869D01*
X0118433Y0149870D02*
X0122340Y0149870D01*
X0122862Y0148872D02*
X0118433Y0148872D01*
X0118433Y0147873D02*
X0123439Y0147873D01*
X0124015Y0146875D02*
X0118433Y0146875D01*
X0118433Y0145876D02*
X0125199Y0145876D01*
X0126389Y0144878D02*
X0118433Y0144878D01*
X0118433Y0143879D02*
X0128908Y0143879D01*
X0132661Y0142881D02*
X0118433Y0142881D01*
X0118433Y0141882D02*
X0132248Y0141882D01*
X0132183Y0140884D02*
X0118433Y0140884D01*
X0118433Y0139885D02*
X0131986Y0139885D01*
X0131662Y0138887D02*
X0118433Y0138887D01*
X0118433Y0137888D02*
X0131662Y0137888D01*
X0131662Y0136890D02*
X0118433Y0136890D01*
X0118433Y0135891D02*
X0131662Y0135891D01*
X0131662Y0134893D02*
X0118433Y0134893D01*
X0118433Y0133894D02*
X0131662Y0133894D01*
X0131662Y0132896D02*
X0118433Y0132896D01*
X0118433Y0131897D02*
X0131662Y0131897D01*
X0131662Y0130899D02*
X0118433Y0130899D01*
X0118433Y0129900D02*
X0132001Y0129900D01*
X0131949Y0128902D02*
X0118433Y0128902D01*
X0126689Y0127903D02*
X0130950Y0127903D01*
X0129952Y0126905D02*
X0127502Y0126905D01*
X0127502Y0125906D02*
X0128953Y0125906D01*
X0128575Y0124908D02*
X0127502Y0124908D01*
X0127502Y0123909D02*
X0128575Y0123909D01*
X0128575Y0122911D02*
X0127502Y0122911D01*
X0127502Y0121912D02*
X0128575Y0121912D01*
X0128575Y0120914D02*
X0127458Y0120914D01*
X0128575Y0119915D02*
X0118433Y0119915D01*
X0118433Y0118917D02*
X0128280Y0118917D01*
X0127282Y0117918D02*
X0118433Y0117918D01*
X0118433Y0116920D02*
X0126749Y0116920D01*
X0126749Y0115921D02*
X0118433Y0115921D01*
X0118433Y0114923D02*
X0126749Y0114923D01*
X0126749Y0113924D02*
X0118433Y0113924D01*
X0118433Y0112926D02*
X0126769Y0112926D01*
X0127768Y0111927D02*
X0118433Y0111927D01*
X0118433Y0110929D02*
X0128766Y0110929D01*
X0128809Y0109930D02*
X0118433Y0109930D01*
X0118433Y0108932D02*
X0128310Y0108932D01*
X0128183Y0107933D02*
X0118433Y0107933D01*
X0118433Y0106934D02*
X0128365Y0106934D01*
X0128943Y0105936D02*
X0126609Y0105936D01*
X0127502Y0104937D02*
X0130496Y0104937D01*
X0132171Y0104937D02*
X0132248Y0104937D01*
X0136333Y0107094D02*
X0146239Y0107094D01*
X0146333Y0107000D01*
X0149483Y0106934D02*
X0153488Y0106934D01*
X0154486Y0105936D02*
X0149302Y0105936D01*
X0148726Y0104937D02*
X0155485Y0104937D01*
X0156483Y0103939D02*
X0147175Y0103939D01*
X0145492Y0103939D02*
X0127502Y0103939D01*
X0127502Y0102940D02*
X0157482Y0102940D01*
X0158480Y0101942D02*
X0127502Y0101942D01*
X0127502Y0100943D02*
X0164024Y0100943D01*
X0164062Y0099945D02*
X0127502Y0099945D01*
X0118433Y0095951D02*
X0164800Y0095951D01*
X0166997Y0095951D02*
X0167670Y0095951D01*
X0167670Y0096949D02*
X0166997Y0096949D01*
X0166997Y0097948D02*
X0167670Y0097948D01*
X0169866Y0095951D02*
X0170400Y0095951D01*
X0172597Y0095951D02*
X0173270Y0095951D01*
X0173270Y0096949D02*
X0172597Y0096949D01*
X0172597Y0097948D02*
X0173270Y0097948D01*
X0175466Y0095951D02*
X0175900Y0095951D01*
X0178097Y0095951D02*
X0178770Y0095951D01*
X0178770Y0096949D02*
X0178097Y0096949D01*
X0178097Y0097948D02*
X0178770Y0097948D01*
X0180966Y0095951D02*
X0181181Y0095951D01*
X0183749Y0095951D02*
X0184718Y0095951D01*
X0184718Y0096949D02*
X0183749Y0096949D01*
X0183749Y0097948D02*
X0184718Y0097948D01*
X0187702Y0097948D02*
X0216127Y0097948D01*
X0224233Y0096949D02*
X0187702Y0096949D01*
X0187286Y0095951D02*
X0224233Y0095951D01*
X0224233Y0094952D02*
X0118433Y0094952D01*
X0118433Y0093954D02*
X0224233Y0093954D01*
X0224233Y0092955D02*
X0118433Y0092955D01*
X0118433Y0091957D02*
X0224233Y0091957D01*
X0224233Y0090958D02*
X0118433Y0090958D01*
X0118433Y0089960D02*
X0224233Y0089960D01*
X0224233Y0088961D02*
X0118433Y0088961D01*
X0118433Y0087963D02*
X0224233Y0087963D01*
X0224233Y0086964D02*
X0118433Y0086964D01*
X0118433Y0085966D02*
X0224233Y0085966D01*
X0224233Y0084967D02*
X0118433Y0084967D01*
X0118433Y0083969D02*
X0224233Y0083969D01*
X0224233Y0082970D02*
X0208445Y0082970D01*
X0209998Y0081972D02*
X0224233Y0081972D01*
X0224233Y0080973D02*
X0210947Y0080973D01*
X0211360Y0079975D02*
X0224233Y0079975D01*
X0224233Y0078976D02*
X0211733Y0078976D01*
X0211733Y0077978D02*
X0224233Y0077978D01*
X0224233Y0076979D02*
X0211733Y0076979D01*
X0211342Y0075981D02*
X0224233Y0075981D01*
X0224233Y0074982D02*
X0210928Y0074982D01*
X0209954Y0073984D02*
X0224233Y0073984D01*
X0224233Y0072985D02*
X0208337Y0072985D01*
X0209693Y0071987D02*
X0224233Y0071987D01*
X0224233Y0070988D02*
X0210590Y0070988D01*
X0211154Y0069990D02*
X0219151Y0069990D01*
X0218551Y0068991D02*
X0211441Y0068991D01*
X0211439Y0066994D02*
X0218557Y0066994D01*
X0218383Y0067993D02*
X0206833Y0067993D01*
X0205833Y0067993D02*
X0196833Y0067993D01*
X0196833Y0067500D02*
X0196833Y0068500D01*
X0205833Y0068500D01*
X0205833Y0067500D01*
X0201519Y0067500D01*
X0196833Y0067500D01*
X0195833Y0067500D02*
X0191519Y0067500D01*
X0186833Y0067500D01*
X0186833Y0068500D01*
X0195833Y0068500D01*
X0195833Y0067500D01*
X0195833Y0067993D02*
X0186833Y0067993D01*
X0185833Y0067993D02*
X0176833Y0067993D01*
X0176833Y0067500D02*
X0176833Y0068500D01*
X0185833Y0068500D01*
X0185833Y0067500D01*
X0181148Y0067500D01*
X0176833Y0067500D01*
X0175833Y0067500D02*
X0171148Y0067500D01*
X0166833Y0067500D01*
X0166833Y0068500D01*
X0175833Y0068500D01*
X0175833Y0067500D01*
X0175833Y0067993D02*
X0166833Y0067993D01*
X0165833Y0067993D02*
X0156833Y0067993D01*
X0156833Y0067500D02*
X0156833Y0068500D01*
X0165833Y0068500D01*
X0165833Y0067500D01*
X0161148Y0067500D01*
X0156833Y0067500D01*
X0155833Y0067500D02*
X0151148Y0067500D01*
X0146833Y0067500D01*
X0146833Y0068500D01*
X0155833Y0068500D01*
X0155833Y0067500D01*
X0155833Y0067993D02*
X0146833Y0067993D01*
X0145833Y0067993D02*
X0136833Y0067993D01*
X0136833Y0067500D02*
X0136833Y0068500D01*
X0145833Y0068500D01*
X0145833Y0067500D01*
X0141148Y0067500D01*
X0136833Y0067500D01*
X0135833Y0067993D02*
X0118433Y0067993D01*
X0118433Y0068991D02*
X0131225Y0068991D01*
X0131512Y0069990D02*
X0118433Y0069990D01*
X0118433Y0070988D02*
X0132077Y0070988D01*
X0132974Y0071987D02*
X0118433Y0071987D01*
X0118433Y0072985D02*
X0134329Y0072985D01*
X0132713Y0073984D02*
X0118433Y0073984D01*
X0118433Y0074982D02*
X0131738Y0074982D01*
X0131325Y0075981D02*
X0118433Y0075981D01*
X0118433Y0076979D02*
X0130933Y0076979D01*
X0130933Y0077978D02*
X0118433Y0077978D01*
X0118433Y0078976D02*
X0130933Y0078976D01*
X0131306Y0079975D02*
X0118433Y0079975D01*
X0118433Y0080973D02*
X0131720Y0080973D01*
X0132668Y0081972D02*
X0118433Y0081972D01*
X0118433Y0082970D02*
X0134222Y0082970D01*
X0138445Y0082970D02*
X0144222Y0082970D01*
X0142668Y0081972D02*
X0139998Y0081972D01*
X0140947Y0080973D02*
X0141720Y0080973D01*
X0148445Y0082970D02*
X0154222Y0082970D01*
X0152668Y0081972D02*
X0149998Y0081972D01*
X0150947Y0080973D02*
X0151720Y0080973D01*
X0158445Y0082970D02*
X0164222Y0082970D01*
X0162668Y0081972D02*
X0159998Y0081972D01*
X0160947Y0080973D02*
X0161720Y0080973D01*
X0168445Y0082970D02*
X0174222Y0082970D01*
X0172668Y0081972D02*
X0169998Y0081972D01*
X0170947Y0080973D02*
X0171720Y0080973D01*
X0178445Y0082970D02*
X0184222Y0082970D01*
X0182668Y0081972D02*
X0179998Y0081972D01*
X0180947Y0080973D02*
X0181720Y0080973D01*
X0188445Y0082970D02*
X0194222Y0082970D01*
X0192668Y0081972D02*
X0189998Y0081972D01*
X0190947Y0080973D02*
X0191720Y0080973D01*
X0198445Y0082970D02*
X0204222Y0082970D01*
X0202668Y0081972D02*
X0199998Y0081972D01*
X0200947Y0080973D02*
X0201720Y0080973D01*
X0223516Y0069990D02*
X0224233Y0069990D01*
X0224233Y0068991D02*
X0224116Y0068991D01*
X0219166Y0065996D02*
X0211148Y0065996D01*
X0178433Y0103483D02*
X0178433Y0109200D01*
X0176255Y0111379D01*
X0176255Y0112717D01*
X0170349Y0112717D02*
X0170349Y0109700D01*
X0167033Y0106384D01*
X0167033Y0103783D01*
X0167333Y0103483D01*
X0152489Y0107933D02*
X0149356Y0107933D01*
X0148857Y0108932D02*
X0151933Y0108932D01*
X0151933Y0109930D02*
X0148800Y0109930D01*
X0148983Y0110929D02*
X0151933Y0110929D01*
X0151933Y0111927D02*
X0148859Y0111927D01*
X0151933Y0117918D02*
X0140491Y0117918D01*
X0140491Y0119915D02*
X0147755Y0119915D01*
X0146835Y0120914D02*
X0140245Y0120914D01*
X0136424Y0120914D02*
X0136243Y0120914D01*
X0136243Y0119915D02*
X0136424Y0119915D01*
X0136424Y0118917D02*
X0151933Y0118917D01*
X0150286Y0119915D02*
X0149613Y0119915D01*
X0149613Y0120914D02*
X0150286Y0120914D01*
X0150286Y0121912D02*
X0149613Y0121912D01*
X0149613Y0122911D02*
X0134425Y0122911D01*
X0134425Y0121912D02*
X0146777Y0121912D01*
X0146777Y0123909D02*
X0135196Y0123909D01*
X0136194Y0124908D02*
X0146777Y0124908D01*
X0147190Y0125906D02*
X0137193Y0125906D01*
X0138191Y0126905D02*
X0146810Y0126905D01*
X0146777Y0127903D02*
X0139190Y0127903D01*
X0140188Y0128902D02*
X0149613Y0128902D01*
X0149613Y0129900D02*
X0150286Y0129900D01*
X0150286Y0130899D02*
X0149613Y0130899D01*
X0149613Y0131897D02*
X0150286Y0131897D01*
X0150286Y0132896D02*
X0149613Y0132896D01*
X0149613Y0133894D02*
X0150286Y0133894D01*
X0149613Y0134893D02*
X0144805Y0134893D01*
X0144805Y0135891D02*
X0146777Y0135891D01*
X0146863Y0136890D02*
X0144805Y0136890D01*
X0144805Y0137888D02*
X0151384Y0137888D01*
X0151183Y0138887D02*
X0144805Y0138887D01*
X0144480Y0139885D02*
X0151291Y0139885D01*
X0151762Y0140884D02*
X0144483Y0140884D01*
X0144419Y0141882D02*
X0153061Y0141882D01*
X0155606Y0141882D02*
X0158262Y0141882D01*
X0158262Y0140884D02*
X0156904Y0140884D01*
X0157376Y0139885D02*
X0158262Y0139885D01*
X0158262Y0138887D02*
X0157483Y0138887D01*
X0157282Y0137888D02*
X0158262Y0137888D01*
X0158462Y0136890D02*
X0157890Y0136890D01*
X0157890Y0135891D02*
X0161397Y0135891D01*
X0162070Y0135891D02*
X0163240Y0135891D01*
X0163240Y0135937D02*
X0162070Y0135937D01*
X0162070Y0135263D01*
X0165005Y0135263D01*
X0165005Y0134683D01*
X0166603Y0134683D01*
X0166603Y0135683D01*
X0163240Y0135683D01*
X0163240Y0135937D01*
X0165005Y0134893D02*
X0166603Y0134893D01*
X0166833Y0131800D02*
X0168381Y0130253D01*
X0168381Y0127480D01*
X0166412Y0127480D02*
X0166412Y0129421D01*
X0165733Y0130100D01*
X0163233Y0130100D01*
X0162133Y0129000D01*
X0161683Y0128902D02*
X0164458Y0128902D01*
X0164420Y0128760D02*
X0164420Y0127480D01*
X0164420Y0127113D01*
X0163290Y0127113D01*
X0161683Y0128720D01*
X0161683Y0129427D01*
X0161611Y0129600D01*
X0164836Y0129600D01*
X0164720Y0129484D01*
X0164522Y0129142D01*
X0164420Y0128760D01*
X0164420Y0127903D02*
X0162500Y0127903D01*
X0164420Y0127480D02*
X0166181Y0127480D01*
X0164420Y0127480D01*
X0166181Y0127480D02*
X0166181Y0127480D01*
X0166833Y0131800D02*
X0154517Y0131800D01*
X0154517Y0129000D01*
X0154517Y0123800D01*
X0154133Y0123417D01*
X0154133Y0119000D01*
X0154517Y0123100D02*
X0154517Y0123800D01*
X0150286Y0123909D02*
X0149613Y0123909D01*
X0149613Y0124908D02*
X0150286Y0124908D01*
X0150286Y0125906D02*
X0149613Y0125906D01*
X0149613Y0126905D02*
X0150286Y0126905D01*
X0150286Y0127903D02*
X0149613Y0127903D01*
X0146777Y0129900D02*
X0144466Y0129900D01*
X0144805Y0130899D02*
X0146777Y0130899D01*
X0147086Y0131897D02*
X0144805Y0131897D01*
X0144805Y0132896D02*
X0146777Y0132896D01*
X0146777Y0133894D02*
X0144805Y0133894D01*
X0149613Y0135891D02*
X0150286Y0135891D01*
X0150286Y0136890D02*
X0149613Y0136890D01*
X0154333Y0134783D02*
X0154333Y0139000D01*
X0154333Y0134783D02*
X0154517Y0134600D01*
X0154517Y0131800D01*
X0157890Y0134893D02*
X0158462Y0134893D01*
X0158598Y0142881D02*
X0144005Y0142881D01*
X0142855Y0143879D02*
X0163355Y0143879D01*
X0182705Y0137888D02*
X0189267Y0137888D01*
X0184253Y0136890D02*
X0182705Y0136890D01*
X0182705Y0135891D02*
X0183255Y0135891D01*
X0187002Y0130899D02*
X0193626Y0130899D01*
X0194932Y0129900D02*
X0186003Y0129900D01*
X0195190Y0125906D02*
X0201685Y0125906D01*
X0201200Y0124908D02*
X0195190Y0124908D01*
X0195190Y0123909D02*
X0201083Y0123909D01*
X0200433Y0122911D02*
X0195190Y0122911D01*
X0195066Y0121912D02*
X0200433Y0121912D01*
X0200433Y0120914D02*
X0195178Y0120914D01*
X0195190Y0119915D02*
X0200433Y0119915D01*
X0210923Y0116920D02*
X0224233Y0116920D01*
X0224233Y0117918D02*
X0213406Y0117918D01*
X0214170Y0118917D02*
X0224233Y0118917D01*
X0224233Y0119915D02*
X0214483Y0119915D01*
X0214483Y0120914D02*
X0215208Y0120914D01*
X0215165Y0121912D02*
X0214075Y0121912D01*
X0213392Y0122911D02*
X0215165Y0122911D01*
X0215165Y0123909D02*
X0212394Y0123909D01*
X0211395Y0124908D02*
X0215165Y0124908D01*
X0215165Y0125906D02*
X0211407Y0125906D01*
X0211683Y0126905D02*
X0212296Y0126905D01*
X0212077Y0127903D02*
X0211652Y0127903D01*
X0211238Y0128902D02*
X0212077Y0128902D01*
X0212077Y0129900D02*
X0210246Y0129900D01*
X0209733Y0130899D02*
X0212077Y0130899D01*
X0211971Y0131897D02*
X0209733Y0131897D01*
X0209733Y0132896D02*
X0211379Y0132896D01*
X0211312Y0133894D02*
X0209733Y0133894D01*
X0209733Y0134893D02*
X0214296Y0134893D01*
X0211312Y0135891D02*
X0209733Y0135891D01*
X0209733Y0136890D02*
X0211429Y0136890D01*
X0212184Y0137888D02*
X0209733Y0137888D01*
X0209733Y0138887D02*
X0212061Y0138887D01*
X0211983Y0139885D02*
X0209733Y0139885D01*
X0209733Y0140884D02*
X0212214Y0140884D01*
X0212861Y0141882D02*
X0209733Y0141882D01*
X0209022Y0142881D02*
X0224233Y0142881D01*
X0224233Y0143879D02*
X0213758Y0143879D01*
X0216278Y0144878D02*
X0224233Y0144878D01*
X0224233Y0145876D02*
X0217468Y0145876D01*
X0218651Y0146875D02*
X0224233Y0146875D01*
X0224233Y0147873D02*
X0219228Y0147873D01*
X0219804Y0148872D02*
X0224233Y0148872D01*
X0224233Y0149870D02*
X0220327Y0149870D01*
X0220503Y0150869D02*
X0224233Y0150869D01*
X0224233Y0151868D02*
X0220679Y0151868D01*
X0220855Y0152866D02*
X0224233Y0152866D01*
X0224233Y0153865D02*
X0220726Y0153865D01*
X0220550Y0154863D02*
X0224233Y0154863D01*
X0224233Y0155862D02*
X0220374Y0155862D01*
X0219959Y0156860D02*
X0224233Y0156860D01*
X0224233Y0157859D02*
X0219382Y0157859D01*
X0218806Y0158857D02*
X0224233Y0158857D01*
X0224233Y0159856D02*
X0217787Y0159856D01*
X0216597Y0160854D02*
X0224233Y0160854D01*
X0208908Y0143879D02*
X0208024Y0143879D01*
X0201278Y0139885D02*
X0197699Y0139885D01*
X0199026Y0140884D02*
X0200280Y0140884D01*
X0217406Y0141882D02*
X0224233Y0141882D01*
X0224233Y0140884D02*
X0218052Y0140884D01*
X0218283Y0139885D02*
X0224233Y0139885D01*
X0224233Y0138887D02*
X0218916Y0138887D01*
X0224233Y0115921D02*
X0210691Y0115921D01*
X0210691Y0114923D02*
X0224233Y0114923D01*
X0224233Y0113924D02*
X0212505Y0113924D01*
X0213863Y0112926D02*
X0224233Y0112926D01*
X0224233Y0111927D02*
X0214359Y0111927D01*
X0214483Y0110929D02*
X0224233Y0110929D01*
X0224233Y0109930D02*
X0214300Y0109930D01*
X0213720Y0108932D02*
X0224233Y0108932D01*
X0224233Y0107933D02*
X0212160Y0107933D01*
X0210506Y0107933D02*
X0210491Y0107933D01*
X0210491Y0106934D02*
X0224233Y0106934D01*
X0216058Y0105936D02*
X0210491Y0105936D01*
X0210136Y0104937D02*
X0215165Y0104937D01*
X0206424Y0104937D02*
X0206243Y0104937D01*
X0206243Y0105936D02*
X0206424Y0105936D01*
X0206424Y0106934D02*
X0206243Y0106934D01*
X0206333Y0111031D02*
X0211302Y0111031D01*
X0211333Y0111000D01*
X0133812Y0143879D02*
X0133758Y0143879D01*
X0119700Y0155862D02*
X0118433Y0155862D01*
X0118433Y0156860D02*
X0118837Y0156860D01*
X0118483Y0157859D02*
X0118433Y0157859D01*
X0118433Y0158857D02*
X0118483Y0158857D01*
X0118433Y0159856D02*
X0118885Y0159856D01*
X0118433Y0160854D02*
X0119891Y0160854D01*
X0118433Y0066994D02*
X0131228Y0066994D01*
X0131519Y0065996D02*
X0118433Y0065996D01*
D24*
X0155833Y0090100D03*
X0161533Y0086600D03*
X0167633Y0086800D03*
X0173933Y0086400D03*
X0181833Y0087200D03*
X0191133Y0088100D03*
X0194933Y0094800D03*
X0185533Y0094100D03*
X0179033Y0094500D03*
X0173033Y0094500D03*
X0167433Y0094500D03*
X0161533Y0097900D03*
X0164333Y0107000D03*
X0162333Y0110000D03*
X0156833Y0111900D03*
X0159433Y0116000D03*
X0158433Y0121600D03*
X0158533Y0125200D03*
X0158533Y0128800D03*
X0162133Y0129000D03*
X0168633Y0119900D03*
X0173833Y0119800D03*
X0183533Y0116300D03*
X0182433Y0112800D03*
X0175433Y0107300D03*
X0171833Y0107400D03*
X0195933Y0113400D03*
X0199533Y0114100D03*
X0199133Y0119300D03*
X0204233Y0124000D03*
X0208533Y0127200D03*
X0211333Y0120300D03*
X0211333Y0111000D03*
X0212133Y0107100D03*
X0192033Y0129100D03*
X0191433Y0135600D03*
X0186233Y0139000D03*
X0199433Y0137300D03*
X0210133Y0143300D03*
X0215133Y0139700D03*
X0166733Y0146900D03*
X0157533Y0141600D03*
X0154333Y0139000D03*
X0146433Y0140700D03*
X0141333Y0141100D03*
X0135333Y0141100D03*
X0145433Y0126500D03*
X0145433Y0121700D03*
X0131433Y0114900D03*
X0131333Y0108000D03*
X0145833Y0111000D03*
X0146333Y0107000D03*
X0147233Y0095400D03*
D25*
X0136333Y0068000D02*
X0131333Y0068000D01*
X0136333Y0068000D02*
X0206333Y0068000D01*
X0211333Y0068000D01*
D26*
X0175433Y0107300D02*
X0174286Y0108447D01*
X0174286Y0112717D01*
X0172318Y0112717D02*
X0172318Y0107884D01*
X0171833Y0107400D01*
X0168381Y0110047D02*
X0165333Y0107000D01*
X0164333Y0107000D01*
X0165433Y0109800D02*
X0162433Y0109800D01*
X0162333Y0109900D01*
X0162333Y0110000D01*
X0165433Y0109800D02*
X0166412Y0110779D01*
X0166412Y0112717D01*
X0168381Y0112717D02*
X0168381Y0110047D01*
X0164050Y0115079D02*
X0162150Y0115079D01*
X0159171Y0112100D01*
X0156833Y0112100D01*
X0156833Y0111900D01*
X0154002Y0114969D02*
X0136333Y0114969D01*
X0132325Y0115792D02*
X0132325Y0124008D01*
X0140933Y0132617D01*
X0141333Y0132617D01*
X0141333Y0137183D02*
X0141333Y0141100D01*
X0135333Y0141100D02*
X0135133Y0140900D01*
X0135133Y0137183D01*
X0135133Y0132617D02*
X0135133Y0129117D01*
X0130675Y0124658D01*
X0130675Y0118342D01*
X0128849Y0116516D01*
X0128849Y0113816D01*
X0131633Y0111031D01*
X0136333Y0111031D01*
X0145802Y0111031D01*
X0145833Y0111000D01*
X0136333Y0107094D02*
X0132239Y0107094D01*
X0131333Y0108000D01*
X0131433Y0114900D02*
X0132325Y0115792D01*
X0158433Y0121600D02*
X0159049Y0120984D01*
X0164050Y0120984D01*
X0164050Y0122953D02*
X0160781Y0122953D01*
X0158533Y0125200D01*
X0158633Y0128800D02*
X0162512Y0124921D01*
X0164050Y0124921D01*
X0170349Y0127480D02*
X0170449Y0127580D01*
X0174286Y0127480D02*
X0174286Y0128653D01*
X0175533Y0129900D01*
X0180233Y0129900D01*
X0185933Y0135600D01*
X0191433Y0135600D01*
X0196333Y0133000D02*
X0186133Y0133000D01*
X0180614Y0127480D01*
X0176255Y0127480D01*
X0172318Y0133706D02*
X0173796Y0135183D01*
X0174345Y0135733D01*
X0179233Y0135733D01*
X0167703Y0140695D02*
X0167103Y0140695D01*
X0166574Y0140167D01*
X0161733Y0140167D01*
X0158633Y0128800D02*
X0158533Y0128800D01*
X0160481Y0117047D02*
X0159433Y0116000D01*
X0160481Y0117047D02*
X0164050Y0117047D01*
X0178814Y0117047D02*
X0182786Y0117047D01*
X0183533Y0116300D01*
X0180155Y0115079D02*
X0182433Y0112800D01*
X0180155Y0115079D02*
X0178814Y0115079D01*
X0202533Y0116169D02*
X0202533Y0122300D01*
X0204233Y0124000D01*
X0204233Y0139900D01*
X0192833Y0151300D01*
X0174033Y0151300D01*
X0167333Y0158000D01*
X0166333Y0158000D01*
X0176333Y0158000D02*
X0179233Y0158000D01*
X0184133Y0153100D01*
X0193433Y0153100D01*
X0205733Y0140800D01*
X0205733Y0126200D01*
X0208933Y0123000D01*
X0210333Y0123000D01*
X0211333Y0122000D01*
X0211333Y0120300D01*
X0209939Y0118906D01*
X0206333Y0118906D01*
X0206333Y0114969D02*
X0203733Y0114969D01*
X0202533Y0116169D01*
X0208533Y0127200D02*
X0207633Y0128100D01*
X0207633Y0141300D01*
X0190933Y0158000D01*
X0186333Y0158000D01*
X0215133Y0139700D02*
X0218333Y0136500D01*
X0218333Y0133000D01*
X0215450Y0130117D01*
X0215450Y0129600D01*
X0220017Y0129600D02*
X0221686Y0131269D01*
X0221686Y0134800D01*
D27*
X0172318Y0133706D02*
X0172318Y0127480D01*
X0170449Y0127580D02*
X0170449Y0137949D01*
X0167703Y0140695D01*
M02*
