G75*
%MOIN*%
%OFA0B0*%
%FSLAX25Y25*%
%IPPOS*%
%LPD*%
%AMOC8*
5,1,8,0,0,1.08239X$1,22.5*
%
%ADD10C,0.00800*%
%ADD11C,0.00000*%
D10*
X0116333Y0063000D02*
X0226333Y0063000D01*
X0226333Y0163000D01*
X0116333Y0163000D01*
X0116333Y0063000D01*
D11*
X0125333Y0153000D02*
X0125335Y0153154D01*
X0125341Y0153309D01*
X0125351Y0153463D01*
X0125365Y0153617D01*
X0125383Y0153770D01*
X0125404Y0153923D01*
X0125430Y0154076D01*
X0125460Y0154227D01*
X0125493Y0154378D01*
X0125531Y0154528D01*
X0125572Y0154677D01*
X0125617Y0154825D01*
X0125666Y0154971D01*
X0125719Y0155117D01*
X0125775Y0155260D01*
X0125835Y0155403D01*
X0125899Y0155543D01*
X0125966Y0155683D01*
X0126037Y0155820D01*
X0126111Y0155955D01*
X0126189Y0156089D01*
X0126270Y0156220D01*
X0126355Y0156349D01*
X0126443Y0156477D01*
X0126534Y0156601D01*
X0126628Y0156724D01*
X0126726Y0156844D01*
X0126826Y0156961D01*
X0126930Y0157076D01*
X0127036Y0157188D01*
X0127145Y0157297D01*
X0127257Y0157403D01*
X0127372Y0157507D01*
X0127489Y0157607D01*
X0127609Y0157705D01*
X0127732Y0157799D01*
X0127856Y0157890D01*
X0127984Y0157978D01*
X0128113Y0158063D01*
X0128244Y0158144D01*
X0128378Y0158222D01*
X0128513Y0158296D01*
X0128650Y0158367D01*
X0128790Y0158434D01*
X0128930Y0158498D01*
X0129073Y0158558D01*
X0129216Y0158614D01*
X0129362Y0158667D01*
X0129508Y0158716D01*
X0129656Y0158761D01*
X0129805Y0158802D01*
X0129955Y0158840D01*
X0130106Y0158873D01*
X0130257Y0158903D01*
X0130410Y0158929D01*
X0130563Y0158950D01*
X0130716Y0158968D01*
X0130870Y0158982D01*
X0131024Y0158992D01*
X0131179Y0158998D01*
X0131333Y0159000D01*
X0131487Y0158998D01*
X0131642Y0158992D01*
X0131796Y0158982D01*
X0131950Y0158968D01*
X0132103Y0158950D01*
X0132256Y0158929D01*
X0132409Y0158903D01*
X0132560Y0158873D01*
X0132711Y0158840D01*
X0132861Y0158802D01*
X0133010Y0158761D01*
X0133158Y0158716D01*
X0133304Y0158667D01*
X0133450Y0158614D01*
X0133593Y0158558D01*
X0133736Y0158498D01*
X0133876Y0158434D01*
X0134016Y0158367D01*
X0134153Y0158296D01*
X0134288Y0158222D01*
X0134422Y0158144D01*
X0134553Y0158063D01*
X0134682Y0157978D01*
X0134810Y0157890D01*
X0134934Y0157799D01*
X0135057Y0157705D01*
X0135177Y0157607D01*
X0135294Y0157507D01*
X0135409Y0157403D01*
X0135521Y0157297D01*
X0135630Y0157188D01*
X0135736Y0157076D01*
X0135840Y0156961D01*
X0135940Y0156844D01*
X0136038Y0156724D01*
X0136132Y0156601D01*
X0136223Y0156477D01*
X0136311Y0156349D01*
X0136396Y0156220D01*
X0136477Y0156089D01*
X0136555Y0155955D01*
X0136629Y0155820D01*
X0136700Y0155683D01*
X0136767Y0155543D01*
X0136831Y0155403D01*
X0136891Y0155260D01*
X0136947Y0155117D01*
X0137000Y0154971D01*
X0137049Y0154825D01*
X0137094Y0154677D01*
X0137135Y0154528D01*
X0137173Y0154378D01*
X0137206Y0154227D01*
X0137236Y0154076D01*
X0137262Y0153923D01*
X0137283Y0153770D01*
X0137301Y0153617D01*
X0137315Y0153463D01*
X0137325Y0153309D01*
X0137331Y0153154D01*
X0137333Y0153000D01*
X0137331Y0152846D01*
X0137325Y0152691D01*
X0137315Y0152537D01*
X0137301Y0152383D01*
X0137283Y0152230D01*
X0137262Y0152077D01*
X0137236Y0151924D01*
X0137206Y0151773D01*
X0137173Y0151622D01*
X0137135Y0151472D01*
X0137094Y0151323D01*
X0137049Y0151175D01*
X0137000Y0151029D01*
X0136947Y0150883D01*
X0136891Y0150740D01*
X0136831Y0150597D01*
X0136767Y0150457D01*
X0136700Y0150317D01*
X0136629Y0150180D01*
X0136555Y0150045D01*
X0136477Y0149911D01*
X0136396Y0149780D01*
X0136311Y0149651D01*
X0136223Y0149523D01*
X0136132Y0149399D01*
X0136038Y0149276D01*
X0135940Y0149156D01*
X0135840Y0149039D01*
X0135736Y0148924D01*
X0135630Y0148812D01*
X0135521Y0148703D01*
X0135409Y0148597D01*
X0135294Y0148493D01*
X0135177Y0148393D01*
X0135057Y0148295D01*
X0134934Y0148201D01*
X0134810Y0148110D01*
X0134682Y0148022D01*
X0134553Y0147937D01*
X0134422Y0147856D01*
X0134288Y0147778D01*
X0134153Y0147704D01*
X0134016Y0147633D01*
X0133876Y0147566D01*
X0133736Y0147502D01*
X0133593Y0147442D01*
X0133450Y0147386D01*
X0133304Y0147333D01*
X0133158Y0147284D01*
X0133010Y0147239D01*
X0132861Y0147198D01*
X0132711Y0147160D01*
X0132560Y0147127D01*
X0132409Y0147097D01*
X0132256Y0147071D01*
X0132103Y0147050D01*
X0131950Y0147032D01*
X0131796Y0147018D01*
X0131642Y0147008D01*
X0131487Y0147002D01*
X0131333Y0147000D01*
X0131179Y0147002D01*
X0131024Y0147008D01*
X0130870Y0147018D01*
X0130716Y0147032D01*
X0130563Y0147050D01*
X0130410Y0147071D01*
X0130257Y0147097D01*
X0130106Y0147127D01*
X0129955Y0147160D01*
X0129805Y0147198D01*
X0129656Y0147239D01*
X0129508Y0147284D01*
X0129362Y0147333D01*
X0129216Y0147386D01*
X0129073Y0147442D01*
X0128930Y0147502D01*
X0128790Y0147566D01*
X0128650Y0147633D01*
X0128513Y0147704D01*
X0128378Y0147778D01*
X0128244Y0147856D01*
X0128113Y0147937D01*
X0127984Y0148022D01*
X0127856Y0148110D01*
X0127732Y0148201D01*
X0127609Y0148295D01*
X0127489Y0148393D01*
X0127372Y0148493D01*
X0127257Y0148597D01*
X0127145Y0148703D01*
X0127036Y0148812D01*
X0126930Y0148924D01*
X0126826Y0149039D01*
X0126726Y0149156D01*
X0126628Y0149276D01*
X0126534Y0149399D01*
X0126443Y0149523D01*
X0126355Y0149651D01*
X0126270Y0149780D01*
X0126189Y0149911D01*
X0126111Y0150045D01*
X0126037Y0150180D01*
X0125966Y0150317D01*
X0125899Y0150457D01*
X0125835Y0150597D01*
X0125775Y0150740D01*
X0125719Y0150883D01*
X0125666Y0151029D01*
X0125617Y0151175D01*
X0125572Y0151323D01*
X0125531Y0151472D01*
X0125493Y0151622D01*
X0125460Y0151773D01*
X0125430Y0151924D01*
X0125404Y0152077D01*
X0125383Y0152230D01*
X0125365Y0152383D01*
X0125351Y0152537D01*
X0125341Y0152691D01*
X0125335Y0152846D01*
X0125333Y0153000D01*
X0205333Y0153000D02*
X0205335Y0153154D01*
X0205341Y0153309D01*
X0205351Y0153463D01*
X0205365Y0153617D01*
X0205383Y0153770D01*
X0205404Y0153923D01*
X0205430Y0154076D01*
X0205460Y0154227D01*
X0205493Y0154378D01*
X0205531Y0154528D01*
X0205572Y0154677D01*
X0205617Y0154825D01*
X0205666Y0154971D01*
X0205719Y0155117D01*
X0205775Y0155260D01*
X0205835Y0155403D01*
X0205899Y0155543D01*
X0205966Y0155683D01*
X0206037Y0155820D01*
X0206111Y0155955D01*
X0206189Y0156089D01*
X0206270Y0156220D01*
X0206355Y0156349D01*
X0206443Y0156477D01*
X0206534Y0156601D01*
X0206628Y0156724D01*
X0206726Y0156844D01*
X0206826Y0156961D01*
X0206930Y0157076D01*
X0207036Y0157188D01*
X0207145Y0157297D01*
X0207257Y0157403D01*
X0207372Y0157507D01*
X0207489Y0157607D01*
X0207609Y0157705D01*
X0207732Y0157799D01*
X0207856Y0157890D01*
X0207984Y0157978D01*
X0208113Y0158063D01*
X0208244Y0158144D01*
X0208378Y0158222D01*
X0208513Y0158296D01*
X0208650Y0158367D01*
X0208790Y0158434D01*
X0208930Y0158498D01*
X0209073Y0158558D01*
X0209216Y0158614D01*
X0209362Y0158667D01*
X0209508Y0158716D01*
X0209656Y0158761D01*
X0209805Y0158802D01*
X0209955Y0158840D01*
X0210106Y0158873D01*
X0210257Y0158903D01*
X0210410Y0158929D01*
X0210563Y0158950D01*
X0210716Y0158968D01*
X0210870Y0158982D01*
X0211024Y0158992D01*
X0211179Y0158998D01*
X0211333Y0159000D01*
X0211487Y0158998D01*
X0211642Y0158992D01*
X0211796Y0158982D01*
X0211950Y0158968D01*
X0212103Y0158950D01*
X0212256Y0158929D01*
X0212409Y0158903D01*
X0212560Y0158873D01*
X0212711Y0158840D01*
X0212861Y0158802D01*
X0213010Y0158761D01*
X0213158Y0158716D01*
X0213304Y0158667D01*
X0213450Y0158614D01*
X0213593Y0158558D01*
X0213736Y0158498D01*
X0213876Y0158434D01*
X0214016Y0158367D01*
X0214153Y0158296D01*
X0214288Y0158222D01*
X0214422Y0158144D01*
X0214553Y0158063D01*
X0214682Y0157978D01*
X0214810Y0157890D01*
X0214934Y0157799D01*
X0215057Y0157705D01*
X0215177Y0157607D01*
X0215294Y0157507D01*
X0215409Y0157403D01*
X0215521Y0157297D01*
X0215630Y0157188D01*
X0215736Y0157076D01*
X0215840Y0156961D01*
X0215940Y0156844D01*
X0216038Y0156724D01*
X0216132Y0156601D01*
X0216223Y0156477D01*
X0216311Y0156349D01*
X0216396Y0156220D01*
X0216477Y0156089D01*
X0216555Y0155955D01*
X0216629Y0155820D01*
X0216700Y0155683D01*
X0216767Y0155543D01*
X0216831Y0155403D01*
X0216891Y0155260D01*
X0216947Y0155117D01*
X0217000Y0154971D01*
X0217049Y0154825D01*
X0217094Y0154677D01*
X0217135Y0154528D01*
X0217173Y0154378D01*
X0217206Y0154227D01*
X0217236Y0154076D01*
X0217262Y0153923D01*
X0217283Y0153770D01*
X0217301Y0153617D01*
X0217315Y0153463D01*
X0217325Y0153309D01*
X0217331Y0153154D01*
X0217333Y0153000D01*
X0217331Y0152846D01*
X0217325Y0152691D01*
X0217315Y0152537D01*
X0217301Y0152383D01*
X0217283Y0152230D01*
X0217262Y0152077D01*
X0217236Y0151924D01*
X0217206Y0151773D01*
X0217173Y0151622D01*
X0217135Y0151472D01*
X0217094Y0151323D01*
X0217049Y0151175D01*
X0217000Y0151029D01*
X0216947Y0150883D01*
X0216891Y0150740D01*
X0216831Y0150597D01*
X0216767Y0150457D01*
X0216700Y0150317D01*
X0216629Y0150180D01*
X0216555Y0150045D01*
X0216477Y0149911D01*
X0216396Y0149780D01*
X0216311Y0149651D01*
X0216223Y0149523D01*
X0216132Y0149399D01*
X0216038Y0149276D01*
X0215940Y0149156D01*
X0215840Y0149039D01*
X0215736Y0148924D01*
X0215630Y0148812D01*
X0215521Y0148703D01*
X0215409Y0148597D01*
X0215294Y0148493D01*
X0215177Y0148393D01*
X0215057Y0148295D01*
X0214934Y0148201D01*
X0214810Y0148110D01*
X0214682Y0148022D01*
X0214553Y0147937D01*
X0214422Y0147856D01*
X0214288Y0147778D01*
X0214153Y0147704D01*
X0214016Y0147633D01*
X0213876Y0147566D01*
X0213736Y0147502D01*
X0213593Y0147442D01*
X0213450Y0147386D01*
X0213304Y0147333D01*
X0213158Y0147284D01*
X0213010Y0147239D01*
X0212861Y0147198D01*
X0212711Y0147160D01*
X0212560Y0147127D01*
X0212409Y0147097D01*
X0212256Y0147071D01*
X0212103Y0147050D01*
X0211950Y0147032D01*
X0211796Y0147018D01*
X0211642Y0147008D01*
X0211487Y0147002D01*
X0211333Y0147000D01*
X0211179Y0147002D01*
X0211024Y0147008D01*
X0210870Y0147018D01*
X0210716Y0147032D01*
X0210563Y0147050D01*
X0210410Y0147071D01*
X0210257Y0147097D01*
X0210106Y0147127D01*
X0209955Y0147160D01*
X0209805Y0147198D01*
X0209656Y0147239D01*
X0209508Y0147284D01*
X0209362Y0147333D01*
X0209216Y0147386D01*
X0209073Y0147442D01*
X0208930Y0147502D01*
X0208790Y0147566D01*
X0208650Y0147633D01*
X0208513Y0147704D01*
X0208378Y0147778D01*
X0208244Y0147856D01*
X0208113Y0147937D01*
X0207984Y0148022D01*
X0207856Y0148110D01*
X0207732Y0148201D01*
X0207609Y0148295D01*
X0207489Y0148393D01*
X0207372Y0148493D01*
X0207257Y0148597D01*
X0207145Y0148703D01*
X0207036Y0148812D01*
X0206930Y0148924D01*
X0206826Y0149039D01*
X0206726Y0149156D01*
X0206628Y0149276D01*
X0206534Y0149399D01*
X0206443Y0149523D01*
X0206355Y0149651D01*
X0206270Y0149780D01*
X0206189Y0149911D01*
X0206111Y0150045D01*
X0206037Y0150180D01*
X0205966Y0150317D01*
X0205899Y0150457D01*
X0205835Y0150597D01*
X0205775Y0150740D01*
X0205719Y0150883D01*
X0205666Y0151029D01*
X0205617Y0151175D01*
X0205572Y0151323D01*
X0205531Y0151472D01*
X0205493Y0151622D01*
X0205460Y0151773D01*
X0205430Y0151924D01*
X0205404Y0152077D01*
X0205383Y0152230D01*
X0205365Y0152383D01*
X0205351Y0152537D01*
X0205341Y0152691D01*
X0205335Y0152846D01*
X0205333Y0153000D01*
M02*
