G75*
%MOIN*%
%OFA0B0*%
%FSLAX25Y25*%
%IPPOS*%
%LPD*%
%AMOC8*
5,1,8,0,0,1.08239X$1,22.5*
%
%ADD10R,0.01784X0.02965*%
%ADD11R,0.02965X0.01784*%
%ADD12R,0.11036X0.11036*%
%ADD13C,0.08200*%
%ADD14C,0.12800*%
%ADD15C,0.03300*%
%ADD16R,0.03300X0.05800*%
%ADD17C,0.00500*%
%ADD18R,0.05524X0.05131*%
%ADD19R,0.04343X0.04146*%
%ADD20C,0.04000*%
%ADD21C,0.04737*%
%ADD22C,0.05000*%
%ADD23C,0.06706*%
D10*
X0093421Y0078467D03*
X0095389Y0078467D03*
X0097358Y0078467D03*
X0099326Y0078467D03*
X0101295Y0078467D03*
X0103263Y0078467D03*
X0103263Y0093230D03*
X0101295Y0093230D03*
X0099326Y0093230D03*
X0097358Y0093230D03*
X0095389Y0093230D03*
X0093421Y0093230D03*
X0093421Y0180467D03*
X0095389Y0180467D03*
X0097358Y0180467D03*
X0099326Y0180467D03*
X0101295Y0180467D03*
X0103263Y0180467D03*
X0103263Y0195230D03*
X0101295Y0195230D03*
X0099326Y0195230D03*
X0097358Y0195230D03*
X0095389Y0195230D03*
X0093421Y0195230D03*
X0093421Y0282467D03*
X0095389Y0282467D03*
X0097358Y0282467D03*
X0099326Y0282467D03*
X0101295Y0282467D03*
X0103263Y0282467D03*
X0103263Y0297230D03*
X0101295Y0297230D03*
X0099326Y0297230D03*
X0097358Y0297230D03*
X0095389Y0297230D03*
X0093421Y0297230D03*
X0093421Y0384467D03*
X0095389Y0384467D03*
X0097358Y0384467D03*
X0099326Y0384467D03*
X0101295Y0384467D03*
X0103263Y0384467D03*
X0103263Y0399230D03*
X0101295Y0399230D03*
X0099326Y0399230D03*
X0097358Y0399230D03*
X0095389Y0399230D03*
X0093421Y0399230D03*
X0093421Y0486467D03*
X0095389Y0486467D03*
X0097358Y0486467D03*
X0099326Y0486467D03*
X0101295Y0486467D03*
X0103263Y0486467D03*
X0103263Y0501230D03*
X0101295Y0501230D03*
X0099326Y0501230D03*
X0097358Y0501230D03*
X0095389Y0501230D03*
X0093421Y0501230D03*
X0093421Y0588467D03*
X0095389Y0588467D03*
X0097358Y0588467D03*
X0099326Y0588467D03*
X0101295Y0588467D03*
X0103263Y0588467D03*
X0103263Y0603230D03*
X0101295Y0603230D03*
X0099326Y0603230D03*
X0097358Y0603230D03*
X0095389Y0603230D03*
X0093421Y0603230D03*
X0093421Y0690467D03*
X0095389Y0690467D03*
X0097358Y0690467D03*
X0099326Y0690467D03*
X0101295Y0690467D03*
X0103263Y0690467D03*
X0103263Y0705230D03*
X0101295Y0705230D03*
X0099326Y0705230D03*
X0097358Y0705230D03*
X0095389Y0705230D03*
X0093421Y0705230D03*
X0205421Y0705230D03*
X0207389Y0705230D03*
X0209358Y0705230D03*
X0211326Y0705230D03*
X0213295Y0705230D03*
X0215263Y0705230D03*
X0215263Y0690467D03*
X0213295Y0690467D03*
X0211326Y0690467D03*
X0209358Y0690467D03*
X0207389Y0690467D03*
X0205421Y0690467D03*
X0205421Y0603230D03*
X0207389Y0603230D03*
X0209358Y0603230D03*
X0211326Y0603230D03*
X0213295Y0603230D03*
X0215263Y0603230D03*
X0215263Y0588467D03*
X0213295Y0588467D03*
X0211326Y0588467D03*
X0209358Y0588467D03*
X0207389Y0588467D03*
X0205421Y0588467D03*
X0205421Y0501230D03*
X0207389Y0501230D03*
X0209358Y0501230D03*
X0211326Y0501230D03*
X0213295Y0501230D03*
X0215263Y0501230D03*
X0215263Y0486467D03*
X0213295Y0486467D03*
X0211326Y0486467D03*
X0209358Y0486467D03*
X0207389Y0486467D03*
X0205421Y0486467D03*
X0205421Y0399230D03*
X0207389Y0399230D03*
X0209358Y0399230D03*
X0211326Y0399230D03*
X0213295Y0399230D03*
X0215263Y0399230D03*
X0215263Y0384467D03*
X0213295Y0384467D03*
X0211326Y0384467D03*
X0209358Y0384467D03*
X0207389Y0384467D03*
X0205421Y0384467D03*
X0205421Y0297230D03*
X0207389Y0297230D03*
X0209358Y0297230D03*
X0211326Y0297230D03*
X0213295Y0297230D03*
X0215263Y0297230D03*
X0215263Y0282467D03*
X0213295Y0282467D03*
X0211326Y0282467D03*
X0209358Y0282467D03*
X0207389Y0282467D03*
X0205421Y0282467D03*
X0205421Y0195230D03*
X0207389Y0195230D03*
X0209358Y0195230D03*
X0211326Y0195230D03*
X0213295Y0195230D03*
X0215263Y0195230D03*
X0215263Y0180467D03*
X0213295Y0180467D03*
X0211326Y0180467D03*
X0209358Y0180467D03*
X0207389Y0180467D03*
X0205421Y0180467D03*
X0205421Y0093230D03*
X0207389Y0093230D03*
X0209358Y0093230D03*
X0211326Y0093230D03*
X0213295Y0093230D03*
X0215263Y0093230D03*
X0215263Y0078467D03*
X0213295Y0078467D03*
X0211326Y0078467D03*
X0209358Y0078467D03*
X0207389Y0078467D03*
X0205421Y0078467D03*
X0317421Y0078467D03*
X0319389Y0078467D03*
X0321358Y0078467D03*
X0323326Y0078467D03*
X0325295Y0078467D03*
X0327263Y0078467D03*
X0327263Y0093230D03*
X0325295Y0093230D03*
X0323326Y0093230D03*
X0321358Y0093230D03*
X0319389Y0093230D03*
X0317421Y0093230D03*
X0317421Y0180467D03*
X0319389Y0180467D03*
X0321358Y0180467D03*
X0323326Y0180467D03*
X0325295Y0180467D03*
X0327263Y0180467D03*
X0327263Y0195230D03*
X0325295Y0195230D03*
X0323326Y0195230D03*
X0321358Y0195230D03*
X0319389Y0195230D03*
X0317421Y0195230D03*
X0317421Y0282467D03*
X0319389Y0282467D03*
X0321358Y0282467D03*
X0323326Y0282467D03*
X0325295Y0282467D03*
X0327263Y0282467D03*
X0327263Y0297230D03*
X0325295Y0297230D03*
X0323326Y0297230D03*
X0321358Y0297230D03*
X0319389Y0297230D03*
X0317421Y0297230D03*
X0317421Y0384467D03*
X0319389Y0384467D03*
X0321358Y0384467D03*
X0323326Y0384467D03*
X0325295Y0384467D03*
X0327263Y0384467D03*
X0327263Y0399230D03*
X0325295Y0399230D03*
X0323326Y0399230D03*
X0321358Y0399230D03*
X0319389Y0399230D03*
X0317421Y0399230D03*
X0317421Y0486467D03*
X0319389Y0486467D03*
X0321358Y0486467D03*
X0323326Y0486467D03*
X0325295Y0486467D03*
X0327263Y0486467D03*
X0327263Y0501230D03*
X0325295Y0501230D03*
X0323326Y0501230D03*
X0321358Y0501230D03*
X0319389Y0501230D03*
X0317421Y0501230D03*
X0317421Y0588467D03*
X0319389Y0588467D03*
X0321358Y0588467D03*
X0323326Y0588467D03*
X0325295Y0588467D03*
X0327263Y0588467D03*
X0327263Y0603230D03*
X0325295Y0603230D03*
X0323326Y0603230D03*
X0321358Y0603230D03*
X0319389Y0603230D03*
X0317421Y0603230D03*
X0317421Y0690467D03*
X0319389Y0690467D03*
X0321358Y0690467D03*
X0323326Y0690467D03*
X0325295Y0690467D03*
X0327263Y0690467D03*
X0327263Y0705230D03*
X0325295Y0705230D03*
X0323326Y0705230D03*
X0321358Y0705230D03*
X0319389Y0705230D03*
X0317421Y0705230D03*
X0429421Y0705230D03*
X0431389Y0705230D03*
X0433358Y0705230D03*
X0435326Y0705230D03*
X0437295Y0705230D03*
X0439263Y0705230D03*
X0439263Y0690467D03*
X0437295Y0690467D03*
X0435326Y0690467D03*
X0433358Y0690467D03*
X0431389Y0690467D03*
X0429421Y0690467D03*
X0429421Y0603230D03*
X0431389Y0603230D03*
X0433358Y0603230D03*
X0435326Y0603230D03*
X0437295Y0603230D03*
X0439263Y0603230D03*
X0439263Y0588467D03*
X0437295Y0588467D03*
X0435326Y0588467D03*
X0433358Y0588467D03*
X0431389Y0588467D03*
X0429421Y0588467D03*
X0429421Y0501230D03*
X0431389Y0501230D03*
X0433358Y0501230D03*
X0435326Y0501230D03*
X0437295Y0501230D03*
X0439263Y0501230D03*
X0439263Y0486467D03*
X0437295Y0486467D03*
X0435326Y0486467D03*
X0433358Y0486467D03*
X0431389Y0486467D03*
X0429421Y0486467D03*
X0429421Y0399230D03*
X0431389Y0399230D03*
X0433358Y0399230D03*
X0435326Y0399230D03*
X0437295Y0399230D03*
X0439263Y0399230D03*
X0439263Y0384467D03*
X0437295Y0384467D03*
X0435326Y0384467D03*
X0433358Y0384467D03*
X0431389Y0384467D03*
X0429421Y0384467D03*
X0429421Y0297230D03*
X0431389Y0297230D03*
X0433358Y0297230D03*
X0435326Y0297230D03*
X0437295Y0297230D03*
X0439263Y0297230D03*
X0439263Y0282467D03*
X0437295Y0282467D03*
X0435326Y0282467D03*
X0433358Y0282467D03*
X0431389Y0282467D03*
X0429421Y0282467D03*
X0429421Y0195230D03*
X0431389Y0195230D03*
X0433358Y0195230D03*
X0435326Y0195230D03*
X0437295Y0195230D03*
X0439263Y0195230D03*
X0439263Y0180467D03*
X0437295Y0180467D03*
X0435326Y0180467D03*
X0433358Y0180467D03*
X0431389Y0180467D03*
X0429421Y0180467D03*
X0429421Y0093230D03*
X0431389Y0093230D03*
X0433358Y0093230D03*
X0435326Y0093230D03*
X0437295Y0093230D03*
X0439263Y0093230D03*
X0439263Y0078467D03*
X0437295Y0078467D03*
X0435326Y0078467D03*
X0433358Y0078467D03*
X0431389Y0078467D03*
X0429421Y0078467D03*
D11*
X0427058Y0080829D03*
X0427058Y0082797D03*
X0427058Y0084766D03*
X0427058Y0086734D03*
X0427058Y0088703D03*
X0427058Y0090671D03*
X0441822Y0090671D03*
X0441822Y0088703D03*
X0441822Y0086734D03*
X0441822Y0084766D03*
X0441822Y0082797D03*
X0441822Y0080829D03*
X0441822Y0182829D03*
X0441822Y0184797D03*
X0441822Y0186766D03*
X0441822Y0188734D03*
X0441822Y0190703D03*
X0441822Y0192671D03*
X0427058Y0192671D03*
X0427058Y0190703D03*
X0427058Y0188734D03*
X0427058Y0186766D03*
X0427058Y0184797D03*
X0427058Y0182829D03*
X0427058Y0284829D03*
X0427058Y0286797D03*
X0427058Y0288766D03*
X0427058Y0290734D03*
X0427058Y0292703D03*
X0427058Y0294671D03*
X0441822Y0294671D03*
X0441822Y0292703D03*
X0441822Y0290734D03*
X0441822Y0288766D03*
X0441822Y0286797D03*
X0441822Y0284829D03*
X0441822Y0386829D03*
X0441822Y0388797D03*
X0441822Y0390766D03*
X0441822Y0392734D03*
X0441822Y0394703D03*
X0441822Y0396671D03*
X0427058Y0396671D03*
X0427058Y0394703D03*
X0427058Y0392734D03*
X0427058Y0390766D03*
X0427058Y0388797D03*
X0427058Y0386829D03*
X0427058Y0488829D03*
X0427058Y0490797D03*
X0427058Y0492766D03*
X0427058Y0494734D03*
X0427058Y0496703D03*
X0427058Y0498671D03*
X0441822Y0498671D03*
X0441822Y0496703D03*
X0441822Y0494734D03*
X0441822Y0492766D03*
X0441822Y0490797D03*
X0441822Y0488829D03*
X0441822Y0590829D03*
X0441822Y0592797D03*
X0441822Y0594766D03*
X0441822Y0596734D03*
X0441822Y0598703D03*
X0441822Y0600671D03*
X0427058Y0600671D03*
X0427058Y0598703D03*
X0427058Y0596734D03*
X0427058Y0594766D03*
X0427058Y0592797D03*
X0427058Y0590829D03*
X0427058Y0692829D03*
X0427058Y0694797D03*
X0427058Y0696766D03*
X0427058Y0698734D03*
X0427058Y0700703D03*
X0427058Y0702671D03*
X0441822Y0702671D03*
X0441822Y0700703D03*
X0441822Y0698734D03*
X0441822Y0696766D03*
X0441822Y0694797D03*
X0441822Y0692829D03*
X0329822Y0692829D03*
X0329822Y0694797D03*
X0329822Y0696766D03*
X0329822Y0698734D03*
X0329822Y0700703D03*
X0329822Y0702671D03*
X0315058Y0702671D03*
X0315058Y0700703D03*
X0315058Y0698734D03*
X0315058Y0696766D03*
X0315058Y0694797D03*
X0315058Y0692829D03*
X0315058Y0600671D03*
X0315058Y0598703D03*
X0315058Y0596734D03*
X0315058Y0594766D03*
X0315058Y0592797D03*
X0315058Y0590829D03*
X0329822Y0590829D03*
X0329822Y0592797D03*
X0329822Y0594766D03*
X0329822Y0596734D03*
X0329822Y0598703D03*
X0329822Y0600671D03*
X0329822Y0498671D03*
X0329822Y0496703D03*
X0329822Y0494734D03*
X0329822Y0492766D03*
X0329822Y0490797D03*
X0329822Y0488829D03*
X0315058Y0488829D03*
X0315058Y0490797D03*
X0315058Y0492766D03*
X0315058Y0494734D03*
X0315058Y0496703D03*
X0315058Y0498671D03*
X0315058Y0396671D03*
X0315058Y0394703D03*
X0315058Y0392734D03*
X0315058Y0390766D03*
X0315058Y0388797D03*
X0315058Y0386829D03*
X0329822Y0386829D03*
X0329822Y0388797D03*
X0329822Y0390766D03*
X0329822Y0392734D03*
X0329822Y0394703D03*
X0329822Y0396671D03*
X0329822Y0294671D03*
X0329822Y0292703D03*
X0329822Y0290734D03*
X0329822Y0288766D03*
X0329822Y0286797D03*
X0329822Y0284829D03*
X0315058Y0284829D03*
X0315058Y0286797D03*
X0315058Y0288766D03*
X0315058Y0290734D03*
X0315058Y0292703D03*
X0315058Y0294671D03*
X0315058Y0192671D03*
X0315058Y0190703D03*
X0315058Y0188734D03*
X0315058Y0186766D03*
X0315058Y0184797D03*
X0315058Y0182829D03*
X0329822Y0182829D03*
X0329822Y0184797D03*
X0329822Y0186766D03*
X0329822Y0188734D03*
X0329822Y0190703D03*
X0329822Y0192671D03*
X0329822Y0090671D03*
X0329822Y0088703D03*
X0329822Y0086734D03*
X0329822Y0084766D03*
X0329822Y0082797D03*
X0329822Y0080829D03*
X0315058Y0080829D03*
X0315058Y0082797D03*
X0315058Y0084766D03*
X0315058Y0086734D03*
X0315058Y0088703D03*
X0315058Y0090671D03*
X0217822Y0090671D03*
X0217822Y0088703D03*
X0217822Y0086734D03*
X0217822Y0084766D03*
X0217822Y0082797D03*
X0217822Y0080829D03*
X0203058Y0080829D03*
X0203058Y0082797D03*
X0203058Y0084766D03*
X0203058Y0086734D03*
X0203058Y0088703D03*
X0203058Y0090671D03*
X0203058Y0182829D03*
X0203058Y0184797D03*
X0203058Y0186766D03*
X0203058Y0188734D03*
X0203058Y0190703D03*
X0203058Y0192671D03*
X0217822Y0192671D03*
X0217822Y0190703D03*
X0217822Y0188734D03*
X0217822Y0186766D03*
X0217822Y0184797D03*
X0217822Y0182829D03*
X0217822Y0284829D03*
X0217822Y0286797D03*
X0217822Y0288766D03*
X0217822Y0290734D03*
X0217822Y0292703D03*
X0217822Y0294671D03*
X0203058Y0294671D03*
X0203058Y0292703D03*
X0203058Y0290734D03*
X0203058Y0288766D03*
X0203058Y0286797D03*
X0203058Y0284829D03*
X0203058Y0386829D03*
X0203058Y0388797D03*
X0203058Y0390766D03*
X0203058Y0392734D03*
X0203058Y0394703D03*
X0203058Y0396671D03*
X0217822Y0396671D03*
X0217822Y0394703D03*
X0217822Y0392734D03*
X0217822Y0390766D03*
X0217822Y0388797D03*
X0217822Y0386829D03*
X0217822Y0488829D03*
X0217822Y0490797D03*
X0217822Y0492766D03*
X0217822Y0494734D03*
X0217822Y0496703D03*
X0217822Y0498671D03*
X0203058Y0498671D03*
X0203058Y0496703D03*
X0203058Y0494734D03*
X0203058Y0492766D03*
X0203058Y0490797D03*
X0203058Y0488829D03*
X0203058Y0590829D03*
X0203058Y0592797D03*
X0203058Y0594766D03*
X0203058Y0596734D03*
X0203058Y0598703D03*
X0203058Y0600671D03*
X0217822Y0600671D03*
X0217822Y0598703D03*
X0217822Y0596734D03*
X0217822Y0594766D03*
X0217822Y0592797D03*
X0217822Y0590829D03*
X0217822Y0692829D03*
X0217822Y0694797D03*
X0217822Y0696766D03*
X0217822Y0698734D03*
X0217822Y0700703D03*
X0217822Y0702671D03*
X0203058Y0702671D03*
X0203058Y0700703D03*
X0203058Y0698734D03*
X0203058Y0696766D03*
X0203058Y0694797D03*
X0203058Y0692829D03*
X0105822Y0692829D03*
X0105822Y0694797D03*
X0105822Y0696766D03*
X0105822Y0698734D03*
X0105822Y0700703D03*
X0105822Y0702671D03*
X0091058Y0702671D03*
X0091058Y0700703D03*
X0091058Y0698734D03*
X0091058Y0696766D03*
X0091058Y0694797D03*
X0091058Y0692829D03*
X0091058Y0600671D03*
X0091058Y0598703D03*
X0091058Y0596734D03*
X0091058Y0594766D03*
X0091058Y0592797D03*
X0091058Y0590829D03*
X0105822Y0590829D03*
X0105822Y0592797D03*
X0105822Y0594766D03*
X0105822Y0596734D03*
X0105822Y0598703D03*
X0105822Y0600671D03*
X0105822Y0498671D03*
X0105822Y0496703D03*
X0105822Y0494734D03*
X0105822Y0492766D03*
X0105822Y0490797D03*
X0105822Y0488829D03*
X0091058Y0488829D03*
X0091058Y0490797D03*
X0091058Y0492766D03*
X0091058Y0494734D03*
X0091058Y0496703D03*
X0091058Y0498671D03*
X0091058Y0396671D03*
X0091058Y0394703D03*
X0091058Y0392734D03*
X0091058Y0390766D03*
X0091058Y0388797D03*
X0091058Y0386829D03*
X0105822Y0386829D03*
X0105822Y0388797D03*
X0105822Y0390766D03*
X0105822Y0392734D03*
X0105822Y0394703D03*
X0105822Y0396671D03*
X0105822Y0294671D03*
X0105822Y0292703D03*
X0105822Y0290734D03*
X0105822Y0288766D03*
X0105822Y0286797D03*
X0105822Y0284829D03*
X0091058Y0284829D03*
X0091058Y0286797D03*
X0091058Y0288766D03*
X0091058Y0290734D03*
X0091058Y0292703D03*
X0091058Y0294671D03*
X0091058Y0192671D03*
X0091058Y0190703D03*
X0091058Y0188734D03*
X0091058Y0186766D03*
X0091058Y0184797D03*
X0091058Y0182829D03*
X0105822Y0182829D03*
X0105822Y0184797D03*
X0105822Y0186766D03*
X0105822Y0188734D03*
X0105822Y0190703D03*
X0105822Y0192671D03*
X0105822Y0090671D03*
X0105822Y0088703D03*
X0105822Y0086734D03*
X0105822Y0084766D03*
X0105822Y0082797D03*
X0105822Y0080829D03*
X0091058Y0080829D03*
X0091058Y0082797D03*
X0091058Y0084766D03*
X0091058Y0086734D03*
X0091058Y0088703D03*
X0091058Y0090671D03*
D12*
X0098342Y0085750D03*
X0098342Y0187750D03*
X0098342Y0289750D03*
X0098342Y0391750D03*
X0098342Y0493750D03*
X0098342Y0595750D03*
X0098342Y0697750D03*
X0210342Y0697750D03*
X0210342Y0595750D03*
X0210342Y0493750D03*
X0210342Y0391750D03*
X0210342Y0289750D03*
X0210342Y0187750D03*
X0210342Y0085750D03*
X0322342Y0085750D03*
X0322342Y0187750D03*
X0322342Y0289750D03*
X0322342Y0391750D03*
X0322342Y0493750D03*
X0322342Y0595750D03*
X0322342Y0697750D03*
X0434342Y0697750D03*
X0434342Y0595750D03*
X0434342Y0493750D03*
X0434342Y0391750D03*
X0434342Y0289750D03*
X0434342Y0187750D03*
X0434342Y0085750D03*
D13*
X0063342Y0033750D03*
X0063342Y0043750D03*
X0073342Y0043750D03*
X0073342Y0033750D03*
X0083342Y0033750D03*
X0093342Y0033750D03*
X0093342Y0043750D03*
X0083342Y0043750D03*
X0103342Y0043750D03*
X0103342Y0033750D03*
X0113342Y0033750D03*
X0123342Y0033750D03*
X0123342Y0043750D03*
X0113342Y0043750D03*
X0133342Y0043750D03*
X0133342Y0033750D03*
X0175342Y0033750D03*
X0175342Y0043750D03*
X0185342Y0043750D03*
X0195342Y0043750D03*
X0195342Y0033750D03*
X0185342Y0033750D03*
X0205342Y0033750D03*
X0205342Y0043750D03*
X0215342Y0043750D03*
X0215342Y0033750D03*
X0225342Y0033750D03*
X0235342Y0033750D03*
X0235342Y0043750D03*
X0225342Y0043750D03*
X0245342Y0043750D03*
X0245342Y0033750D03*
X0287342Y0033750D03*
X0287342Y0043750D03*
X0297342Y0043750D03*
X0307342Y0043750D03*
X0307342Y0033750D03*
X0297342Y0033750D03*
X0317342Y0033750D03*
X0317342Y0043750D03*
X0327342Y0043750D03*
X0337342Y0043750D03*
X0337342Y0033750D03*
X0327342Y0033750D03*
X0347342Y0033750D03*
X0347342Y0043750D03*
X0357342Y0043750D03*
X0357342Y0033750D03*
X0399342Y0033750D03*
X0399342Y0043750D03*
X0409342Y0043750D03*
X0419342Y0043750D03*
X0419342Y0033750D03*
X0409342Y0033750D03*
X0429342Y0033750D03*
X0429342Y0043750D03*
X0439342Y0043750D03*
X0449342Y0043750D03*
X0449342Y0033750D03*
X0439342Y0033750D03*
X0459342Y0033750D03*
X0459342Y0043750D03*
X0469342Y0043750D03*
X0469342Y0033750D03*
X0449342Y0123750D03*
X0439342Y0123750D03*
X0439342Y0135750D03*
X0449342Y0135750D03*
X0459342Y0135750D03*
X0469342Y0135750D03*
X0469342Y0145750D03*
X0459342Y0145750D03*
X0449342Y0145750D03*
X0439342Y0145750D03*
X0429342Y0145750D03*
X0429342Y0135750D03*
X0429342Y0123750D03*
X0419342Y0123750D03*
X0409342Y0123750D03*
X0409342Y0135750D03*
X0419342Y0135750D03*
X0419342Y0145750D03*
X0409342Y0145750D03*
X0399342Y0145750D03*
X0399342Y0135750D03*
X0357342Y0135750D03*
X0357342Y0145750D03*
X0347342Y0145750D03*
X0347342Y0135750D03*
X0337342Y0135750D03*
X0327342Y0135750D03*
X0327342Y0123750D03*
X0337342Y0123750D03*
X0317342Y0123750D03*
X0317342Y0135750D03*
X0317342Y0145750D03*
X0327342Y0145750D03*
X0337342Y0145750D03*
X0307342Y0145750D03*
X0297342Y0145750D03*
X0297342Y0135750D03*
X0307342Y0135750D03*
X0307342Y0123750D03*
X0297342Y0123750D03*
X0287342Y0135750D03*
X0287342Y0145750D03*
X0245342Y0145750D03*
X0245342Y0135750D03*
X0235342Y0135750D03*
X0225342Y0135750D03*
X0225342Y0123750D03*
X0215342Y0123750D03*
X0215342Y0135750D03*
X0215342Y0145750D03*
X0225342Y0145750D03*
X0235342Y0145750D03*
X0205342Y0145750D03*
X0205342Y0135750D03*
X0205342Y0123750D03*
X0195342Y0123750D03*
X0185342Y0123750D03*
X0185342Y0135750D03*
X0195342Y0135750D03*
X0195342Y0145750D03*
X0185342Y0145750D03*
X0175342Y0145750D03*
X0175342Y0135750D03*
X0133342Y0135750D03*
X0133342Y0145750D03*
X0123342Y0145750D03*
X0113342Y0145750D03*
X0113342Y0135750D03*
X0123342Y0135750D03*
X0113342Y0123750D03*
X0103342Y0123750D03*
X0103342Y0135750D03*
X0103342Y0145750D03*
X0093342Y0145750D03*
X0083342Y0145750D03*
X0083342Y0135750D03*
X0093342Y0135750D03*
X0093342Y0123750D03*
X0083342Y0123750D03*
X0073342Y0123750D03*
X0073342Y0135750D03*
X0073342Y0145750D03*
X0063342Y0145750D03*
X0063342Y0135750D03*
X0073342Y0225750D03*
X0083342Y0225750D03*
X0093342Y0225750D03*
X0103342Y0225750D03*
X0113342Y0225750D03*
X0113342Y0237750D03*
X0123342Y0237750D03*
X0123342Y0247750D03*
X0113342Y0247750D03*
X0103342Y0247750D03*
X0103342Y0237750D03*
X0093342Y0237750D03*
X0093342Y0247750D03*
X0083342Y0247750D03*
X0083342Y0237750D03*
X0073342Y0237750D03*
X0073342Y0247750D03*
X0063342Y0247750D03*
X0063342Y0237750D03*
X0073342Y0327750D03*
X0073342Y0339750D03*
X0083342Y0339750D03*
X0093342Y0339750D03*
X0093342Y0327750D03*
X0083342Y0327750D03*
X0103342Y0327750D03*
X0103342Y0339750D03*
X0113342Y0339750D03*
X0123342Y0339750D03*
X0113342Y0327750D03*
X0113342Y0349750D03*
X0123342Y0349750D03*
X0133342Y0349750D03*
X0133342Y0339750D03*
X0103342Y0349750D03*
X0093342Y0349750D03*
X0083342Y0349750D03*
X0073342Y0349750D03*
X0063342Y0349750D03*
X0063342Y0339750D03*
X0073342Y0429750D03*
X0073342Y0441750D03*
X0073342Y0451750D03*
X0083342Y0451750D03*
X0093342Y0451750D03*
X0093342Y0441750D03*
X0083342Y0441750D03*
X0083342Y0429750D03*
X0093342Y0429750D03*
X0103342Y0429750D03*
X0103342Y0441750D03*
X0103342Y0451750D03*
X0113342Y0451750D03*
X0123342Y0451750D03*
X0123342Y0441750D03*
X0113342Y0441750D03*
X0113342Y0429750D03*
X0133342Y0441750D03*
X0133342Y0451750D03*
X0175342Y0451750D03*
X0175342Y0441750D03*
X0185342Y0441750D03*
X0195342Y0441750D03*
X0195342Y0451750D03*
X0185342Y0451750D03*
X0185342Y0429750D03*
X0195342Y0429750D03*
X0205342Y0429750D03*
X0205342Y0441750D03*
X0205342Y0451750D03*
X0215342Y0451750D03*
X0215342Y0441750D03*
X0215342Y0429750D03*
X0225342Y0429750D03*
X0225342Y0441750D03*
X0235342Y0441750D03*
X0235342Y0451750D03*
X0225342Y0451750D03*
X0245342Y0451750D03*
X0245342Y0441750D03*
X0287342Y0441750D03*
X0287342Y0451750D03*
X0297342Y0451750D03*
X0307342Y0451750D03*
X0307342Y0441750D03*
X0297342Y0441750D03*
X0297342Y0429750D03*
X0307342Y0429750D03*
X0317342Y0429750D03*
X0317342Y0441750D03*
X0317342Y0451750D03*
X0327342Y0451750D03*
X0337342Y0451750D03*
X0337342Y0441750D03*
X0327342Y0441750D03*
X0327342Y0429750D03*
X0337342Y0429750D03*
X0347342Y0441750D03*
X0347342Y0451750D03*
X0357342Y0451750D03*
X0357342Y0441750D03*
X0399342Y0441750D03*
X0399342Y0451750D03*
X0409342Y0451750D03*
X0419342Y0451750D03*
X0419342Y0441750D03*
X0409342Y0441750D03*
X0409342Y0429750D03*
X0419342Y0429750D03*
X0429342Y0429750D03*
X0429342Y0441750D03*
X0429342Y0451750D03*
X0439342Y0451750D03*
X0449342Y0451750D03*
X0449342Y0441750D03*
X0439342Y0441750D03*
X0439342Y0429750D03*
X0449342Y0429750D03*
X0459342Y0441750D03*
X0459342Y0451750D03*
X0469342Y0451750D03*
X0469342Y0441750D03*
X0469342Y0349750D03*
X0469342Y0339750D03*
X0459342Y0339750D03*
X0459342Y0349750D03*
X0449342Y0349750D03*
X0439342Y0349750D03*
X0439342Y0339750D03*
X0449342Y0339750D03*
X0449342Y0327750D03*
X0439342Y0327750D03*
X0429342Y0327750D03*
X0429342Y0339750D03*
X0429342Y0349750D03*
X0419342Y0349750D03*
X0409342Y0349750D03*
X0409342Y0339750D03*
X0419342Y0339750D03*
X0419342Y0327750D03*
X0409342Y0327750D03*
X0399342Y0339750D03*
X0399342Y0349750D03*
X0357342Y0349750D03*
X0357342Y0339750D03*
X0347342Y0339750D03*
X0347342Y0349750D03*
X0337342Y0349750D03*
X0327342Y0349750D03*
X0327342Y0339750D03*
X0337342Y0339750D03*
X0337342Y0327750D03*
X0327342Y0327750D03*
X0317342Y0327750D03*
X0317342Y0339750D03*
X0317342Y0349750D03*
X0307342Y0349750D03*
X0297342Y0349750D03*
X0297342Y0339750D03*
X0307342Y0339750D03*
X0307342Y0327750D03*
X0297342Y0327750D03*
X0287342Y0339750D03*
X0287342Y0349750D03*
X0245342Y0349750D03*
X0245342Y0339750D03*
X0235342Y0339750D03*
X0225342Y0339750D03*
X0225342Y0327750D03*
X0215342Y0327750D03*
X0215342Y0339750D03*
X0215342Y0349750D03*
X0225342Y0349750D03*
X0235342Y0349750D03*
X0205342Y0349750D03*
X0205342Y0339750D03*
X0205342Y0327750D03*
X0195342Y0327750D03*
X0185342Y0327750D03*
X0185342Y0339750D03*
X0195342Y0339750D03*
X0195342Y0349750D03*
X0185342Y0349750D03*
X0175342Y0349750D03*
X0175342Y0339750D03*
X0175342Y0247750D03*
X0175342Y0237750D03*
X0185342Y0237750D03*
X0195342Y0237750D03*
X0195342Y0247750D03*
X0185342Y0247750D03*
X0205342Y0247750D03*
X0205342Y0237750D03*
X0215342Y0237750D03*
X0215342Y0247750D03*
X0225342Y0247750D03*
X0235342Y0247750D03*
X0235342Y0237750D03*
X0225342Y0237750D03*
X0225342Y0225750D03*
X0215342Y0225750D03*
X0205342Y0225750D03*
X0195342Y0225750D03*
X0185342Y0225750D03*
X0133342Y0237750D03*
X0133342Y0247750D03*
X0245342Y0247750D03*
X0245342Y0237750D03*
X0287342Y0237750D03*
X0287342Y0247750D03*
X0297342Y0247750D03*
X0307342Y0247750D03*
X0307342Y0237750D03*
X0297342Y0237750D03*
X0297342Y0225750D03*
X0307342Y0225750D03*
X0317342Y0225750D03*
X0327342Y0225750D03*
X0337342Y0225750D03*
X0337342Y0237750D03*
X0337342Y0247750D03*
X0327342Y0247750D03*
X0327342Y0237750D03*
X0317342Y0237750D03*
X0317342Y0247750D03*
X0347342Y0247750D03*
X0347342Y0237750D03*
X0357342Y0237750D03*
X0357342Y0247750D03*
X0399342Y0247750D03*
X0399342Y0237750D03*
X0409342Y0237750D03*
X0419342Y0237750D03*
X0419342Y0247750D03*
X0409342Y0247750D03*
X0429342Y0247750D03*
X0429342Y0237750D03*
X0439342Y0237750D03*
X0449342Y0237750D03*
X0449342Y0247750D03*
X0439342Y0247750D03*
X0459342Y0247750D03*
X0459342Y0237750D03*
X0469342Y0237750D03*
X0469342Y0247750D03*
X0449342Y0225750D03*
X0439342Y0225750D03*
X0429342Y0225750D03*
X0419342Y0225750D03*
X0409342Y0225750D03*
X0409342Y0531750D03*
X0419342Y0531750D03*
X0429342Y0531750D03*
X0439342Y0531750D03*
X0449342Y0531750D03*
X0449342Y0543750D03*
X0449342Y0553750D03*
X0439342Y0553750D03*
X0439342Y0543750D03*
X0429342Y0543750D03*
X0429342Y0553750D03*
X0419342Y0553750D03*
X0419342Y0543750D03*
X0409342Y0543750D03*
X0409342Y0553750D03*
X0399342Y0553750D03*
X0399342Y0543750D03*
X0357342Y0543750D03*
X0357342Y0553750D03*
X0347342Y0553750D03*
X0347342Y0543750D03*
X0337342Y0543750D03*
X0337342Y0553750D03*
X0327342Y0553750D03*
X0327342Y0543750D03*
X0317342Y0543750D03*
X0317342Y0553750D03*
X0307342Y0553750D03*
X0307342Y0543750D03*
X0297342Y0543750D03*
X0297342Y0553750D03*
X0287342Y0553750D03*
X0287342Y0543750D03*
X0297342Y0531750D03*
X0307342Y0531750D03*
X0317342Y0531750D03*
X0327342Y0531750D03*
X0337342Y0531750D03*
X0337342Y0633750D03*
X0327342Y0633750D03*
X0327342Y0645750D03*
X0337342Y0645750D03*
X0347342Y0645750D03*
X0357342Y0645750D03*
X0357342Y0655750D03*
X0347342Y0655750D03*
X0337342Y0655750D03*
X0327342Y0655750D03*
X0317342Y0655750D03*
X0317342Y0645750D03*
X0317342Y0633750D03*
X0307342Y0633750D03*
X0297342Y0633750D03*
X0297342Y0645750D03*
X0307342Y0645750D03*
X0307342Y0655750D03*
X0297342Y0655750D03*
X0287342Y0655750D03*
X0287342Y0645750D03*
X0245342Y0645750D03*
X0245342Y0655750D03*
X0235342Y0655750D03*
X0225342Y0655750D03*
X0225342Y0645750D03*
X0235342Y0645750D03*
X0225342Y0633750D03*
X0215342Y0633750D03*
X0215342Y0645750D03*
X0215342Y0655750D03*
X0205342Y0655750D03*
X0205342Y0645750D03*
X0205342Y0633750D03*
X0195342Y0633750D03*
X0185342Y0633750D03*
X0185342Y0645750D03*
X0195342Y0645750D03*
X0195342Y0655750D03*
X0185342Y0655750D03*
X0175342Y0655750D03*
X0175342Y0645750D03*
X0133342Y0645750D03*
X0133342Y0655750D03*
X0123342Y0655750D03*
X0113342Y0655750D03*
X0113342Y0645750D03*
X0123342Y0645750D03*
X0113342Y0633750D03*
X0103342Y0633750D03*
X0103342Y0645750D03*
X0103342Y0655750D03*
X0093342Y0655750D03*
X0083342Y0655750D03*
X0083342Y0645750D03*
X0093342Y0645750D03*
X0093342Y0633750D03*
X0083342Y0633750D03*
X0073342Y0633750D03*
X0073342Y0645750D03*
X0073342Y0655750D03*
X0063342Y0655750D03*
X0063342Y0645750D03*
X0073342Y0735750D03*
X0083342Y0735750D03*
X0093342Y0735750D03*
X0103342Y0735750D03*
X0113342Y0735750D03*
X0185342Y0735750D03*
X0195342Y0735750D03*
X0205342Y0735750D03*
X0215342Y0735750D03*
X0225342Y0735750D03*
X0297342Y0735750D03*
X0307342Y0735750D03*
X0317342Y0735750D03*
X0327342Y0735750D03*
X0337342Y0735750D03*
X0399342Y0655750D03*
X0409342Y0655750D03*
X0419342Y0655750D03*
X0429342Y0655750D03*
X0439342Y0655750D03*
X0449342Y0655750D03*
X0459342Y0655750D03*
X0469342Y0655750D03*
X0469342Y0645750D03*
X0459342Y0645750D03*
X0449342Y0645750D03*
X0439342Y0645750D03*
X0439342Y0633750D03*
X0449342Y0633750D03*
X0429342Y0633750D03*
X0429342Y0645750D03*
X0419342Y0645750D03*
X0409342Y0645750D03*
X0409342Y0633750D03*
X0419342Y0633750D03*
X0399342Y0645750D03*
X0409342Y0735750D03*
X0419342Y0735750D03*
X0429342Y0735750D03*
X0439342Y0735750D03*
X0449342Y0735750D03*
X0459342Y0553750D03*
X0459342Y0543750D03*
X0469342Y0543750D03*
X0469342Y0553750D03*
X0245342Y0553750D03*
X0245342Y0543750D03*
X0235342Y0543750D03*
X0235342Y0553750D03*
X0225342Y0553750D03*
X0225342Y0543750D03*
X0215342Y0543750D03*
X0215342Y0553750D03*
X0205342Y0553750D03*
X0205342Y0543750D03*
X0195342Y0543750D03*
X0195342Y0553750D03*
X0185342Y0553750D03*
X0185342Y0543750D03*
X0175342Y0543750D03*
X0175342Y0553750D03*
X0185342Y0531750D03*
X0195342Y0531750D03*
X0205342Y0531750D03*
X0215342Y0531750D03*
X0225342Y0531750D03*
X0133342Y0543750D03*
X0133342Y0553750D03*
X0123342Y0553750D03*
X0123342Y0543750D03*
X0113342Y0543750D03*
X0113342Y0553750D03*
X0103342Y0553750D03*
X0103342Y0543750D03*
X0093342Y0543750D03*
X0093342Y0553750D03*
X0083342Y0553750D03*
X0083342Y0543750D03*
X0073342Y0543750D03*
X0073342Y0553750D03*
X0063342Y0553750D03*
X0063342Y0543750D03*
X0073342Y0531750D03*
X0083342Y0531750D03*
X0093342Y0531750D03*
X0103342Y0531750D03*
X0113342Y0531750D03*
X0063342Y0451750D03*
X0063342Y0441750D03*
D14*
X0058342Y0424750D03*
X0058342Y0322750D03*
X0058342Y0220750D03*
X0058342Y0118750D03*
X0138342Y0118750D03*
X0170342Y0118750D03*
X0170342Y0220750D03*
X0138342Y0220750D03*
X0138342Y0322750D03*
X0170342Y0322750D03*
X0170342Y0424750D03*
X0138342Y0424750D03*
X0138342Y0526750D03*
X0170342Y0526750D03*
X0170342Y0628750D03*
X0138342Y0628750D03*
X0138342Y0730750D03*
X0170342Y0730750D03*
X0250342Y0730750D03*
X0282342Y0730750D03*
X0282342Y0628750D03*
X0250342Y0628750D03*
X0250342Y0526750D03*
X0282342Y0526750D03*
X0282342Y0424750D03*
X0250342Y0424750D03*
X0250342Y0322750D03*
X0282342Y0322750D03*
X0282342Y0220750D03*
X0250342Y0220750D03*
X0250342Y0118750D03*
X0282342Y0118750D03*
X0362342Y0118750D03*
X0394342Y0118750D03*
X0394342Y0220750D03*
X0362342Y0220750D03*
X0362342Y0322750D03*
X0394342Y0322750D03*
X0394342Y0424750D03*
X0362342Y0424750D03*
X0362342Y0526750D03*
X0394342Y0526750D03*
X0394342Y0628750D03*
X0362342Y0628750D03*
X0362342Y0730750D03*
X0394342Y0730750D03*
X0474342Y0730750D03*
X0474342Y0628750D03*
X0474342Y0526750D03*
X0474342Y0424750D03*
X0474342Y0322750D03*
X0474342Y0220750D03*
X0474342Y0118750D03*
X0058342Y0526750D03*
X0058342Y0628750D03*
X0058342Y0730750D03*
D15*
X0048442Y0736050D03*
X0048442Y0634050D03*
X0048442Y0532050D03*
X0048442Y0430050D03*
X0048442Y0328050D03*
X0048442Y0226050D03*
X0048442Y0124050D03*
X0148342Y0135750D03*
X0160442Y0124050D03*
X0148342Y0033750D03*
X0260342Y0033750D03*
X0272442Y0124050D03*
X0260342Y0135750D03*
X0272442Y0226050D03*
X0260342Y0237750D03*
X0272442Y0328050D03*
X0260342Y0339750D03*
X0272442Y0430050D03*
X0260342Y0441750D03*
X0272442Y0532050D03*
X0260342Y0543750D03*
X0272442Y0634050D03*
X0260342Y0645750D03*
X0272442Y0736050D03*
X0372342Y0645750D03*
X0384442Y0634050D03*
X0372342Y0543750D03*
X0384442Y0532050D03*
X0372342Y0441750D03*
X0384442Y0430050D03*
X0372342Y0339750D03*
X0384442Y0328050D03*
X0372342Y0237750D03*
X0384442Y0226050D03*
X0372342Y0135750D03*
X0384442Y0124050D03*
X0372342Y0033750D03*
X0484342Y0033750D03*
X0484342Y0135750D03*
X0484342Y0237750D03*
X0484342Y0339750D03*
X0484342Y0441750D03*
X0484342Y0543750D03*
X0484342Y0645750D03*
X0384442Y0736050D03*
X0160442Y0736050D03*
X0148342Y0645750D03*
X0160442Y0634050D03*
X0148342Y0543750D03*
X0160442Y0532050D03*
X0148342Y0441750D03*
X0160442Y0430050D03*
X0148342Y0339750D03*
X0160442Y0328050D03*
X0148342Y0237750D03*
X0160442Y0226050D03*
D16*
X0172742Y0201450D03*
X0176742Y0201450D03*
X0180742Y0201450D03*
X0148242Y0200350D03*
X0144242Y0200350D03*
X0132042Y0200350D03*
X0128842Y0200350D03*
X0068742Y0201450D03*
X0064742Y0201450D03*
X0060742Y0201450D03*
X0060742Y0099450D03*
X0064742Y0099450D03*
X0068742Y0099450D03*
X0128842Y0098350D03*
X0132042Y0098350D03*
X0144242Y0098350D03*
X0148242Y0098350D03*
X0172742Y0099450D03*
X0176742Y0099450D03*
X0180742Y0099450D03*
X0240842Y0098350D03*
X0244042Y0098350D03*
X0256242Y0098350D03*
X0260242Y0098350D03*
X0284742Y0099450D03*
X0288742Y0099450D03*
X0292742Y0099450D03*
X0352842Y0098350D03*
X0356042Y0098350D03*
X0368242Y0098350D03*
X0372242Y0098350D03*
X0396742Y0099450D03*
X0400742Y0099450D03*
X0404742Y0099450D03*
X0464842Y0098350D03*
X0468042Y0098350D03*
X0480242Y0098350D03*
X0484242Y0098350D03*
X0484242Y0200350D03*
X0480242Y0200350D03*
X0468042Y0200350D03*
X0464842Y0200350D03*
X0404742Y0201450D03*
X0400742Y0201450D03*
X0396742Y0201450D03*
X0372242Y0200350D03*
X0368242Y0200350D03*
X0356042Y0200350D03*
X0352842Y0200350D03*
X0292742Y0201450D03*
X0288742Y0201450D03*
X0284742Y0201450D03*
X0260242Y0200350D03*
X0256242Y0200350D03*
X0244042Y0200350D03*
X0240842Y0200350D03*
X0240842Y0302350D03*
X0244042Y0302350D03*
X0256242Y0302350D03*
X0260242Y0302350D03*
X0284742Y0303450D03*
X0288742Y0303450D03*
X0292742Y0303450D03*
X0352842Y0302350D03*
X0356042Y0302350D03*
X0368242Y0302350D03*
X0372242Y0302350D03*
X0396742Y0303450D03*
X0400742Y0303450D03*
X0404742Y0303450D03*
X0464842Y0302350D03*
X0468042Y0302350D03*
X0480242Y0302350D03*
X0484242Y0302350D03*
X0484242Y0404350D03*
X0480242Y0404350D03*
X0468042Y0404350D03*
X0464842Y0404350D03*
X0404742Y0405450D03*
X0400742Y0405450D03*
X0396742Y0405450D03*
X0372242Y0404350D03*
X0368242Y0404350D03*
X0356042Y0404350D03*
X0352842Y0404350D03*
X0292742Y0405450D03*
X0288742Y0405450D03*
X0284742Y0405450D03*
X0260242Y0404350D03*
X0256242Y0404350D03*
X0244042Y0404350D03*
X0240842Y0404350D03*
X0180742Y0405450D03*
X0176742Y0405450D03*
X0172742Y0405450D03*
X0148242Y0404350D03*
X0144242Y0404350D03*
X0132042Y0404350D03*
X0128842Y0404350D03*
X0068742Y0405450D03*
X0064742Y0405450D03*
X0060742Y0405450D03*
X0060742Y0507450D03*
X0064742Y0507450D03*
X0068742Y0507450D03*
X0128842Y0506350D03*
X0132042Y0506350D03*
X0144242Y0506350D03*
X0148242Y0506350D03*
X0172742Y0507450D03*
X0176742Y0507450D03*
X0180742Y0507450D03*
X0240842Y0506350D03*
X0244042Y0506350D03*
X0256242Y0506350D03*
X0260242Y0506350D03*
X0284742Y0507450D03*
X0288742Y0507450D03*
X0292742Y0507450D03*
X0352842Y0506350D03*
X0356042Y0506350D03*
X0368242Y0506350D03*
X0372242Y0506350D03*
X0396742Y0507450D03*
X0400742Y0507450D03*
X0404742Y0507450D03*
X0464842Y0506350D03*
X0468042Y0506350D03*
X0480242Y0506350D03*
X0484242Y0506350D03*
X0484242Y0608350D03*
X0480242Y0608350D03*
X0468042Y0608350D03*
X0464842Y0608350D03*
X0404742Y0609450D03*
X0400742Y0609450D03*
X0396742Y0609450D03*
X0372242Y0608350D03*
X0368242Y0608350D03*
X0356042Y0608350D03*
X0352842Y0608350D03*
X0292742Y0609450D03*
X0288742Y0609450D03*
X0284742Y0609450D03*
X0260242Y0608350D03*
X0256242Y0608350D03*
X0244042Y0608350D03*
X0240842Y0608350D03*
X0180742Y0609450D03*
X0176742Y0609450D03*
X0172742Y0609450D03*
X0148242Y0608350D03*
X0144242Y0608350D03*
X0132042Y0608350D03*
X0128842Y0608350D03*
X0068742Y0609450D03*
X0064742Y0609450D03*
X0060742Y0609450D03*
X0060742Y0711450D03*
X0064742Y0711450D03*
X0068742Y0711450D03*
X0128842Y0710350D03*
X0132042Y0710350D03*
X0144242Y0710350D03*
X0148242Y0710350D03*
X0172742Y0711450D03*
X0176742Y0711450D03*
X0180742Y0711450D03*
X0240842Y0710350D03*
X0244042Y0710350D03*
X0256242Y0710350D03*
X0260242Y0710350D03*
X0284742Y0711450D03*
X0288742Y0711450D03*
X0292742Y0711450D03*
X0352842Y0710350D03*
X0356042Y0710350D03*
X0368242Y0710350D03*
X0372242Y0710350D03*
X0396742Y0711450D03*
X0400742Y0711450D03*
X0404742Y0711450D03*
X0464842Y0710350D03*
X0468042Y0710350D03*
X0480242Y0710350D03*
X0484242Y0710350D03*
X0180742Y0303450D03*
X0176742Y0303450D03*
X0172742Y0303450D03*
X0148242Y0302350D03*
X0144242Y0302350D03*
X0132042Y0302350D03*
X0128842Y0302350D03*
X0068742Y0303450D03*
X0064742Y0303450D03*
X0060742Y0303450D03*
D17*
X0061992Y0303430D02*
X0063492Y0303430D01*
X0063492Y0302950D02*
X0061992Y0302950D01*
X0061992Y0303950D01*
X0063492Y0303950D01*
X0063492Y0302950D01*
X0063492Y0303928D02*
X0061992Y0303928D01*
X0065992Y0303928D02*
X0067492Y0303928D01*
X0067492Y0303950D02*
X0067492Y0302950D01*
X0065992Y0302950D01*
X0065992Y0303950D01*
X0067492Y0303950D01*
X0067492Y0303430D02*
X0065992Y0303430D01*
X0145492Y0302850D02*
X0146992Y0302850D01*
X0146992Y0301850D01*
X0145492Y0301850D01*
X0145492Y0302850D01*
X0145492Y0302433D02*
X0146992Y0302433D01*
X0146992Y0301934D02*
X0145492Y0301934D01*
X0173992Y0302950D02*
X0173992Y0303950D01*
X0175492Y0303950D01*
X0175492Y0302950D01*
X0173992Y0302950D01*
X0173992Y0303430D02*
X0175492Y0303430D01*
X0175492Y0303928D02*
X0173992Y0303928D01*
X0177992Y0303928D02*
X0179492Y0303928D01*
X0179492Y0303950D02*
X0179492Y0302950D01*
X0177992Y0302950D01*
X0177992Y0303950D01*
X0179492Y0303950D01*
X0179492Y0303430D02*
X0177992Y0303430D01*
X0146992Y0403850D02*
X0146992Y0404850D01*
X0145492Y0404850D01*
X0145492Y0403850D01*
X0146992Y0403850D01*
X0146992Y0404129D02*
X0145492Y0404129D01*
X0145492Y0404628D02*
X0146992Y0404628D01*
X0173992Y0404950D02*
X0173992Y0405950D01*
X0175492Y0405950D01*
X0175492Y0404950D01*
X0173992Y0404950D01*
X0173992Y0405126D02*
X0175492Y0405126D01*
X0175492Y0405625D02*
X0173992Y0405625D01*
X0177992Y0405625D02*
X0179492Y0405625D01*
X0179492Y0405950D02*
X0179492Y0404950D01*
X0177992Y0404950D01*
X0177992Y0405950D01*
X0179492Y0405950D01*
X0179492Y0405126D02*
X0177992Y0405126D01*
X0177992Y0506950D02*
X0177992Y0507950D01*
X0179492Y0507950D01*
X0179492Y0506950D01*
X0177992Y0506950D01*
X0177992Y0507321D02*
X0179492Y0507321D01*
X0179492Y0507819D02*
X0177992Y0507819D01*
X0175492Y0507819D02*
X0173992Y0507819D01*
X0173992Y0507950D02*
X0173992Y0506950D01*
X0175492Y0506950D01*
X0175492Y0507950D01*
X0173992Y0507950D01*
X0173992Y0507321D02*
X0175492Y0507321D01*
X0146992Y0506850D02*
X0146992Y0505850D01*
X0145492Y0505850D01*
X0145492Y0506850D01*
X0146992Y0506850D01*
X0146992Y0506822D02*
X0145492Y0506822D01*
X0145492Y0506324D02*
X0146992Y0506324D01*
X0067492Y0506950D02*
X0065992Y0506950D01*
X0065992Y0507950D01*
X0067492Y0507950D01*
X0067492Y0506950D01*
X0067492Y0507321D02*
X0065992Y0507321D01*
X0065992Y0507819D02*
X0067492Y0507819D01*
X0063492Y0507819D02*
X0061992Y0507819D01*
X0061992Y0507950D02*
X0061992Y0506950D01*
X0063492Y0506950D01*
X0063492Y0507950D01*
X0061992Y0507950D01*
X0061992Y0507321D02*
X0063492Y0507321D01*
X0063492Y0405950D02*
X0063492Y0404950D01*
X0061992Y0404950D01*
X0061992Y0405950D01*
X0063492Y0405950D01*
X0063492Y0405625D02*
X0061992Y0405625D01*
X0061992Y0405126D02*
X0063492Y0405126D01*
X0065992Y0405126D02*
X0067492Y0405126D01*
X0067492Y0404950D02*
X0065992Y0404950D01*
X0065992Y0405950D01*
X0067492Y0405950D01*
X0067492Y0404950D01*
X0067492Y0405625D02*
X0065992Y0405625D01*
X0065992Y0608950D02*
X0065992Y0609950D01*
X0067492Y0609950D01*
X0067492Y0608950D01*
X0065992Y0608950D01*
X0065992Y0609017D02*
X0067492Y0609017D01*
X0067492Y0609516D02*
X0065992Y0609516D01*
X0063492Y0609516D02*
X0061992Y0609516D01*
X0061992Y0609950D02*
X0061992Y0608950D01*
X0063492Y0608950D01*
X0063492Y0609950D01*
X0061992Y0609950D01*
X0061992Y0609017D02*
X0063492Y0609017D01*
X0063492Y0710950D02*
X0061992Y0710950D01*
X0061992Y0711950D01*
X0063492Y0711950D01*
X0063492Y0710950D01*
X0063492Y0711212D02*
X0061992Y0711212D01*
X0061992Y0711711D02*
X0063492Y0711711D01*
X0065992Y0711711D02*
X0067492Y0711711D01*
X0067492Y0711950D02*
X0067492Y0710950D01*
X0065992Y0710950D01*
X0065992Y0711950D01*
X0067492Y0711950D01*
X0067492Y0711212D02*
X0065992Y0711212D01*
X0145492Y0710850D02*
X0146992Y0710850D01*
X0146992Y0709850D01*
X0145492Y0709850D01*
X0145492Y0710850D01*
X0145492Y0710713D02*
X0146992Y0710713D01*
X0146992Y0710215D02*
X0145492Y0710215D01*
X0173992Y0710950D02*
X0173992Y0711950D01*
X0175492Y0711950D01*
X0175492Y0710950D01*
X0173992Y0710950D01*
X0173992Y0711212D02*
X0175492Y0711212D01*
X0175492Y0711711D02*
X0173992Y0711711D01*
X0177992Y0711711D02*
X0179492Y0711711D01*
X0179492Y0711950D02*
X0179492Y0710950D01*
X0177992Y0710950D01*
X0177992Y0711950D01*
X0179492Y0711950D01*
X0179492Y0711212D02*
X0177992Y0711212D01*
X0177992Y0609950D02*
X0177992Y0608950D01*
X0179492Y0608950D01*
X0179492Y0609950D01*
X0177992Y0609950D01*
X0177992Y0609516D02*
X0179492Y0609516D01*
X0179492Y0609017D02*
X0177992Y0609017D01*
X0175492Y0609017D02*
X0173992Y0609017D01*
X0173992Y0608950D02*
X0173992Y0609950D01*
X0175492Y0609950D01*
X0175492Y0608950D01*
X0173992Y0608950D01*
X0173992Y0609516D02*
X0175492Y0609516D01*
X0146992Y0608850D02*
X0146992Y0607850D01*
X0145492Y0607850D01*
X0145492Y0608850D01*
X0146992Y0608850D01*
X0146992Y0608519D02*
X0145492Y0608519D01*
X0145492Y0608020D02*
X0146992Y0608020D01*
X0257492Y0608020D02*
X0258992Y0608020D01*
X0258992Y0607850D02*
X0258992Y0608850D01*
X0257492Y0608850D01*
X0257492Y0607850D01*
X0258992Y0607850D01*
X0258992Y0608519D02*
X0257492Y0608519D01*
X0285992Y0608950D02*
X0285992Y0609950D01*
X0287492Y0609950D01*
X0287492Y0608950D01*
X0285992Y0608950D01*
X0285992Y0609017D02*
X0287492Y0609017D01*
X0287492Y0609516D02*
X0285992Y0609516D01*
X0289992Y0609516D02*
X0291492Y0609516D01*
X0291492Y0609950D02*
X0291492Y0608950D01*
X0289992Y0608950D01*
X0289992Y0609950D01*
X0291492Y0609950D01*
X0291492Y0609017D02*
X0289992Y0609017D01*
X0289992Y0710950D02*
X0289992Y0711950D01*
X0291492Y0711950D01*
X0291492Y0710950D01*
X0289992Y0710950D01*
X0289992Y0711212D02*
X0291492Y0711212D01*
X0291492Y0711711D02*
X0289992Y0711711D01*
X0287492Y0711711D02*
X0285992Y0711711D01*
X0285992Y0711950D02*
X0285992Y0710950D01*
X0287492Y0710950D01*
X0287492Y0711950D01*
X0285992Y0711950D01*
X0285992Y0711212D02*
X0287492Y0711212D01*
X0258992Y0710850D02*
X0258992Y0709850D01*
X0257492Y0709850D01*
X0257492Y0710850D01*
X0258992Y0710850D01*
X0258992Y0710713D02*
X0257492Y0710713D01*
X0257492Y0710215D02*
X0258992Y0710215D01*
X0369492Y0710215D02*
X0370992Y0710215D01*
X0370992Y0709850D02*
X0370992Y0710850D01*
X0369492Y0710850D01*
X0369492Y0709850D01*
X0370992Y0709850D01*
X0370992Y0710713D02*
X0369492Y0710713D01*
X0397992Y0710950D02*
X0397992Y0711950D01*
X0399492Y0711950D01*
X0399492Y0710950D01*
X0397992Y0710950D01*
X0397992Y0711212D02*
X0399492Y0711212D01*
X0399492Y0711711D02*
X0397992Y0711711D01*
X0401992Y0711711D02*
X0403492Y0711711D01*
X0403492Y0711950D02*
X0403492Y0710950D01*
X0401992Y0710950D01*
X0401992Y0711950D01*
X0403492Y0711950D01*
X0403492Y0711212D02*
X0401992Y0711212D01*
X0401992Y0609950D02*
X0401992Y0608950D01*
X0403492Y0608950D01*
X0403492Y0609950D01*
X0401992Y0609950D01*
X0401992Y0609516D02*
X0403492Y0609516D01*
X0403492Y0609017D02*
X0401992Y0609017D01*
X0399492Y0609017D02*
X0397992Y0609017D01*
X0397992Y0608950D02*
X0397992Y0609950D01*
X0399492Y0609950D01*
X0399492Y0608950D01*
X0397992Y0608950D01*
X0397992Y0609516D02*
X0399492Y0609516D01*
X0370992Y0608850D02*
X0370992Y0607850D01*
X0369492Y0607850D01*
X0369492Y0608850D01*
X0370992Y0608850D01*
X0370992Y0608519D02*
X0369492Y0608519D01*
X0369492Y0608020D02*
X0370992Y0608020D01*
X0370992Y0506850D02*
X0370992Y0505850D01*
X0369492Y0505850D01*
X0369492Y0506850D01*
X0370992Y0506850D01*
X0370992Y0506822D02*
X0369492Y0506822D01*
X0369492Y0506324D02*
X0370992Y0506324D01*
X0397992Y0506950D02*
X0397992Y0507950D01*
X0399492Y0507950D01*
X0399492Y0506950D01*
X0397992Y0506950D01*
X0397992Y0507321D02*
X0399492Y0507321D01*
X0399492Y0507819D02*
X0397992Y0507819D01*
X0401992Y0507819D02*
X0403492Y0507819D01*
X0403492Y0507950D02*
X0403492Y0506950D01*
X0401992Y0506950D01*
X0401992Y0507950D01*
X0403492Y0507950D01*
X0403492Y0507321D02*
X0401992Y0507321D01*
X0401992Y0405950D02*
X0401992Y0404950D01*
X0403492Y0404950D01*
X0403492Y0405950D01*
X0401992Y0405950D01*
X0401992Y0405625D02*
X0403492Y0405625D01*
X0403492Y0405126D02*
X0401992Y0405126D01*
X0399492Y0405126D02*
X0397992Y0405126D01*
X0397992Y0404950D02*
X0397992Y0405950D01*
X0399492Y0405950D01*
X0399492Y0404950D01*
X0397992Y0404950D01*
X0397992Y0405625D02*
X0399492Y0405625D01*
X0370992Y0404850D02*
X0370992Y0403850D01*
X0369492Y0403850D01*
X0369492Y0404850D01*
X0370992Y0404850D01*
X0370992Y0404628D02*
X0369492Y0404628D01*
X0369492Y0404129D02*
X0370992Y0404129D01*
X0370992Y0302850D02*
X0370992Y0301850D01*
X0369492Y0301850D01*
X0369492Y0302850D01*
X0370992Y0302850D01*
X0370992Y0302433D02*
X0369492Y0302433D01*
X0369492Y0301934D02*
X0370992Y0301934D01*
X0397992Y0302950D02*
X0397992Y0303950D01*
X0399492Y0303950D01*
X0399492Y0302950D01*
X0397992Y0302950D01*
X0397992Y0303430D02*
X0399492Y0303430D01*
X0399492Y0303928D02*
X0397992Y0303928D01*
X0401992Y0303928D02*
X0403492Y0303928D01*
X0403492Y0303950D02*
X0403492Y0302950D01*
X0401992Y0302950D01*
X0401992Y0303950D01*
X0403492Y0303950D01*
X0403492Y0303430D02*
X0401992Y0303430D01*
X0401992Y0201950D02*
X0401992Y0200950D01*
X0403492Y0200950D01*
X0403492Y0201950D01*
X0401992Y0201950D01*
X0401992Y0201733D02*
X0403492Y0201733D01*
X0403492Y0201235D02*
X0401992Y0201235D01*
X0399492Y0201235D02*
X0397992Y0201235D01*
X0397992Y0200950D02*
X0397992Y0201950D01*
X0399492Y0201950D01*
X0399492Y0200950D01*
X0397992Y0200950D01*
X0397992Y0201733D02*
X0399492Y0201733D01*
X0370992Y0200850D02*
X0370992Y0199850D01*
X0369492Y0199850D01*
X0369492Y0200850D01*
X0370992Y0200850D01*
X0370992Y0200736D02*
X0369492Y0200736D01*
X0369492Y0200238D02*
X0370992Y0200238D01*
X0370992Y0098850D02*
X0370992Y0097850D01*
X0369492Y0097850D01*
X0369492Y0098850D01*
X0370992Y0098850D01*
X0370992Y0098542D02*
X0369492Y0098542D01*
X0369492Y0098043D02*
X0370992Y0098043D01*
X0397992Y0098950D02*
X0397992Y0099950D01*
X0399492Y0099950D01*
X0399492Y0098950D01*
X0397992Y0098950D01*
X0397992Y0099040D02*
X0399492Y0099040D01*
X0399492Y0099539D02*
X0397992Y0099539D01*
X0401992Y0099539D02*
X0403492Y0099539D01*
X0403492Y0099950D02*
X0403492Y0098950D01*
X0401992Y0098950D01*
X0401992Y0099950D01*
X0403492Y0099950D01*
X0403492Y0099040D02*
X0401992Y0099040D01*
X0481492Y0098850D02*
X0482992Y0098850D01*
X0482992Y0097850D01*
X0481492Y0097850D01*
X0481492Y0098850D01*
X0481492Y0098542D02*
X0482992Y0098542D01*
X0482992Y0098043D02*
X0481492Y0098043D01*
X0481492Y0199850D02*
X0481492Y0200850D01*
X0482992Y0200850D01*
X0482992Y0199850D01*
X0481492Y0199850D01*
X0481492Y0200238D02*
X0482992Y0200238D01*
X0482992Y0200736D02*
X0481492Y0200736D01*
X0481492Y0301850D02*
X0481492Y0302850D01*
X0482992Y0302850D01*
X0482992Y0301850D01*
X0481492Y0301850D01*
X0481492Y0301934D02*
X0482992Y0301934D01*
X0482992Y0302433D02*
X0481492Y0302433D01*
X0481492Y0403850D02*
X0481492Y0404850D01*
X0482992Y0404850D01*
X0482992Y0403850D01*
X0481492Y0403850D01*
X0481492Y0404129D02*
X0482992Y0404129D01*
X0482992Y0404628D02*
X0481492Y0404628D01*
X0481492Y0505850D02*
X0481492Y0506850D01*
X0482992Y0506850D01*
X0482992Y0505850D01*
X0481492Y0505850D01*
X0481492Y0506324D02*
X0482992Y0506324D01*
X0482992Y0506822D02*
X0481492Y0506822D01*
X0481492Y0607850D02*
X0481492Y0608850D01*
X0482992Y0608850D01*
X0482992Y0607850D01*
X0481492Y0607850D01*
X0481492Y0608020D02*
X0482992Y0608020D01*
X0482992Y0608519D02*
X0481492Y0608519D01*
X0481492Y0709850D02*
X0481492Y0710850D01*
X0482992Y0710850D01*
X0482992Y0709850D01*
X0481492Y0709850D01*
X0481492Y0710215D02*
X0482992Y0710215D01*
X0482992Y0710713D02*
X0481492Y0710713D01*
X0291492Y0507950D02*
X0291492Y0506950D01*
X0289992Y0506950D01*
X0289992Y0507950D01*
X0291492Y0507950D01*
X0291492Y0507819D02*
X0289992Y0507819D01*
X0289992Y0507321D02*
X0291492Y0507321D01*
X0287492Y0507321D02*
X0285992Y0507321D01*
X0285992Y0506950D02*
X0285992Y0507950D01*
X0287492Y0507950D01*
X0287492Y0506950D01*
X0285992Y0506950D01*
X0285992Y0507819D02*
X0287492Y0507819D01*
X0258992Y0506850D02*
X0258992Y0505850D01*
X0257492Y0505850D01*
X0257492Y0506850D01*
X0258992Y0506850D01*
X0258992Y0506822D02*
X0257492Y0506822D01*
X0257492Y0506324D02*
X0258992Y0506324D01*
X0258992Y0404850D02*
X0258992Y0403850D01*
X0257492Y0403850D01*
X0257492Y0404850D01*
X0258992Y0404850D01*
X0258992Y0404628D02*
X0257492Y0404628D01*
X0257492Y0404129D02*
X0258992Y0404129D01*
X0285992Y0404950D02*
X0285992Y0405950D01*
X0287492Y0405950D01*
X0287492Y0404950D01*
X0285992Y0404950D01*
X0285992Y0405126D02*
X0287492Y0405126D01*
X0287492Y0405625D02*
X0285992Y0405625D01*
X0289992Y0405625D02*
X0291492Y0405625D01*
X0291492Y0405950D02*
X0291492Y0404950D01*
X0289992Y0404950D01*
X0289992Y0405950D01*
X0291492Y0405950D01*
X0291492Y0405126D02*
X0289992Y0405126D01*
X0289992Y0303950D02*
X0289992Y0302950D01*
X0291492Y0302950D01*
X0291492Y0303950D01*
X0289992Y0303950D01*
X0289992Y0303928D02*
X0291492Y0303928D01*
X0291492Y0303430D02*
X0289992Y0303430D01*
X0287492Y0303430D02*
X0285992Y0303430D01*
X0285992Y0302950D02*
X0285992Y0303950D01*
X0287492Y0303950D01*
X0287492Y0302950D01*
X0285992Y0302950D01*
X0285992Y0303928D02*
X0287492Y0303928D01*
X0258992Y0302850D02*
X0258992Y0301850D01*
X0257492Y0301850D01*
X0257492Y0302850D01*
X0258992Y0302850D01*
X0258992Y0302433D02*
X0257492Y0302433D01*
X0257492Y0301934D02*
X0258992Y0301934D01*
X0258992Y0200850D02*
X0258992Y0199850D01*
X0257492Y0199850D01*
X0257492Y0200850D01*
X0258992Y0200850D01*
X0258992Y0200736D02*
X0257492Y0200736D01*
X0257492Y0200238D02*
X0258992Y0200238D01*
X0285992Y0200950D02*
X0285992Y0201950D01*
X0287492Y0201950D01*
X0287492Y0200950D01*
X0285992Y0200950D01*
X0285992Y0201235D02*
X0287492Y0201235D01*
X0287492Y0201733D02*
X0285992Y0201733D01*
X0289992Y0201733D02*
X0291492Y0201733D01*
X0291492Y0201950D02*
X0291492Y0200950D01*
X0289992Y0200950D01*
X0289992Y0201950D01*
X0291492Y0201950D01*
X0291492Y0201235D02*
X0289992Y0201235D01*
X0289992Y0099950D02*
X0289992Y0098950D01*
X0291492Y0098950D01*
X0291492Y0099950D01*
X0289992Y0099950D01*
X0289992Y0099539D02*
X0291492Y0099539D01*
X0291492Y0099040D02*
X0289992Y0099040D01*
X0287492Y0099040D02*
X0285992Y0099040D01*
X0285992Y0098950D02*
X0285992Y0099950D01*
X0287492Y0099950D01*
X0287492Y0098950D01*
X0285992Y0098950D01*
X0285992Y0099539D02*
X0287492Y0099539D01*
X0258992Y0098850D02*
X0258992Y0097850D01*
X0257492Y0097850D01*
X0257492Y0098850D01*
X0258992Y0098850D01*
X0258992Y0098542D02*
X0257492Y0098542D01*
X0257492Y0098043D02*
X0258992Y0098043D01*
X0179492Y0098950D02*
X0177992Y0098950D01*
X0177992Y0099950D01*
X0179492Y0099950D01*
X0179492Y0098950D01*
X0179492Y0099040D02*
X0177992Y0099040D01*
X0177992Y0099539D02*
X0179492Y0099539D01*
X0175492Y0099539D02*
X0173992Y0099539D01*
X0173992Y0099950D02*
X0173992Y0098950D01*
X0175492Y0098950D01*
X0175492Y0099950D01*
X0173992Y0099950D01*
X0173992Y0099040D02*
X0175492Y0099040D01*
X0146992Y0098850D02*
X0146992Y0097850D01*
X0145492Y0097850D01*
X0145492Y0098850D01*
X0146992Y0098850D01*
X0146992Y0098542D02*
X0145492Y0098542D01*
X0145492Y0098043D02*
X0146992Y0098043D01*
X0146992Y0199850D02*
X0146992Y0200850D01*
X0145492Y0200850D01*
X0145492Y0199850D01*
X0146992Y0199850D01*
X0146992Y0200238D02*
X0145492Y0200238D01*
X0145492Y0200736D02*
X0146992Y0200736D01*
X0173992Y0200950D02*
X0173992Y0201950D01*
X0175492Y0201950D01*
X0175492Y0200950D01*
X0173992Y0200950D01*
X0173992Y0201235D02*
X0175492Y0201235D01*
X0175492Y0201733D02*
X0173992Y0201733D01*
X0177992Y0201733D02*
X0179492Y0201733D01*
X0179492Y0201950D02*
X0179492Y0200950D01*
X0177992Y0200950D01*
X0177992Y0201950D01*
X0179492Y0201950D01*
X0179492Y0201235D02*
X0177992Y0201235D01*
X0067492Y0201235D02*
X0065992Y0201235D01*
X0065992Y0200950D02*
X0065992Y0201950D01*
X0067492Y0201950D01*
X0067492Y0200950D01*
X0065992Y0200950D01*
X0065992Y0201733D02*
X0067492Y0201733D01*
X0063492Y0201733D02*
X0061992Y0201733D01*
X0061992Y0201950D02*
X0061992Y0200950D01*
X0063492Y0200950D01*
X0063492Y0201950D01*
X0061992Y0201950D01*
X0061992Y0201235D02*
X0063492Y0201235D01*
X0063492Y0099950D02*
X0063492Y0098950D01*
X0061992Y0098950D01*
X0061992Y0099950D01*
X0063492Y0099950D01*
X0063492Y0099539D02*
X0061992Y0099539D01*
X0061992Y0099040D02*
X0063492Y0099040D01*
X0065992Y0099040D02*
X0067492Y0099040D01*
X0067492Y0098950D02*
X0065992Y0098950D01*
X0065992Y0099950D01*
X0067492Y0099950D01*
X0067492Y0098950D01*
X0067492Y0099539D02*
X0065992Y0099539D01*
D18*
X0095980Y0101255D03*
X0095980Y0106767D03*
X0102673Y0106767D03*
X0102673Y0101255D03*
X0102673Y0203255D03*
X0102673Y0208767D03*
X0095980Y0208767D03*
X0095980Y0203255D03*
X0095980Y0305255D03*
X0095980Y0310767D03*
X0102673Y0310767D03*
X0102673Y0305255D03*
X0102673Y0407255D03*
X0102673Y0412767D03*
X0095980Y0412767D03*
X0095980Y0407255D03*
X0095980Y0509255D03*
X0095980Y0514767D03*
X0102673Y0514767D03*
X0102673Y0509255D03*
X0102673Y0611255D03*
X0102673Y0616767D03*
X0095980Y0616767D03*
X0095980Y0611255D03*
X0095980Y0713255D03*
X0095980Y0718767D03*
X0102673Y0718767D03*
X0102673Y0713255D03*
X0207980Y0713255D03*
X0207980Y0718767D03*
X0214673Y0718767D03*
X0214673Y0713255D03*
X0214673Y0616767D03*
X0214673Y0611255D03*
X0207980Y0611255D03*
X0207980Y0616767D03*
X0207980Y0514767D03*
X0207980Y0509255D03*
X0214673Y0509255D03*
X0214673Y0514767D03*
X0214673Y0412767D03*
X0214673Y0407255D03*
X0207980Y0407255D03*
X0207980Y0412767D03*
X0207980Y0310767D03*
X0207980Y0305255D03*
X0214673Y0305255D03*
X0214673Y0310767D03*
X0214673Y0208767D03*
X0214673Y0203255D03*
X0207980Y0203255D03*
X0207980Y0208767D03*
X0207980Y0106767D03*
X0207980Y0101255D03*
X0214673Y0101255D03*
X0214673Y0106767D03*
X0319980Y0106767D03*
X0319980Y0101255D03*
X0326673Y0101255D03*
X0326673Y0106767D03*
X0326673Y0203255D03*
X0326673Y0208767D03*
X0319980Y0208767D03*
X0319980Y0203255D03*
X0319980Y0305255D03*
X0319980Y0310767D03*
X0326673Y0310767D03*
X0326673Y0305255D03*
X0326673Y0407255D03*
X0326673Y0412767D03*
X0319980Y0412767D03*
X0319980Y0407255D03*
X0319980Y0509255D03*
X0319980Y0514767D03*
X0326673Y0514767D03*
X0326673Y0509255D03*
X0326673Y0611255D03*
X0326673Y0616767D03*
X0319980Y0616767D03*
X0319980Y0611255D03*
X0319980Y0713255D03*
X0319980Y0718767D03*
X0326673Y0718767D03*
X0326673Y0713255D03*
X0431980Y0713255D03*
X0431980Y0718767D03*
X0438673Y0718767D03*
X0438673Y0713255D03*
X0438673Y0616767D03*
X0438673Y0611255D03*
X0431980Y0611255D03*
X0431980Y0616767D03*
X0431980Y0514767D03*
X0431980Y0509255D03*
X0438673Y0509255D03*
X0438673Y0514767D03*
X0438673Y0412767D03*
X0438673Y0407255D03*
X0431980Y0407255D03*
X0431980Y0412767D03*
X0431980Y0310767D03*
X0431980Y0305255D03*
X0438673Y0305255D03*
X0438673Y0310767D03*
X0438673Y0208767D03*
X0438673Y0203255D03*
X0431980Y0203255D03*
X0431980Y0208767D03*
X0431980Y0106767D03*
X0431980Y0101255D03*
X0438673Y0101255D03*
X0438673Y0106767D03*
D19*
X0444042Y0106017D03*
X0444042Y0101450D03*
X0425942Y0101583D03*
X0425942Y0106150D03*
X0425942Y0203583D03*
X0425942Y0208150D03*
X0444042Y0208017D03*
X0444042Y0203450D03*
X0444042Y0305450D03*
X0444042Y0310017D03*
X0425942Y0310150D03*
X0425942Y0305583D03*
X0425942Y0407583D03*
X0425942Y0412150D03*
X0444042Y0412017D03*
X0444042Y0407450D03*
X0444042Y0509450D03*
X0444042Y0514017D03*
X0425942Y0514150D03*
X0425942Y0509583D03*
X0425942Y0611583D03*
X0425942Y0616150D03*
X0444042Y0616017D03*
X0444042Y0611450D03*
X0444042Y0713450D03*
X0444042Y0718017D03*
X0425942Y0718150D03*
X0425942Y0713583D03*
X0332042Y0713450D03*
X0332042Y0718017D03*
X0313942Y0718150D03*
X0313942Y0713583D03*
X0313942Y0616150D03*
X0313942Y0611583D03*
X0332042Y0611450D03*
X0332042Y0616017D03*
X0332042Y0514017D03*
X0332042Y0509450D03*
X0313942Y0509583D03*
X0313942Y0514150D03*
X0313942Y0412150D03*
X0313942Y0407583D03*
X0332042Y0407450D03*
X0332042Y0412017D03*
X0332042Y0310017D03*
X0332042Y0305450D03*
X0313942Y0305583D03*
X0313942Y0310150D03*
X0313942Y0208150D03*
X0313942Y0203583D03*
X0332042Y0203450D03*
X0332042Y0208017D03*
X0332042Y0106017D03*
X0332042Y0101450D03*
X0313942Y0101583D03*
X0313942Y0106150D03*
X0220042Y0106017D03*
X0220042Y0101450D03*
X0201942Y0101583D03*
X0201942Y0106150D03*
X0201942Y0203583D03*
X0201942Y0208150D03*
X0220042Y0208017D03*
X0220042Y0203450D03*
X0220042Y0305450D03*
X0220042Y0310017D03*
X0201942Y0310150D03*
X0201942Y0305583D03*
X0201942Y0407583D03*
X0201942Y0412150D03*
X0220042Y0412017D03*
X0220042Y0407450D03*
X0220042Y0509450D03*
X0220042Y0514017D03*
X0201942Y0514150D03*
X0201942Y0509583D03*
X0201942Y0611583D03*
X0201942Y0616150D03*
X0220042Y0616017D03*
X0220042Y0611450D03*
X0220042Y0713450D03*
X0220042Y0718017D03*
X0201942Y0718150D03*
X0201942Y0713583D03*
X0108042Y0713450D03*
X0108042Y0718017D03*
X0089942Y0718150D03*
X0089942Y0713583D03*
X0089942Y0616150D03*
X0089942Y0611583D03*
X0108042Y0611450D03*
X0108042Y0616017D03*
X0108042Y0514017D03*
X0108042Y0509450D03*
X0089942Y0509583D03*
X0089942Y0514150D03*
X0089942Y0412150D03*
X0089942Y0407583D03*
X0108042Y0407450D03*
X0108042Y0412017D03*
X0108042Y0310017D03*
X0108042Y0305450D03*
X0089942Y0305583D03*
X0089942Y0310150D03*
X0089942Y0208150D03*
X0089942Y0203583D03*
X0108042Y0203450D03*
X0108042Y0208017D03*
X0108042Y0106017D03*
X0108042Y0101450D03*
X0089942Y0101583D03*
X0089942Y0106150D03*
D20*
X0123342Y0108750D03*
X0123342Y0098750D03*
X0123342Y0200750D03*
X0123342Y0210750D03*
X0123342Y0302750D03*
X0123342Y0312750D03*
X0123342Y0404750D03*
X0123342Y0414750D03*
X0123342Y0506750D03*
X0123342Y0516750D03*
X0123342Y0608750D03*
X0123342Y0618750D03*
X0123342Y0710750D03*
X0123342Y0720750D03*
X0235342Y0720750D03*
X0235342Y0710750D03*
X0235342Y0618750D03*
X0235342Y0608750D03*
X0235342Y0516750D03*
X0235342Y0506750D03*
X0235342Y0414750D03*
X0235342Y0404750D03*
X0235342Y0312750D03*
X0235342Y0302750D03*
X0235342Y0210750D03*
X0235342Y0200750D03*
X0235342Y0108750D03*
X0235342Y0098750D03*
X0347342Y0098750D03*
X0347342Y0108750D03*
X0347342Y0200750D03*
X0347342Y0210750D03*
X0347342Y0302750D03*
X0347342Y0312750D03*
X0347342Y0404750D03*
X0347342Y0414750D03*
X0347342Y0506750D03*
X0347342Y0516750D03*
X0347342Y0608750D03*
X0347342Y0618750D03*
X0347342Y0710750D03*
X0347342Y0720750D03*
X0459342Y0720750D03*
X0459342Y0710750D03*
X0459342Y0618750D03*
X0459342Y0608750D03*
X0459342Y0516750D03*
X0459342Y0506750D03*
X0459342Y0414750D03*
X0459342Y0404750D03*
X0459342Y0312750D03*
X0459342Y0302750D03*
X0459342Y0210750D03*
X0459342Y0200750D03*
X0459342Y0108750D03*
X0459342Y0098750D03*
D21*
X0462342Y0749000D03*
X0070342Y0749000D03*
D22*
X0066777Y0020500D02*
X0066779Y0020619D01*
X0066785Y0020738D01*
X0066795Y0020857D01*
X0066809Y0020975D01*
X0066827Y0021093D01*
X0066848Y0021210D01*
X0066874Y0021326D01*
X0066904Y0021442D01*
X0066937Y0021556D01*
X0066974Y0021669D01*
X0067015Y0021781D01*
X0067060Y0021892D01*
X0067108Y0022001D01*
X0067160Y0022108D01*
X0067216Y0022213D01*
X0067275Y0022317D01*
X0067337Y0022418D01*
X0067403Y0022518D01*
X0067472Y0022615D01*
X0067544Y0022709D01*
X0067620Y0022802D01*
X0067698Y0022891D01*
X0067779Y0022978D01*
X0067864Y0023063D01*
X0067951Y0023144D01*
X0068040Y0023222D01*
X0068133Y0023298D01*
X0068227Y0023370D01*
X0068324Y0023439D01*
X0068424Y0023505D01*
X0068525Y0023567D01*
X0068629Y0023626D01*
X0068734Y0023682D01*
X0068841Y0023734D01*
X0068950Y0023782D01*
X0069061Y0023827D01*
X0069173Y0023868D01*
X0069286Y0023905D01*
X0069400Y0023938D01*
X0069516Y0023968D01*
X0069632Y0023994D01*
X0069749Y0024015D01*
X0069867Y0024033D01*
X0069985Y0024047D01*
X0070104Y0024057D01*
X0070223Y0024063D01*
X0070342Y0024065D01*
X0070461Y0024063D01*
X0070580Y0024057D01*
X0070699Y0024047D01*
X0070817Y0024033D01*
X0070935Y0024015D01*
X0071052Y0023994D01*
X0071168Y0023968D01*
X0071284Y0023938D01*
X0071398Y0023905D01*
X0071511Y0023868D01*
X0071623Y0023827D01*
X0071734Y0023782D01*
X0071843Y0023734D01*
X0071950Y0023682D01*
X0072055Y0023626D01*
X0072159Y0023567D01*
X0072260Y0023505D01*
X0072360Y0023439D01*
X0072457Y0023370D01*
X0072551Y0023298D01*
X0072644Y0023222D01*
X0072733Y0023144D01*
X0072820Y0023063D01*
X0072905Y0022978D01*
X0072986Y0022891D01*
X0073064Y0022802D01*
X0073140Y0022709D01*
X0073212Y0022615D01*
X0073281Y0022518D01*
X0073347Y0022418D01*
X0073409Y0022317D01*
X0073468Y0022213D01*
X0073524Y0022108D01*
X0073576Y0022001D01*
X0073624Y0021892D01*
X0073669Y0021781D01*
X0073710Y0021669D01*
X0073747Y0021556D01*
X0073780Y0021442D01*
X0073810Y0021326D01*
X0073836Y0021210D01*
X0073857Y0021093D01*
X0073875Y0020975D01*
X0073889Y0020857D01*
X0073899Y0020738D01*
X0073905Y0020619D01*
X0073907Y0020500D01*
X0073905Y0020381D01*
X0073899Y0020262D01*
X0073889Y0020143D01*
X0073875Y0020025D01*
X0073857Y0019907D01*
X0073836Y0019790D01*
X0073810Y0019674D01*
X0073780Y0019558D01*
X0073747Y0019444D01*
X0073710Y0019331D01*
X0073669Y0019219D01*
X0073624Y0019108D01*
X0073576Y0018999D01*
X0073524Y0018892D01*
X0073468Y0018787D01*
X0073409Y0018683D01*
X0073347Y0018582D01*
X0073281Y0018482D01*
X0073212Y0018385D01*
X0073140Y0018291D01*
X0073064Y0018198D01*
X0072986Y0018109D01*
X0072905Y0018022D01*
X0072820Y0017937D01*
X0072733Y0017856D01*
X0072644Y0017778D01*
X0072551Y0017702D01*
X0072457Y0017630D01*
X0072360Y0017561D01*
X0072260Y0017495D01*
X0072159Y0017433D01*
X0072055Y0017374D01*
X0071950Y0017318D01*
X0071843Y0017266D01*
X0071734Y0017218D01*
X0071623Y0017173D01*
X0071511Y0017132D01*
X0071398Y0017095D01*
X0071284Y0017062D01*
X0071168Y0017032D01*
X0071052Y0017006D01*
X0070935Y0016985D01*
X0070817Y0016967D01*
X0070699Y0016953D01*
X0070580Y0016943D01*
X0070461Y0016937D01*
X0070342Y0016935D01*
X0070223Y0016937D01*
X0070104Y0016943D01*
X0069985Y0016953D01*
X0069867Y0016967D01*
X0069749Y0016985D01*
X0069632Y0017006D01*
X0069516Y0017032D01*
X0069400Y0017062D01*
X0069286Y0017095D01*
X0069173Y0017132D01*
X0069061Y0017173D01*
X0068950Y0017218D01*
X0068841Y0017266D01*
X0068734Y0017318D01*
X0068629Y0017374D01*
X0068525Y0017433D01*
X0068424Y0017495D01*
X0068324Y0017561D01*
X0068227Y0017630D01*
X0068133Y0017702D01*
X0068040Y0017778D01*
X0067951Y0017856D01*
X0067864Y0017937D01*
X0067779Y0018022D01*
X0067698Y0018109D01*
X0067620Y0018198D01*
X0067544Y0018291D01*
X0067472Y0018385D01*
X0067403Y0018482D01*
X0067337Y0018582D01*
X0067275Y0018683D01*
X0067216Y0018787D01*
X0067160Y0018892D01*
X0067108Y0018999D01*
X0067060Y0019108D01*
X0067015Y0019219D01*
X0066974Y0019331D01*
X0066937Y0019444D01*
X0066904Y0019558D01*
X0066874Y0019674D01*
X0066848Y0019790D01*
X0066827Y0019907D01*
X0066809Y0020025D01*
X0066795Y0020143D01*
X0066785Y0020262D01*
X0066779Y0020381D01*
X0066777Y0020500D01*
D23*
X0070342Y0020500D03*
M02*
