G75*
%MOIN*%
%OFA0B0*%
%FSLAX25Y25*%
%IPPOS*%
%LPD*%
%AMOC8*
5,1,8,0,0,1.08239X$1,22.5*
%
%ADD10R,0.86100X0.06400*%
%ADD11C,0.00800*%
%ADD12C,0.02236*%
%ADD13C,0.00500*%
%ADD14C,0.01272*%
%ADD15C,0.00591*%
%ADD16C,0.00050*%
%ADD17R,0.00157X0.12520*%
%ADD18R,0.00118X0.12520*%
%ADD19R,0.00118X0.02480*%
%ADD20R,0.00118X0.06220*%
%ADD21R,0.00157X0.02047*%
%ADD22R,0.00157X0.00945*%
%ADD23R,0.00118X0.01929*%
%ADD24R,0.00118X0.00709*%
%ADD25R,0.00118X0.02047*%
%ADD26R,0.00157X0.01772*%
%ADD27R,0.00157X0.00551*%
%ADD28R,0.00157X0.01811*%
%ADD29R,0.00118X0.01654*%
%ADD30R,0.00118X0.00433*%
%ADD31R,0.00118X0.01811*%
%ADD32R,0.00157X0.01654*%
%ADD33R,0.00118X0.00276*%
%ADD34R,0.00118X0.00394*%
%ADD35R,0.00118X0.01496*%
%ADD36R,0.00118X0.00551*%
%ADD37R,0.00157X0.00669*%
%ADD38R,0.00157X0.01378*%
%ADD39R,0.00157X0.00709*%
%ADD40R,0.00157X0.01496*%
%ADD41R,0.00118X0.00984*%
%ADD42R,0.00118X0.01260*%
%ADD43R,0.00157X0.01929*%
%ADD44R,0.00157X0.01102*%
%ADD45R,0.00118X0.00827*%
%ADD46R,0.00118X0.00945*%
%ADD47R,0.00157X0.02480*%
%ADD48R,0.00157X0.00984*%
%ADD49R,0.00118X0.01102*%
%ADD50R,0.00118X0.01772*%
%ADD51R,0.00157X0.01260*%
%ADD52R,0.00157X0.00394*%
%ADD53R,0.00157X0.02087*%
%ADD54R,0.00118X0.03031*%
%ADD55R,0.00118X0.00157*%
%ADD56R,0.00118X0.02638*%
%ADD57R,0.00157X0.01220*%
%ADD58R,0.00157X0.00157*%
%ADD59R,0.00118X0.01220*%
%ADD60R,0.00118X0.00669*%
%ADD61R,0.00118X0.01378*%
%ADD62R,0.00157X0.02205*%
%ADD63R,0.00118X0.02205*%
%ADD64R,0.00157X0.13386*%
%ADD65R,0.00118X0.13386*%
%ADD66R,0.00118X0.02913*%
%ADD67R,0.00118X0.09646*%
%ADD68R,0.00157X0.02638*%
%ADD69R,0.00118X0.02362*%
%ADD70R,0.00157X0.00433*%
%ADD71R,0.00118X0.02087*%
%ADD72R,0.00157X0.00827*%
%ADD73R,0.00157X0.01535*%
%ADD74R,0.00118X0.01535*%
%ADD75R,0.00157X0.00276*%
%ADD76R,0.00118X0.00118*%
%ADD77R,0.00118X0.02756*%
%ADD78R,0.10748X0.00118*%
%ADD79R,0.11457X0.00118*%
%ADD80R,0.11929X0.00079*%
%ADD81R,0.12402X0.00157*%
%ADD82R,0.12638X0.00118*%
%ADD83R,0.12874X0.00118*%
%ADD84R,0.13110X0.00079*%
%ADD85R,0.04961X0.00118*%
%ADD86R,0.03071X0.00118*%
%ADD87R,0.05079X0.00118*%
%ADD88R,0.02244X0.00157*%
%ADD89R,0.00945X0.00157*%
%ADD90R,0.01181X0.00157*%
%ADD91R,0.00472X0.00157*%
%ADD92R,0.02835X0.00157*%
%ADD93R,0.02244X0.00118*%
%ADD94R,0.00591X0.00118*%
%ADD95R,0.00945X0.00118*%
%ADD96R,0.00354X0.00118*%
%ADD97R,0.02598X0.00118*%
%ADD98R,0.02362X0.00118*%
%ADD99R,0.00472X0.00118*%
%ADD100R,0.00827X0.00118*%
%ADD101R,0.02480X0.00118*%
%ADD102R,0.02480X0.00157*%
%ADD103R,0.00236X0.00157*%
%ADD104R,0.00709X0.00157*%
%ADD105R,0.00354X0.00157*%
%ADD106R,0.00709X0.00118*%
%ADD107R,0.00236X0.00118*%
%ADD108R,0.02598X0.00157*%
%ADD109R,0.00591X0.00157*%
%ADD110R,0.02717X0.00118*%
%ADD111R,0.02835X0.00118*%
%ADD112R,0.00827X0.00157*%
%ADD113R,0.01299X0.00118*%
%ADD114R,0.01654X0.00118*%
%ADD115R,0.01063X0.00118*%
%ADD116R,0.01063X0.00157*%
%ADD117R,0.01181X0.00118*%
%ADD118R,0.02126X0.00118*%
%ADD119R,0.02126X0.00157*%
%ADD120R,0.01417X0.00118*%
%ADD121R,0.13110X0.00118*%
%ADD122R,0.12402X0.00118*%
%ADD123R,0.11929X0.00118*%
%ADD124R,0.00118X0.01063*%
%ADD125R,0.00157X0.01417*%
%ADD126R,0.00157X0.00591*%
%ADD127R,0.00118X0.02008*%
%ADD128R,0.00118X0.01890*%
%ADD129R,0.00118X0.02126*%
%ADD130R,0.00118X0.02244*%
%ADD131R,0.00157X0.02008*%
%ADD132R,0.00157X0.02362*%
%ADD133R,0.00157X0.01063*%
%ADD134R,0.00118X0.01181*%
%ADD135R,0.00118X0.00354*%
%ADD136R,0.00118X0.01299*%
%ADD137R,0.00118X0.01417*%
%ADD138R,0.00118X0.02598*%
%ADD139R,0.00118X0.02717*%
%ADD140R,0.00118X0.02835*%
%ADD141R,0.00157X0.02244*%
%ADD142R,0.00157X0.02953*%
%ADD143R,0.00157X0.01890*%
%ADD144R,0.00118X0.00472*%
%ADD145R,0.00118X0.00591*%
%ADD146R,0.00118X0.00236*%
%ADD147R,0.00157X0.01299*%
%ADD148R,0.00079X0.00472*%
%ADD149R,0.00157X0.02598*%
%ADD150R,0.00157X0.01181*%
%ADD151R,0.15276X0.00157*%
%ADD152R,0.03307X0.00157*%
%ADD153R,0.11024X0.00157*%
%ADD154R,0.02992X0.00157*%
%ADD155R,0.01260X0.00157*%
%ADD156R,0.01890X0.00157*%
%ADD157R,0.00630X0.00157*%
%ADD158R,0.02677X0.00157*%
%ADD159R,0.00787X0.00157*%
%ADD160R,0.01575X0.00157*%
%ADD161R,0.02520X0.00157*%
%ADD162R,0.01417X0.00157*%
%ADD163R,0.02205X0.00157*%
%ADD164R,0.02362X0.00157*%
%ADD165R,0.02047X0.00157*%
%ADD166R,0.01102X0.00157*%
%ADD167R,0.01732X0.00157*%
%ADD168R,0.00315X0.00157*%
%ADD169R,0.03150X0.00157*%
%ADD170R,0.00157X0.10551*%
%ADD171R,0.00157X0.10394*%
%ADD172R,0.00157X0.10236*%
%ADD173R,0.00157X0.10079*%
%ADD174R,0.00157X0.09921*%
%ADD175R,0.00157X0.09764*%
%ADD176R,0.00157X0.09606*%
%ADD177R,0.00157X0.09449*%
%ADD178R,0.00157X0.02677*%
%ADD179R,0.00157X0.00630*%
%ADD180R,0.00157X0.02520*%
%ADD181R,0.00157X0.00472*%
%ADD182R,0.00157X0.01732*%
%ADD183R,0.00157X0.01575*%
%ADD184R,0.00157X0.00787*%
%ADD185R,0.00157X0.02992*%
%ADD186R,0.00157X0.11811*%
%ADD187R,0.00157X0.11654*%
%ADD188R,0.00157X0.11496*%
%ADD189R,0.00157X0.11339*%
%ADD190R,0.00157X0.11181*%
%ADD191R,0.00157X0.11024*%
%ADD192R,0.00157X0.10866*%
%ADD193R,0.00157X0.02835*%
%ADD194R,0.00157X0.07087*%
%ADD195R,0.00157X0.00315*%
%ADD196R,0.00157X0.03465*%
%ADD197R,0.00157X0.03150*%
%ADD198R,0.00157X0.03622*%
%ADD199R,0.00157X0.10709*%
%ADD200R,0.00157X0.03780*%
%ADD201R,0.00157X0.03937*%
%ADD202R,0.00157X0.06929*%
%ADD203R,0.00157X0.06772*%
%ADD204R,0.00157X0.06614*%
%ADD205R,0.00157X0.06457*%
%ADD206R,0.00157X0.06299*%
%ADD207R,0.00157X0.06142*%
%ADD208R,0.00157X0.05984*%
%ADD209R,0.00157X0.08031*%
%ADD210R,0.00157X0.07874*%
%ADD211R,0.00157X0.07717*%
%ADD212R,0.00157X0.07559*%
%ADD213R,0.00157X0.07402*%
%ADD214R,0.00157X0.07244*%
%ADD215R,0.00157X0.03307*%
D10*
X0176083Y0068000D03*
D11*
X0207711Y0101189D02*
X0207711Y0104142D01*
X0204752Y0103157D02*
X0204754Y0103197D01*
X0204760Y0103236D01*
X0204770Y0103275D01*
X0204783Y0103312D01*
X0204801Y0103348D01*
X0204822Y0103382D01*
X0204846Y0103414D01*
X0204873Y0103443D01*
X0204903Y0103470D01*
X0204935Y0103493D01*
X0204970Y0103513D01*
X0205006Y0103529D01*
X0205044Y0103542D01*
X0205083Y0103551D01*
X0205122Y0103556D01*
X0205162Y0103557D01*
X0205202Y0103554D01*
X0205241Y0103547D01*
X0205279Y0103536D01*
X0205317Y0103522D01*
X0205352Y0103503D01*
X0205385Y0103482D01*
X0205417Y0103457D01*
X0205445Y0103429D01*
X0205471Y0103399D01*
X0205493Y0103366D01*
X0205512Y0103331D01*
X0205528Y0103294D01*
X0205540Y0103256D01*
X0205548Y0103217D01*
X0205552Y0103177D01*
X0205552Y0103137D01*
X0205548Y0103097D01*
X0205540Y0103058D01*
X0205528Y0103020D01*
X0205512Y0102983D01*
X0205493Y0102948D01*
X0205471Y0102915D01*
X0205445Y0102885D01*
X0205417Y0102857D01*
X0205385Y0102832D01*
X0205352Y0102811D01*
X0205317Y0102792D01*
X0205279Y0102778D01*
X0205241Y0102767D01*
X0205202Y0102760D01*
X0205162Y0102757D01*
X0205122Y0102758D01*
X0205083Y0102763D01*
X0205044Y0102772D01*
X0205006Y0102785D01*
X0204970Y0102801D01*
X0204935Y0102821D01*
X0204903Y0102844D01*
X0204873Y0102871D01*
X0204846Y0102900D01*
X0204822Y0102932D01*
X0204801Y0102966D01*
X0204783Y0103002D01*
X0204770Y0103039D01*
X0204760Y0103078D01*
X0204754Y0103117D01*
X0204752Y0103157D01*
X0207711Y0101189D02*
X0214207Y0101189D01*
X0224444Y0107094D02*
X0224444Y0118906D01*
X0214207Y0124811D02*
X0207711Y0124811D01*
X0207711Y0121858D01*
X0211983Y0132925D02*
X0211983Y0136675D01*
X0137114Y0122843D02*
X0137116Y0122883D01*
X0137122Y0122922D01*
X0137132Y0122961D01*
X0137145Y0122998D01*
X0137163Y0123034D01*
X0137184Y0123068D01*
X0137208Y0123100D01*
X0137235Y0123129D01*
X0137265Y0123156D01*
X0137297Y0123179D01*
X0137332Y0123199D01*
X0137368Y0123215D01*
X0137406Y0123228D01*
X0137445Y0123237D01*
X0137484Y0123242D01*
X0137524Y0123243D01*
X0137564Y0123240D01*
X0137603Y0123233D01*
X0137641Y0123222D01*
X0137679Y0123208D01*
X0137714Y0123189D01*
X0137747Y0123168D01*
X0137779Y0123143D01*
X0137807Y0123115D01*
X0137833Y0123085D01*
X0137855Y0123052D01*
X0137874Y0123017D01*
X0137890Y0122980D01*
X0137902Y0122942D01*
X0137910Y0122903D01*
X0137914Y0122863D01*
X0137914Y0122823D01*
X0137910Y0122783D01*
X0137902Y0122744D01*
X0137890Y0122706D01*
X0137874Y0122669D01*
X0137855Y0122634D01*
X0137833Y0122601D01*
X0137807Y0122571D01*
X0137779Y0122543D01*
X0137747Y0122518D01*
X0137714Y0122497D01*
X0137679Y0122478D01*
X0137641Y0122464D01*
X0137603Y0122453D01*
X0137564Y0122446D01*
X0137524Y0122443D01*
X0137484Y0122444D01*
X0137445Y0122449D01*
X0137406Y0122458D01*
X0137368Y0122471D01*
X0137332Y0122487D01*
X0137297Y0122507D01*
X0137265Y0122530D01*
X0137235Y0122557D01*
X0137208Y0122586D01*
X0137184Y0122618D01*
X0137163Y0122652D01*
X0137145Y0122688D01*
X0137132Y0122725D01*
X0137122Y0122764D01*
X0137116Y0122803D01*
X0137114Y0122843D01*
X0134955Y0121858D02*
X0134955Y0124811D01*
X0128459Y0124811D01*
X0118223Y0118906D02*
X0118223Y0107094D01*
X0128459Y0101189D02*
X0134955Y0101189D01*
X0134955Y0104142D01*
D12*
X0181333Y0130000D03*
D13*
X0179633Y0128300D02*
X0179633Y0126000D01*
X0179633Y0128300D02*
X0177333Y0128300D01*
X0165333Y0128300D02*
X0163233Y0128300D01*
X0163233Y0126000D01*
X0163233Y0114000D02*
X0163233Y0111900D01*
X0165333Y0111900D01*
X0177333Y0111900D02*
X0179633Y0111900D01*
X0179633Y0114000D01*
D14*
X0165166Y0131463D03*
D15*
X0129795Y0132780D02*
X0129795Y0134220D01*
X0127890Y0134413D01*
X0127685Y0135054D01*
X0127377Y0135652D01*
X0128587Y0137136D01*
X0127569Y0138154D01*
X0126085Y0136943D01*
X0125487Y0137251D01*
X0124847Y0137456D01*
X0124653Y0139361D01*
X0123214Y0139361D01*
X0123020Y0137456D01*
X0122380Y0137251D01*
X0121782Y0136943D01*
X0120298Y0138154D01*
X0119280Y0137136D01*
X0120490Y0135652D01*
X0120182Y0135054D01*
X0119977Y0134413D01*
X0118072Y0134220D01*
X0118072Y0132780D01*
X0119977Y0132587D01*
X0120182Y0131946D01*
X0120490Y0131348D01*
X0119280Y0129864D01*
X0120298Y0128846D01*
X0121782Y0130057D01*
X0122379Y0129749D01*
X0123227Y0131795D01*
X0122848Y0132007D01*
X0122530Y0132301D01*
X0122289Y0132662D01*
X0122139Y0133069D01*
X0122088Y0133500D01*
X0122141Y0133939D01*
X0122296Y0134352D01*
X0122546Y0134717D01*
X0122875Y0135011D01*
X0123264Y0135220D01*
X0123692Y0135329D01*
X0124134Y0135334D01*
X0124564Y0135234D01*
X0124958Y0135034D01*
X0125294Y0134746D01*
X0125551Y0134387D01*
X0125715Y0133977D01*
X0125778Y0133540D01*
X0125735Y0133100D01*
X0125588Y0132684D01*
X0125347Y0132314D01*
X0125025Y0132012D01*
X0124640Y0131795D01*
X0125487Y0129749D01*
X0126085Y0130057D01*
X0127569Y0128846D01*
X0128587Y0129864D01*
X0127377Y0131348D01*
X0127685Y0131946D01*
X0127890Y0132587D01*
X0129795Y0132780D01*
X0129795Y0133098D02*
X0125734Y0133098D01*
X0125757Y0133688D02*
X0129795Y0133688D01*
X0129235Y0134277D02*
X0125595Y0134277D01*
X0125154Y0134866D02*
X0127745Y0134866D01*
X0127478Y0135455D02*
X0120389Y0135455D01*
X0120170Y0136044D02*
X0127696Y0136044D01*
X0128177Y0136633D02*
X0119690Y0136633D01*
X0119366Y0137222D02*
X0121440Y0137222D01*
X0122323Y0137222D02*
X0125544Y0137222D01*
X0126427Y0137222D02*
X0128501Y0137222D01*
X0127912Y0137811D02*
X0127149Y0137811D01*
X0124811Y0137811D02*
X0123056Y0137811D01*
X0123116Y0138400D02*
X0124751Y0138400D01*
X0124691Y0138989D02*
X0123176Y0138989D01*
X0120718Y0137811D02*
X0119955Y0137811D01*
X0120122Y0134866D02*
X0122712Y0134866D01*
X0122268Y0134277D02*
X0118631Y0134277D01*
X0118072Y0133688D02*
X0122110Y0133688D01*
X0122135Y0133098D02*
X0118072Y0133098D01*
X0120002Y0132509D02*
X0122391Y0132509D01*
X0123003Y0131920D02*
X0120195Y0131920D01*
X0120476Y0131331D02*
X0123035Y0131331D01*
X0122791Y0130742D02*
X0119996Y0130742D01*
X0119515Y0130153D02*
X0122547Y0130153D01*
X0121178Y0129564D02*
X0119580Y0129564D01*
X0120169Y0128975D02*
X0120455Y0128975D01*
X0125076Y0130742D02*
X0127871Y0130742D01*
X0128351Y0130153D02*
X0125320Y0130153D01*
X0124832Y0131331D02*
X0127391Y0131331D01*
X0127671Y0131920D02*
X0124862Y0131920D01*
X0125475Y0132509D02*
X0127865Y0132509D01*
X0128287Y0129564D02*
X0126689Y0129564D01*
X0127412Y0128975D02*
X0127698Y0128975D01*
D16*
X0209572Y0097105D02*
X0209498Y0096912D01*
X0209436Y0096713D01*
X0209384Y0096511D01*
X0209342Y0096096D01*
X0209354Y0095889D01*
X0209375Y0095681D01*
X0209407Y0095476D01*
X0209531Y0095078D01*
X0209726Y0094709D01*
X0209842Y0094538D01*
X0210113Y0094221D01*
X0210434Y0093955D01*
X0210797Y0093751D01*
X0210987Y0093668D01*
X0211386Y0093547D01*
X0211801Y0093505D01*
X0212009Y0093496D01*
X0212675Y0093496D01*
X0212680Y0093660D01*
X0212680Y0094911D01*
X0212554Y0094793D01*
X0212389Y0094667D01*
X0212201Y0094577D01*
X0211999Y0094529D01*
X0211791Y0094515D01*
X0211584Y0094534D01*
X0211382Y0094581D01*
X0211188Y0094655D01*
X0211007Y0094759D01*
X0210852Y0094898D01*
X0210721Y0095060D01*
X0210615Y0095238D01*
X0210532Y0095429D01*
X0210482Y0095632D01*
X0210453Y0095838D01*
X0210439Y0096045D01*
X0210455Y0096253D01*
X0210488Y0096459D01*
X0210541Y0096660D01*
X0210627Y0096850D01*
X0210740Y0097024D01*
X0210878Y0097179D01*
X0211038Y0097311D01*
X0211221Y0097413D01*
X0211419Y0097476D01*
X0211623Y0097512D01*
X0211831Y0097525D01*
X0212038Y0097502D01*
X0212237Y0097442D01*
X0212422Y0097347D01*
X0212584Y0097215D01*
X0212680Y0097143D01*
X0212680Y0097381D01*
X0212685Y0097494D01*
X0213639Y0097494D01*
X0213637Y0097373D01*
X0213853Y0097386D01*
X0213811Y0097494D01*
X0214785Y0097494D01*
X0214813Y0097399D01*
X0215344Y0095599D01*
X0215403Y0095608D01*
X0215935Y0097490D01*
X0216070Y0097494D01*
X0216696Y0097494D01*
X0216873Y0097495D01*
X0217409Y0095664D01*
X0217448Y0095523D01*
X0217999Y0097343D01*
X0218045Y0097494D01*
X0218880Y0097494D01*
X0219148Y0097486D01*
X0219297Y0097494D01*
X0220062Y0097494D01*
X0220058Y0097447D01*
X0220262Y0097413D01*
X0220260Y0097494D01*
X0221224Y0097494D01*
X0221223Y0097351D01*
X0221797Y0097065D01*
X0221909Y0097172D01*
X0222260Y0097396D01*
X0222460Y0097447D01*
X0222871Y0097519D01*
X0223108Y0097519D01*
X0223106Y0097337D01*
X0223106Y0096711D01*
X0222949Y0096726D01*
X0222745Y0096682D01*
X0222575Y0096564D01*
X0222459Y0096395D01*
X0222396Y0096200D01*
X0222371Y0095994D01*
X0222402Y0095787D01*
X0222478Y0095596D01*
X0222607Y0095438D01*
X0222785Y0095338D01*
X0222990Y0095303D01*
X0223106Y0095285D01*
X0223106Y0094499D01*
X0222969Y0094520D01*
X0222763Y0094543D01*
X0222352Y0094614D01*
X0222166Y0094702D01*
X0221814Y0094925D01*
X0221584Y0095273D01*
X0221493Y0095456D01*
X0221420Y0095867D01*
X0221406Y0096072D01*
X0221478Y0096483D01*
X0221535Y0096680D01*
X0221794Y0097060D01*
X0221220Y0097358D01*
X0221220Y0094551D01*
X0221175Y0094551D01*
X0220341Y0094551D01*
X0220258Y0094557D01*
X0220262Y0097417D01*
X0220058Y0097451D01*
X0220062Y0094554D01*
X0219920Y0094551D01*
X0219295Y0094551D01*
X0219099Y0094564D01*
X0219099Y0097486D01*
X0218984Y0097485D01*
X0218940Y0097356D01*
X0217926Y0094554D01*
X0217779Y0094551D01*
X0217154Y0094551D01*
X0216953Y0094561D01*
X0216399Y0096355D01*
X0216337Y0096183D01*
X0215831Y0094560D01*
X0215661Y0094551D01*
X0215036Y0094551D01*
X0214877Y0094553D01*
X0213847Y0097385D01*
X0213640Y0097374D01*
X0213648Y0093571D01*
X0213652Y0093496D01*
X0222541Y0093497D01*
X0222956Y0093538D01*
X0223159Y0093582D01*
X0223555Y0093712D01*
X0223921Y0093911D01*
X0224248Y0094169D01*
X0224396Y0094314D01*
X0224659Y0094638D01*
X0224858Y0095004D01*
X0224930Y0095199D01*
X0224992Y0095398D01*
X0225040Y0095600D01*
X0222477Y0095600D01*
X0222458Y0095648D02*
X0225045Y0095648D01*
X0225040Y0095600D02*
X0225082Y0096015D01*
X0225047Y0096430D01*
X0225011Y0096635D01*
X0224888Y0097033D01*
X0224691Y0097400D01*
X0224571Y0097571D01*
X0224439Y0097731D01*
X0224299Y0097885D01*
X0223978Y0098151D01*
X0223613Y0098354D01*
X0223422Y0098433D01*
X0223022Y0098552D01*
X0222607Y0098594D01*
X0222533Y0098601D01*
X0211897Y0098601D01*
X0211482Y0098560D01*
X0211278Y0098519D01*
X0210881Y0098392D01*
X0210515Y0098193D01*
X0210348Y0098070D01*
X0210187Y0097937D01*
X0210036Y0097794D01*
X0209771Y0097472D01*
X0209572Y0097105D01*
X0209572Y0097103D02*
X0210810Y0097103D01*
X0210767Y0097055D02*
X0209553Y0097055D01*
X0209534Y0097006D02*
X0210729Y0097006D01*
X0210697Y0096958D02*
X0209515Y0096958D01*
X0209497Y0096909D02*
X0210666Y0096909D01*
X0210634Y0096861D02*
X0209482Y0096861D01*
X0209467Y0096812D02*
X0210610Y0096812D01*
X0210588Y0096764D02*
X0209452Y0096764D01*
X0209437Y0096715D02*
X0210566Y0096715D01*
X0210544Y0096667D02*
X0209424Y0096667D01*
X0209412Y0096618D02*
X0210530Y0096618D01*
X0210517Y0096570D02*
X0209399Y0096570D01*
X0209387Y0096521D02*
X0210504Y0096521D01*
X0210492Y0096473D02*
X0209380Y0096473D01*
X0209375Y0096424D02*
X0210482Y0096424D01*
X0210475Y0096376D02*
X0209370Y0096376D01*
X0209366Y0096327D02*
X0210467Y0096327D01*
X0210459Y0096279D02*
X0209361Y0096279D01*
X0209356Y0096230D02*
X0210453Y0096230D01*
X0210449Y0096182D02*
X0209351Y0096182D01*
X0209346Y0096133D02*
X0210446Y0096133D01*
X0210442Y0096085D02*
X0209343Y0096085D01*
X0209346Y0096036D02*
X0210440Y0096036D01*
X0210443Y0095988D02*
X0209348Y0095988D01*
X0209351Y0095939D02*
X0210446Y0095939D01*
X0210450Y0095891D02*
X0209353Y0095891D01*
X0209358Y0095842D02*
X0210453Y0095842D01*
X0210460Y0095794D02*
X0209363Y0095794D01*
X0209368Y0095745D02*
X0210466Y0095745D01*
X0210473Y0095697D02*
X0209373Y0095697D01*
X0209380Y0095648D02*
X0210480Y0095648D01*
X0210490Y0095600D02*
X0209388Y0095600D01*
X0209395Y0095551D02*
X0210502Y0095551D01*
X0210514Y0095503D02*
X0209403Y0095503D01*
X0209414Y0095454D02*
X0210526Y0095454D01*
X0210542Y0095406D02*
X0209429Y0095406D01*
X0209444Y0095357D02*
X0210564Y0095357D01*
X0210585Y0095309D02*
X0209459Y0095309D01*
X0209474Y0095260D02*
X0210606Y0095260D01*
X0210631Y0095212D02*
X0209489Y0095212D01*
X0209505Y0095163D02*
X0210660Y0095163D01*
X0210689Y0095114D02*
X0209520Y0095114D01*
X0209537Y0095066D02*
X0210718Y0095066D01*
X0210755Y0095017D02*
X0209563Y0095017D01*
X0209589Y0094969D02*
X0210794Y0094969D01*
X0210834Y0094920D02*
X0209614Y0094920D01*
X0209640Y0094872D02*
X0210881Y0094872D01*
X0210935Y0094823D02*
X0209665Y0094823D01*
X0209691Y0094775D02*
X0210989Y0094775D01*
X0211064Y0094726D02*
X0209717Y0094726D01*
X0209747Y0094678D02*
X0211148Y0094678D01*
X0211256Y0094629D02*
X0209780Y0094629D01*
X0209813Y0094581D02*
X0211383Y0094581D01*
X0211605Y0094532D02*
X0209847Y0094532D01*
X0209888Y0094484D02*
X0212680Y0094484D01*
X0212680Y0094532D02*
X0212015Y0094532D01*
X0212210Y0094581D02*
X0212680Y0094581D01*
X0212680Y0094629D02*
X0212311Y0094629D01*
X0212404Y0094678D02*
X0212680Y0094678D01*
X0212680Y0094726D02*
X0212467Y0094726D01*
X0212531Y0094775D02*
X0212680Y0094775D01*
X0212680Y0094823D02*
X0212587Y0094823D01*
X0212638Y0094872D02*
X0212680Y0094872D01*
X0212680Y0094435D02*
X0209930Y0094435D01*
X0209971Y0094387D02*
X0212680Y0094387D01*
X0212680Y0094338D02*
X0210012Y0094338D01*
X0210054Y0094290D02*
X0212680Y0094290D01*
X0212680Y0094241D02*
X0210095Y0094241D01*
X0210147Y0094193D02*
X0212680Y0094193D01*
X0212680Y0094144D02*
X0210205Y0094144D01*
X0210264Y0094096D02*
X0212680Y0094096D01*
X0212680Y0094047D02*
X0210323Y0094047D01*
X0210382Y0093999D02*
X0212680Y0093999D01*
X0212680Y0093950D02*
X0210444Y0093950D01*
X0210529Y0093902D02*
X0212680Y0093902D01*
X0212680Y0093853D02*
X0210615Y0093853D01*
X0210701Y0093805D02*
X0212680Y0093805D01*
X0212680Y0093756D02*
X0210787Y0093756D01*
X0210896Y0093708D02*
X0212680Y0093708D01*
X0212680Y0093659D02*
X0211017Y0093659D01*
X0211176Y0093611D02*
X0212678Y0093611D01*
X0212677Y0093562D02*
X0211335Y0093562D01*
X0211714Y0093514D02*
X0212675Y0093514D01*
X0213648Y0093562D02*
X0223065Y0093562D01*
X0223245Y0093611D02*
X0213648Y0093611D01*
X0213648Y0093659D02*
X0223394Y0093659D01*
X0223542Y0093708D02*
X0213648Y0093708D01*
X0213648Y0093756D02*
X0223636Y0093756D01*
X0223726Y0093805D02*
X0213648Y0093805D01*
X0213647Y0093853D02*
X0223815Y0093853D01*
X0223905Y0093902D02*
X0213647Y0093902D01*
X0213647Y0093950D02*
X0223971Y0093950D01*
X0224032Y0093999D02*
X0213647Y0093999D01*
X0213647Y0094047D02*
X0224094Y0094047D01*
X0224155Y0094096D02*
X0213647Y0094096D01*
X0213647Y0094144D02*
X0224216Y0094144D01*
X0224272Y0094193D02*
X0213647Y0094193D01*
X0213647Y0094241D02*
X0224322Y0094241D01*
X0224371Y0094290D02*
X0213646Y0094290D01*
X0213646Y0094338D02*
X0224416Y0094338D01*
X0224455Y0094387D02*
X0213646Y0094387D01*
X0213646Y0094435D02*
X0224494Y0094435D01*
X0224534Y0094484D02*
X0213646Y0094484D01*
X0213646Y0094532D02*
X0222860Y0094532D01*
X0223106Y0094532D02*
X0224573Y0094532D01*
X0224612Y0094581D02*
X0223106Y0094581D01*
X0223106Y0094629D02*
X0224652Y0094629D01*
X0224680Y0094678D02*
X0223106Y0094678D01*
X0223106Y0094726D02*
X0224707Y0094726D01*
X0224733Y0094775D02*
X0223106Y0094775D01*
X0223106Y0094823D02*
X0224759Y0094823D01*
X0224786Y0094872D02*
X0223106Y0094872D01*
X0223106Y0094920D02*
X0224812Y0094920D01*
X0224838Y0094969D02*
X0223106Y0094969D01*
X0223106Y0095017D02*
X0224862Y0095017D01*
X0224880Y0095066D02*
X0223106Y0095066D01*
X0223106Y0095114D02*
X0224898Y0095114D01*
X0224916Y0095163D02*
X0223106Y0095163D01*
X0223106Y0095212D02*
X0224934Y0095212D01*
X0224949Y0095260D02*
X0223106Y0095260D01*
X0222957Y0095309D02*
X0224964Y0095309D01*
X0224979Y0095357D02*
X0222752Y0095357D01*
X0222665Y0095406D02*
X0224993Y0095406D01*
X0225005Y0095454D02*
X0222594Y0095454D01*
X0222555Y0095503D02*
X0225017Y0095503D01*
X0225028Y0095551D02*
X0222515Y0095551D01*
X0222438Y0095697D02*
X0225050Y0095697D01*
X0225055Y0095745D02*
X0222419Y0095745D01*
X0222401Y0095794D02*
X0225060Y0095794D01*
X0225065Y0095842D02*
X0222394Y0095842D01*
X0222386Y0095891D02*
X0225070Y0095891D01*
X0225074Y0095939D02*
X0222379Y0095939D01*
X0222372Y0095988D02*
X0225079Y0095988D01*
X0225080Y0096036D02*
X0222376Y0096036D01*
X0222382Y0096085D02*
X0225076Y0096085D01*
X0225072Y0096133D02*
X0222388Y0096133D01*
X0222394Y0096182D02*
X0225068Y0096182D01*
X0225064Y0096230D02*
X0222406Y0096230D01*
X0222421Y0096279D02*
X0225060Y0096279D01*
X0225056Y0096327D02*
X0222437Y0096327D01*
X0222453Y0096376D02*
X0225052Y0096376D01*
X0225048Y0096424D02*
X0222479Y0096424D01*
X0222513Y0096473D02*
X0225040Y0096473D01*
X0225031Y0096521D02*
X0222546Y0096521D01*
X0222583Y0096570D02*
X0225023Y0096570D01*
X0225014Y0096618D02*
X0222653Y0096618D01*
X0222724Y0096667D02*
X0225001Y0096667D01*
X0224986Y0096715D02*
X0223106Y0096715D01*
X0223062Y0096715D02*
X0222901Y0096715D01*
X0223106Y0096764D02*
X0224971Y0096764D01*
X0224956Y0096812D02*
X0223106Y0096812D01*
X0223106Y0096861D02*
X0224941Y0096861D01*
X0224926Y0096909D02*
X0223106Y0096909D01*
X0223106Y0096958D02*
X0224911Y0096958D01*
X0224896Y0097006D02*
X0223106Y0097006D01*
X0223106Y0097055D02*
X0224876Y0097055D01*
X0224850Y0097103D02*
X0223106Y0097103D01*
X0223106Y0097152D02*
X0224824Y0097152D01*
X0224798Y0097200D02*
X0223106Y0097200D01*
X0223106Y0097249D02*
X0224772Y0097249D01*
X0224746Y0097298D02*
X0223106Y0097298D01*
X0223106Y0097346D02*
X0224720Y0097346D01*
X0224694Y0097395D02*
X0223107Y0097395D01*
X0223107Y0097443D02*
X0224661Y0097443D01*
X0224627Y0097492D02*
X0223108Y0097492D01*
X0222715Y0097492D02*
X0221224Y0097492D01*
X0221224Y0097443D02*
X0222443Y0097443D01*
X0222257Y0097395D02*
X0221224Y0097395D01*
X0221220Y0097346D02*
X0221234Y0097346D01*
X0221243Y0097346D02*
X0222181Y0097346D01*
X0222105Y0097298D02*
X0221336Y0097298D01*
X0221331Y0097298D02*
X0221220Y0097298D01*
X0221220Y0097249D02*
X0221428Y0097249D01*
X0221430Y0097249D02*
X0222029Y0097249D01*
X0221954Y0097200D02*
X0221525Y0097200D01*
X0221523Y0097200D02*
X0221220Y0097200D01*
X0221220Y0097152D02*
X0221617Y0097152D01*
X0221622Y0097152D02*
X0221888Y0097152D01*
X0221838Y0097103D02*
X0221719Y0097103D01*
X0221710Y0097103D02*
X0221220Y0097103D01*
X0221220Y0097055D02*
X0221790Y0097055D01*
X0221757Y0097006D02*
X0221220Y0097006D01*
X0221220Y0096958D02*
X0221724Y0096958D01*
X0221691Y0096909D02*
X0221220Y0096909D01*
X0221220Y0096861D02*
X0221658Y0096861D01*
X0221625Y0096812D02*
X0221220Y0096812D01*
X0221220Y0096764D02*
X0221592Y0096764D01*
X0221559Y0096715D02*
X0221220Y0096715D01*
X0221220Y0096667D02*
X0221531Y0096667D01*
X0221517Y0096618D02*
X0221220Y0096618D01*
X0221220Y0096570D02*
X0221503Y0096570D01*
X0221489Y0096521D02*
X0221220Y0096521D01*
X0221220Y0096473D02*
X0221476Y0096473D01*
X0221467Y0096424D02*
X0221220Y0096424D01*
X0221220Y0096376D02*
X0221459Y0096376D01*
X0221450Y0096327D02*
X0221220Y0096327D01*
X0221220Y0096279D02*
X0221442Y0096279D01*
X0221433Y0096230D02*
X0221220Y0096230D01*
X0221220Y0096182D02*
X0221425Y0096182D01*
X0221416Y0096133D02*
X0221220Y0096133D01*
X0221220Y0096085D02*
X0221408Y0096085D01*
X0221408Y0096036D02*
X0221220Y0096036D01*
X0221220Y0095988D02*
X0221411Y0095988D01*
X0221415Y0095939D02*
X0221220Y0095939D01*
X0221220Y0095891D02*
X0221418Y0095891D01*
X0221424Y0095842D02*
X0221220Y0095842D01*
X0221220Y0095794D02*
X0221433Y0095794D01*
X0221441Y0095745D02*
X0221220Y0095745D01*
X0221220Y0095697D02*
X0221450Y0095697D01*
X0221459Y0095648D02*
X0221220Y0095648D01*
X0221220Y0095600D02*
X0221467Y0095600D01*
X0221476Y0095551D02*
X0221220Y0095551D01*
X0221220Y0095503D02*
X0221484Y0095503D01*
X0221494Y0095454D02*
X0221220Y0095454D01*
X0221220Y0095406D02*
X0221518Y0095406D01*
X0221542Y0095357D02*
X0221220Y0095357D01*
X0221220Y0095309D02*
X0221567Y0095309D01*
X0221593Y0095260D02*
X0221220Y0095260D01*
X0221220Y0095212D02*
X0221625Y0095212D01*
X0221657Y0095163D02*
X0221220Y0095163D01*
X0221220Y0095114D02*
X0221689Y0095114D01*
X0221721Y0095066D02*
X0221220Y0095066D01*
X0221220Y0095017D02*
X0221753Y0095017D01*
X0221785Y0094969D02*
X0221220Y0094969D01*
X0221220Y0094920D02*
X0221821Y0094920D01*
X0221897Y0094872D02*
X0221220Y0094872D01*
X0221220Y0094823D02*
X0221974Y0094823D01*
X0222051Y0094775D02*
X0221220Y0094775D01*
X0221220Y0094726D02*
X0222127Y0094726D01*
X0222217Y0094678D02*
X0221220Y0094678D01*
X0221220Y0094629D02*
X0222319Y0094629D01*
X0222545Y0094581D02*
X0221220Y0094581D01*
X0220258Y0094581D02*
X0220062Y0094581D01*
X0220062Y0094629D02*
X0220258Y0094629D01*
X0220258Y0094678D02*
X0220062Y0094678D01*
X0220062Y0094726D02*
X0220258Y0094726D01*
X0220258Y0094775D02*
X0220062Y0094775D01*
X0220061Y0094823D02*
X0220258Y0094823D01*
X0220258Y0094872D02*
X0220061Y0094872D01*
X0220061Y0094920D02*
X0220258Y0094920D01*
X0220258Y0094969D02*
X0220061Y0094969D01*
X0220061Y0095017D02*
X0220258Y0095017D01*
X0220258Y0095066D02*
X0220061Y0095066D01*
X0220061Y0095114D02*
X0220258Y0095114D01*
X0220258Y0095163D02*
X0220061Y0095163D01*
X0220061Y0095212D02*
X0220258Y0095212D01*
X0220259Y0095260D02*
X0220061Y0095260D01*
X0220061Y0095309D02*
X0220259Y0095309D01*
X0220259Y0095357D02*
X0220061Y0095357D01*
X0220061Y0095406D02*
X0220259Y0095406D01*
X0220259Y0095454D02*
X0220061Y0095454D01*
X0220061Y0095503D02*
X0220259Y0095503D01*
X0220259Y0095551D02*
X0220060Y0095551D01*
X0220060Y0095600D02*
X0220259Y0095600D01*
X0220259Y0095648D02*
X0220060Y0095648D01*
X0220060Y0095697D02*
X0220259Y0095697D01*
X0220259Y0095745D02*
X0220060Y0095745D01*
X0220060Y0095794D02*
X0220259Y0095794D01*
X0220259Y0095842D02*
X0220060Y0095842D01*
X0220060Y0095891D02*
X0220259Y0095891D01*
X0220259Y0095939D02*
X0220060Y0095939D01*
X0220060Y0095988D02*
X0220260Y0095988D01*
X0220260Y0096036D02*
X0220060Y0096036D01*
X0220060Y0096085D02*
X0220260Y0096085D01*
X0220260Y0096133D02*
X0220060Y0096133D01*
X0220060Y0096182D02*
X0220260Y0096182D01*
X0220260Y0096230D02*
X0220060Y0096230D01*
X0220059Y0096279D02*
X0220260Y0096279D01*
X0220260Y0096327D02*
X0220059Y0096327D01*
X0220059Y0096376D02*
X0220260Y0096376D01*
X0220260Y0096424D02*
X0220059Y0096424D01*
X0220059Y0096473D02*
X0220260Y0096473D01*
X0220260Y0096521D02*
X0220059Y0096521D01*
X0220059Y0096570D02*
X0220260Y0096570D01*
X0220260Y0096618D02*
X0220059Y0096618D01*
X0220059Y0096667D02*
X0220260Y0096667D01*
X0220261Y0096715D02*
X0220059Y0096715D01*
X0220059Y0096764D02*
X0220261Y0096764D01*
X0220261Y0096812D02*
X0220059Y0096812D01*
X0220059Y0096861D02*
X0220261Y0096861D01*
X0220261Y0096909D02*
X0220059Y0096909D01*
X0220059Y0096958D02*
X0220261Y0096958D01*
X0220261Y0097006D02*
X0220058Y0097006D01*
X0220058Y0097055D02*
X0220261Y0097055D01*
X0220261Y0097103D02*
X0220058Y0097103D01*
X0220058Y0097152D02*
X0220261Y0097152D01*
X0220261Y0097200D02*
X0220058Y0097200D01*
X0220058Y0097249D02*
X0220261Y0097249D01*
X0220261Y0097298D02*
X0220058Y0097298D01*
X0220058Y0097346D02*
X0220261Y0097346D01*
X0220261Y0097395D02*
X0220058Y0097395D01*
X0220058Y0097443D02*
X0220082Y0097443D01*
X0220105Y0097443D02*
X0220261Y0097443D01*
X0220260Y0097492D02*
X0220062Y0097492D01*
X0219244Y0097492D02*
X0218974Y0097492D01*
X0218970Y0097443D02*
X0219099Y0097443D01*
X0219099Y0097395D02*
X0218953Y0097395D01*
X0218936Y0097346D02*
X0219099Y0097346D01*
X0219099Y0097298D02*
X0218918Y0097298D01*
X0218901Y0097249D02*
X0219099Y0097249D01*
X0219099Y0097200D02*
X0218883Y0097200D01*
X0218866Y0097152D02*
X0219099Y0097152D01*
X0219099Y0097103D02*
X0218848Y0097103D01*
X0218831Y0097055D02*
X0219099Y0097055D01*
X0219099Y0097006D02*
X0218813Y0097006D01*
X0218796Y0096958D02*
X0219099Y0096958D01*
X0219099Y0096909D02*
X0218778Y0096909D01*
X0218760Y0096861D02*
X0219099Y0096861D01*
X0219099Y0096812D02*
X0218743Y0096812D01*
X0218725Y0096764D02*
X0219099Y0096764D01*
X0219099Y0096715D02*
X0218708Y0096715D01*
X0218690Y0096667D02*
X0219099Y0096667D01*
X0219099Y0096618D02*
X0218673Y0096618D01*
X0218655Y0096570D02*
X0219099Y0096570D01*
X0219099Y0096521D02*
X0218638Y0096521D01*
X0218620Y0096473D02*
X0219099Y0096473D01*
X0219099Y0096424D02*
X0218603Y0096424D01*
X0218585Y0096376D02*
X0219099Y0096376D01*
X0219099Y0096327D02*
X0218567Y0096327D01*
X0218550Y0096279D02*
X0219099Y0096279D01*
X0219099Y0096230D02*
X0218532Y0096230D01*
X0218515Y0096182D02*
X0219099Y0096182D01*
X0219099Y0096133D02*
X0218497Y0096133D01*
X0218480Y0096085D02*
X0219099Y0096085D01*
X0219099Y0096036D02*
X0218462Y0096036D01*
X0218445Y0095988D02*
X0219099Y0095988D01*
X0219099Y0095939D02*
X0218427Y0095939D01*
X0218410Y0095891D02*
X0219099Y0095891D01*
X0219099Y0095842D02*
X0218392Y0095842D01*
X0218374Y0095794D02*
X0219099Y0095794D01*
X0219099Y0095745D02*
X0218357Y0095745D01*
X0218339Y0095697D02*
X0219099Y0095697D01*
X0219099Y0095648D02*
X0218322Y0095648D01*
X0218304Y0095600D02*
X0219099Y0095600D01*
X0219099Y0095551D02*
X0218287Y0095551D01*
X0218269Y0095503D02*
X0219099Y0095503D01*
X0219099Y0095454D02*
X0218252Y0095454D01*
X0218234Y0095406D02*
X0219099Y0095406D01*
X0219099Y0095357D02*
X0218217Y0095357D01*
X0218199Y0095309D02*
X0219099Y0095309D01*
X0219099Y0095260D02*
X0218181Y0095260D01*
X0218164Y0095212D02*
X0219099Y0095212D01*
X0219099Y0095163D02*
X0218146Y0095163D01*
X0218129Y0095114D02*
X0219099Y0095114D01*
X0219099Y0095066D02*
X0218111Y0095066D01*
X0218094Y0095017D02*
X0219099Y0095017D01*
X0219099Y0094969D02*
X0218076Y0094969D01*
X0218059Y0094920D02*
X0219099Y0094920D01*
X0219099Y0094872D02*
X0218041Y0094872D01*
X0218023Y0094823D02*
X0219099Y0094823D01*
X0219099Y0094775D02*
X0218006Y0094775D01*
X0217988Y0094726D02*
X0219099Y0094726D01*
X0219099Y0094678D02*
X0217971Y0094678D01*
X0217953Y0094629D02*
X0219099Y0094629D01*
X0219099Y0094581D02*
X0217936Y0094581D01*
X0216946Y0094581D02*
X0215838Y0094581D01*
X0215853Y0094629D02*
X0216931Y0094629D01*
X0216917Y0094678D02*
X0215868Y0094678D01*
X0215883Y0094726D02*
X0216902Y0094726D01*
X0216887Y0094775D02*
X0215899Y0094775D01*
X0215914Y0094823D02*
X0216872Y0094823D01*
X0216857Y0094872D02*
X0215929Y0094872D01*
X0215944Y0094920D02*
X0216842Y0094920D01*
X0216827Y0094969D02*
X0215959Y0094969D01*
X0215974Y0095017D02*
X0216812Y0095017D01*
X0216797Y0095066D02*
X0215989Y0095066D01*
X0216004Y0095114D02*
X0216782Y0095114D01*
X0216767Y0095163D02*
X0216020Y0095163D01*
X0216035Y0095212D02*
X0216752Y0095212D01*
X0216737Y0095260D02*
X0216050Y0095260D01*
X0216065Y0095309D02*
X0216722Y0095309D01*
X0216707Y0095357D02*
X0216080Y0095357D01*
X0216095Y0095406D02*
X0216692Y0095406D01*
X0216677Y0095454D02*
X0216110Y0095454D01*
X0216125Y0095503D02*
X0216662Y0095503D01*
X0216647Y0095551D02*
X0216141Y0095551D01*
X0216156Y0095600D02*
X0216632Y0095600D01*
X0216617Y0095648D02*
X0216171Y0095648D01*
X0216186Y0095697D02*
X0216602Y0095697D01*
X0216587Y0095745D02*
X0216201Y0095745D01*
X0216216Y0095794D02*
X0216572Y0095794D01*
X0216557Y0095842D02*
X0216231Y0095842D01*
X0216246Y0095891D02*
X0216543Y0095891D01*
X0216528Y0095939D02*
X0216262Y0095939D01*
X0216277Y0095988D02*
X0216513Y0095988D01*
X0216498Y0096036D02*
X0216292Y0096036D01*
X0216307Y0096085D02*
X0216483Y0096085D01*
X0216468Y0096133D02*
X0216322Y0096133D01*
X0216337Y0096182D02*
X0216453Y0096182D01*
X0216438Y0096230D02*
X0216355Y0096230D01*
X0216372Y0096279D02*
X0216423Y0096279D01*
X0216408Y0096327D02*
X0216390Y0096327D01*
X0215661Y0096521D02*
X0215072Y0096521D01*
X0215086Y0096473D02*
X0215647Y0096473D01*
X0215633Y0096424D02*
X0215101Y0096424D01*
X0215115Y0096376D02*
X0215620Y0096376D01*
X0215606Y0096327D02*
X0215129Y0096327D01*
X0215144Y0096279D02*
X0215592Y0096279D01*
X0215579Y0096230D02*
X0215158Y0096230D01*
X0215172Y0096182D02*
X0215565Y0096182D01*
X0215551Y0096133D02*
X0215187Y0096133D01*
X0215201Y0096085D02*
X0215538Y0096085D01*
X0215524Y0096036D02*
X0215215Y0096036D01*
X0215229Y0095988D02*
X0215510Y0095988D01*
X0215496Y0095939D02*
X0215244Y0095939D01*
X0215258Y0095891D02*
X0215483Y0095891D01*
X0215469Y0095842D02*
X0215272Y0095842D01*
X0215287Y0095794D02*
X0215455Y0095794D01*
X0215442Y0095745D02*
X0215301Y0095745D01*
X0215315Y0095697D02*
X0215428Y0095697D01*
X0215414Y0095648D02*
X0215330Y0095648D01*
X0215344Y0095600D02*
X0215347Y0095600D01*
X0214602Y0095309D02*
X0213644Y0095309D01*
X0213644Y0095357D02*
X0214584Y0095357D01*
X0214567Y0095406D02*
X0213644Y0095406D01*
X0213644Y0095454D02*
X0214549Y0095454D01*
X0214531Y0095503D02*
X0213644Y0095503D01*
X0213644Y0095551D02*
X0214514Y0095551D01*
X0214496Y0095600D02*
X0213644Y0095600D01*
X0213644Y0095648D02*
X0214479Y0095648D01*
X0214461Y0095697D02*
X0213644Y0095697D01*
X0213643Y0095745D02*
X0214443Y0095745D01*
X0214426Y0095794D02*
X0213643Y0095794D01*
X0213643Y0095842D02*
X0214408Y0095842D01*
X0214390Y0095891D02*
X0213643Y0095891D01*
X0213643Y0095939D02*
X0214373Y0095939D01*
X0214355Y0095988D02*
X0213643Y0095988D01*
X0213643Y0096036D02*
X0214337Y0096036D01*
X0214320Y0096085D02*
X0213643Y0096085D01*
X0213643Y0096133D02*
X0214302Y0096133D01*
X0214284Y0096182D02*
X0213643Y0096182D01*
X0213642Y0096230D02*
X0214267Y0096230D01*
X0214249Y0096279D02*
X0213642Y0096279D01*
X0213642Y0096327D02*
X0214232Y0096327D01*
X0214214Y0096376D02*
X0213642Y0096376D01*
X0213642Y0096424D02*
X0214196Y0096424D01*
X0214179Y0096473D02*
X0213642Y0096473D01*
X0213642Y0096521D02*
X0214161Y0096521D01*
X0214143Y0096570D02*
X0213642Y0096570D01*
X0213642Y0096618D02*
X0214126Y0096618D01*
X0214108Y0096667D02*
X0213642Y0096667D01*
X0213641Y0096715D02*
X0214090Y0096715D01*
X0214073Y0096764D02*
X0213641Y0096764D01*
X0213641Y0096812D02*
X0214055Y0096812D01*
X0214038Y0096861D02*
X0213641Y0096861D01*
X0213641Y0096909D02*
X0214020Y0096909D01*
X0214002Y0096958D02*
X0213641Y0096958D01*
X0213641Y0097006D02*
X0213985Y0097006D01*
X0213967Y0097055D02*
X0213641Y0097055D01*
X0213641Y0097103D02*
X0213949Y0097103D01*
X0213932Y0097152D02*
X0213641Y0097152D01*
X0213640Y0097200D02*
X0213914Y0097200D01*
X0213896Y0097249D02*
X0213640Y0097249D01*
X0213640Y0097298D02*
X0213879Y0097298D01*
X0213861Y0097346D02*
X0213640Y0097346D01*
X0213637Y0097395D02*
X0213849Y0097395D01*
X0213831Y0097443D02*
X0213638Y0097443D01*
X0213639Y0097492D02*
X0213812Y0097492D01*
X0214786Y0097492D02*
X0215974Y0097492D01*
X0215921Y0097443D02*
X0214800Y0097443D01*
X0214814Y0097395D02*
X0215908Y0097395D01*
X0215894Y0097346D02*
X0214829Y0097346D01*
X0214843Y0097298D02*
X0215880Y0097298D01*
X0215867Y0097249D02*
X0214857Y0097249D01*
X0214872Y0097200D02*
X0215853Y0097200D01*
X0215839Y0097152D02*
X0214886Y0097152D01*
X0214900Y0097103D02*
X0215825Y0097103D01*
X0215812Y0097055D02*
X0214915Y0097055D01*
X0214929Y0097006D02*
X0215798Y0097006D01*
X0215784Y0096958D02*
X0214943Y0096958D01*
X0214958Y0096909D02*
X0215771Y0096909D01*
X0215757Y0096861D02*
X0214972Y0096861D01*
X0214986Y0096812D02*
X0215743Y0096812D01*
X0215729Y0096764D02*
X0215000Y0096764D01*
X0215015Y0096715D02*
X0215716Y0096715D01*
X0215702Y0096667D02*
X0215029Y0096667D01*
X0215043Y0096618D02*
X0215688Y0096618D01*
X0215675Y0096570D02*
X0215058Y0096570D01*
X0214620Y0095260D02*
X0213644Y0095260D01*
X0213645Y0095212D02*
X0214637Y0095212D01*
X0214655Y0095163D02*
X0213645Y0095163D01*
X0213645Y0095114D02*
X0214673Y0095114D01*
X0214690Y0095066D02*
X0213645Y0095066D01*
X0213645Y0095017D02*
X0214708Y0095017D01*
X0214726Y0094969D02*
X0213645Y0094969D01*
X0213645Y0094920D02*
X0214743Y0094920D01*
X0214761Y0094872D02*
X0213645Y0094872D01*
X0213645Y0094823D02*
X0214778Y0094823D01*
X0214796Y0094775D02*
X0213645Y0094775D01*
X0213646Y0094726D02*
X0214814Y0094726D01*
X0214831Y0094678D02*
X0213646Y0094678D01*
X0213646Y0094629D02*
X0214849Y0094629D01*
X0214867Y0094581D02*
X0213646Y0094581D01*
X0213651Y0093514D02*
X0222709Y0093514D01*
X0224593Y0097540D02*
X0209827Y0097540D01*
X0209787Y0097492D02*
X0211507Y0097492D01*
X0211316Y0097443D02*
X0209756Y0097443D01*
X0209729Y0097395D02*
X0211188Y0097395D01*
X0211101Y0097346D02*
X0209703Y0097346D01*
X0209677Y0097298D02*
X0211022Y0097298D01*
X0210963Y0097249D02*
X0209650Y0097249D01*
X0209624Y0097200D02*
X0210903Y0097200D01*
X0210853Y0097152D02*
X0209598Y0097152D01*
X0209867Y0097589D02*
X0224557Y0097589D01*
X0224517Y0097637D02*
X0209907Y0097637D01*
X0209947Y0097686D02*
X0224477Y0097686D01*
X0224436Y0097734D02*
X0209987Y0097734D01*
X0210027Y0097783D02*
X0224392Y0097783D01*
X0224348Y0097831D02*
X0210075Y0097831D01*
X0210126Y0097880D02*
X0224305Y0097880D01*
X0224248Y0097928D02*
X0210177Y0097928D01*
X0210234Y0097977D02*
X0224189Y0097977D01*
X0224130Y0098025D02*
X0210293Y0098025D01*
X0210352Y0098074D02*
X0224071Y0098074D01*
X0224012Y0098122D02*
X0210418Y0098122D01*
X0210484Y0098171D02*
X0223942Y0098171D01*
X0223855Y0098219D02*
X0210562Y0098219D01*
X0210652Y0098268D02*
X0223768Y0098268D01*
X0223680Y0098316D02*
X0210741Y0098316D01*
X0210830Y0098365D02*
X0223586Y0098365D01*
X0223470Y0098413D02*
X0210947Y0098413D01*
X0211099Y0098462D02*
X0223326Y0098462D01*
X0223163Y0098510D02*
X0211250Y0098510D01*
X0211475Y0098559D02*
X0222955Y0098559D01*
X0218044Y0097492D02*
X0216874Y0097492D01*
X0216888Y0097443D02*
X0218029Y0097443D01*
X0218015Y0097395D02*
X0216902Y0097395D01*
X0216916Y0097346D02*
X0218000Y0097346D01*
X0217985Y0097298D02*
X0216930Y0097298D01*
X0216945Y0097249D02*
X0217970Y0097249D01*
X0217956Y0097200D02*
X0216959Y0097200D01*
X0216973Y0097152D02*
X0217941Y0097152D01*
X0217926Y0097103D02*
X0216987Y0097103D01*
X0217001Y0097055D02*
X0217912Y0097055D01*
X0217897Y0097006D02*
X0217016Y0097006D01*
X0217030Y0096958D02*
X0217882Y0096958D01*
X0217868Y0096909D02*
X0217044Y0096909D01*
X0217058Y0096861D02*
X0217853Y0096861D01*
X0217838Y0096812D02*
X0217073Y0096812D01*
X0217087Y0096764D02*
X0217824Y0096764D01*
X0217809Y0096715D02*
X0217101Y0096715D01*
X0217115Y0096667D02*
X0217794Y0096667D01*
X0217779Y0096618D02*
X0217129Y0096618D01*
X0217144Y0096570D02*
X0217765Y0096570D01*
X0217750Y0096521D02*
X0217158Y0096521D01*
X0217172Y0096473D02*
X0217735Y0096473D01*
X0217721Y0096424D02*
X0217186Y0096424D01*
X0217200Y0096376D02*
X0217706Y0096376D01*
X0217691Y0096327D02*
X0217215Y0096327D01*
X0217229Y0096279D02*
X0217677Y0096279D01*
X0217662Y0096230D02*
X0217243Y0096230D01*
X0217257Y0096182D02*
X0217647Y0096182D01*
X0217633Y0096133D02*
X0217272Y0096133D01*
X0217286Y0096085D02*
X0217618Y0096085D01*
X0217603Y0096036D02*
X0217300Y0096036D01*
X0217314Y0095988D02*
X0217589Y0095988D01*
X0217574Y0095939D02*
X0217328Y0095939D01*
X0217343Y0095891D02*
X0217559Y0095891D01*
X0217544Y0095842D02*
X0217357Y0095842D01*
X0217371Y0095794D02*
X0217530Y0095794D01*
X0217515Y0095745D02*
X0217385Y0095745D01*
X0217399Y0095697D02*
X0217500Y0095697D01*
X0217486Y0095648D02*
X0217413Y0095648D01*
X0217427Y0095600D02*
X0217471Y0095600D01*
X0217456Y0095551D02*
X0217440Y0095551D01*
X0212678Y0096017D02*
X0212647Y0096221D01*
X0212577Y0096411D01*
X0212459Y0096576D01*
X0212292Y0096694D01*
X0212090Y0096735D01*
X0211888Y0096711D01*
X0211705Y0096627D01*
X0211558Y0096488D01*
X0211458Y0096308D01*
X0211427Y0096104D01*
X0211429Y0095900D01*
X0211465Y0095698D01*
X0211566Y0095518D01*
X0211717Y0095382D01*
X0211902Y0095305D01*
X0212104Y0095286D01*
X0212306Y0095329D01*
X0212470Y0095453D01*
X0212584Y0095621D01*
X0212650Y0095813D01*
X0212678Y0096017D01*
X0212676Y0096036D02*
X0211427Y0096036D01*
X0211428Y0095988D02*
X0212674Y0095988D01*
X0212667Y0095939D02*
X0211428Y0095939D01*
X0211431Y0095891D02*
X0212661Y0095891D01*
X0212654Y0095842D02*
X0211439Y0095842D01*
X0211448Y0095794D02*
X0212643Y0095794D01*
X0212626Y0095745D02*
X0211457Y0095745D01*
X0211466Y0095697D02*
X0212610Y0095697D01*
X0212593Y0095648D02*
X0211493Y0095648D01*
X0211520Y0095600D02*
X0212569Y0095600D01*
X0212537Y0095551D02*
X0211547Y0095551D01*
X0211583Y0095503D02*
X0212504Y0095503D01*
X0212471Y0095454D02*
X0211637Y0095454D01*
X0211691Y0095406D02*
X0212408Y0095406D01*
X0212344Y0095357D02*
X0211777Y0095357D01*
X0211894Y0095309D02*
X0212210Y0095309D01*
X0212668Y0096085D02*
X0211427Y0096085D01*
X0211431Y0096133D02*
X0212661Y0096133D01*
X0212653Y0096182D02*
X0211439Y0096182D01*
X0211446Y0096230D02*
X0212644Y0096230D01*
X0212626Y0096279D02*
X0211454Y0096279D01*
X0211469Y0096327D02*
X0212608Y0096327D01*
X0212590Y0096376D02*
X0211496Y0096376D01*
X0211523Y0096424D02*
X0212568Y0096424D01*
X0212533Y0096473D02*
X0211550Y0096473D01*
X0211594Y0096521D02*
X0212498Y0096521D01*
X0212464Y0096570D02*
X0211645Y0096570D01*
X0211695Y0096618D02*
X0212399Y0096618D01*
X0212330Y0096667D02*
X0211792Y0096667D01*
X0211927Y0096715D02*
X0212186Y0096715D01*
X0212603Y0097200D02*
X0212680Y0097200D01*
X0212680Y0097152D02*
X0212667Y0097152D01*
X0212680Y0097249D02*
X0212542Y0097249D01*
X0212483Y0097298D02*
X0212680Y0097298D01*
X0212680Y0097346D02*
X0212423Y0097346D01*
X0212330Y0097395D02*
X0212680Y0097395D01*
X0212683Y0097443D02*
X0212236Y0097443D01*
X0212074Y0097492D02*
X0212685Y0097492D01*
D17*
X0159089Y0148671D03*
X0158814Y0148671D03*
X0158538Y0148671D03*
X0158262Y0148671D03*
X0154404Y0148671D03*
X0154129Y0148671D03*
X0153853Y0148671D03*
X0153577Y0148671D03*
D18*
X0153715Y0148671D03*
X0153991Y0148671D03*
X0154266Y0148671D03*
X0158400Y0148671D03*
X0158676Y0148671D03*
X0158951Y0148671D03*
D19*
X0156471Y0143651D03*
X0156196Y0143651D03*
X0155920Y0143651D03*
X0154542Y0143651D03*
X0145644Y0145131D03*
X0154542Y0153691D03*
X0165526Y0149155D03*
X0167140Y0149155D03*
X0175526Y0150073D03*
X0185054Y0152459D03*
X0185133Y0152459D03*
X0185251Y0152459D03*
X0187416Y0152459D03*
X0187495Y0152459D03*
X0187613Y0152459D03*
X0187416Y0149388D03*
X0187140Y0143955D03*
X0185526Y0143955D03*
X0199026Y0139493D03*
X0200640Y0147524D03*
X0198926Y0130193D03*
D20*
X0154542Y0148671D03*
D21*
X0154680Y0148671D03*
X0154680Y0143435D03*
X0154680Y0153907D03*
X0154759Y0090360D03*
X0164759Y0086580D03*
X0164759Y0082171D03*
X0168066Y0082171D03*
X0174759Y0082171D03*
X0174916Y0082171D03*
X0177278Y0082171D03*
X0184759Y0082171D03*
X0187278Y0082171D03*
X0195073Y0082171D03*
X0204601Y0085835D03*
X0208066Y0085835D03*
X0205231Y0082213D03*
X0194759Y0089100D03*
X0174759Y0090360D03*
X0158066Y0082171D03*
X0157908Y0082171D03*
X0155546Y0082171D03*
X0154916Y0082171D03*
X0154759Y0082171D03*
X0145131Y0082171D03*
X0144973Y0082171D03*
X0144816Y0082171D03*
X0144659Y0082171D03*
X0135546Y0082013D03*
X0135388Y0082013D03*
X0135231Y0082013D03*
X0135073Y0082013D03*
X0137908Y0090202D03*
D22*
X0137121Y0089966D03*
X0136333Y0089651D03*
X0136176Y0089651D03*
X0136018Y0089651D03*
X0135703Y0089809D03*
X0137436Y0087761D03*
X0136176Y0084297D03*
X0136018Y0084297D03*
X0145446Y0086344D03*
X0147021Y0086344D03*
X0155388Y0084454D03*
X0155546Y0084454D03*
X0155703Y0084297D03*
X0157436Y0084454D03*
X0157436Y0087919D03*
X0155861Y0087919D03*
X0156176Y0089809D03*
X0156333Y0089809D03*
X0155703Y0089966D03*
X0157121Y0090124D03*
X0165546Y0086344D03*
X0166176Y0086029D03*
X0167121Y0086344D03*
X0174601Y0085872D03*
X0175546Y0084454D03*
X0176018Y0084297D03*
X0176176Y0084297D03*
X0176963Y0085872D03*
X0177436Y0087919D03*
X0175861Y0087919D03*
X0176176Y0089809D03*
X0176333Y0089809D03*
X0175703Y0089966D03*
X0177121Y0090124D03*
X0185546Y0086344D03*
X0186648Y0086029D03*
X0186018Y0084297D03*
X0185861Y0084297D03*
X0185546Y0084297D03*
X0186176Y0084139D03*
X0195546Y0088864D03*
X0197278Y0089021D03*
X0205703Y0085284D03*
X0206963Y0085284D03*
X0200678Y0135921D03*
X0186806Y0142006D03*
X0186806Y0144959D03*
X0185861Y0148384D03*
X0186806Y0150510D03*
X0176806Y0148006D03*
X0166806Y0147206D03*
X0166806Y0150159D03*
X0166333Y0151576D03*
X0155782Y0151978D03*
X0154680Y0150876D03*
X0156058Y0148671D03*
X0154680Y0146466D03*
X0155782Y0145088D03*
X0146058Y0144088D03*
X0145507Y0144639D03*
D23*
X0145093Y0142218D03*
X0147573Y0142218D03*
X0154818Y0143376D03*
X0157849Y0147234D03*
X0157849Y0150108D03*
X0156471Y0150817D03*
X0154818Y0153966D03*
X0147573Y0153675D03*
D24*
X0154818Y0150876D03*
X0155644Y0150600D03*
X0156196Y0148671D03*
X0154818Y0146466D03*
X0147298Y0144639D03*
X0144818Y0146017D03*
X0147022Y0147671D03*
X0165526Y0146970D03*
X0165723Y0145789D03*
X0167062Y0145789D03*
X0175605Y0146589D03*
X0175526Y0147770D03*
X0177140Y0150841D03*
X0184778Y0149447D03*
X0186196Y0148266D03*
X0186471Y0148266D03*
X0186550Y0148266D03*
X0186196Y0146731D03*
X0184778Y0147321D03*
X0185526Y0141770D03*
X0185723Y0140589D03*
X0187062Y0140589D03*
X0198554Y0143922D03*
X0198633Y0143922D03*
X0198751Y0143922D03*
X0199026Y0143922D03*
X0199105Y0143922D03*
X0199223Y0143922D03*
X0200444Y0143922D03*
X0200562Y0143922D03*
X0200640Y0143922D03*
X0200916Y0143922D03*
X0200995Y0143922D03*
X0201113Y0143922D03*
X0200562Y0146639D03*
X0200444Y0146639D03*
X0200168Y0146639D03*
X0200050Y0146639D03*
X0199971Y0146639D03*
X0199696Y0146639D03*
X0199617Y0146639D03*
X0199499Y0146639D03*
X0199223Y0146639D03*
X0199105Y0146639D03*
X0200640Y0140261D03*
X0200168Y0138489D03*
X0198454Y0136157D03*
X0200540Y0130961D03*
X0165054Y0152167D03*
D25*
X0154818Y0148671D03*
D26*
X0154955Y0143297D03*
X0164916Y0148801D03*
X0166333Y0146557D03*
X0176333Y0147357D03*
X0184916Y0143601D03*
X0186333Y0141357D03*
X0200306Y0144454D03*
X0154955Y0154045D03*
D27*
X0154955Y0150797D03*
X0155231Y0150679D03*
X0155507Y0146820D03*
X0155231Y0146663D03*
X0154955Y0146545D03*
X0147987Y0149797D03*
X0146885Y0147592D03*
X0146058Y0146096D03*
X0145231Y0146096D03*
X0144955Y0146096D03*
X0144680Y0149797D03*
D28*
X0147436Y0153734D03*
X0156058Y0150876D03*
X0157711Y0150049D03*
X0157711Y0147293D03*
X0154955Y0148671D03*
X0147436Y0142159D03*
D29*
X0147022Y0142080D03*
X0145644Y0142080D03*
X0148125Y0148025D03*
X0155920Y0150954D03*
X0155920Y0154104D03*
X0156471Y0154104D03*
X0155093Y0154104D03*
X0147022Y0153813D03*
X0145644Y0153813D03*
X0155093Y0143238D03*
X0155369Y0143238D03*
X0155644Y0143238D03*
X0165054Y0146498D03*
X0166117Y0146261D03*
X0165999Y0152167D03*
X0175054Y0147298D03*
X0185054Y0141298D03*
X0186117Y0141061D03*
X0199617Y0144394D03*
X0200168Y0144394D03*
X0199950Y0134976D03*
X0199517Y0134976D03*
X0185999Y0152046D03*
D30*
X0155093Y0150738D03*
X0155093Y0146604D03*
X0147573Y0146155D03*
X0147298Y0146155D03*
X0147022Y0146155D03*
X0146747Y0146155D03*
X0146471Y0146155D03*
X0146196Y0146155D03*
X0146747Y0147533D03*
X0146747Y0149738D03*
X0147022Y0149738D03*
X0147298Y0149738D03*
X0147573Y0149738D03*
X0147849Y0149738D03*
X0146471Y0149738D03*
X0146196Y0149738D03*
X0145920Y0149738D03*
X0145644Y0149738D03*
X0145369Y0149738D03*
X0145093Y0149738D03*
X0144818Y0149738D03*
D31*
X0145369Y0153734D03*
X0147298Y0153734D03*
X0156196Y0150876D03*
X0155093Y0148671D03*
X0147298Y0142159D03*
X0145369Y0142159D03*
D32*
X0145507Y0142080D03*
X0145782Y0142080D03*
X0146885Y0142080D03*
X0147160Y0142080D03*
X0155231Y0143238D03*
X0155507Y0143238D03*
X0156885Y0143238D03*
X0157711Y0143238D03*
X0155231Y0148750D03*
X0155231Y0154104D03*
X0156058Y0154104D03*
X0156609Y0154104D03*
X0157711Y0154104D03*
X0147160Y0153813D03*
X0145507Y0153813D03*
X0144680Y0148025D03*
X0177751Y0150250D03*
X0187751Y0149447D03*
X0201251Y0139670D03*
X0201151Y0130370D03*
D33*
X0155369Y0145305D03*
X0146471Y0147454D03*
X0155369Y0152194D03*
D34*
X0156471Y0148671D03*
X0155369Y0146742D03*
X0146196Y0148498D03*
D35*
X0155369Y0148671D03*
X0157573Y0150049D03*
X0157573Y0147293D03*
X0157573Y0143159D03*
X0157298Y0143159D03*
X0157022Y0143159D03*
X0157022Y0154183D03*
X0156747Y0154183D03*
X0157298Y0154183D03*
X0157573Y0154183D03*
X0155644Y0154183D03*
X0155369Y0154183D03*
D36*
X0155369Y0150679D03*
X0155644Y0146820D03*
X0147849Y0146096D03*
X0145369Y0146096D03*
X0145093Y0146096D03*
X0145920Y0148419D03*
X0147298Y0151175D03*
D37*
X0145782Y0148360D03*
X0155782Y0146880D03*
X0155507Y0145226D03*
X0155507Y0152116D03*
D38*
X0156885Y0150265D03*
X0157160Y0150108D03*
X0155507Y0148730D03*
X0156333Y0146801D03*
X0157160Y0147234D03*
X0146885Y0144423D03*
X0146609Y0151588D03*
X0146333Y0151588D03*
X0146058Y0151588D03*
D39*
X0147160Y0147671D03*
X0145507Y0146017D03*
X0155507Y0150600D03*
X0156333Y0148671D03*
X0167751Y0150986D03*
X0167751Y0153348D03*
X0184916Y0147321D03*
X0186333Y0148266D03*
X0198416Y0143922D03*
X0198888Y0143922D03*
X0199361Y0143922D03*
X0200778Y0143922D03*
X0201251Y0143922D03*
X0201251Y0145576D03*
X0200306Y0146639D03*
X0199833Y0146639D03*
X0199361Y0146639D03*
X0198416Y0141442D03*
X0201151Y0136157D03*
D40*
X0157436Y0143159D03*
X0157160Y0143159D03*
X0157436Y0147293D03*
X0157436Y0150049D03*
X0157436Y0154183D03*
X0157160Y0154183D03*
X0156885Y0154183D03*
X0155782Y0154183D03*
X0155507Y0154183D03*
X0147987Y0147946D03*
D41*
X0145644Y0151391D03*
X0155644Y0152116D03*
X0157022Y0152116D03*
X0157022Y0145226D03*
X0155644Y0145226D03*
D42*
X0155644Y0148671D03*
X0147849Y0147946D03*
X0146747Y0151529D03*
X0145920Y0151529D03*
D43*
X0145231Y0153675D03*
X0156333Y0153966D03*
X0157987Y0153966D03*
X0156333Y0150817D03*
X0155782Y0143376D03*
X0157987Y0143376D03*
X0145231Y0142218D03*
D44*
X0147160Y0144561D03*
X0144680Y0145939D03*
X0145231Y0148143D03*
X0147711Y0147868D03*
X0145782Y0151450D03*
X0155782Y0150679D03*
X0156885Y0152057D03*
X0155782Y0148750D03*
X0156885Y0145167D03*
X0157278Y0090202D03*
X0155546Y0090045D03*
X0155546Y0087998D03*
X0155703Y0087998D03*
X0155388Y0087998D03*
X0158223Y0085950D03*
X0157278Y0084376D03*
X0165546Y0084376D03*
X0165703Y0084218D03*
X0167121Y0084376D03*
X0167278Y0084376D03*
X0166333Y0085950D03*
X0165388Y0086423D03*
X0167278Y0086423D03*
X0175388Y0087998D03*
X0175546Y0087998D03*
X0175703Y0087998D03*
X0175546Y0090045D03*
X0177278Y0090202D03*
X0175861Y0084376D03*
X0175703Y0084376D03*
X0185703Y0084376D03*
X0186806Y0085950D03*
X0195388Y0086738D03*
X0195861Y0086738D03*
X0197436Y0086738D03*
X0195388Y0088943D03*
X0205546Y0085363D03*
X0207121Y0085363D03*
X0147178Y0086423D03*
X0145288Y0086423D03*
X0137278Y0090045D03*
X0135546Y0089887D03*
X0135388Y0087683D03*
X0135861Y0087683D03*
D45*
X0199517Y0129130D03*
X0199596Y0129130D03*
X0199871Y0129130D03*
X0199950Y0129130D03*
X0200068Y0129130D03*
X0200344Y0129248D03*
X0200344Y0132083D03*
X0200462Y0132083D03*
X0200540Y0132083D03*
X0200068Y0132083D03*
X0199950Y0132083D03*
X0199871Y0132083D03*
X0199596Y0132083D03*
X0199517Y0132083D03*
X0199399Y0132083D03*
X0199123Y0132083D03*
X0199005Y0132083D03*
X0198926Y0132083D03*
X0198651Y0132083D03*
X0198533Y0132083D03*
X0198454Y0132083D03*
X0198454Y0134563D03*
X0198533Y0134563D03*
X0198651Y0134563D03*
X0198926Y0134563D03*
X0199005Y0134563D03*
X0199123Y0134563D03*
X0200344Y0134563D03*
X0200462Y0134563D03*
X0200540Y0134563D03*
X0200816Y0134563D03*
X0200895Y0134563D03*
X0201013Y0134563D03*
X0200050Y0138430D03*
X0199971Y0138430D03*
X0199696Y0138430D03*
X0199617Y0138430D03*
X0199499Y0138548D03*
X0199499Y0141383D03*
X0199617Y0141383D03*
X0199696Y0141383D03*
X0199971Y0141383D03*
X0200050Y0141383D03*
X0200168Y0141383D03*
X0200444Y0141383D03*
X0200562Y0141383D03*
X0200640Y0141383D03*
X0199223Y0141383D03*
X0199105Y0141383D03*
X0199026Y0141383D03*
X0198751Y0141383D03*
X0198633Y0141383D03*
X0198554Y0141383D03*
X0198554Y0145517D03*
X0201113Y0145517D03*
X0200562Y0148351D03*
X0200444Y0148351D03*
X0200168Y0148351D03*
X0199223Y0148233D03*
X0199105Y0148233D03*
X0187888Y0145963D03*
X0187613Y0146081D03*
X0187495Y0146081D03*
X0187416Y0146199D03*
X0187140Y0146317D03*
X0187062Y0146317D03*
X0186944Y0146435D03*
X0186668Y0146554D03*
X0186550Y0146554D03*
X0186471Y0146672D03*
X0186117Y0146790D03*
X0185999Y0146790D03*
X0185723Y0146908D03*
X0185605Y0147026D03*
X0185526Y0147026D03*
X0185251Y0147144D03*
X0185133Y0147262D03*
X0185054Y0147262D03*
X0185999Y0148325D03*
X0186117Y0148325D03*
X0186668Y0148325D03*
X0186944Y0150451D03*
X0186668Y0150569D03*
X0186550Y0150569D03*
X0186471Y0150569D03*
X0186196Y0150569D03*
X0186117Y0150569D03*
X0185999Y0150569D03*
X0185723Y0151632D03*
X0185605Y0151632D03*
X0186944Y0151632D03*
X0187062Y0151632D03*
X0186668Y0145018D03*
X0186550Y0145018D03*
X0186471Y0145018D03*
X0186196Y0145018D03*
X0186117Y0145018D03*
X0185999Y0145018D03*
X0185999Y0143128D03*
X0186117Y0143128D03*
X0186196Y0143128D03*
X0186471Y0143128D03*
X0186550Y0143128D03*
X0186668Y0143128D03*
X0186944Y0143128D03*
X0187062Y0143128D03*
X0187062Y0142065D03*
X0186944Y0142065D03*
X0185723Y0143128D03*
X0185605Y0143128D03*
X0184778Y0141239D03*
X0185605Y0140648D03*
X0177140Y0147947D03*
X0177062Y0148065D03*
X0176944Y0148065D03*
X0176668Y0149010D03*
X0176550Y0149010D03*
X0176471Y0149010D03*
X0176196Y0149010D03*
X0176117Y0149010D03*
X0176944Y0149128D03*
X0175526Y0146648D03*
X0175723Y0146530D03*
X0174778Y0147239D03*
X0175054Y0151963D03*
X0175133Y0151963D03*
X0175251Y0151963D03*
X0175526Y0151963D03*
X0175605Y0151963D03*
X0175723Y0151963D03*
X0175999Y0151963D03*
X0176117Y0151963D03*
X0176196Y0151963D03*
X0176471Y0151963D03*
X0176550Y0151963D03*
X0176668Y0151963D03*
X0176944Y0151963D03*
X0177062Y0151963D03*
X0177140Y0151963D03*
X0167613Y0150927D03*
X0167495Y0151045D03*
X0167416Y0151045D03*
X0166471Y0151517D03*
X0166196Y0151635D03*
X0165133Y0152108D03*
X0166550Y0152817D03*
X0167495Y0153289D03*
X0167613Y0153289D03*
X0166668Y0150218D03*
X0166550Y0150218D03*
X0166471Y0150218D03*
X0166196Y0150218D03*
X0166117Y0150218D03*
X0165999Y0150218D03*
X0165999Y0148328D03*
X0166117Y0148328D03*
X0166196Y0148328D03*
X0166471Y0148328D03*
X0166550Y0148328D03*
X0166668Y0148328D03*
X0166944Y0148328D03*
X0167062Y0148328D03*
X0167062Y0147265D03*
X0166944Y0147265D03*
X0165723Y0148328D03*
X0165605Y0148328D03*
X0164778Y0146439D03*
X0165605Y0145848D03*
X0155920Y0146801D03*
X0147298Y0147730D03*
X0145644Y0148281D03*
X0146196Y0144029D03*
X0146471Y0144029D03*
D46*
X0145369Y0148222D03*
X0155920Y0148671D03*
X0165723Y0150041D03*
X0166944Y0150041D03*
X0166550Y0151458D03*
X0166196Y0152639D03*
X0166471Y0152757D03*
X0167416Y0153230D03*
X0165251Y0152167D03*
X0167140Y0147206D03*
X0167140Y0145789D03*
X0165526Y0145907D03*
X0175723Y0149187D03*
X0175999Y0149069D03*
X0177140Y0146589D03*
X0185723Y0144841D03*
X0186944Y0144841D03*
X0187140Y0142006D03*
X0187140Y0140589D03*
X0185526Y0140707D03*
X0185723Y0148502D03*
X0186944Y0148384D03*
X0187062Y0148502D03*
X0187062Y0150392D03*
X0185723Y0150392D03*
X0198633Y0145457D03*
X0200995Y0145457D03*
X0200444Y0138607D03*
X0199223Y0138607D03*
X0198533Y0136157D03*
X0201013Y0136157D03*
X0199123Y0129307D03*
X0199399Y0129189D03*
D47*
X0200678Y0130193D03*
X0187278Y0143955D03*
X0185388Y0149388D03*
X0185388Y0152459D03*
X0187751Y0152459D03*
X0177278Y0150073D03*
X0167278Y0149155D03*
X0166806Y0152108D03*
X0156609Y0143651D03*
X0156333Y0143651D03*
X0156058Y0143651D03*
X0147987Y0142494D03*
X0147987Y0153399D03*
D48*
X0147160Y0151391D03*
X0147436Y0147809D03*
X0156058Y0146880D03*
X0157160Y0145226D03*
X0157160Y0152116D03*
D49*
X0156747Y0147096D03*
X0156471Y0146939D03*
X0156196Y0146820D03*
X0148125Y0145939D03*
X0147573Y0147868D03*
X0147022Y0151450D03*
D50*
X0156196Y0154045D03*
X0157849Y0154045D03*
X0166117Y0152108D03*
X0166471Y0146675D03*
X0166196Y0146439D03*
X0157849Y0143297D03*
X0175054Y0150191D03*
X0176471Y0147475D03*
X0176196Y0147239D03*
X0177613Y0147239D03*
X0185054Y0149388D03*
X0186471Y0141475D03*
X0186196Y0141239D03*
X0198554Y0139611D03*
X0199399Y0135035D03*
X0200068Y0135035D03*
X0198454Y0130311D03*
X0199499Y0144454D03*
X0201388Y0147288D03*
D51*
X0156609Y0147017D03*
X0146885Y0151529D03*
X0155388Y0090124D03*
X0157436Y0090281D03*
X0157278Y0088076D03*
X0157121Y0088076D03*
X0156963Y0088076D03*
X0156806Y0088076D03*
X0158381Y0085872D03*
X0157121Y0084454D03*
X0156963Y0084297D03*
X0154444Y0085872D03*
X0147336Y0086502D03*
X0145131Y0086502D03*
X0137278Y0087761D03*
X0136806Y0087761D03*
X0135703Y0087761D03*
X0135546Y0087761D03*
X0135388Y0089966D03*
X0137436Y0090124D03*
X0165231Y0086502D03*
X0167436Y0086502D03*
X0166963Y0084297D03*
X0177121Y0085714D03*
X0177121Y0088076D03*
X0177278Y0088076D03*
X0176963Y0088076D03*
X0176806Y0088076D03*
X0177436Y0090281D03*
X0175388Y0090124D03*
X0185388Y0086344D03*
X0195546Y0086817D03*
X0195703Y0086817D03*
X0196806Y0086817D03*
X0196963Y0086817D03*
X0197121Y0086817D03*
X0197278Y0086817D03*
X0197436Y0089021D03*
X0195231Y0089021D03*
X0205388Y0085442D03*
X0207278Y0085442D03*
D52*
X0156609Y0148671D03*
X0146058Y0148498D03*
D53*
X0147711Y0153596D03*
X0156609Y0150738D03*
X0147711Y0142297D03*
D54*
X0156747Y0143927D03*
D55*
X0156747Y0148671D03*
X0216870Y0139700D03*
D56*
X0158125Y0147155D03*
X0158125Y0150187D03*
X0156747Y0151013D03*
X0145920Y0145053D03*
D57*
X0144955Y0148084D03*
X0156885Y0147155D03*
D58*
X0156885Y0148671D03*
X0146333Y0147395D03*
X0126148Y0067843D03*
X0124731Y0068000D03*
D59*
X0147022Y0144502D03*
X0145093Y0148084D03*
X0157022Y0147155D03*
X0157022Y0150187D03*
D60*
X0157298Y0152116D03*
X0157298Y0145226D03*
X0148125Y0149738D03*
D61*
X0146471Y0151588D03*
X0146196Y0151588D03*
X0144818Y0148006D03*
X0146747Y0144423D03*
X0157298Y0147234D03*
X0157298Y0150108D03*
D62*
X0157987Y0150128D03*
X0157987Y0147214D03*
X0144955Y0142356D03*
X0144955Y0153537D03*
X0134759Y0090124D03*
X0144344Y0086817D03*
X0148123Y0086817D03*
X0144501Y0082250D03*
X0144344Y0082250D03*
X0134916Y0082092D03*
X0134759Y0082092D03*
X0134601Y0082092D03*
X0154601Y0082250D03*
X0155703Y0082250D03*
X0158223Y0082250D03*
X0164601Y0082250D03*
X0165703Y0082250D03*
X0168223Y0082250D03*
X0168066Y0086659D03*
X0174601Y0082250D03*
X0177121Y0082250D03*
X0184601Y0082250D03*
X0187121Y0082250D03*
X0187278Y0085872D03*
X0188381Y0086974D03*
X0184759Y0086502D03*
X0178066Y0090439D03*
X0194916Y0082250D03*
X0205073Y0082292D03*
X0204444Y0085914D03*
X0208223Y0085914D03*
X0198066Y0089179D03*
X0158066Y0090439D03*
D63*
X0147849Y0142356D03*
X0158125Y0143513D03*
X0147849Y0153537D03*
X0158125Y0153828D03*
D64*
X0149089Y0147946D03*
X0148814Y0147946D03*
X0148538Y0147946D03*
X0148262Y0147946D03*
X0144404Y0147946D03*
X0144129Y0147946D03*
X0143853Y0147946D03*
X0143577Y0147946D03*
D65*
X0143715Y0147946D03*
X0143991Y0147946D03*
X0144266Y0147946D03*
X0148400Y0147946D03*
X0148676Y0147946D03*
X0148951Y0147946D03*
D66*
X0148125Y0153183D03*
X0144542Y0142710D03*
D67*
X0144542Y0149817D03*
D68*
X0144680Y0153320D03*
X0145782Y0145053D03*
X0144680Y0142572D03*
D69*
X0144818Y0142435D03*
X0144818Y0153458D03*
X0166668Y0152167D03*
X0167416Y0149096D03*
X0177416Y0150132D03*
X0185526Y0152400D03*
X0187416Y0143896D03*
X0199026Y0147465D03*
X0200916Y0147465D03*
X0200916Y0139552D03*
X0200816Y0130252D03*
D70*
X0147711Y0146155D03*
X0147436Y0146155D03*
X0147160Y0146155D03*
X0146885Y0146155D03*
X0146609Y0146155D03*
X0146333Y0146155D03*
X0146333Y0149738D03*
X0146058Y0149738D03*
X0145782Y0149738D03*
X0145507Y0149738D03*
X0145231Y0149738D03*
X0144955Y0149738D03*
X0146609Y0149738D03*
X0146885Y0149738D03*
X0147160Y0149738D03*
X0147436Y0149738D03*
X0147711Y0149738D03*
D71*
X0145093Y0153596D03*
D72*
X0145507Y0151313D03*
X0145507Y0148281D03*
X0147987Y0146076D03*
X0146609Y0144029D03*
X0146333Y0144029D03*
X0165861Y0145848D03*
X0165861Y0148328D03*
X0166333Y0148328D03*
X0166806Y0148328D03*
X0166333Y0150218D03*
X0165861Y0150100D03*
X0166333Y0152698D03*
X0175388Y0151963D03*
X0175861Y0151963D03*
X0176333Y0151963D03*
X0176806Y0151963D03*
X0176806Y0149128D03*
X0176333Y0149010D03*
X0175861Y0149128D03*
X0175861Y0146648D03*
X0185388Y0147144D03*
X0185861Y0146908D03*
X0186333Y0146672D03*
X0186806Y0146435D03*
X0187278Y0146199D03*
X0187751Y0145963D03*
X0186333Y0145018D03*
X0185861Y0144900D03*
X0185861Y0143128D03*
X0186333Y0143128D03*
X0186806Y0143128D03*
X0185861Y0140648D03*
X0186806Y0148325D03*
X0186333Y0150569D03*
X0185861Y0150451D03*
X0185861Y0151632D03*
X0186806Y0151632D03*
X0199361Y0148233D03*
X0200306Y0148351D03*
X0200306Y0141383D03*
X0199833Y0141383D03*
X0199361Y0141383D03*
X0198888Y0141383D03*
X0199361Y0138548D03*
X0199833Y0138430D03*
X0200306Y0138548D03*
X0200678Y0134563D03*
X0201151Y0134563D03*
X0198788Y0134563D03*
X0198788Y0132083D03*
X0199261Y0132083D03*
X0199733Y0132083D03*
X0200206Y0132083D03*
X0200206Y0129248D03*
X0199733Y0129130D03*
X0199261Y0129248D03*
D73*
X0187751Y0141239D03*
X0177751Y0147239D03*
X0167751Y0146439D03*
X0165861Y0152108D03*
X0146885Y0153872D03*
X0146609Y0153872D03*
X0146333Y0153872D03*
X0146058Y0153872D03*
X0145782Y0153872D03*
X0146058Y0142021D03*
X0146333Y0142021D03*
X0146609Y0142021D03*
D74*
X0146747Y0142021D03*
X0146471Y0142021D03*
X0146196Y0142021D03*
X0145920Y0142021D03*
X0145920Y0153872D03*
X0146196Y0153872D03*
X0146471Y0153872D03*
X0146747Y0153872D03*
X0166550Y0146793D03*
X0167888Y0148801D03*
X0176117Y0147002D03*
X0176550Y0147593D03*
X0186550Y0141593D03*
X0187888Y0143601D03*
X0199696Y0144335D03*
X0200050Y0144335D03*
X0199871Y0134917D03*
X0199596Y0134917D03*
D75*
X0146609Y0147454D03*
X0146333Y0148557D03*
D76*
X0146471Y0148635D03*
X0164778Y0152108D03*
X0174778Y0151963D03*
X0198278Y0141383D03*
X0198178Y0134563D03*
X0198178Y0132083D03*
D77*
X0148125Y0142631D03*
D78*
X0217815Y0142043D03*
X0217815Y0137357D03*
D79*
X0217815Y0137476D03*
X0217815Y0141924D03*
D80*
X0217815Y0141826D03*
D81*
X0217815Y0141708D03*
D82*
X0217815Y0141570D03*
X0217815Y0137791D03*
D83*
X0217815Y0137909D03*
X0217815Y0141452D03*
D84*
X0217815Y0141354D03*
D85*
X0213622Y0141255D03*
D86*
X0217756Y0141255D03*
D87*
X0221949Y0141255D03*
D88*
X0212146Y0141117D03*
X0212146Y0138283D03*
D89*
X0214449Y0140172D03*
X0215394Y0141117D03*
X0215748Y0139228D03*
X0221299Y0140172D03*
X0221299Y0138283D03*
X0129219Y0068945D03*
X0125755Y0068945D03*
X0125755Y0068787D03*
X0125125Y0066898D03*
X0123235Y0066110D03*
X0120873Y0067685D03*
X0120873Y0067843D03*
X0120873Y0068000D03*
X0120873Y0068157D03*
D90*
X0219528Y0138283D03*
X0218583Y0141117D03*
X0216929Y0141117D03*
D91*
X0216929Y0140172D03*
X0215866Y0139700D03*
X0217756Y0139228D03*
X0218583Y0140172D03*
X0219882Y0141117D03*
X0127408Y0069732D03*
X0127408Y0069575D03*
X0127408Y0069417D03*
X0127408Y0069260D03*
X0127408Y0069102D03*
X0127408Y0068945D03*
X0127408Y0068787D03*
X0127408Y0068630D03*
X0127408Y0068472D03*
X0127408Y0068315D03*
X0127408Y0068157D03*
X0127408Y0068000D03*
X0127408Y0067843D03*
X0127408Y0067685D03*
X0127408Y0067528D03*
X0127408Y0067370D03*
X0127408Y0067213D03*
X0127408Y0067055D03*
X0127408Y0066898D03*
X0127408Y0066740D03*
X0127408Y0066583D03*
X0127408Y0066425D03*
X0127408Y0066268D03*
X0125991Y0068157D03*
X0125991Y0068315D03*
X0124888Y0067528D03*
X0123314Y0067528D03*
X0123314Y0067685D03*
X0123314Y0067843D03*
X0123314Y0068000D03*
X0123314Y0068157D03*
X0123314Y0067370D03*
X0123314Y0067213D03*
X0123314Y0067055D03*
X0123314Y0066898D03*
X0123314Y0066740D03*
X0123314Y0066583D03*
X0123314Y0066425D03*
D92*
X0122133Y0068787D03*
X0119140Y0066110D03*
X0131581Y0066110D03*
X0223544Y0139228D03*
X0223189Y0141117D03*
D93*
X0223603Y0138617D03*
X0223603Y0138539D03*
X0223366Y0138145D03*
X0212264Y0138145D03*
X0212146Y0138420D03*
X0212146Y0140980D03*
D94*
X0215453Y0140980D03*
X0215807Y0139562D03*
X0216870Y0140428D03*
X0219823Y0140035D03*
X0219823Y0139917D03*
D95*
X0219646Y0139090D03*
X0219646Y0138972D03*
X0221299Y0138420D03*
X0221299Y0140035D03*
X0218583Y0140901D03*
X0218583Y0140980D03*
X0216929Y0140980D03*
X0216929Y0140901D03*
X0217756Y0138539D03*
X0217756Y0138420D03*
X0214449Y0139917D03*
X0214449Y0140035D03*
X0214449Y0140310D03*
D96*
X0215571Y0140783D03*
X0215689Y0140507D03*
X0215807Y0140035D03*
X0215807Y0139917D03*
X0216870Y0140035D03*
X0219941Y0140783D03*
X0219941Y0140901D03*
X0219941Y0140980D03*
D97*
X0223307Y0140980D03*
X0223425Y0140901D03*
X0223662Y0139562D03*
X0223544Y0138972D03*
X0215276Y0138539D03*
X0215276Y0138420D03*
X0211969Y0139090D03*
X0211969Y0139365D03*
X0211969Y0139483D03*
X0211969Y0139562D03*
X0211969Y0139838D03*
X0211969Y0139917D03*
X0211969Y0140035D03*
X0211969Y0140310D03*
D98*
X0212087Y0140783D03*
X0212087Y0140901D03*
X0212087Y0138617D03*
X0212087Y0138539D03*
X0215158Y0138893D03*
D99*
X0215866Y0139838D03*
X0215512Y0140901D03*
X0216929Y0140310D03*
X0217756Y0139090D03*
X0217756Y0138972D03*
X0218583Y0140035D03*
X0218583Y0140310D03*
X0219882Y0140310D03*
X0219882Y0140428D03*
X0219882Y0140507D03*
D100*
X0219705Y0139483D03*
X0219705Y0139365D03*
X0221240Y0139838D03*
X0221240Y0139917D03*
X0221240Y0140310D03*
X0221240Y0138617D03*
X0221240Y0138539D03*
X0218524Y0140783D03*
X0216870Y0140783D03*
X0215807Y0139365D03*
X0214390Y0139838D03*
D101*
X0215217Y0138617D03*
X0212028Y0138893D03*
X0212028Y0138972D03*
X0212028Y0140428D03*
X0212028Y0140507D03*
X0223485Y0140783D03*
X0223603Y0140507D03*
X0223603Y0140428D03*
X0223721Y0140310D03*
X0223721Y0140035D03*
X0223721Y0139917D03*
X0223721Y0139838D03*
X0223603Y0138893D03*
D102*
X0223603Y0138755D03*
X0223721Y0140172D03*
X0223603Y0140645D03*
X0215217Y0138755D03*
X0212028Y0138755D03*
X0212028Y0140645D03*
D103*
X0215630Y0140645D03*
X0218583Y0139700D03*
D104*
X0218583Y0140645D03*
X0219764Y0139700D03*
X0221181Y0138755D03*
X0217756Y0138755D03*
X0216929Y0140645D03*
D105*
X0215807Y0140172D03*
X0219941Y0140645D03*
D106*
X0219764Y0139838D03*
X0219764Y0139562D03*
X0218583Y0140428D03*
X0218583Y0140507D03*
X0216929Y0140507D03*
X0215866Y0139483D03*
X0214331Y0140428D03*
X0217756Y0138893D03*
X0217756Y0138617D03*
X0221181Y0138893D03*
X0221181Y0140428D03*
D107*
X0218583Y0139917D03*
X0218583Y0139838D03*
X0217756Y0139562D03*
X0217756Y0139483D03*
X0217756Y0139365D03*
X0216929Y0139838D03*
X0216929Y0139917D03*
X0215748Y0140310D03*
X0215748Y0140428D03*
D108*
X0215276Y0138283D03*
X0211969Y0139228D03*
X0211969Y0139700D03*
X0211969Y0140172D03*
X0223662Y0139700D03*
D109*
X0219823Y0140172D03*
D110*
X0223603Y0139483D03*
X0223603Y0139090D03*
D111*
X0223544Y0139365D03*
X0215276Y0138145D03*
D112*
X0219705Y0139228D03*
D113*
X0217697Y0138145D03*
X0215689Y0139090D03*
D114*
X0215512Y0138972D03*
D115*
X0219587Y0138893D03*
X0219587Y0138617D03*
D116*
X0219587Y0138755D03*
X0217697Y0138283D03*
D117*
X0219528Y0138420D03*
X0219528Y0138539D03*
X0221299Y0138145D03*
D118*
X0223544Y0138420D03*
D119*
X0223544Y0138283D03*
D120*
X0219528Y0138145D03*
D121*
X0217815Y0138027D03*
D122*
X0217815Y0137712D03*
D123*
X0217815Y0137594D03*
D124*
X0200895Y0136098D03*
X0200816Y0135980D03*
X0200540Y0135862D03*
X0200462Y0135744D03*
X0200344Y0135626D03*
X0199123Y0135626D03*
X0199005Y0135744D03*
X0198926Y0135862D03*
X0198651Y0136098D03*
X0199105Y0138784D03*
X0200562Y0138666D03*
X0200444Y0144926D03*
X0200562Y0145044D03*
X0200640Y0145162D03*
X0200916Y0145398D03*
X0199223Y0145044D03*
X0199105Y0145162D03*
X0199026Y0145280D03*
X0198751Y0145398D03*
X0199499Y0148115D03*
X0187140Y0150215D03*
X0185605Y0150333D03*
X0185605Y0148561D03*
X0187062Y0144782D03*
X0184778Y0143483D03*
X0185999Y0140766D03*
X0177888Y0147239D03*
X0175999Y0146766D03*
X0177062Y0149246D03*
X0167062Y0149982D03*
X0164778Y0148683D03*
X0165999Y0145966D03*
X0200462Y0129366D03*
D125*
X0199733Y0134858D03*
X0198416Y0139670D03*
X0199833Y0144276D03*
X0184916Y0141298D03*
X0174916Y0147298D03*
X0164916Y0146498D03*
X0184916Y0149447D03*
X0177593Y0090360D03*
X0175231Y0090202D03*
X0174444Y0085793D03*
X0177278Y0085635D03*
X0167593Y0086580D03*
X0157593Y0090360D03*
X0155231Y0090202D03*
X0147493Y0086580D03*
X0144973Y0086580D03*
X0137121Y0087840D03*
X0136963Y0087840D03*
X0135231Y0090045D03*
X0185231Y0086423D03*
X0186963Y0085950D03*
X0187593Y0086580D03*
X0187751Y0086738D03*
X0197593Y0089100D03*
X0205231Y0085520D03*
X0207436Y0085520D03*
D126*
X0198316Y0132083D03*
X0198316Y0134563D03*
X0198316Y0136098D03*
X0198416Y0145517D03*
X0174916Y0151963D03*
X0164916Y0152108D03*
D127*
X0165054Y0148919D03*
X0167495Y0146439D03*
X0175251Y0147239D03*
X0177495Y0147239D03*
X0177613Y0150191D03*
X0185133Y0149388D03*
X0187613Y0149388D03*
X0186550Y0152223D03*
X0186471Y0152223D03*
X0186196Y0152223D03*
X0185054Y0143719D03*
X0187495Y0141239D03*
X0198554Y0147288D03*
X0201113Y0139611D03*
X0201013Y0130311D03*
D128*
X0187613Y0141298D03*
X0185251Y0141298D03*
X0185133Y0141298D03*
X0175133Y0147298D03*
X0167613Y0146498D03*
X0165251Y0146498D03*
X0165133Y0146498D03*
X0184778Y0152400D03*
X0186117Y0152164D03*
X0186668Y0152164D03*
D129*
X0187140Y0152282D03*
X0177888Y0152731D03*
X0175133Y0150250D03*
X0167613Y0148978D03*
X0165133Y0148978D03*
X0167416Y0146498D03*
X0185133Y0143778D03*
X0187613Y0143778D03*
X0187416Y0141298D03*
X0198633Y0139670D03*
X0201388Y0142150D03*
X0201113Y0147347D03*
X0198633Y0147347D03*
X0201288Y0132850D03*
X0198533Y0130370D03*
D130*
X0198651Y0130311D03*
X0200895Y0130311D03*
X0200895Y0132791D03*
X0200816Y0132791D03*
X0201013Y0132791D03*
X0200995Y0139611D03*
X0198751Y0139611D03*
X0200916Y0142091D03*
X0200995Y0142091D03*
X0201113Y0142091D03*
X0200995Y0147406D03*
X0198751Y0147406D03*
X0187888Y0152459D03*
X0187495Y0149388D03*
X0185251Y0149388D03*
X0177495Y0150191D03*
X0175251Y0150191D03*
X0177416Y0152672D03*
X0177495Y0152672D03*
X0177613Y0152672D03*
X0177416Y0147239D03*
X0185251Y0143837D03*
X0187495Y0143837D03*
X0167495Y0149037D03*
X0165251Y0149037D03*
D131*
X0165388Y0146439D03*
X0175388Y0147239D03*
X0177278Y0152554D03*
X0186333Y0152223D03*
X0201251Y0147288D03*
X0200778Y0141973D03*
X0200678Y0132673D03*
X0185388Y0141239D03*
D132*
X0185388Y0143896D03*
X0175388Y0150132D03*
X0184916Y0152400D03*
X0187278Y0152400D03*
X0198888Y0147465D03*
X0200778Y0147465D03*
X0200778Y0139552D03*
X0198888Y0139552D03*
X0198788Y0130252D03*
X0165388Y0149096D03*
X0174601Y0090360D03*
X0176963Y0082328D03*
X0184444Y0082328D03*
X0186963Y0082328D03*
X0194759Y0082328D03*
X0204916Y0082371D03*
X0208381Y0085993D03*
X0194601Y0089100D03*
X0164601Y0086580D03*
X0164444Y0082328D03*
X0154601Y0090360D03*
X0148281Y0086895D03*
X0138066Y0090202D03*
X0134444Y0082171D03*
D133*
X0198788Y0135980D03*
X0199361Y0144926D03*
X0198888Y0145280D03*
X0200778Y0145280D03*
X0165388Y0152108D03*
D134*
X0165526Y0152167D03*
X0165605Y0149923D03*
X0167888Y0146498D03*
X0175605Y0149306D03*
X0177140Y0149424D03*
X0177888Y0150250D03*
X0176668Y0147770D03*
X0185605Y0144723D03*
X0187888Y0141298D03*
X0187140Y0148620D03*
X0187888Y0149447D03*
X0199617Y0147938D03*
X0199696Y0147938D03*
X0200050Y0148056D03*
X0201388Y0139670D03*
X0200640Y0138843D03*
X0201288Y0130370D03*
X0200540Y0129543D03*
X0199005Y0129425D03*
D135*
X0199123Y0131020D03*
X0200462Y0131020D03*
X0200562Y0140320D03*
X0198278Y0145517D03*
X0188007Y0149388D03*
X0185605Y0141829D03*
X0186944Y0140530D03*
X0176944Y0146530D03*
X0175605Y0147829D03*
X0175723Y0150900D03*
X0177062Y0150900D03*
X0166944Y0145730D03*
X0165605Y0147029D03*
D136*
X0166668Y0147029D03*
X0165605Y0152108D03*
X0186668Y0141829D03*
X0198278Y0147170D03*
X0199971Y0147997D03*
D137*
X0199971Y0144276D03*
X0165723Y0152167D03*
D138*
X0166944Y0152167D03*
X0185526Y0149447D03*
D139*
X0167062Y0152108D03*
D140*
X0167140Y0152167D03*
D141*
X0177278Y0147239D03*
X0177751Y0152672D03*
X0167278Y0146439D03*
X0187278Y0141239D03*
X0201251Y0142091D03*
X0201151Y0132791D03*
D142*
X0167278Y0152108D03*
D143*
X0167751Y0148860D03*
X0187751Y0143660D03*
X0198416Y0147229D03*
X0199261Y0135094D03*
X0200206Y0135094D03*
X0197908Y0089179D03*
X0204759Y0085757D03*
X0207908Y0085757D03*
X0206018Y0082135D03*
X0205388Y0082135D03*
X0195231Y0082092D03*
X0188381Y0082092D03*
X0187436Y0082092D03*
X0185073Y0082092D03*
X0184916Y0082092D03*
X0184916Y0086502D03*
X0188223Y0086974D03*
X0177908Y0090439D03*
X0174916Y0090281D03*
X0167908Y0086659D03*
X0167908Y0082092D03*
X0166963Y0082092D03*
X0165546Y0082092D03*
X0165388Y0082092D03*
X0165231Y0082092D03*
X0165073Y0082092D03*
X0164916Y0082092D03*
X0157751Y0082092D03*
X0156963Y0082092D03*
X0155388Y0082092D03*
X0155231Y0082092D03*
X0155073Y0082092D03*
X0147966Y0086817D03*
X0144501Y0086817D03*
X0145288Y0082092D03*
X0145446Y0082092D03*
X0145603Y0082092D03*
X0145761Y0082092D03*
X0136176Y0081935D03*
X0136018Y0081935D03*
X0135861Y0081935D03*
X0135703Y0081935D03*
X0134916Y0090124D03*
X0154916Y0090281D03*
X0157908Y0090439D03*
X0175073Y0082092D03*
X0175231Y0082092D03*
X0176176Y0082092D03*
X0177436Y0082092D03*
X0177593Y0082092D03*
X0178381Y0082092D03*
D144*
X0201288Y0136157D03*
X0201388Y0145457D03*
X0188125Y0146022D03*
X0167888Y0150986D03*
D145*
X0167888Y0153289D03*
X0174778Y0150191D03*
X0175605Y0150900D03*
X0177062Y0146530D03*
X0188007Y0145963D03*
X0198278Y0139729D03*
X0199105Y0140320D03*
X0201388Y0143863D03*
X0201288Y0134563D03*
X0199005Y0131020D03*
X0198178Y0130311D03*
D146*
X0201407Y0130370D03*
X0198178Y0136157D03*
X0199223Y0140379D03*
X0201507Y0139670D03*
X0198278Y0143922D03*
X0188007Y0141298D03*
X0178007Y0147298D03*
X0178007Y0150250D03*
X0168007Y0146498D03*
D147*
X0174916Y0150191D03*
X0198316Y0130311D03*
D148*
X0184680Y0147321D03*
D149*
X0187278Y0149447D03*
D150*
X0199833Y0147938D03*
D151*
X0125361Y0071150D03*
X0125361Y0070992D03*
X0125361Y0070835D03*
X0125361Y0070677D03*
X0125361Y0070520D03*
X0125361Y0070362D03*
X0125361Y0070205D03*
X0125361Y0065795D03*
X0125361Y0065638D03*
X0125361Y0065480D03*
X0125361Y0065323D03*
X0125361Y0065165D03*
X0125361Y0065008D03*
X0125361Y0064850D03*
D152*
X0131345Y0065953D03*
X0119377Y0070047D03*
D153*
X0127487Y0070047D03*
D154*
X0131503Y0069890D03*
X0122054Y0068630D03*
X0122054Y0068472D03*
X0119219Y0069890D03*
D155*
X0123077Y0069890D03*
X0125597Y0069260D03*
X0129377Y0068630D03*
X0129377Y0067213D03*
X0125282Y0066583D03*
X0125282Y0066425D03*
X0123077Y0065953D03*
X0121503Y0067055D03*
D156*
X0118668Y0067055D03*
X0118668Y0067213D03*
X0118668Y0067370D03*
X0118668Y0068630D03*
X0118668Y0068787D03*
X0118668Y0068945D03*
X0125440Y0069890D03*
X0132054Y0068945D03*
X0132054Y0068787D03*
X0132054Y0067213D03*
X0132054Y0067055D03*
X0125440Y0065953D03*
D157*
X0124967Y0067370D03*
X0125912Y0068472D03*
X0127487Y0069890D03*
X0123235Y0069575D03*
X0123235Y0069417D03*
X0123235Y0069260D03*
X0123235Y0069102D03*
X0123235Y0068315D03*
X0123235Y0066268D03*
X0127487Y0066110D03*
X0129062Y0066898D03*
D158*
X0131660Y0069732D03*
X0119062Y0069732D03*
D159*
X0123156Y0069732D03*
X0123156Y0068945D03*
X0125046Y0067213D03*
X0125046Y0067055D03*
X0125833Y0068630D03*
X0127408Y0065953D03*
X0121581Y0066898D03*
D160*
X0121345Y0067370D03*
X0121345Y0067528D03*
X0125440Y0069732D03*
X0129534Y0068315D03*
X0129534Y0068157D03*
X0129534Y0068000D03*
X0129534Y0067843D03*
X0129534Y0067685D03*
D161*
X0118983Y0066268D03*
X0118983Y0069575D03*
X0131739Y0069575D03*
X0131739Y0066268D03*
D162*
X0129455Y0067370D03*
X0129455Y0067528D03*
X0129455Y0068472D03*
X0125518Y0069417D03*
X0125518Y0069575D03*
X0125361Y0066268D03*
X0121424Y0067213D03*
D163*
X0118825Y0066583D03*
X0118825Y0069260D03*
X0118825Y0069417D03*
X0131896Y0069260D03*
X0131896Y0066583D03*
D164*
X0131818Y0066425D03*
X0131818Y0069417D03*
X0118904Y0066425D03*
D165*
X0118747Y0066740D03*
X0118747Y0066898D03*
X0118747Y0069102D03*
X0131975Y0069102D03*
X0131975Y0066898D03*
X0131975Y0066740D03*
D166*
X0129298Y0067055D03*
X0129298Y0068787D03*
X0125676Y0069102D03*
X0125203Y0066740D03*
X0121581Y0068945D03*
X0120951Y0068315D03*
D167*
X0118589Y0068315D03*
X0118589Y0068472D03*
X0118589Y0068157D03*
X0118589Y0068000D03*
X0118589Y0067843D03*
X0118589Y0067685D03*
X0118589Y0067528D03*
X0125361Y0066110D03*
X0132133Y0067370D03*
X0132133Y0067528D03*
X0132133Y0067685D03*
X0132133Y0067843D03*
X0132133Y0068000D03*
X0132133Y0068157D03*
X0132133Y0068315D03*
X0132133Y0068472D03*
X0132133Y0068630D03*
D168*
X0126070Y0068000D03*
X0124810Y0067843D03*
X0124810Y0067685D03*
D169*
X0119298Y0065953D03*
D170*
X0193184Y0086423D03*
X0199483Y0086423D03*
D171*
X0199325Y0086344D03*
X0193341Y0086344D03*
D172*
X0193499Y0086265D03*
X0199168Y0086265D03*
D173*
X0199010Y0086187D03*
X0193656Y0086187D03*
D174*
X0193814Y0086108D03*
X0198853Y0086108D03*
D175*
X0198696Y0086029D03*
X0193971Y0086029D03*
D176*
X0194129Y0085950D03*
X0198538Y0085950D03*
D177*
X0194286Y0085872D03*
D178*
X0194444Y0082486D03*
X0198223Y0082486D03*
X0198381Y0082486D03*
X0204601Y0082528D03*
X0206176Y0082528D03*
X0206333Y0082528D03*
X0206491Y0082528D03*
X0206648Y0082528D03*
X0206806Y0082528D03*
X0206963Y0082528D03*
X0207121Y0082528D03*
X0207278Y0082528D03*
X0207436Y0082528D03*
X0207593Y0082528D03*
X0207751Y0082528D03*
X0207908Y0082528D03*
X0208066Y0082528D03*
X0208223Y0082528D03*
X0194444Y0089100D03*
X0186806Y0082486D03*
X0176806Y0082486D03*
X0164444Y0086580D03*
X0138223Y0090202D03*
D179*
X0136806Y0089809D03*
X0136648Y0087446D03*
X0135231Y0084454D03*
X0135073Y0084454D03*
X0134916Y0084454D03*
X0134759Y0084454D03*
X0134601Y0084454D03*
X0134444Y0084454D03*
X0144973Y0084454D03*
X0145131Y0084454D03*
X0145288Y0084454D03*
X0145446Y0084454D03*
X0145761Y0086187D03*
X0145918Y0086187D03*
X0146076Y0086187D03*
X0146233Y0086187D03*
X0146391Y0086187D03*
X0146548Y0086187D03*
X0146706Y0086187D03*
X0154916Y0086029D03*
X0156018Y0086029D03*
X0156491Y0086029D03*
X0157908Y0086029D03*
X0158066Y0086029D03*
X0156648Y0087761D03*
X0156648Y0089966D03*
X0156806Y0089966D03*
X0166806Y0086187D03*
X0174916Y0086029D03*
X0175073Y0086029D03*
X0176491Y0086029D03*
X0176648Y0087761D03*
X0176648Y0089966D03*
X0176806Y0089966D03*
X0178381Y0086187D03*
X0185861Y0086187D03*
X0186018Y0086187D03*
X0194444Y0084927D03*
X0196648Y0086502D03*
X0198223Y0084927D03*
X0196806Y0088706D03*
X0196648Y0088706D03*
X0196491Y0088706D03*
X0196963Y0088864D03*
X0195861Y0088706D03*
D180*
X0198223Y0089179D03*
X0198066Y0082407D03*
X0197908Y0082407D03*
X0197751Y0082407D03*
X0197593Y0082407D03*
X0197436Y0082407D03*
X0197278Y0082407D03*
X0197121Y0082407D03*
X0196963Y0082407D03*
X0196806Y0082407D03*
X0196648Y0082407D03*
X0196491Y0082407D03*
X0196333Y0082407D03*
X0196176Y0082407D03*
X0194601Y0082407D03*
X0187436Y0085872D03*
X0184601Y0086502D03*
X0178223Y0090439D03*
X0174444Y0082407D03*
X0168381Y0082407D03*
X0168223Y0086659D03*
X0158223Y0090439D03*
X0158381Y0082407D03*
X0154444Y0082407D03*
X0134601Y0090124D03*
X0204759Y0082450D03*
D181*
X0198066Y0085006D03*
X0197908Y0085006D03*
X0197751Y0085006D03*
X0197593Y0085006D03*
X0197436Y0085006D03*
X0197278Y0085006D03*
X0197121Y0085006D03*
X0196963Y0085006D03*
X0196806Y0085006D03*
X0196648Y0085006D03*
X0196491Y0085006D03*
X0196333Y0085006D03*
X0196176Y0085006D03*
X0196018Y0085006D03*
X0195861Y0085006D03*
X0195703Y0085006D03*
X0195546Y0085006D03*
X0195388Y0085006D03*
X0195231Y0085006D03*
X0195073Y0085006D03*
X0194916Y0085006D03*
X0194759Y0085006D03*
X0194601Y0085006D03*
X0196018Y0086423D03*
X0196176Y0086423D03*
X0196333Y0086423D03*
X0196491Y0086423D03*
X0178223Y0086265D03*
X0176333Y0086108D03*
X0176176Y0086108D03*
X0176018Y0086108D03*
X0175861Y0086108D03*
X0175703Y0086108D03*
X0175546Y0086108D03*
X0175388Y0086108D03*
X0175231Y0086108D03*
X0176018Y0087683D03*
X0176491Y0087683D03*
X0157751Y0086108D03*
X0157593Y0086108D03*
X0156806Y0086108D03*
X0156648Y0086108D03*
X0155861Y0086108D03*
X0155703Y0086108D03*
X0155546Y0086108D03*
X0155388Y0086108D03*
X0155231Y0086108D03*
X0155073Y0086108D03*
X0156018Y0087683D03*
X0156491Y0087683D03*
X0144816Y0084533D03*
X0144659Y0084533D03*
X0144501Y0084533D03*
X0138223Y0085950D03*
X0138066Y0085950D03*
X0137908Y0085950D03*
X0137751Y0085950D03*
X0137593Y0085950D03*
X0137436Y0085950D03*
X0137278Y0085950D03*
X0137121Y0085950D03*
X0136963Y0085950D03*
X0136806Y0085950D03*
X0136648Y0085950D03*
X0136491Y0085950D03*
X0136333Y0085950D03*
X0136176Y0085950D03*
X0136018Y0085950D03*
X0135861Y0085950D03*
X0135703Y0085950D03*
X0135546Y0085950D03*
X0135388Y0085950D03*
X0135231Y0085950D03*
X0135073Y0085950D03*
X0134916Y0085950D03*
X0134759Y0085950D03*
X0134601Y0085950D03*
X0134444Y0085950D03*
X0136018Y0087368D03*
X0136176Y0087368D03*
X0136333Y0087368D03*
X0136491Y0087368D03*
D182*
X0135073Y0090045D03*
X0137751Y0090202D03*
X0144659Y0086738D03*
X0147808Y0086738D03*
X0147021Y0082013D03*
X0146863Y0082013D03*
X0146391Y0082013D03*
X0146233Y0082013D03*
X0146076Y0082013D03*
X0145918Y0082013D03*
X0137121Y0081856D03*
X0136963Y0081856D03*
X0136806Y0081856D03*
X0136648Y0081856D03*
X0136491Y0081856D03*
X0136333Y0081856D03*
X0157121Y0082013D03*
X0157278Y0082013D03*
X0157436Y0082013D03*
X0157593Y0082013D03*
X0164916Y0086580D03*
X0157751Y0090360D03*
X0167121Y0082013D03*
X0167278Y0082013D03*
X0167436Y0082013D03*
X0167593Y0082013D03*
X0167751Y0082013D03*
X0175388Y0082013D03*
X0175546Y0082013D03*
X0175703Y0082013D03*
X0175861Y0082013D03*
X0176018Y0082013D03*
X0177751Y0082013D03*
X0177908Y0082013D03*
X0178066Y0082013D03*
X0178223Y0082013D03*
X0177436Y0085478D03*
X0177751Y0090360D03*
X0187121Y0085950D03*
X0188066Y0086895D03*
X0194916Y0089100D03*
X0204916Y0085678D03*
X0207751Y0085678D03*
X0205861Y0082056D03*
X0205703Y0082056D03*
X0205546Y0082056D03*
X0196018Y0082013D03*
X0195861Y0082013D03*
X0195388Y0082013D03*
X0188223Y0082013D03*
X0188066Y0082013D03*
X0187751Y0082013D03*
X0187593Y0082013D03*
X0186176Y0082013D03*
X0186018Y0082013D03*
X0185861Y0082013D03*
X0185546Y0082013D03*
X0185388Y0082013D03*
X0185231Y0082013D03*
D183*
X0185703Y0081935D03*
X0187908Y0081935D03*
X0185073Y0086502D03*
X0187908Y0086817D03*
X0195073Y0089021D03*
X0197751Y0089179D03*
X0205073Y0085599D03*
X0207593Y0085599D03*
X0195703Y0081935D03*
X0195546Y0081935D03*
X0175073Y0090281D03*
X0167751Y0086659D03*
X0165073Y0086502D03*
X0155073Y0090281D03*
X0147651Y0086659D03*
X0144816Y0086659D03*
X0137593Y0090124D03*
X0146548Y0081935D03*
X0146706Y0081935D03*
D184*
X0146076Y0084376D03*
X0145918Y0084376D03*
X0145761Y0084376D03*
X0145603Y0084376D03*
X0144344Y0084533D03*
X0145603Y0086265D03*
X0146863Y0086265D03*
X0154601Y0085950D03*
X0154759Y0085950D03*
X0156176Y0085950D03*
X0156333Y0085950D03*
X0156491Y0089887D03*
X0156018Y0089887D03*
X0155861Y0089887D03*
X0156963Y0090045D03*
X0165703Y0086265D03*
X0165861Y0086108D03*
X0166018Y0086108D03*
X0166491Y0086108D03*
X0166648Y0086108D03*
X0166963Y0086265D03*
X0167436Y0084376D03*
X0165388Y0084376D03*
X0174759Y0085950D03*
X0175388Y0084376D03*
X0176648Y0085950D03*
X0176806Y0085950D03*
X0176491Y0089887D03*
X0176018Y0089887D03*
X0175861Y0089887D03*
X0176963Y0090045D03*
X0185703Y0086265D03*
X0186176Y0086108D03*
X0186333Y0086108D03*
X0186491Y0086108D03*
X0185388Y0084376D03*
X0195703Y0088785D03*
X0196018Y0088628D03*
X0196176Y0088628D03*
X0196333Y0088628D03*
X0197121Y0088943D03*
X0198381Y0085006D03*
X0205861Y0085206D03*
X0206018Y0085206D03*
X0206176Y0085206D03*
X0206333Y0085206D03*
X0206491Y0085206D03*
X0206648Y0085206D03*
X0206806Y0085206D03*
X0138381Y0085950D03*
X0135861Y0084376D03*
X0135703Y0084376D03*
X0135546Y0084376D03*
X0135388Y0084376D03*
X0135861Y0089730D03*
X0136491Y0089730D03*
X0136648Y0089730D03*
X0136963Y0089887D03*
D185*
X0154286Y0082643D03*
X0155861Y0082643D03*
X0156648Y0082643D03*
X0158381Y0090360D03*
X0168381Y0086580D03*
X0176648Y0082643D03*
X0178381Y0090360D03*
X0198381Y0089100D03*
D186*
X0179483Y0087053D03*
X0173184Y0087053D03*
X0159483Y0087053D03*
X0153184Y0087053D03*
X0139483Y0086895D03*
X0133184Y0086895D03*
D187*
X0133341Y0086817D03*
X0139325Y0086817D03*
X0153341Y0086974D03*
X0159325Y0086974D03*
X0173341Y0086974D03*
X0179325Y0086974D03*
D188*
X0179168Y0086895D03*
X0173499Y0086895D03*
X0159168Y0086895D03*
X0153499Y0086895D03*
X0139168Y0086738D03*
X0133499Y0086738D03*
D189*
X0133656Y0086659D03*
X0139010Y0086659D03*
X0153656Y0086817D03*
X0159010Y0086817D03*
X0173656Y0086817D03*
X0179010Y0086817D03*
D190*
X0178853Y0086738D03*
X0173814Y0086738D03*
X0158853Y0086738D03*
X0153814Y0086738D03*
X0138853Y0086580D03*
X0133814Y0086580D03*
D191*
X0133971Y0086502D03*
X0138696Y0086502D03*
X0153971Y0086659D03*
X0158696Y0086659D03*
X0173971Y0086659D03*
X0178696Y0086659D03*
D192*
X0178538Y0086580D03*
X0174129Y0086580D03*
X0158538Y0086580D03*
X0154129Y0086580D03*
X0138538Y0086423D03*
X0134129Y0086423D03*
D193*
X0134444Y0090124D03*
X0154444Y0090281D03*
X0156018Y0082565D03*
X0156176Y0082565D03*
X0156333Y0082565D03*
X0156491Y0082565D03*
X0164286Y0082565D03*
X0165861Y0082565D03*
X0166018Y0082565D03*
X0166176Y0082565D03*
X0166333Y0082565D03*
X0166491Y0082565D03*
X0166648Y0082565D03*
X0174286Y0082565D03*
X0174444Y0090281D03*
X0184444Y0086502D03*
X0184286Y0082565D03*
X0186648Y0082565D03*
X0204444Y0082607D03*
X0208381Y0082607D03*
D194*
X0209483Y0084733D03*
X0203184Y0084733D03*
X0188538Y0084691D03*
X0184129Y0084691D03*
X0174286Y0088313D03*
X0168538Y0084691D03*
X0164129Y0084691D03*
X0154286Y0088313D03*
X0148438Y0084691D03*
X0144029Y0084691D03*
D195*
X0155231Y0084454D03*
X0156963Y0086187D03*
X0157121Y0086187D03*
X0157278Y0086187D03*
X0157436Y0086187D03*
X0156333Y0087604D03*
X0156176Y0087604D03*
X0165231Y0084454D03*
X0176176Y0087604D03*
X0176333Y0087604D03*
X0177593Y0086187D03*
X0177751Y0086187D03*
X0177908Y0086187D03*
X0178066Y0086187D03*
D196*
X0176333Y0082880D03*
X0184286Y0086344D03*
X0166806Y0082880D03*
D197*
X0176491Y0082722D03*
X0186491Y0082722D03*
X0138381Y0090124D03*
D198*
X0147178Y0082958D03*
X0147336Y0082958D03*
X0147493Y0082958D03*
X0147651Y0082958D03*
X0147808Y0082958D03*
X0147966Y0082958D03*
X0156806Y0082958D03*
D199*
X0134286Y0086344D03*
D200*
X0137278Y0082880D03*
X0137436Y0082880D03*
X0137593Y0082880D03*
X0137751Y0082880D03*
X0137908Y0082880D03*
X0138066Y0082880D03*
X0138223Y0082880D03*
X0148123Y0083037D03*
X0148281Y0083037D03*
D201*
X0138381Y0082958D03*
D202*
X0144186Y0084612D03*
X0203341Y0084654D03*
X0209325Y0084654D03*
D203*
X0209168Y0084576D03*
X0203499Y0084576D03*
D204*
X0203656Y0084497D03*
X0209010Y0084497D03*
D205*
X0208853Y0084418D03*
X0203814Y0084418D03*
D206*
X0203971Y0084339D03*
X0208696Y0084339D03*
D207*
X0208538Y0084261D03*
X0204129Y0084261D03*
D208*
X0204286Y0084182D03*
D209*
X0189483Y0085163D03*
X0183184Y0085163D03*
X0169483Y0085163D03*
X0163184Y0085163D03*
X0149383Y0085163D03*
X0143084Y0085163D03*
D210*
X0143241Y0085084D03*
X0149225Y0085084D03*
X0163341Y0085084D03*
X0169325Y0085084D03*
X0183341Y0085084D03*
X0189325Y0085084D03*
D211*
X0189168Y0085006D03*
X0183499Y0085006D03*
X0169168Y0085006D03*
X0163499Y0085006D03*
X0149068Y0085006D03*
X0143399Y0085006D03*
D212*
X0143556Y0084927D03*
X0148910Y0084927D03*
X0163656Y0084927D03*
X0169010Y0084927D03*
X0183656Y0084927D03*
X0189010Y0084927D03*
D213*
X0188853Y0084848D03*
X0183814Y0084848D03*
X0168853Y0084848D03*
X0163814Y0084848D03*
X0148753Y0084848D03*
X0143714Y0084848D03*
D214*
X0143871Y0084769D03*
X0148596Y0084769D03*
X0163971Y0084769D03*
X0168696Y0084769D03*
X0183971Y0084769D03*
X0188696Y0084769D03*
D215*
X0186333Y0082801D03*
X0164286Y0086423D03*
M02*
