%
M48
M72
T01C0.0150
T02C0.0200
T03C0.0400
T04C0.1200
%
T01
X14723Y9540
X15583Y9010
X16153Y8660
X16763Y8680
X17393Y8640
X18183Y8720
X19113Y8810
X19493Y9480
X18553Y9410
X17903Y9450
X17303Y9450
X16743Y9450
X16153Y9790
X16433Y10700
X16233Y11000
X15683Y11190
X15943Y11600
X15843Y12160
X15853Y12520
X15853Y12880
X16213Y12900
X16863Y11990
X17383Y11980
X18353Y11630
X18243Y11280
X17543Y10730
X17183Y10740
X19593Y11340
X19953Y11410
X19913Y11930
X20423Y12400
X20853Y12720
X21133Y12030
X21133Y11100
X21213Y10710
X19203Y12910
X19143Y13560
X18623Y13900
X19943Y13730
X21013Y14330
X21513Y13970
X16673Y14690
X15753Y14160
X15433Y13900
X14643Y14070
X14133Y14110
X13533Y14110
X14543Y12650
X14543Y12170
X13143Y11490
X13133Y10800
X14583Y11100
X14633Y10700
T02
X19633Y13300
X19633Y14300
T03
X13633Y6800
X14633Y6800
X15633Y6800
X16633Y6800
X17633Y6800
X18633Y6800
X19633Y6800
X20633Y6800
X20633Y7800
X19633Y7800
X18633Y7800
X17633Y7800
X16633Y7800
X15633Y7800
X14633Y7800
X13633Y7800
X14633Y15800
X15633Y15800
X16633Y15800
X17633Y15800
X18633Y15800
T04
X21133Y15300
X13133Y15300
M30
