%
M48
M72
T01C0.0100
T02C0.0120
T03C0.0200
T04C0.0400
T05C0.1200
%
T01
X4834Y4875
X4834Y5875
X5834Y5875
X5834Y5375
X5834Y4875
X6834Y4885
X6834Y5385
X6834Y5885
X7834Y5875
X7834Y5375
X7834Y4875
X8834Y4875
X8834Y5375
X8834Y5875
X9834Y5875
X9834Y5375
X9834Y4875
X10834Y4875
X10834Y5375
X10834Y5875
X11834Y5875
X11834Y5375
X11834Y4875
X12834Y4875
X12834Y5375
X12834Y5875
X13834Y5875
X13834Y5375
X13834Y4875
X14834Y4875
X14834Y5875
X16034Y5875
X16034Y4875
X17034Y4875
X17034Y5375
X17034Y5875
X17034Y7275
X16734Y7775
X17034Y8075
X16034Y8375
X16034Y7375
X14834Y7375
X14834Y8375
X14164Y8075
X13764Y7805
X13954Y7525
X13334Y8875
X12834Y8375
X12334Y8875
X12334Y9375
X11834Y10375
X11334Y9885
X11334Y10875
X11334Y11475
X11834Y11375
X12334Y12375
X13984Y10415
X14634Y10475
X14834Y10875
X16034Y10875
X16034Y9875
X17034Y10375
X18034Y8475
X18294Y8115
X18094Y7285
X18034Y5885
X18034Y5385
X18034Y4885
X19034Y4875
X19034Y5375
X19034Y5875
X20034Y5875
X20034Y5375
X20034Y4875
X21034Y4875
X21034Y5375
X21034Y5875
X22034Y5875
X22034Y5375
X22034Y4875
X23034Y4875
X23034Y5375
X23034Y5875
X24034Y5875
X24034Y5375
X24034Y4875
X25034Y4875
X25034Y5375
X25034Y5875
X26034Y5875
X26034Y4875
X26034Y3875
X27234Y4875
X27234Y5875
X28234Y5875
X28234Y5375
X28234Y4875
X29234Y4885
X29234Y5385
X29234Y5885
X30234Y5875
X30234Y5375
X30234Y4875
X31234Y4875
X31234Y5375
X31234Y5875
X32234Y5875
X32234Y5375
X32234Y4875
X33234Y4875
X33234Y5375
X33234Y5875
X34234Y5875
X34234Y5375
X34234Y4875
X35234Y4875
X35234Y5375
X35234Y5875
X36234Y5875
X36234Y5375
X36234Y4875
X37234Y4875
X37234Y5875
X38434Y5875
X38434Y4875
X39434Y4875
X39434Y5375
X39434Y5875
X39434Y7275
X39134Y7775
X39434Y8075
X38434Y8375
X38434Y7375
X37234Y7375
X36354Y7525
X36164Y7805
X36564Y8075
X37234Y8375
X35734Y8875
X35234Y8375
X34734Y8875
X34734Y9375
X34234Y10375
X33734Y9885
X33734Y10875
X33734Y11475
X34234Y11375
X34734Y12375
X36384Y10415
X37034Y10475
X37234Y10875
X38434Y10875
X38434Y9875
X39434Y10375
X40834Y10375
X40934Y10875
X40934Y9875
X40434Y8475
X40694Y8115
X40494Y7285
X40434Y5885
X40434Y5385
X40434Y4885
X41434Y4875
X41434Y5375
X41434Y5875
X42434Y5875
X42434Y5375
X42434Y4875
X43434Y4875
X43434Y5375
X43434Y5875
X44434Y5875
X44434Y5375
X44434Y4875
X45434Y4875
X45434Y5375
X45434Y5875
X46434Y5875
X46434Y5375
X46434Y4875
X47434Y4875
X47434Y5375
X47434Y5875
X48434Y5875
X48434Y4875
X48434Y3875
X48434Y7375
X47554Y7525
X47364Y7805
X47764Y8075
X48434Y8375
X46934Y8875
X46434Y8375
X45934Y8875
X45934Y9375
X45434Y10375
X44934Y9885
X44934Y10875
X44934Y11475
X45434Y11375
X45934Y12375
X47584Y10415
X48234Y10475
X48434Y10875
X48434Y14075
X48434Y15075
X47434Y15075
X47434Y15575
X47434Y16075
X48434Y16075
X48434Y17575
X47554Y17725
X47364Y18005
X47764Y18275
X48434Y18575
X46934Y19075
X46434Y18575
X45934Y19075
X45934Y19575
X45434Y20575
X44934Y20085
X44534Y18875
X44104Y17865
X43314Y17635
X43134Y18775
X43734Y18775
X42844Y19975
X42424Y19185
X42240Y18951
X42454Y18675
X40934Y20075
X40834Y20575
X40934Y21075
X42294Y21345
X42224Y21675
X42424Y22075
X43174Y21655
X43364Y21875
X43554Y22075
X42894Y21345
X44934Y21075
X44934Y21675
X45434Y21575
X45934Y22575
X47584Y20615
X48234Y20675
X48434Y21075
X48434Y24275
X48434Y25275
X47434Y25275
X47434Y25775
X47434Y26275
X48434Y26275
X48434Y27775
X47554Y27925
X47364Y28205
X47764Y28475
X48434Y28775
X46934Y29275
X46434Y28775
X45934Y29275
X45934Y29775
X45434Y30775
X44934Y30285
X44934Y31275
X44934Y31875
X45434Y31775
X45934Y32775
X47584Y30815
X48234Y30875
X48434Y31275
X48434Y34475
X48434Y35475
X47434Y35475
X47434Y35975
X47434Y36475
X48434Y36475
X48434Y37975
X47554Y38125
X47364Y38405
X47764Y38675
X48434Y38975
X46934Y39475
X46434Y38975
X45934Y39475
X45934Y39975
X45434Y40975
X44934Y40485
X44934Y41475
X44934Y42075
X45434Y41975
X45934Y42975
X47584Y41015
X48234Y41075
X48434Y41475
X48434Y44675
X48434Y45675
X47434Y45675
X47434Y46175
X47434Y46675
X48434Y46675
X48434Y48175
X47554Y48325
X47364Y48605
X47764Y48875
X48434Y49175
X46934Y49675
X46434Y49175
X45934Y49675
X45934Y50175
X45434Y51175
X44934Y50685
X44934Y51675
X44934Y52275
X45434Y52175
X45934Y53175
X47584Y51215
X48234Y51275
X48434Y51675
X48434Y54875
X48434Y55875
X47434Y55875
X47434Y56375
X47434Y56875
X48434Y56875
X48434Y58375
X47554Y58525
X47364Y58805
X47764Y59075
X48434Y59375
X46934Y59875
X46434Y59375
X45934Y59875
X45934Y60375
X45434Y61375
X44934Y60885
X44934Y61875
X44934Y62475
X45434Y62375
X45934Y63375
X47584Y61415
X48234Y61475
X48434Y61875
X48434Y65075
X48434Y66075
X47434Y66075
X47434Y66575
X47434Y67075
X48434Y67075
X48434Y68575
X47554Y68725
X47364Y69005
X47764Y69275
X48434Y69575
X46934Y70075
X46434Y69575
X45934Y70075
X45934Y70575
X45434Y71575
X44934Y71085
X44534Y69875
X44104Y68865
X43314Y68635
X43134Y69775
X43734Y69775
X42844Y70975
X42424Y70185
X42240Y69951
X42454Y69675
X40934Y71075
X40834Y71575
X40934Y72075
X42294Y72345
X42224Y72675
X42424Y73075
X43174Y72655
X43364Y72875
X43554Y73075
X42894Y72345
X44934Y72075
X44934Y72675
X45434Y72575
X45934Y73575
X47584Y71615
X48234Y71675
X48434Y72075
X46434Y67075
X46434Y66575
X46434Y66075
X45434Y66075
X45434Y66575
X45434Y67075
X44434Y67075
X44434Y66575
X44434Y66075
X43434Y66075
X43434Y66575
X43434Y67075
X42434Y67075
X42434Y66575
X42434Y66075
X41434Y66075
X41434Y66575
X41434Y67075
X40434Y67085
X40434Y66585
X40434Y66085
X39434Y66075
X39434Y66575
X39434Y67075
X38434Y67075
X38434Y66075
X37234Y66075
X36234Y66075
X36234Y66575
X36234Y67075
X37234Y67075
X37234Y68575
X36354Y68725
X36164Y69005
X36564Y69275
X37234Y69575
X38434Y69575
X38434Y68575
X39134Y68975
X39434Y69275
X39434Y68475
X40494Y68485
X40694Y69315
X40434Y69675
X39434Y71575
X38434Y71075
X38434Y72075
X37234Y72075
X37034Y71675
X36384Y71615
X35734Y70075
X35234Y69575
X34734Y70075
X34734Y70575
X34234Y71575
X33734Y71085
X33334Y69875
X32904Y68865
X32114Y68635
X31934Y69775
X32534Y69775
X31644Y70975
X31224Y70185
X31040Y69951
X31254Y69675
X29734Y71075
X29634Y71575
X29734Y72075
X31094Y72345
X31024Y72675
X31224Y73075
X31974Y72655
X32164Y72875
X32354Y73075
X31694Y72345
X33734Y72075
X33734Y72675
X34234Y72575
X34734Y73575
X34234Y67075
X34234Y66575
X34234Y66075
X33234Y66075
X33234Y66575
X33234Y67075
X32234Y67075
X32234Y66575
X32234Y66075
X31234Y66075
X31234Y66575
X31234Y67075
X30234Y67075
X30234Y66575
X30234Y66075
X29234Y66085
X29234Y66585
X29234Y67085
X28234Y67075
X28234Y66575
X28234Y66075
X27234Y66075
X27234Y67075
X26034Y67075
X25034Y67075
X25034Y66575
X25034Y66075
X26034Y66075
X26034Y65075
X24034Y66075
X24034Y66575
X24034Y67075
X23034Y67075
X23034Y66575
X23034Y66075
X22034Y66075
X22034Y66575
X22034Y67075
X21034Y67075
X21034Y66575
X21034Y66075
X20034Y66075
X20034Y66575
X20034Y67075
X19034Y67075
X19034Y66575
X19034Y66075
X18034Y66085
X18034Y66585
X18034Y67085
X17034Y67075
X17034Y66575
X17034Y66075
X16034Y66075
X16034Y67075
X14834Y67075
X14834Y66075
X14834Y65075
X13834Y66075
X13834Y66575
X13834Y67075
X12834Y67075
X12834Y66575
X12834Y66075
X11834Y66075
X11834Y66575
X11834Y67075
X10834Y67075
X10834Y66575
X10834Y66075
X9834Y66075
X9834Y66575
X9834Y67075
X8834Y67075
X8834Y66575
X8834Y66075
X7834Y66075
X7834Y66575
X7834Y67075
X6834Y67085
X6834Y66585
X6834Y66085
X5834Y66075
X5834Y66575
X5834Y67075
X4834Y67075
X4834Y66075
X4834Y68575
X5534Y68975
X5834Y69275
X5834Y68475
X4834Y69575
X4834Y71075
X5834Y71575
X4834Y72075
X6834Y69675
X7094Y69315
X6894Y68485
X8640Y69951
X8824Y70185
X8854Y69675
X9244Y70975
X9534Y69775
X10134Y69775
X10934Y69875
X10504Y68865
X9714Y68635
X11334Y71085
X11834Y71575
X11334Y72075
X11334Y72675
X11834Y72575
X12334Y73575
X13984Y71615
X14634Y71675
X14834Y72075
X16034Y72075
X17034Y71575
X16034Y71075
X16034Y69575
X16734Y68975
X17034Y69275
X17034Y68475
X16034Y68575
X14834Y68575
X14834Y69575
X14164Y69275
X13764Y69005
X13954Y68725
X12834Y69575
X12334Y70075
X12334Y70575
X13334Y70075
X9954Y73075
X9764Y72875
X9574Y72655
X9294Y72345
X8694Y72345
X8624Y72675
X8824Y73075
X7334Y72075
X7234Y71575
X7334Y71075
X12334Y63375
X11834Y62375
X11334Y62475
X11334Y61875
X11834Y61375
X11334Y60885
X12334Y60375
X12334Y59875
X12834Y59375
X13334Y59875
X14164Y59075
X13764Y58805
X13954Y58525
X14834Y58375
X14834Y59375
X16034Y59375
X16734Y58775
X17034Y59075
X17034Y58275
X16034Y58375
X16034Y56875
X16034Y55875
X17034Y55875
X17034Y56375
X17034Y56875
X18034Y56885
X18034Y56385
X18034Y55885
X19034Y55875
X19034Y56375
X19034Y56875
X20034Y56875
X20034Y56375
X20034Y55875
X21034Y55875
X21034Y56375
X21034Y56875
X22034Y56875
X22034Y56375
X22034Y55875
X23034Y55875
X23034Y56375
X23034Y56875
X24034Y56875
X24034Y56375
X24034Y55875
X25034Y55875
X25034Y56375
X25034Y56875
X26034Y56875
X26034Y55875
X26034Y54875
X27234Y55875
X27234Y56875
X28234Y56875
X28234Y56375
X28234Y55875
X29234Y55885
X29234Y56385
X29234Y56885
X30234Y56875
X30234Y56375
X30234Y55875
X31234Y55875
X31234Y56375
X31234Y56875
X32234Y56875
X32234Y56375
X32234Y55875
X33234Y55875
X33234Y56375
X33234Y56875
X34234Y56875
X34234Y56375
X34234Y55875
X35234Y55875
X35234Y56375
X35234Y56875
X36234Y56875
X36234Y56375
X36234Y55875
X37234Y55875
X37234Y56875
X38434Y56875
X38434Y55875
X39434Y55875
X39434Y56375
X39434Y56875
X40434Y56885
X40434Y56385
X40434Y55885
X41434Y55875
X41434Y56375
X41434Y56875
X42434Y56875
X42434Y56375
X42434Y55875
X43434Y55875
X43434Y56375
X43434Y56875
X44434Y56875
X44434Y56375
X44434Y55875
X45434Y55875
X45434Y56375
X45434Y56875
X46434Y56875
X46434Y56375
X46434Y55875
X44104Y58665
X43314Y58435
X43134Y59575
X43734Y59575
X44534Y59675
X42844Y60775
X42424Y59985
X42240Y59751
X42454Y59475
X40934Y60875
X40834Y61375
X40934Y61875
X42294Y62145
X42224Y62475
X42424Y62875
X43174Y62455
X43364Y62675
X43554Y62875
X42894Y62145
X40434Y59475
X40694Y59115
X40494Y58285
X39434Y58275
X39134Y58775
X39434Y59075
X38434Y59375
X38434Y58375
X37234Y58375
X36354Y58525
X36164Y58805
X36564Y59075
X37234Y59375
X35734Y59875
X35234Y59375
X34734Y59875
X34734Y60375
X34234Y61375
X33734Y60885
X33734Y61875
X33734Y62475
X34234Y62375
X34734Y63375
X36384Y61415
X37034Y61475
X37234Y61875
X38434Y61875
X38434Y60875
X39434Y61375
X37234Y65075
X35234Y66075
X35234Y66575
X35234Y67075
X32354Y62875
X32164Y62675
X31974Y62455
X31694Y62145
X31094Y62145
X31024Y62475
X31224Y62875
X29734Y61875
X29634Y61375
X29734Y60875
X29234Y59475
X29494Y59115
X29294Y58285
X28234Y58275
X27934Y58775
X28234Y59075
X27234Y59375
X27234Y58375
X26034Y58375
X25154Y58525
X24964Y58805
X25364Y59075
X26034Y59375
X24534Y59875
X24034Y59375
X23534Y59875
X23534Y60375
X23034Y61375
X22534Y60885
X22534Y61875
X22534Y62475
X23034Y62375
X23534Y63375
X25184Y61415
X25834Y61475
X26034Y61875
X27234Y61875
X27234Y60875
X28234Y61375
X31040Y59751
X31224Y59985
X31254Y59475
X31934Y59575
X32534Y59575
X32904Y58665
X32114Y58435
X33334Y59675
X31644Y60775
X29294Y68485
X29494Y69315
X29234Y69675
X28234Y69275
X27934Y68975
X28234Y68475
X27234Y68575
X27234Y69575
X26034Y69575
X25364Y69275
X24964Y69005
X25154Y68725
X26034Y68575
X24534Y70075
X24034Y69575
X23534Y70075
X23534Y70575
X23034Y71575
X22534Y71085
X22134Y69875
X21334Y69775
X21704Y68865
X20914Y68635
X20734Y69775
X20054Y69675
X19840Y69951
X20024Y70185
X20444Y70975
X20494Y72345
X20774Y72655
X20964Y72875
X21154Y73075
X20024Y73075
X19824Y72675
X19894Y72345
X18534Y72075
X18434Y71575
X18534Y71075
X18034Y69675
X18294Y69315
X18094Y68485
X20024Y62875
X19824Y62475
X19894Y62145
X20494Y62145
X20774Y62455
X20964Y62675
X21154Y62875
X20444Y60775
X20024Y59985
X19840Y59751
X20054Y59475
X20734Y59575
X20914Y58435
X21704Y58665
X21334Y59575
X22134Y59675
X18534Y60875
X18434Y61375
X18534Y61875
X17034Y61375
X16034Y61875
X16034Y60875
X14834Y61875
X14634Y61475
X13984Y61415
X10934Y59675
X10134Y59575
X9534Y59575
X9714Y58435
X10504Y58665
X10834Y56875
X10834Y56375
X10834Y55875
X11834Y55875
X11834Y56375
X11834Y56875
X12834Y56875
X12834Y56375
X12834Y55875
X13834Y55875
X13834Y56375
X13834Y56875
X14834Y56875
X14834Y55875
X14834Y54875
X14834Y51675
X14634Y51275
X13984Y51215
X13334Y49675
X12834Y49175
X12334Y49675
X12334Y50175
X11334Y50685
X11834Y51175
X11334Y51675
X11334Y52275
X11834Y52175
X12334Y53175
X9954Y52675
X9764Y52475
X9574Y52255
X9294Y51945
X8694Y51945
X8624Y52275
X8824Y52675
X7334Y51675
X7234Y51175
X7334Y50675
X6834Y49275
X7094Y48915
X6894Y48085
X5834Y48075
X5534Y48575
X5834Y48875
X4834Y49175
X4834Y48175
X4834Y46675
X4834Y45675
X5834Y45675
X5834Y46175
X5834Y46675
X6834Y46685
X6834Y46185
X6834Y45685
X7834Y45675
X7834Y46175
X7834Y46675
X8834Y46675
X8834Y46175
X8834Y45675
X9834Y45675
X9834Y46175
X9834Y46675
X10834Y46675
X10834Y46175
X10834Y45675
X11834Y45675
X11834Y46175
X11834Y46675
X12834Y46675
X12834Y46175
X12834Y45675
X13834Y45675
X13834Y46175
X13834Y46675
X14834Y46675
X14834Y45675
X14834Y44675
X16034Y45675
X16034Y46675
X17034Y46675
X17034Y46175
X17034Y45675
X18034Y45685
X18034Y46185
X18034Y46685
X19034Y46675
X19034Y46175
X19034Y45675
X20034Y45675
X20034Y46175
X20034Y46675
X21034Y46675
X21034Y46175
X21034Y45675
X22034Y45675
X22034Y46175
X22034Y46675
X23034Y46675
X23034Y46175
X23034Y45675
X24034Y45675
X24034Y46175
X24034Y46675
X25034Y46675
X25034Y46175
X25034Y45675
X26034Y45675
X26034Y44675
X27234Y45675
X27234Y46675
X28234Y46675
X28234Y46175
X28234Y45675
X29234Y45685
X29234Y46185
X29234Y46685
X30234Y46675
X30234Y46175
X30234Y45675
X31234Y45675
X31234Y46175
X31234Y46675
X32234Y46675
X32234Y46175
X32234Y45675
X33234Y45675
X33234Y46175
X33234Y46675
X34234Y46675
X34234Y46175
X34234Y45675
X35234Y45675
X35234Y46175
X35234Y46675
X36234Y46675
X36234Y46175
X36234Y45675
X37234Y45675
X37234Y44675
X38434Y45675
X38434Y46675
X39434Y46675
X39434Y46175
X39434Y45675
X40434Y45685
X40434Y46185
X40434Y46685
X41434Y46675
X41434Y46175
X41434Y45675
X42434Y45675
X42434Y46175
X42434Y46675
X43434Y46675
X43434Y46175
X43434Y45675
X44434Y45675
X44434Y46175
X44434Y46675
X45434Y46675
X45434Y46175
X45434Y45675
X46434Y45675
X46434Y46175
X46434Y46675
X44104Y48465
X43314Y48235
X43134Y49375
X43734Y49375
X42844Y50575
X42424Y49785
X42240Y49551
X42454Y49275
X40934Y50675
X40834Y51175
X40934Y51675
X42294Y51945
X42224Y52275
X42424Y52675
X43174Y52255
X43364Y52475
X43554Y52675
X42894Y51945
X44534Y49475
X40694Y48915
X40434Y49275
X40494Y48085
X39434Y48075
X39134Y48575
X39434Y48875
X38434Y49175
X38434Y48175
X37234Y48175
X36354Y48325
X36164Y48605
X36564Y48875
X37234Y49175
X35734Y49675
X35234Y49175
X34734Y49675
X34734Y50175
X34234Y51175
X33734Y50685
X33734Y51675
X33734Y52275
X34234Y52175
X34734Y53175
X36384Y51215
X37034Y51275
X37234Y51675
X38434Y51675
X38434Y50675
X39434Y51175
X37234Y54875
X33334Y49475
X32534Y49375
X31934Y49375
X31254Y49275
X31040Y49551
X31224Y49785
X31644Y50575
X31694Y51945
X31974Y52255
X32164Y52475
X32354Y52675
X31224Y52675
X31024Y52275
X31094Y51945
X29734Y51675
X29634Y51175
X29734Y50675
X29234Y49275
X29494Y48915
X29294Y48085
X28234Y48075
X27934Y48575
X28234Y48875
X27234Y49175
X27234Y48175
X26034Y48175
X25154Y48325
X24964Y48605
X25364Y48875
X26034Y49175
X24534Y49675
X24034Y49175
X23534Y49675
X23534Y50175
X22534Y50685
X23034Y51175
X22534Y51675
X22534Y52275
X23034Y52175
X23534Y53175
X25184Y51215
X25834Y51275
X26034Y51675
X27234Y51675
X27234Y50675
X28234Y51175
X26034Y46675
X23534Y42975
X23034Y41975
X22534Y42075
X22534Y41475
X23034Y40975
X22534Y40485
X23534Y39975
X23534Y39475
X24034Y38975
X24534Y39475
X25364Y38675
X24964Y38405
X25154Y38125
X26034Y37975
X26034Y36475
X25034Y36475
X25034Y35975
X25034Y35475
X26034Y35475
X26034Y34475
X27234Y35475
X27234Y36475
X27234Y37975
X27934Y38375
X28234Y38675
X28234Y37875
X28234Y36475
X28234Y35975
X28234Y35475
X29234Y35485
X29234Y35985
X29234Y36485
X29294Y37885
X29494Y38715
X29234Y39075
X29734Y40475
X29634Y40975
X29734Y41475
X31094Y41745
X31024Y42075
X31224Y42475
X31974Y42055
X32164Y42275
X32354Y42475
X31694Y41745
X31644Y40375
X31224Y39585
X31040Y39351
X31254Y39075
X31934Y39175
X32534Y39175
X32904Y38265
X32114Y38035
X32234Y36475
X32234Y35975
X32234Y35475
X31234Y35475
X31234Y35975
X31234Y36475
X30234Y36475
X30234Y35975
X30234Y35475
X31224Y32275
X31024Y31875
X31094Y31545
X31694Y31545
X31974Y31855
X32164Y32075
X32354Y32275
X33734Y31875
X34234Y31775
X33734Y31275
X34234Y30775
X33734Y30285
X34734Y29775
X34734Y29275
X35234Y28775
X35734Y29275
X36564Y28475
X36164Y28205
X36354Y27925
X37234Y27775
X37234Y28775
X38434Y28775
X38434Y27775
X39134Y28175
X39434Y28475
X39434Y27675
X40494Y27685
X40694Y28515
X40434Y28875
X40934Y30275
X40834Y30775
X40934Y31275
X42294Y31545
X42224Y31875
X42424Y32275
X43174Y31855
X43364Y32075
X43554Y32275
X42894Y31545
X42844Y30175
X42424Y29385
X42240Y29151
X42454Y28875
X43134Y28975
X43734Y28975
X44104Y28065
X43314Y27835
X43434Y26275
X43434Y25775
X43434Y25275
X42434Y25275
X42434Y25775
X42434Y26275
X41434Y26275
X41434Y25775
X41434Y25275
X40434Y25285
X40434Y25785
X40434Y26285
X39434Y26275
X39434Y25775
X39434Y25275
X38434Y25275
X38434Y26275
X37234Y26275
X36234Y26275
X36234Y25775
X36234Y25275
X37234Y25275
X37234Y24275
X35234Y25275
X35234Y25775
X35234Y26275
X34234Y26275
X34234Y25775
X34234Y25275
X33234Y25275
X33234Y25775
X33234Y26275
X32234Y26275
X32234Y25775
X32234Y25275
X31234Y25275
X31234Y25775
X31234Y26275
X30234Y26275
X30234Y25775
X30234Y25275
X29234Y25285
X29234Y25785
X29234Y26285
X28234Y26275
X28234Y25775
X28234Y25275
X27234Y25275
X27234Y26275
X26034Y26275
X25034Y26275
X25034Y25775
X25034Y25275
X26034Y25275
X26034Y24275
X24034Y25275
X24034Y25775
X24034Y26275
X23034Y26275
X23034Y25775
X23034Y25275
X22034Y25275
X22034Y25775
X22034Y26275
X21034Y26275
X21034Y25775
X21034Y25275
X20034Y25275
X20034Y25775
X20034Y26275
X19034Y26275
X19034Y25775
X19034Y25275
X18034Y25285
X18034Y25785
X18034Y26285
X17034Y26275
X17034Y25775
X17034Y25275
X16034Y25275
X16034Y26275
X14834Y26275
X14834Y25275
X13834Y25275
X13834Y25775
X13834Y26275
X12834Y26275
X12834Y25775
X12834Y25275
X11834Y25275
X11834Y25775
X11834Y26275
X10834Y26275
X10834Y25775
X10834Y25275
X9834Y25275
X9834Y25775
X9834Y26275
X8834Y26275
X8834Y25775
X8834Y25275
X7834Y25275
X7834Y25775
X7834Y26275
X6834Y26285
X6834Y25785
X6834Y25285
X5834Y25275
X5834Y25775
X5834Y26275
X4834Y26275
X4834Y25275
X4834Y27775
X5534Y28175
X5834Y28475
X5834Y27675
X4834Y28775
X4834Y30275
X4834Y31275
X5834Y30775
X7234Y30775
X7334Y31275
X7334Y30275
X6834Y28875
X7094Y28515
X6894Y27685
X8640Y29151
X8824Y29385
X8854Y28875
X9534Y28975
X10134Y28975
X10934Y29075
X10504Y28065
X9714Y27835
X9244Y30175
X9294Y31545
X9574Y31855
X9764Y32075
X9954Y32275
X8824Y32275
X8624Y31875
X8694Y31545
X11334Y31275
X11334Y31875
X11834Y31775
X11834Y30775
X11334Y30285
X12334Y29775
X12334Y29275
X12834Y28775
X13334Y29275
X14164Y28475
X13764Y28205
X13954Y27925
X14834Y27775
X14834Y28775
X16034Y28775
X16734Y28175
X17034Y28475
X17034Y27675
X16034Y27775
X18094Y27685
X18294Y28515
X18034Y28875
X18534Y30275
X18434Y30775
X18534Y31275
X19894Y31545
X19824Y31875
X20024Y32275
X20494Y31545
X20774Y31855
X20964Y32075
X21154Y32275
X20444Y30175
X20024Y29385
X19840Y29151
X20054Y28875
X20734Y28975
X20914Y27835
X21704Y28065
X21334Y28975
X22134Y29075
X22534Y30285
X23034Y30775
X22534Y31275
X22534Y31875
X23034Y31775
X23534Y32775
X25184Y30815
X25834Y30875
X26034Y31275
X27234Y31275
X27234Y30275
X28234Y30775
X29634Y30775
X29734Y31275
X29734Y30275
X29234Y28875
X29494Y28515
X29294Y27685
X28234Y27675
X27934Y28175
X28234Y28475
X27234Y28775
X27234Y27775
X26034Y27775
X25154Y27925
X24964Y28205
X25364Y28475
X26034Y28775
X24534Y29275
X24034Y28775
X23534Y29275
X23534Y29775
X23034Y35475
X23034Y35975
X23034Y36475
X22034Y36475
X22034Y35975
X22034Y35475
X21034Y35475
X21034Y35975
X21034Y36475
X20914Y38035
X21704Y38265
X21334Y39175
X22134Y39275
X20734Y39175
X20054Y39075
X19840Y39351
X20024Y39585
X20444Y40375
X20494Y41745
X20774Y42055
X20964Y42275
X21154Y42475
X20024Y42475
X19824Y42075
X19894Y41745
X18534Y41475
X18434Y40975
X18534Y40475
X18034Y39075
X18294Y38715
X18094Y37885
X18034Y36485
X18034Y35985
X18034Y35485
X17034Y35475
X17034Y35975
X17034Y36475
X16034Y36475
X16034Y37975
X16734Y38375
X17034Y38675
X17034Y37875
X16034Y38975
X14834Y38975
X14164Y38675
X13764Y38405
X13954Y38125
X13334Y39475
X12834Y38975
X12334Y39475
X12334Y39975
X11834Y40975
X11334Y40485
X11334Y41475
X11334Y42075
X11834Y41975
X12334Y42975
X13984Y41015
X14634Y41075
X14834Y41475
X16034Y41475
X16034Y40475
X17034Y40975
X14834Y37975
X14834Y36475
X13834Y36475
X13834Y35975
X13834Y35475
X12834Y35475
X12834Y35975
X12834Y36475
X11834Y36475
X11834Y35975
X11834Y35475
X10834Y35475
X10834Y35975
X10834Y36475
X9834Y36475
X9834Y35975
X9834Y35475
X8834Y35475
X8834Y35975
X8834Y36475
X7834Y36475
X7834Y35975
X7834Y35475
X6834Y35485
X6834Y35985
X6834Y36485
X6894Y37885
X7094Y38715
X6834Y39075
X5834Y38675
X5534Y38375
X5834Y37875
X4834Y37975
X4834Y36475
X5834Y36475
X5834Y35975
X5834Y35475
X4834Y35475
X4834Y38975
X4834Y40475
X4834Y41475
X5834Y40975
X7234Y40975
X7334Y40475
X7334Y41475
X8694Y41745
X8624Y42075
X8824Y42475
X9294Y41745
X9574Y42055
X9764Y42275
X9954Y42475
X9244Y40375
X8824Y39585
X8640Y39351
X8854Y39075
X9534Y39175
X10134Y39175
X10934Y39275
X10504Y38265
X9714Y38035
X12334Y32775
X13984Y30815
X14634Y30875
X14834Y31275
X16034Y31275
X16034Y30275
X17034Y30775
X14834Y34475
X14834Y35475
X16034Y35475
X19034Y35475
X19034Y35975
X19034Y36475
X20034Y36475
X20034Y35975
X20034Y35475
X24034Y35475
X24034Y35975
X24034Y36475
X26034Y38975
X27234Y38975
X27234Y40475
X27234Y41475
X28234Y40975
X26034Y41475
X25834Y41075
X25184Y41015
X21704Y48465
X20914Y48235
X20734Y49375
X20054Y49275
X19840Y49551
X20024Y49785
X20444Y50575
X20494Y51945
X20774Y52255
X20964Y52475
X21154Y52675
X20024Y52675
X19824Y52275
X19894Y51945
X18534Y51675
X18434Y51175
X18534Y50675
X18034Y49275
X18294Y48915
X18094Y48085
X17034Y48075
X16734Y48575
X17034Y48875
X16034Y49175
X16034Y48175
X14834Y48175
X14834Y49175
X14164Y48875
X13764Y48605
X13954Y48325
X16034Y50675
X16034Y51675
X17034Y51175
X21334Y49375
X22134Y49475
X18094Y58285
X18294Y59115
X18034Y59475
X10934Y49475
X10134Y49375
X9534Y49375
X9244Y50575
X8824Y49785
X8640Y49551
X8854Y49275
X9714Y48235
X10504Y48465
X5834Y51175
X4834Y50675
X4834Y51675
X4834Y55875
X4834Y56875
X5834Y56875
X5834Y56375
X5834Y55875
X6834Y55885
X6834Y56385
X6834Y56885
X7834Y56875
X7834Y56375
X7834Y55875
X8834Y55875
X8834Y56375
X8834Y56875
X9834Y56875
X9834Y56375
X9834Y55875
X8854Y59475
X8640Y59751
X8824Y59985
X9244Y60775
X9294Y62145
X9574Y62455
X9764Y62675
X9954Y62875
X8824Y62875
X8624Y62475
X8694Y62145
X7334Y61875
X7234Y61375
X7334Y60875
X6834Y59475
X7094Y59115
X6894Y58285
X5834Y58275
X5534Y58775
X5834Y59075
X4834Y59375
X4834Y58375
X4834Y60875
X4834Y61875
X5834Y61375
X22534Y72075
X22534Y72675
X23034Y72575
X23534Y73575
X25184Y71615
X25834Y71675
X26034Y72075
X27234Y72075
X27234Y71075
X28234Y71575
X32904Y48465
X32114Y48235
X34734Y42975
X34234Y41975
X33734Y42075
X33734Y41475
X34234Y40975
X33734Y40485
X34734Y39975
X34734Y39475
X35234Y38975
X35734Y39475
X36564Y38675
X36164Y38405
X36354Y38125
X37234Y37975
X37234Y36475
X36234Y36475
X36234Y35975
X36234Y35475
X37234Y35475
X37234Y34475
X38434Y35475
X38434Y36475
X38434Y37975
X39134Y38375
X39434Y38675
X39434Y37875
X39434Y36475
X39434Y35975
X39434Y35475
X40434Y35485
X40434Y35985
X40434Y36485
X41434Y36475
X41434Y35975
X41434Y35475
X42434Y35475
X42434Y35975
X42434Y36475
X43434Y36475
X43434Y35975
X43434Y35475
X44434Y35475
X44434Y35975
X44434Y36475
X45434Y36475
X45434Y35975
X45434Y35475
X46434Y35475
X46434Y35975
X46434Y36475
X44534Y39275
X44104Y38265
X43314Y38035
X43134Y39175
X43734Y39175
X42844Y40375
X42424Y39585
X42240Y39351
X42454Y39075
X40934Y40475
X40834Y40975
X40934Y41475
X42294Y41745
X42224Y42075
X42424Y42475
X43174Y42055
X43364Y42275
X43554Y42475
X42894Y41745
X40434Y39075
X40694Y38715
X40494Y37885
X38434Y38975
X37234Y38975
X38434Y40475
X38434Y41475
X39434Y40975
X37234Y41475
X37034Y41075
X36384Y41015
X33334Y39275
X33234Y36475
X33234Y35975
X33234Y35475
X34234Y35475
X34234Y35975
X34234Y36475
X35234Y36475
X35234Y35975
X35234Y35475
X34734Y32775
X36384Y30815
X37034Y30875
X37234Y31275
X38434Y31275
X38434Y30275
X39434Y30775
X44534Y29075
X44434Y26275
X44434Y25775
X44434Y25275
X45434Y25275
X45434Y25775
X45434Y26275
X46434Y26275
X46434Y25775
X46434Y25275
X40434Y18675
X40694Y18315
X40494Y17485
X39434Y17475
X39134Y17975
X39434Y18275
X38434Y18575
X38434Y17575
X37234Y17575
X36354Y17725
X36164Y18005
X36564Y18275
X37234Y18575
X35734Y19075
X35234Y18575
X34734Y19075
X34734Y19575
X34234Y20575
X33734Y20085
X33334Y18875
X32904Y17865
X32114Y17635
X31934Y18775
X32534Y18775
X31644Y19975
X31224Y19185
X31040Y18951
X31254Y18675
X29734Y20075
X29634Y20575
X29734Y21075
X31094Y21345
X31024Y21675
X31224Y22075
X31974Y21655
X32164Y21875
X32354Y22075
X31694Y21345
X33734Y21075
X33734Y21675
X34234Y21575
X34734Y22575
X36384Y20615
X37034Y20675
X37234Y21075
X38434Y21075
X38434Y20075
X39434Y20575
X39434Y16075
X39434Y15575
X39434Y15075
X38434Y15075
X38434Y16075
X37234Y16075
X36234Y16075
X36234Y15575
X36234Y15075
X37234Y15075
X37234Y14075
X35234Y15075
X35234Y15575
X35234Y16075
X34234Y16075
X34234Y15575
X34234Y15075
X33234Y15075
X33234Y15575
X33234Y16075
X32234Y16075
X32234Y15575
X32234Y15075
X31234Y15075
X31234Y15575
X31234Y16075
X30234Y16075
X30234Y15575
X30234Y15075
X29234Y15085
X29234Y15585
X29234Y16085
X28234Y16075
X28234Y15575
X28234Y15075
X27234Y15075
X27234Y16075
X26034Y16075
X25034Y16075
X25034Y15575
X25034Y15075
X26034Y15075
X26034Y14075
X24034Y15075
X24034Y15575
X24034Y16075
X23034Y16075
X23034Y15575
X23034Y15075
X22034Y15075
X22034Y15575
X22034Y16075
X21034Y16075
X21034Y15575
X21034Y15075
X20034Y15075
X20034Y15575
X20034Y16075
X19034Y16075
X19034Y15575
X19034Y15075
X18034Y15085
X18034Y15585
X18034Y16085
X17034Y16075
X17034Y15575
X17034Y15075
X16034Y15075
X16034Y16075
X14834Y16075
X14834Y15075
X14834Y14075
X13834Y15075
X13834Y15575
X13834Y16075
X12834Y16075
X12834Y15575
X12834Y15075
X11834Y15075
X11834Y15575
X11834Y16075
X10834Y16075
X10834Y15575
X10834Y15075
X9834Y15075
X9834Y15575
X9834Y16075
X8834Y16075
X8834Y15575
X8834Y15075
X7834Y15075
X7834Y15575
X7834Y16075
X6834Y16085
X6834Y15585
X6834Y15085
X5834Y15075
X5834Y15575
X5834Y16075
X4834Y16075
X4834Y15075
X4834Y17575
X5534Y17975
X5834Y18275
X5834Y17475
X4834Y18575
X4834Y20075
X5834Y20575
X4834Y21075
X6834Y18675
X7094Y18315
X6894Y17485
X8640Y18951
X8824Y19185
X8854Y18675
X9244Y19975
X9534Y18775
X10134Y18775
X10934Y18875
X10504Y17865
X9714Y17635
X11334Y20085
X11834Y20575
X11334Y21075
X11334Y21675
X11834Y21575
X12334Y22575
X13984Y20615
X14634Y20675
X14834Y21075
X16034Y21075
X17034Y20575
X16034Y20075
X16034Y18575
X16734Y17975
X17034Y18275
X17034Y17475
X16034Y17575
X14834Y17575
X14834Y18575
X14164Y18275
X13764Y18005
X13954Y17725
X12834Y18575
X12334Y19075
X12334Y19575
X13334Y19075
X9954Y22075
X9764Y21875
X9574Y21655
X9294Y21345
X8694Y21345
X8624Y21675
X8824Y22075
X7334Y21075
X7234Y20575
X7334Y20075
X8824Y11875
X8624Y11475
X8694Y11145
X9294Y11145
X9574Y11455
X9764Y11675
X9954Y11875
X9244Y9775
X8824Y8985
X8640Y8751
X8854Y8475
X9534Y8575
X10134Y8575
X10934Y8675
X10504Y7665
X9714Y7435
X7334Y9875
X7234Y10375
X7334Y10875
X5834Y10375
X4834Y10875
X4834Y9875
X4834Y8375
X5534Y7775
X5834Y8075
X5834Y7275
X4834Y7375
X6894Y7285
X7094Y8115
X6834Y8475
X14834Y3875
X20054Y8475
X19840Y8751
X20024Y8985
X20734Y8575
X20914Y7435
X21704Y7665
X21334Y8575
X22134Y8675
X22534Y9885
X23034Y10375
X22534Y10875
X22534Y11475
X23034Y11375
X23534Y12375
X25184Y10415
X25834Y10475
X26034Y10875
X27234Y10875
X27234Y9875
X28234Y10375
X29234Y8475
X29494Y8115
X29294Y7285
X28234Y7275
X27934Y7775
X28234Y8075
X27234Y8375
X27234Y7375
X26034Y7375
X25154Y7525
X24964Y7805
X25364Y8075
X26034Y8375
X24534Y8875
X24034Y8375
X23534Y8875
X23534Y9375
X20964Y11675
X21154Y11875
X20774Y11455
X20494Y11145
X19894Y11145
X19824Y11475
X20024Y11875
X18534Y10875
X18434Y10375
X18534Y9875
X20444Y9775
X20914Y17635
X21704Y17865
X21334Y18775
X22134Y18875
X22534Y20085
X23034Y20575
X22534Y21075
X22534Y21675
X23034Y21575
X23534Y22575
X25184Y20615
X25834Y20675
X26034Y21075
X27234Y21075
X27234Y20075
X28234Y20575
X29234Y18675
X29494Y18315
X29294Y17485
X28234Y17475
X27934Y17975
X28234Y18275
X27234Y18575
X27234Y17575
X26034Y17575
X25154Y17725
X24964Y18005
X25364Y18275
X26034Y18575
X24534Y19075
X24034Y18575
X23534Y19075
X23534Y19575
X20964Y21875
X21154Y22075
X20774Y21655
X20494Y21345
X19894Y21345
X19824Y21675
X20024Y22075
X18534Y21075
X18434Y20575
X18534Y20075
X18034Y18675
X18294Y18315
X18094Y17485
X19840Y18951
X20024Y19185
X20054Y18675
X20734Y18775
X20444Y19975
X14834Y24275
X29734Y10875
X29634Y10375
X29734Y9875
X31040Y8751
X31224Y8985
X31254Y8475
X31934Y8575
X32534Y8575
X32904Y7665
X32114Y7435
X33334Y8675
X31644Y9775
X31694Y11145
X31974Y11455
X32164Y11675
X32354Y11875
X31224Y11875
X31024Y11475
X31094Y11145
X37234Y3875
X42454Y8475
X42240Y8751
X42424Y8985
X43134Y8575
X43734Y8575
X44104Y7665
X43314Y7435
X44534Y8675
X42844Y9775
X42894Y11145
X43174Y11455
X43364Y11675
X43554Y11875
X42424Y11875
X42224Y11475
X42294Y11145
X42434Y15075
X42434Y15575
X42434Y16075
X41434Y16075
X41434Y15575
X41434Y15075
X40434Y15085
X40434Y15585
X40434Y16085
X43434Y16075
X43434Y15575
X43434Y15075
X44434Y15075
X44434Y15575
X44434Y16075
X45434Y16075
X45434Y15575
X45434Y15075
X46434Y15075
X46434Y15575
X46434Y16075
X33334Y29075
X32904Y28065
X32114Y27835
X31934Y28975
X32534Y28975
X31254Y28875
X31040Y29151
X31224Y29385
X31644Y30175
X37234Y46675
T02
X36564Y50045
X35374Y50195
X36564Y60245
X35374Y60395
X36564Y70445
X35374Y70595
X25364Y70445
X24174Y70595
X24174Y60395
X25364Y60245
X24174Y50195
X25364Y50045
X24174Y39995
X25364Y39845
X24174Y29795
X25364Y29645
X24174Y19595
X25364Y19445
X24174Y9395
X25364Y9245
X35374Y9395
X36564Y9245
X36564Y19445
X35374Y19595
X36564Y29645
X35374Y29795
X36564Y39845
X35374Y39995
X46574Y39995
X47764Y39845
X47764Y50045
X46574Y50195
X47764Y60245
X46574Y60395
X47764Y70445
X46574Y70595
X46574Y29795
X47764Y29645
X46574Y19595
X47764Y19445
X46574Y9395
X47764Y9245
X14164Y9245
X12974Y9395
X14164Y19445
X12974Y19595
X14164Y29645
X12974Y29795
X14164Y39845
X12974Y39995
X14164Y50045
X12974Y50195
X14164Y60245
X12974Y60395
X14164Y70445
X12974Y70595
T03
X12334Y71075
X12334Y72075
X12334Y61875
X12334Y60875
X12334Y51675
X12334Y50675
X12334Y41475
X12334Y40475
X12334Y31275
X12334Y30275
X12334Y21075
X12334Y20075
X12334Y10875
X12334Y9875
X23534Y9875
X23534Y10875
X23534Y20075
X23534Y21075
X23534Y30275
X23534Y31275
X23534Y40475
X23534Y41475
X23534Y50675
X23534Y51675
X23534Y60875
X23534Y61875
X23534Y71075
X23534Y72075
X34734Y72075
X34734Y71075
X34734Y61875
X34734Y60875
X34734Y51675
X34734Y50675
X34734Y41475
X34734Y40475
X34734Y31275
X34734Y30275
X34734Y21075
X34734Y20075
X34734Y10875
X34734Y9875
X45934Y9875
X45934Y10875
X45934Y20075
X45934Y21075
X45934Y30275
X45934Y31275
X45934Y40475
X45934Y41475
X45934Y50675
X45934Y51675
X45934Y60875
X45934Y61875
X45934Y71075
X45934Y72075
T04
X44934Y73575
X43934Y73575
X42934Y73575
X41934Y73575
X40934Y73575
X40934Y65575
X41934Y65575
X41934Y64575
X40934Y64575
X40934Y63375
X41934Y63375
X42934Y63375
X42934Y64575
X42934Y65575
X43934Y65575
X44934Y65575
X44934Y64575
X43934Y64575
X43934Y63375
X44934Y63375
X45934Y64575
X45934Y65575
X46934Y65575
X46934Y64575
X46934Y55375
X46934Y54375
X45934Y54375
X45934Y55375
X44934Y55375
X43934Y55375
X43934Y54375
X44934Y54375
X44934Y53175
X43934Y53175
X42934Y53175
X41934Y53175
X40934Y53175
X40934Y54375
X40934Y55375
X41934Y55375
X41934Y54375
X42934Y54375
X42934Y55375
X39934Y55375
X39934Y54375
X35734Y54375
X35734Y55375
X34734Y55375
X34734Y54375
X33734Y54375
X32734Y54375
X32734Y55375
X33734Y55375
X31734Y55375
X31734Y54375
X30734Y54375
X29734Y54375
X29734Y55375
X30734Y55375
X28734Y55375
X28734Y54375
X29734Y53175
X30734Y53175
X31734Y53175
X32734Y53175
X33734Y53175
X33734Y45175
X32734Y45175
X32734Y44175
X33734Y44175
X33734Y42975
X32734Y42975
X31734Y42975
X31734Y44175
X31734Y45175
X30734Y45175
X29734Y45175
X29734Y44175
X30734Y44175
X30734Y42975
X29734Y42975
X28734Y44175
X28734Y45175
X24534Y45175
X24534Y44175
X23534Y44175
X22534Y44175
X22534Y45175
X23534Y45175
X22534Y42975
X21534Y42975
X21534Y44175
X21534Y45175
X20534Y45175
X20534Y44175
X20534Y42975
X19534Y42975
X18534Y42975
X18534Y44175
X18534Y45175
X19534Y45175
X19534Y44175
X17534Y44175
X17534Y45175
X13334Y45175
X13334Y44175
X12334Y44175
X11334Y44175
X11334Y45175
X12334Y45175
X11334Y42975
X10334Y42975
X10334Y44175
X10334Y45175
X9334Y45175
X8334Y45175
X8334Y44175
X9334Y44175
X9334Y42975
X8334Y42975
X7334Y42975
X7334Y44175
X7334Y45175
X6334Y45175
X6334Y44175
X7334Y53175
X8334Y53175
X9334Y53175
X10334Y53175
X11334Y53175
X11334Y54375
X11334Y55375
X12334Y55375
X12334Y54375
X13334Y54375
X13334Y55375
X10334Y55375
X10334Y54375
X9334Y54375
X8334Y54375
X8334Y55375
X9334Y55375
X7334Y55375
X7334Y54375
X6334Y54375
X6334Y55375
X7334Y63375
X7334Y64575
X6334Y64575
X6334Y65575
X7334Y65575
X8334Y65575
X9334Y65575
X9334Y64575
X8334Y64575
X8334Y63375
X9334Y63375
X10334Y63375
X10334Y64575
X10334Y65575
X11334Y65575
X12334Y65575
X12334Y64575
X11334Y64575
X11334Y63375
X13334Y64575
X13334Y65575
X17534Y65575
X17534Y64575
X18534Y64575
X19534Y64575
X19534Y63375
X18534Y63375
X20534Y63375
X20534Y64575
X20534Y65575
X19534Y65575
X18534Y65575
X21534Y65575
X21534Y64575
X21534Y63375
X22534Y63375
X22534Y64575
X23534Y64575
X23534Y65575
X22534Y65575
X24534Y65575
X24534Y64575
X28734Y64575
X28734Y65575
X29734Y65575
X30734Y65575
X30734Y64575
X29734Y64575
X29734Y63375
X30734Y63375
X31734Y63375
X31734Y64575
X31734Y65575
X32734Y65575
X33734Y65575
X33734Y64575
X32734Y64575
X32734Y63375
X33734Y63375
X34734Y64575
X34734Y65575
X35734Y65575
X35734Y64575
X39934Y64575
X39934Y65575
X33734Y73575
X32734Y73575
X31734Y73575
X30734Y73575
X29734Y73575
X22534Y73575
X21534Y73575
X20534Y73575
X19534Y73575
X18534Y73575
X11334Y73575
X10334Y73575
X9334Y73575
X8334Y73575
X7334Y73575
X17534Y55375
X17534Y54375
X18534Y54375
X18534Y55375
X19534Y55375
X19534Y54375
X20534Y54375
X20534Y55375
X21534Y55375
X21534Y54375
X22534Y54375
X22534Y55375
X23534Y55375
X23534Y54375
X24534Y54375
X24534Y55375
X22534Y53175
X21534Y53175
X20534Y53175
X19534Y53175
X18534Y53175
X18534Y34975
X19534Y34975
X19534Y33975
X18534Y33975
X18534Y32775
X19534Y32775
X20534Y32775
X20534Y33975
X20534Y34975
X21534Y34975
X21534Y33975
X21534Y32775
X22534Y32775
X22534Y33975
X23534Y33975
X23534Y34975
X22534Y34975
X24534Y34975
X24534Y33975
X28734Y33975
X28734Y34975
X29734Y34975
X30734Y34975
X30734Y33975
X29734Y33975
X29734Y32775
X30734Y32775
X31734Y32775
X31734Y33975
X31734Y34975
X32734Y34975
X33734Y34975
X33734Y33975
X32734Y33975
X32734Y32775
X33734Y32775
X34734Y33975
X34734Y34975
X35734Y34975
X35734Y33975
X39934Y33975
X39934Y34975
X40934Y34975
X41934Y34975
X41934Y33975
X40934Y33975
X40934Y32775
X41934Y32775
X42934Y32775
X42934Y33975
X42934Y34975
X43934Y34975
X44934Y34975
X44934Y33975
X43934Y33975
X43934Y32775
X44934Y32775
X45934Y33975
X45934Y34975
X46934Y34975
X46934Y33975
X46934Y24775
X46934Y23775
X45934Y23775
X45934Y24775
X44934Y24775
X43934Y24775
X43934Y23775
X44934Y23775
X44934Y22575
X43934Y22575
X42934Y22575
X41934Y22575
X40934Y22575
X40934Y23775
X40934Y24775
X41934Y24775
X41934Y23775
X42934Y23775
X42934Y24775
X39934Y24775
X39934Y23775
X35734Y23775
X35734Y24775
X34734Y24775
X34734Y23775
X33734Y23775
X32734Y23775
X32734Y24775
X33734Y24775
X31734Y24775
X31734Y23775
X30734Y23775
X29734Y23775
X29734Y24775
X30734Y24775
X28734Y24775
X28734Y23775
X29734Y22575
X30734Y22575
X31734Y22575
X32734Y22575
X33734Y22575
X33734Y14575
X32734Y14575
X31734Y14575
X30734Y14575
X29734Y14575
X28734Y14575
X28734Y13575
X29734Y13575
X30734Y13575
X30734Y12375
X29734Y12375
X31734Y12375
X31734Y13575
X32734Y13575
X33734Y13575
X33734Y12375
X32734Y12375
X34734Y13575
X34734Y14575
X35734Y14575
X35734Y13575
X39934Y13575
X39934Y14575
X40934Y14575
X41934Y14575
X41934Y13575
X40934Y13575
X40934Y12375
X41934Y12375
X42934Y12375
X42934Y13575
X42934Y14575
X43934Y14575
X44934Y14575
X44934Y13575
X43934Y13575
X43934Y12375
X44934Y12375
X45934Y13575
X45934Y14575
X46934Y14575
X46934Y13575
X46934Y4375
X46934Y3375
X45934Y3375
X45934Y4375
X44934Y4375
X43934Y4375
X43934Y3375
X44934Y3375
X42934Y3375
X42934Y4375
X41934Y4375
X40934Y4375
X40934Y3375
X41934Y3375
X39934Y3375
X39934Y4375
X35734Y4375
X35734Y3375
X34734Y3375
X34734Y4375
X33734Y4375
X32734Y4375
X32734Y3375
X33734Y3375
X31734Y3375
X31734Y4375
X30734Y4375
X29734Y4375
X29734Y3375
X30734Y3375
X28734Y3375
X28734Y4375
X24534Y4375
X24534Y3375
X23534Y3375
X22534Y3375
X22534Y4375
X23534Y4375
X21534Y4375
X21534Y3375
X20534Y3375
X20534Y4375
X19534Y4375
X18534Y4375
X18534Y3375
X19534Y3375
X17534Y3375
X17534Y4375
X13334Y4375
X13334Y3375
X12334Y3375
X11334Y3375
X11334Y4375
X12334Y4375
X10334Y4375
X10334Y3375
X9334Y3375
X8334Y3375
X8334Y4375
X9334Y4375
X7334Y4375
X7334Y3375
X6334Y3375
X6334Y4375
X7334Y12375
X7334Y13575
X6334Y13575
X6334Y14575
X7334Y14575
X8334Y14575
X9334Y14575
X9334Y13575
X8334Y13575
X8334Y12375
X9334Y12375
X10334Y12375
X10334Y13575
X10334Y14575
X11334Y14575
X12334Y14575
X12334Y13575
X11334Y13575
X11334Y12375
X13334Y13575
X13334Y14575
X17534Y14575
X17534Y13575
X18534Y13575
X19534Y13575
X19534Y12375
X18534Y12375
X20534Y12375
X20534Y13575
X20534Y14575
X19534Y14575
X18534Y14575
X21534Y14575
X21534Y13575
X21534Y12375
X22534Y12375
X22534Y13575
X23534Y13575
X23534Y14575
X22534Y14575
X24534Y14575
X24534Y13575
X22534Y22575
X21534Y22575
X20534Y22575
X19534Y22575
X18534Y22575
X18534Y23775
X18534Y24775
X19534Y24775
X19534Y23775
X20534Y23775
X20534Y24775
X21534Y24775
X21534Y23775
X22534Y23775
X22534Y24775
X23534Y24775
X23534Y23775
X24534Y23775
X24534Y24775
X17534Y24775
X17534Y23775
X13334Y23775
X13334Y24775
X12334Y24775
X11334Y24775
X11334Y23775
X12334Y23775
X11334Y22575
X10334Y22575
X9334Y22575
X8334Y22575
X7334Y22575
X7334Y23775
X7334Y24775
X6334Y24775
X6334Y23775
X8334Y23775
X8334Y24775
X9334Y24775
X9334Y23775
X10334Y23775
X10334Y24775
X10334Y32775
X10334Y33975
X9334Y33975
X8334Y33975
X8334Y32775
X9334Y32775
X7334Y32775
X7334Y33975
X6334Y33975
X6334Y34975
X7334Y34975
X8334Y34975
X9334Y34975
X10334Y34975
X11334Y34975
X12334Y34975
X12334Y33975
X11334Y33975
X11334Y32775
X13334Y33975
X13334Y34975
X17534Y34975
X17534Y33975
X34734Y44175
X34734Y45175
X35734Y45175
X35734Y44175
X39934Y44175
X39934Y45175
X40934Y45175
X40934Y44175
X41934Y44175
X41934Y45175
X42934Y45175
X42934Y44175
X42934Y42975
X41934Y42975
X40934Y42975
X43934Y42975
X44934Y42975
X44934Y44175
X43934Y44175
X43934Y45175
X44934Y45175
X45934Y45175
X45934Y44175
X46934Y44175
X46934Y45175
T05
X47434Y42475
X47434Y32275
X47434Y22075
X47434Y11875
X39434Y11875
X36234Y11875
X36234Y22075
X39434Y22075
X39434Y32275
X36234Y32275
X36234Y42475
X39434Y42475
X39434Y52675
X36234Y52675
X36234Y62875
X39434Y62875
X39434Y73075
X36234Y73075
X28234Y73075
X25034Y73075
X25034Y62875
X28234Y62875
X28234Y52675
X25034Y52675
X25034Y42475
X28234Y42475
X28234Y32275
X25034Y32275
X25034Y22075
X28234Y22075
X28234Y11875
X25034Y11875
X17034Y11875
X13834Y11875
X13834Y22075
X17034Y22075
X17034Y32275
X13834Y32275
X13834Y42475
X17034Y42475
X17034Y52675
X13834Y52675
X13834Y62875
X17034Y62875
X17034Y73075
X13834Y73075
X5834Y73075
X5834Y62875
X5834Y52675
X5834Y42475
X5834Y32275
X5834Y22075
X5834Y11875
X47434Y52675
X47434Y62875
X47434Y73075
M30
